<svg width="378" height="667" viewBox="0 0 378 667" fill="none" xmlns="http://www.w3.org/2000/svg">
<rect width="378" height="667" fill="black"/>
<mask id="mask0_1330:3740" style="mask-type:alpha" maskUnits="userSpaceOnUse" x="0" y="0" width="378" height="667">
<rect width="378" height="667" fill="#C4C4C4"/>
</mask>
<g mask="url(#mask0_1330:3740)">
<path d="M295.28 12.9198H286.57C285.77 12.9198 285.13 12.2698 285.13 11.4798V1.69977C285.13 0.899765 284.48 0.259766 283.69 0.259766H273.37C272.57 0.259766 271.93 0.909765 271.93 1.69977V11.4798C271.93 12.2798 271.28 12.9198 270.49 12.9198H261.78C260.98 12.9198 260.34 13.5698 260.34 14.3598V24.6798C260.34 25.4798 260.98 26.1198 261.78 26.1198H271.93H285.14H295.29C296.09 26.1198 296.73 25.4698 296.73 24.6798V14.3598C296.73 13.5698 296.08 12.9198 295.28 12.9198Z" fill="white" fill-opacity="0.15"/>
<path d="M219.95 12.9198H211.24C210.44 12.9198 209.8 12.2698 209.8 11.4798V1.69977C209.8 0.899765 209.15 0.259766 208.36 0.259766H198.03C197.23 0.259766 196.59 0.909765 196.59 1.69977V11.4798C196.59 12.2798 195.94 12.9198 195.15 12.9198H186.44C185.64 12.9198 185 13.5698 185 14.3598V24.6798C185 25.4798 185.65 26.1198 186.44 26.1198H196.59H209.8H219.95C220.75 26.1198 221.39 25.4698 221.39 24.6798V14.3598C221.39 13.5698 220.74 12.9198 219.95 12.9198Z" fill="white" fill-opacity="0.15"/>
<path d="M240.53 35.1998V26.4998C240.53 25.6998 241.18 25.0598 241.97 25.0598H251.75C252.55 25.0598 253.19 24.4098 253.19 23.6198V13.2898C253.19 12.4898 252.54 11.8498 251.75 11.8498H241.97C241.17 11.8498 240.53 11.1998 240.53 10.4098V1.69977C240.53 0.899765 239.88 0.259766 239.09 0.259766H228.76C227.96 0.259766 227.32 0.909765 227.32 1.69977V11.8498V25.0598V35.1998C227.32 35.9998 227.96 36.6398 228.76 36.6398H239.08C239.88 36.6498 240.53 35.9998 240.53 35.1998Z" fill="white" fill-opacity="0.15"/>
<path d="M143.3 12.9198H134.59C133.79 12.9198 133.15 12.2698 133.15 11.4798V1.69977C133.15 0.899765 132.5 0.259766 131.71 0.259766H121.39C120.59 0.259766 119.95 0.909765 119.95 1.69977V11.4798C119.95 12.2798 119.3 12.9198 118.51 12.9198H109.8C109 12.9198 108.36 13.5698 108.36 14.3598V24.6798C108.36 25.4798 109 26.1198 109.8 26.1198H119.95H133.16H143.31C144.11 26.1198 144.75 25.4698 144.75 24.6798V14.3598C144.74 13.5698 144.1 12.9198 143.3 12.9198Z" fill="white" fill-opacity="0.15"/>
<path d="M163.88 35.1998V26.4998C163.88 25.6998 164.53 25.0598 165.32 25.0598H175.1C175.9 25.0598 176.54 24.4098 176.54 23.6198V13.2898C176.54 12.4898 175.9 11.8498 175.1 11.8498H165.32C164.53 11.8498 163.88 11.1998 163.88 10.4098V1.69977C163.88 0.899765 163.23 0.259766 162.44 0.259766H152.12C151.32 0.259766 150.68 0.909765 150.68 1.69977V11.8498V25.0598V35.1998C150.68 35.9998 151.32 36.6398 152.12 36.6398H162.44C163.24 36.6498 163.88 35.9998 163.88 35.1998Z" fill="white" fill-opacity="0.15"/>
<path d="M67.96 12.9198H59.25C58.45 12.9198 57.81 12.2698 57.81 11.4798V1.69977C57.81 0.899765 57.16 0.259766 56.37 0.259766H46.05C45.25 0.259766 44.61 0.909765 44.61 1.69977V11.4798C44.61 12.2798 43.96 12.9198 43.17 12.9198H34.46C33.66 12.9198 33.02 13.5698 33.02 14.3598V24.6798C33.02 25.4798 33.66 26.1198 34.46 26.1198H44.61H57.82H67.97C68.77 26.1198 69.41 25.4698 69.41 24.6798V14.3598C69.4 13.5698 68.76 12.9198 67.96 12.9198Z" fill="white" fill-opacity="0.15"/>
<path d="M87.3299 29.95V21.24C87.3299 20.44 87.9799 19.8 88.7699 19.8H98.5499C99.3499 19.8 99.9899 19.15 99.9899 18.36V8.03C99.9899 7.23 99.3499 6.59 98.5499 6.59H88.7699C87.9799 6.59 87.3299 5.94 87.3299 5.15V-3.56C87.3299 -4.36 86.6799 -5 85.8899 -5H75.5699C74.7699 -5 74.1299 -4.35 74.1299 -3.56V6.59V19.8V29.95C74.1299 30.75 74.7699 31.39 75.5699 31.39H85.8899C86.6899 31.39 87.3299 30.74 87.3299 29.95Z" fill="white" fill-opacity="0.15"/>
<path d="M370.62 12.9198H361.91C361.11 12.9198 360.47 12.2698 360.47 11.4798V1.69977C360.47 0.899765 359.82 0.259766 359.03 0.259766H348.71C347.91 0.259766 347.27 0.909765 347.27 1.69977V11.4798C347.27 12.2798 346.62 12.9198 345.83 12.9198H337.12C336.32 12.9198 335.68 13.5698 335.68 14.3598V24.6798C335.68 25.4798 336.32 26.1198 337.12 26.1198H347.27H360.48H370.63C371.43 26.1198 372.07 25.4698 372.07 24.6798V14.3598C372.06 13.5698 371.42 12.9198 370.62 12.9198Z" fill="white" fill-opacity="0.15"/>
<path d="M13.2098 35.1998V26.4998C13.2098 25.6998 13.8598 25.0598 14.6498 25.0598H24.4298C25.2298 25.0598 25.8698 24.4098 25.8698 23.6198V13.2898C25.8698 12.4898 25.2198 11.8498 24.4298 11.8498H14.6498C13.8498 11.8498 13.2098 11.1998 13.2098 10.4098V1.69977C13.2098 0.899765 12.5598 0.259766 11.7698 0.259766H1.44977C0.649768 0.259766 0.00976562 0.909765 0.00976562 1.69977V11.8498V25.0598V35.1998C0.00976562 35.9998 0.659768 36.6398 1.44977 36.6398H11.7698C12.5598 36.6498 13.2098 35.9998 13.2098 35.1998Z" fill="#FB2D11"/>
<path d="M315.87 35.1998V26.4998C315.87 25.6998 316.52 25.0598 317.31 25.0598H327.09C327.89 25.0598 328.53 24.4098 328.53 23.6198V13.2898C328.53 12.4898 327.89 11.8498 327.09 11.8498H317.31C316.51 11.8498 315.87 11.1998 315.87 10.4098V1.69977C315.87 0.899765 315.22 0.259766 314.43 0.259766H304.1C303.3 0.259766 302.66 0.909765 302.66 1.69977V11.8498V25.0598V35.1998C302.66 35.9998 303.3 36.6398 304.1 36.6398H314.42C315.22 36.6498 315.87 35.9998 315.87 35.1998Z" fill="white" fill-opacity="0.15"/>
<g clip-path="url(#clip0_1330:3740)">
<path d="M143.3 96.92H134.59C133.79 96.92 133.15 96.27 133.15 95.48V85.7C133.15 84.9 132.5 84.26 131.71 84.26H121.39C120.59 84.26 119.95 84.91 119.95 85.7V95.48C119.95 96.28 119.3 96.92 118.51 96.92H109.8C109 96.92 108.36 97.57 108.36 98.36V108.68C108.36 109.48 109 110.12 109.8 110.12H119.95H133.16H143.31C144.11 110.12 144.75 109.47 144.75 108.68V98.36C144.74 97.57 144.1 96.92 143.3 96.92Z" fill="white" fill-opacity="0.15"/>
<path d="M163.88 119.2V110.5C163.88 109.7 164.53 109.06 165.32 109.06H175.1C175.9 109.06 176.54 108.41 176.54 107.62V97.29C176.54 96.49 175.9 95.85 175.1 95.85H165.32C164.53 95.85 163.88 95.2 163.88 94.41V85.7C163.88 84.9 163.23 84.26 162.44 84.26H152.12C151.32 84.26 150.68 84.91 150.68 85.7V95.85V109.06V119.2C150.68 120 151.32 120.64 152.12 120.64H162.44C163.24 120.65 163.88 120 163.88 119.2Z" fill="white" fill-opacity="0.15"/>
<path d="M67.96 96.92H59.25C58.45 96.92 57.81 96.27 57.81 95.48V85.7C57.81 84.9 57.16 84.26 56.37 84.26H46.05C45.25 84.26 44.61 84.91 44.61 85.7V95.48C44.61 96.28 43.96 96.92 43.17 96.92H34.46C33.66 96.92 33.02 97.57 33.02 98.36V108.68C33.02 109.48 33.66 110.12 34.46 110.12H44.61H57.82H67.97C68.77 110.12 69.41 109.47 69.41 108.68V98.36C69.4 97.57 68.76 96.92 67.96 96.92Z" fill="white" fill-opacity="0.15"/>
<path d="M87.3299 113.95V105.24C87.3299 104.44 87.9799 103.8 88.7699 103.8H98.5499C99.3499 103.8 99.9899 103.15 99.9899 102.36V92.03C99.9899 91.23 99.3499 90.59 98.5499 90.59H88.7699C87.9799 90.59 87.3299 89.94 87.3299 89.15V80.44C87.3299 79.64 86.6799 79 85.8899 79H75.5699C74.7699 79 74.1299 79.65 74.1299 80.44V90.59V103.8V113.95C74.1299 114.75 74.7699 115.39 75.5699 115.39H85.8899C86.6899 115.39 87.3299 114.74 87.3299 113.95Z" fill="white" fill-opacity="0.15"/>
<path d="M13.21 119.2V110.5C13.21 109.7 13.86 109.06 14.65 109.06H24.43C25.23 109.06 25.87 108.41 25.87 107.62V97.29C25.87 96.49 25.22 95.85 24.43 95.85H14.65C13.85 95.85 13.21 95.2 13.21 94.41V85.7C13.21 84.9 12.56 84.26 11.77 84.26H1.45001C0.650012 84.26 0.0100098 84.91 0.0100098 85.7V95.85V109.06V119.2C0.0100098 120 0.660012 120.64 1.45001 120.64H11.77C12.56 120.65 13.21 120 13.21 119.2Z" fill="white" fill-opacity="0.15"/>
</g>
<g clip-path="url(#clip1_1330:3740)">
<path d="M370.62 96.92H361.91C361.11 96.92 360.47 96.27 360.47 95.48V85.7C360.47 84.9 359.82 84.26 359.03 84.26H348.71C347.91 84.26 347.27 84.91 347.27 85.7V95.48C347.27 96.28 346.62 96.92 345.83 96.92H337.12C336.32 96.92 335.68 97.57 335.68 98.36V108.68C335.68 109.48 336.32 110.12 337.12 110.12H347.27H360.48H370.63C371.43 110.12 372.07 109.47 372.07 108.68V98.36C372.06 97.57 371.42 96.92 370.62 96.92Z" fill="white" fill-opacity="0.15"/>
<path d="M295.28 96.92H286.57C285.77 96.92 285.13 96.27 285.13 95.48V85.7C285.13 84.9 284.48 84.26 283.69 84.26H273.37C272.57 84.26 271.93 84.91 271.93 85.7V95.48C271.93 96.28 271.28 96.92 270.49 96.92H261.78C260.98 96.92 260.34 97.57 260.34 98.36V108.68C260.34 109.48 260.98 110.12 261.78 110.12H271.93H285.14H295.29C296.09 110.12 296.73 109.47 296.73 108.68V98.36C296.73 97.57 296.08 96.92 295.28 96.92Z" fill="white" fill-opacity="0.15"/>
<path d="M315.87 119.2V110.5C315.87 109.7 316.52 109.06 317.31 109.06H327.09C327.89 109.06 328.53 108.41 328.53 107.62V97.29C328.53 96.49 327.89 95.85 327.09 95.85H317.31C316.51 95.85 315.87 95.2 315.87 94.41V85.7C315.87 84.9 315.22 84.26 314.43 84.26H304.1C303.3 84.26 302.66 84.91 302.66 85.7V95.85V109.06V119.2C302.66 120 303.3 120.64 304.1 120.64H314.42C315.22 120.65 315.87 120 315.87 119.2Z" fill="white" fill-opacity="0.15"/>
<path d="M219.95 96.92H211.24C210.44 96.92 209.8 96.27 209.8 95.48V85.7C209.8 84.9 209.15 84.26 208.36 84.26H198.03C197.23 84.26 196.59 84.91 196.59 85.7V95.48C196.59 96.28 195.94 96.92 195.15 96.92H186.44C185.64 96.92 185 97.57 185 98.36V108.68C185 109.48 185.65 110.12 186.44 110.12H196.59H209.8H219.95C220.75 110.12 221.39 109.47 221.39 108.68V98.36C221.39 97.57 220.74 96.92 219.95 96.92Z" fill="white" fill-opacity="0.15"/>
<path d="M240.53 119.2V110.5C240.53 109.7 241.18 109.06 241.97 109.06H251.75C252.55 109.06 253.19 108.41 253.19 107.62V97.29C253.19 96.49 252.54 95.85 251.75 95.85H241.97C241.17 95.85 240.53 95.2 240.53 94.41V85.7C240.53 84.9 239.88 84.26 239.09 84.26H228.76C227.96 84.26 227.32 84.91 227.32 85.7V95.85V109.06V119.2C227.32 120 227.96 120.64 228.76 120.64H239.08C239.88 120.65 240.53 120 240.53 119.2Z" fill="white" fill-opacity="0.15"/>
</g>
<g clip-path="url(#clip2_1330:3740)">
<path d="M143.3 180.92H134.59C133.79 180.92 133.15 180.27 133.15 179.48V169.7C133.15 168.9 132.5 168.26 131.71 168.26H121.39C120.59 168.26 119.95 168.91 119.95 169.7V179.48C119.95 180.28 119.3 180.92 118.51 180.92H109.8C109 180.92 108.36 181.57 108.36 182.36V192.68C108.36 193.48 109 194.12 109.8 194.12H119.95H133.16H143.31C144.11 194.12 144.75 193.47 144.75 192.68V182.36C144.74 181.57 144.1 180.92 143.3 180.92Z" fill="white" fill-opacity="0.15"/>
<path d="M163.88 203.2V194.5C163.88 193.7 164.53 193.06 165.32 193.06H175.1C175.9 193.06 176.54 192.41 176.54 191.62V181.29C176.54 180.49 175.9 179.85 175.1 179.85H165.32C164.53 179.85 163.88 179.2 163.88 178.41V169.7C163.88 168.9 163.23 168.26 162.44 168.26H152.12C151.32 168.26 150.68 168.91 150.68 169.7V179.85V193.06V203.2C150.68 204 151.32 204.64 152.12 204.64H162.44C163.24 204.65 163.88 204 163.88 203.2Z" fill="white" fill-opacity="0.15"/>
<path d="M67.96 180.92H59.25C58.45 180.92 57.81 180.27 57.81 179.48V169.7C57.81 168.9 57.16 168.26 56.37 168.26H46.05C45.25 168.26 44.61 168.91 44.61 169.7V179.48C44.61 180.28 43.96 180.92 43.17 180.92H34.46C33.66 180.92 33.02 181.57 33.02 182.36V192.68C33.02 193.48 33.66 194.12 34.46 194.12H44.61H57.82H67.97C68.77 194.12 69.41 193.47 69.41 192.68V182.36C69.4 181.57 68.76 180.92 67.96 180.92Z" fill="white" fill-opacity="0.15"/>
<path d="M87.3299 197.95V189.24C87.3299 188.44 87.9799 187.8 88.7699 187.8H98.5499C99.3499 187.8 99.9899 187.15 99.9899 186.36V176.03C99.9899 175.23 99.3499 174.59 98.5499 174.59H88.7699C87.9799 174.59 87.3299 173.94 87.3299 173.15V164.44C87.3299 163.64 86.6799 163 85.8899 163H75.5699C74.7699 163 74.1299 163.65 74.1299 164.44V174.59V187.8V197.95C74.1299 198.75 74.7699 199.39 75.5699 199.39H85.8899C86.6899 199.39 87.3299 198.74 87.3299 197.95Z" fill="white" fill-opacity="0.15"/>
<path d="M13.21 203.2V194.5C13.21 193.7 13.86 193.06 14.65 193.06H24.43C25.23 193.06 25.87 192.41 25.87 191.62V181.29C25.87 180.49 25.22 179.85 24.43 179.85H14.65C13.85 179.85 13.21 179.2 13.21 178.41V169.7C13.21 168.9 12.56 168.26 11.77 168.26H1.45001C0.650012 168.26 0.0100098 168.91 0.0100098 169.7V179.85V193.06V203.2C0.0100098 204 0.660012 204.64 1.45001 204.64H11.77C12.56 204.65 13.21 204 13.21 203.2Z" fill="white" fill-opacity="0.15"/>
</g>
<g clip-path="url(#clip3_1330:3740)">
<path d="M370.62 180.92H361.91C361.11 180.92 360.47 180.27 360.47 179.48V169.7C360.47 168.9 359.82 168.26 359.03 168.26H348.71C347.91 168.26 347.27 168.91 347.27 169.7V179.48C347.27 180.28 346.62 180.92 345.83 180.92H337.12C336.32 180.92 335.68 181.57 335.68 182.36V192.68C335.68 193.48 336.32 194.12 337.12 194.12H347.27H360.48H370.63C371.43 194.12 372.07 193.47 372.07 192.68V182.36C372.06 181.57 371.42 180.92 370.62 180.92Z" fill="white" fill-opacity="0.15"/>
<path d="M295.28 180.92H286.57C285.77 180.92 285.13 180.27 285.13 179.48V169.7C285.13 168.9 284.48 168.26 283.69 168.26H273.37C272.57 168.26 271.93 168.91 271.93 169.7V179.48C271.93 180.28 271.28 180.92 270.49 180.92H261.78C260.98 180.92 260.34 181.57 260.34 182.36V192.68C260.34 193.48 260.98 194.12 261.78 194.12H271.93H285.14H295.29C296.09 194.12 296.73 193.47 296.73 192.68V182.36C296.73 181.57 296.08 180.92 295.28 180.92Z" fill="#BAF734"/>
<path d="M315.87 203.2V194.5C315.87 193.7 316.52 193.06 317.31 193.06H327.09C327.89 193.06 328.53 192.41 328.53 191.62V181.29C328.53 180.49 327.89 179.85 327.09 179.85H317.31C316.51 179.85 315.87 179.2 315.87 178.41V169.7C315.87 168.9 315.22 168.26 314.43 168.26H304.1C303.3 168.26 302.66 168.91 302.66 169.7V179.85V193.06V203.2C302.66 204 303.3 204.64 304.1 204.64H314.42C315.22 204.65 315.87 204 315.87 203.2Z" fill="white" fill-opacity="0.15"/>
<path d="M219.95 180.92H211.24C210.44 180.92 209.8 180.27 209.8 179.48V169.7C209.8 168.9 209.15 168.26 208.36 168.26H198.03C197.23 168.26 196.59 168.91 196.59 169.7V179.48C196.59 180.28 195.94 180.92 195.15 180.92H186.44C185.64 180.92 185 181.57 185 182.36V192.68C185 193.48 185.65 194.12 186.44 194.12H196.59H209.8H219.95C220.75 194.12 221.39 193.47 221.39 192.68V182.36C221.39 181.57 220.74 180.92 219.95 180.92Z" fill="white" fill-opacity="0.15"/>
<path d="M240.53 203.2V194.5C240.53 193.7 241.18 193.06 241.97 193.06H251.75C252.55 193.06 253.19 192.41 253.19 191.62V181.29C253.19 180.49 252.54 179.85 251.75 179.85H241.97C241.17 179.85 240.53 179.2 240.53 178.41V169.7C240.53 168.9 239.88 168.26 239.09 168.26H228.76C227.96 168.26 227.32 168.91 227.32 169.7V179.85V193.06V203.2C227.32 204 227.96 204.64 228.76 204.64H239.08C239.88 204.65 240.53 204 240.53 203.2Z" fill="white" fill-opacity="0.15"/>
</g>
<g clip-path="url(#clip4_1330:3740)">
<path d="M143.3 264.92H134.59C133.79 264.92 133.15 264.27 133.15 263.48V253.7C133.15 252.9 132.5 252.26 131.71 252.26H121.39C120.59 252.26 119.95 252.91 119.95 253.7V263.48C119.95 264.28 119.3 264.92 118.51 264.92H109.8C109 264.92 108.36 265.57 108.36 266.36V276.68C108.36 277.48 109 278.12 109.8 278.12H119.95H133.16H143.31C144.11 278.12 144.75 277.47 144.75 276.68V266.36C144.74 265.57 144.1 264.92 143.3 264.92Z" fill="white" fill-opacity="0.15"/>
<path d="M163.88 287.2V278.5C163.88 277.7 164.53 277.06 165.32 277.06H175.1C175.9 277.06 176.54 276.41 176.54 275.62V265.29C176.54 264.49 175.9 263.85 175.1 263.85H165.32C164.53 263.85 163.88 263.2 163.88 262.41V253.7C163.88 252.9 163.23 252.26 162.44 252.26H152.12C151.32 252.26 150.68 252.91 150.68 253.7V263.85V277.06V287.2C150.68 288 151.32 288.64 152.12 288.64H162.44C163.24 288.65 163.88 288 163.88 287.2Z" fill="white" fill-opacity="0.15"/>
<path d="M67.96 264.92H59.25C58.45 264.92 57.81 264.27 57.81 263.48V253.7C57.81 252.9 57.16 252.26 56.37 252.26H46.05C45.25 252.26 44.61 252.91 44.61 253.7V263.48C44.61 264.28 43.96 264.92 43.17 264.92H34.46C33.66 264.92 33.02 265.57 33.02 266.36V276.68C33.02 277.48 33.66 278.12 34.46 278.12H44.61H57.82H67.97C68.77 278.12 69.41 277.47 69.41 276.68V266.36C69.4 265.57 68.76 264.92 67.96 264.92Z" fill="white" fill-opacity="0.15"/>
<path d="M87.3299 281.95V273.24C87.3299 272.44 87.9799 271.8 88.7699 271.8H98.5499C99.3499 271.8 99.9899 271.15 99.9899 270.36V260.03C99.9899 259.23 99.3499 258.59 98.5499 258.59H88.7699C87.9799 258.59 87.3299 257.94 87.3299 257.15V248.44C87.3299 247.64 86.6799 247 85.8899 247H75.5699C74.7699 247 74.1299 247.65 74.1299 248.44V258.59V271.8V281.95C74.1299 282.75 74.7699 283.39 75.5699 283.39H85.8899C86.6899 283.39 87.3299 282.74 87.3299 281.95Z" fill="white" fill-opacity="0.15"/>
<path d="M13.21 287.2V278.5C13.21 277.7 13.86 277.06 14.65 277.06H24.43C25.23 277.06 25.87 276.41 25.87 275.62V265.29C25.87 264.49 25.22 263.85 24.43 263.85H14.65C13.85 263.85 13.21 263.2 13.21 262.41V253.7C13.21 252.9 12.56 252.26 11.77 252.26H1.45001C0.650012 252.26 0.0100098 252.91 0.0100098 253.7V263.85V277.06V287.2C0.0100098 288 0.660012 288.64 1.45001 288.64H11.77C12.56 288.65 13.21 288 13.21 287.2Z" fill="white" fill-opacity="0.15"/>
</g>
<g clip-path="url(#clip5_1330:3740)">
<path d="M370.62 264.92H361.91C361.11 264.92 360.47 264.27 360.47 263.48V253.7C360.47 252.9 359.82 252.26 359.03 252.26H348.71C347.91 252.26 347.27 252.91 347.27 253.7V263.48C347.27 264.28 346.62 264.92 345.83 264.92H337.12C336.32 264.92 335.68 265.57 335.68 266.36V276.68C335.68 277.48 336.32 278.12 337.12 278.12H347.27H360.48H370.63C371.43 278.12 372.07 277.47 372.07 276.68V266.36C372.06 265.57 371.42 264.92 370.62 264.92Z" fill="white" fill-opacity="0.15"/>
<path d="M295.28 264.92H286.57C285.77 264.92 285.13 264.27 285.13 263.48V253.7C285.13 252.9 284.48 252.26 283.69 252.26H273.37C272.57 252.26 271.93 252.91 271.93 253.7V263.48C271.93 264.28 271.28 264.92 270.49 264.92H261.78C260.98 264.92 260.34 265.57 260.34 266.36V276.68C260.34 277.48 260.98 278.12 261.78 278.12H271.93H285.14H295.29C296.09 278.12 296.73 277.47 296.73 276.68V266.36C296.73 265.57 296.08 264.92 295.28 264.92Z" fill="white" fill-opacity="0.15"/>
<path d="M315.87 287.2V278.5C315.87 277.7 316.52 277.06 317.31 277.06H327.09C327.89 277.06 328.53 276.41 328.53 275.62V265.29C328.53 264.49 327.89 263.85 327.09 263.85H317.31C316.51 263.85 315.87 263.2 315.87 262.41V253.7C315.87 252.9 315.22 252.26 314.43 252.26H304.1C303.3 252.26 302.66 252.91 302.66 253.7V263.85V277.06V287.2C302.66 288 303.3 288.64 304.1 288.64H314.42C315.22 288.65 315.87 288 315.87 287.2Z" fill="white" fill-opacity="0.15"/>
<path d="M219.95 264.92H211.24C210.44 264.92 209.8 264.27 209.8 263.48V253.7C209.8 252.9 209.15 252.26 208.36 252.26H198.03C197.23 252.26 196.59 252.91 196.59 253.7V263.48C196.59 264.28 195.94 264.92 195.15 264.92H186.44C185.64 264.92 185 265.57 185 266.36V276.68C185 277.48 185.65 278.12 186.44 278.12H196.59H209.8H219.95C220.75 278.12 221.39 277.47 221.39 276.68V266.36C221.39 265.57 220.74 264.92 219.95 264.92Z" fill="white" fill-opacity="0.15"/>
<path d="M240.53 287.2V278.5C240.53 277.7 241.18 277.06 241.97 277.06H251.75C252.55 277.06 253.19 276.41 253.19 275.62V265.29C253.19 264.49 252.54 263.85 251.75 263.85H241.97C241.17 263.85 240.53 263.2 240.53 262.41V253.7C240.53 252.9 239.88 252.26 239.09 252.26H228.76C227.96 252.26 227.32 252.91 227.32 253.7V263.85V277.06V287.2C227.32 288 227.96 288.64 228.76 288.64H239.08C239.88 288.65 240.53 288 240.53 287.2Z" fill="white" fill-opacity="0.15"/>
</g>
<g clip-path="url(#clip6_1330:3740)">
<path d="M143.3 348.92H134.59C133.79 348.92 133.15 348.27 133.15 347.48V337.7C133.15 336.9 132.5 336.26 131.71 336.26H121.39C120.59 336.26 119.95 336.91 119.95 337.7V347.48C119.95 348.28 119.3 348.92 118.51 348.92H109.8C109 348.92 108.36 349.57 108.36 350.36V360.68C108.36 361.48 109 362.12 109.8 362.12H119.95H133.16H143.31C144.11 362.12 144.75 361.47 144.75 360.68V350.36C144.74 349.57 144.1 348.92 143.3 348.92Z" fill="white" fill-opacity="0.15"/>
<path d="M163.88 371.2V362.5C163.88 361.7 164.53 361.06 165.32 361.06H175.1C175.9 361.06 176.54 360.41 176.54 359.62V349.29C176.54 348.49 175.9 347.85 175.1 347.85H165.32C164.53 347.85 163.88 347.2 163.88 346.41V337.7C163.88 336.9 163.23 336.26 162.44 336.26H152.12C151.32 336.26 150.68 336.91 150.68 337.7V347.85V361.06V371.2C150.68 372 151.32 372.64 152.12 372.64H162.44C163.24 372.65 163.88 372 163.88 371.2Z" fill="white" fill-opacity="0.15"/>
<path d="M67.96 348.92H59.25C58.45 348.92 57.81 348.27 57.81 347.48V337.7C57.81 336.9 57.16 336.26 56.37 336.26H46.05C45.25 336.26 44.61 336.91 44.61 337.7V347.48C44.61 348.28 43.96 348.92 43.17 348.92H34.46C33.66 348.92 33.02 349.57 33.02 350.36V360.68C33.02 361.48 33.66 362.12 34.46 362.12H44.61H57.82H67.97C68.77 362.12 69.41 361.47 69.41 360.68V350.36C69.4 349.57 68.76 348.92 67.96 348.92Z" fill="white" fill-opacity="0.15"/>
<path d="M87.3299 365.95V357.24C87.3299 356.44 87.9799 355.8 88.7699 355.8H98.5499C99.3499 355.8 99.9899 355.15 99.9899 354.36V344.03C99.9899 343.23 99.3499 342.59 98.5499 342.59H88.7699C87.9799 342.59 87.3299 341.94 87.3299 341.15V332.44C87.3299 331.64 86.6799 331 85.8899 331H75.5699C74.7699 331 74.1299 331.65 74.1299 332.44V342.59V355.8V365.95C74.1299 366.75 74.7699 367.39 75.5699 367.39H85.8899C86.6899 367.39 87.3299 366.74 87.3299 365.95Z" fill="white" fill-opacity="0.15"/>
<path d="M13.21 371.2V362.5C13.21 361.7 13.86 361.06 14.65 361.06H24.43C25.23 361.06 25.87 360.41 25.87 359.62V349.29C25.87 348.49 25.22 347.85 24.43 347.85H14.65C13.85 347.85 13.21 347.2 13.21 346.41V337.7C13.21 336.9 12.56 336.26 11.77 336.26H1.45001C0.650012 336.26 0.0100098 336.91 0.0100098 337.7V347.85V361.06V371.2C0.0100098 372 0.660012 372.64 1.45001 372.64H11.77C12.56 372.65 13.21 372 13.21 371.2Z" fill="white" fill-opacity="0.15"/>
</g>
<g clip-path="url(#clip7_1330:3740)">
<path d="M370.62 348.92H361.91C361.11 348.92 360.47 348.27 360.47 347.48V337.7C360.47 336.9 359.82 336.26 359.03 336.26H348.71C347.91 336.26 347.27 336.91 347.27 337.7V347.48C347.27 348.28 346.62 348.92 345.83 348.92H337.12C336.32 348.92 335.68 349.57 335.68 350.36V360.68C335.68 361.48 336.32 362.12 337.12 362.12H347.27H360.48H370.63C371.43 362.12 372.07 361.47 372.07 360.68V350.36C372.06 349.57 371.42 348.92 370.62 348.92Z" fill="white" fill-opacity="0.15"/>
<path d="M295.28 348.92H286.57C285.77 348.92 285.13 348.27 285.13 347.48V337.7C285.13 336.9 284.48 336.26 283.69 336.26H273.37C272.57 336.26 271.93 336.91 271.93 337.7V347.48C271.93 348.28 271.28 348.92 270.49 348.92H261.78C260.98 348.92 260.34 349.57 260.34 350.36V360.68C260.34 361.48 260.98 362.12 261.78 362.12H271.93H285.14H295.29C296.09 362.12 296.73 361.47 296.73 360.68V350.36C296.73 349.57 296.08 348.92 295.28 348.92Z" fill="#9F47FC"/>
<path d="M315.87 371.2V362.5C315.87 361.7 316.52 361.06 317.31 361.06H327.09C327.89 361.06 328.53 360.41 328.53 359.62V349.29C328.53 348.49 327.89 347.85 327.09 347.85H317.31C316.51 347.85 315.87 347.2 315.87 346.41V337.7C315.87 336.9 315.22 336.26 314.43 336.26H304.1C303.3 336.26 302.66 336.91 302.66 337.7V347.85V361.06V371.2C302.66 372 303.3 372.64 304.1 372.64H314.42C315.22 372.65 315.87 372 315.87 371.2Z" fill="white" fill-opacity="0.15"/>
<path d="M219.95 348.92H211.24C210.44 348.92 209.8 348.27 209.8 347.48V337.7C209.8 336.9 209.15 336.26 208.36 336.26H198.03C197.23 336.26 196.59 336.91 196.59 337.7V347.48C196.59 348.28 195.94 348.92 195.15 348.92H186.44C185.64 348.92 185 349.57 185 350.36V360.68C185 361.48 185.65 362.12 186.44 362.12H196.59H209.8H219.95C220.75 362.12 221.39 361.47 221.39 360.68V350.36C221.39 349.57 220.74 348.92 219.95 348.92Z" fill="white" fill-opacity="0.15"/>
<path d="M240.53 371.2V362.5C240.53 361.7 241.18 361.06 241.97 361.06H251.75C252.55 361.06 253.19 360.41 253.19 359.62V349.29C253.19 348.49 252.54 347.85 251.75 347.85H241.97C241.17 347.85 240.53 347.2 240.53 346.41V337.7C240.53 336.9 239.88 336.26 239.09 336.26H228.76C227.96 336.26 227.32 336.91 227.32 337.7V347.85V361.06V371.2C227.32 372 227.96 372.64 228.76 372.64H239.08C239.88 372.65 240.53 372 240.53 371.2Z" fill="white" fill-opacity="0.15"/>
</g>
<g clip-path="url(#clip8_1330:3740)">
<path d="M143.3 432.92H134.59C133.79 432.92 133.15 432.27 133.15 431.48V421.7C133.15 420.9 132.5 420.26 131.71 420.26H121.39C120.59 420.26 119.95 420.91 119.95 421.7V431.48C119.95 432.28 119.3 432.92 118.51 432.92H109.8C109 432.92 108.36 433.57 108.36 434.36V444.68C108.36 445.48 109 446.12 109.8 446.12H119.95H133.16H143.31C144.11 446.12 144.75 445.47 144.75 444.68V434.36C144.74 433.57 144.1 432.92 143.3 432.92Z" fill="white" fill-opacity="0.15"/>
<path d="M163.88 455.2V446.5C163.88 445.7 164.53 445.06 165.32 445.06H175.1C175.9 445.06 176.54 444.41 176.54 443.62V433.29C176.54 432.49 175.9 431.85 175.1 431.85H165.32C164.53 431.85 163.88 431.2 163.88 430.41V421.7C163.88 420.9 163.23 420.26 162.44 420.26H152.12C151.32 420.26 150.68 420.91 150.68 421.7V431.85V445.06V455.2C150.68 456 151.32 456.64 152.12 456.64H162.44C163.24 456.65 163.88 456 163.88 455.2Z" fill="white" fill-opacity="0.15"/>
<path d="M67.96 432.92H59.25C58.45 432.92 57.81 432.27 57.81 431.48V421.7C57.81 420.9 57.16 420.26 56.37 420.26H46.05C45.25 420.26 44.61 420.91 44.61 421.7V431.48C44.61 432.28 43.96 432.92 43.17 432.92H34.46C33.66 432.92 33.02 433.57 33.02 434.36V444.68C33.02 445.48 33.66 446.12 34.46 446.12H44.61H57.82H67.97C68.77 446.12 69.41 445.47 69.41 444.68V434.36C69.4 433.57 68.76 432.92 67.96 432.92Z" fill="white" fill-opacity="0.15"/>
<path d="M87.3299 449.95V441.24C87.3299 440.44 87.9799 439.8 88.7699 439.8H98.5499C99.3499 439.8 99.9899 439.15 99.9899 438.36V428.03C99.9899 427.23 99.3499 426.59 98.5499 426.59H88.7699C87.9799 426.59 87.3299 425.94 87.3299 425.15V416.44C87.3299 415.64 86.6799 415 85.8899 415H75.5699C74.7699 415 74.1299 415.65 74.1299 416.44V426.59V439.8V449.95C74.1299 450.75 74.7699 451.39 75.5699 451.39H85.8899C86.6899 451.39 87.3299 450.74 87.3299 449.95Z" fill="white" fill-opacity="0.15"/>
<path d="M13.21 455.2V446.5C13.21 445.7 13.86 445.06 14.65 445.06H24.43C25.23 445.06 25.87 444.41 25.87 443.62V433.29C25.87 432.49 25.22 431.85 24.43 431.85H14.65C13.85 431.85 13.21 431.2 13.21 430.41V421.7C13.21 420.9 12.56 420.26 11.77 420.26H1.45001C0.650012 420.26 0.0100098 420.91 0.0100098 421.7V431.85V445.06V455.2C0.0100098 456 0.660012 456.64 1.45001 456.64H11.77C12.56 456.65 13.21 456 13.21 455.2Z" fill="white" fill-opacity="0.15"/>
</g>
<g clip-path="url(#clip9_1330:3740)">
<path d="M370.62 432.92H361.91C361.11 432.92 360.47 432.27 360.47 431.48V421.7C360.47 420.9 359.82 420.26 359.03 420.26H348.71C347.91 420.26 347.27 420.91 347.27 421.7V431.48C347.27 432.28 346.62 432.92 345.83 432.92H337.12C336.32 432.92 335.68 433.57 335.68 434.36V444.68C335.68 445.48 336.32 446.12 337.12 446.12H347.27H360.48H370.63C371.43 446.12 372.07 445.47 372.07 444.68V434.36C372.06 433.57 371.42 432.92 370.62 432.92Z" fill="white" fill-opacity="0.15"/>
<path d="M295.28 432.92H286.57C285.77 432.92 285.13 432.27 285.13 431.48V421.7C285.13 420.9 284.48 420.26 283.69 420.26H273.37C272.57 420.26 271.93 420.91 271.93 421.7V431.48C271.93 432.28 271.28 432.92 270.49 432.92H261.78C260.98 432.92 260.34 433.57 260.34 434.36V444.68C260.34 445.48 260.98 446.12 261.78 446.12H271.93H285.14H295.29C296.09 446.12 296.73 445.47 296.73 444.68V434.36C296.73 433.57 296.08 432.92 295.28 432.92Z" fill="white" fill-opacity="0.15"/>
<path d="M315.87 455.2V446.5C315.87 445.7 316.52 445.06 317.31 445.06H327.09C327.89 445.06 328.53 444.41 328.53 443.62V433.29C328.53 432.49 327.89 431.85 327.09 431.85H317.31C316.51 431.85 315.87 431.2 315.87 430.41V421.7C315.87 420.9 315.22 420.26 314.43 420.26H304.1C303.3 420.26 302.66 420.91 302.66 421.7V431.85V445.06V455.2C302.66 456 303.3 456.64 304.1 456.64H314.42C315.22 456.65 315.87 456 315.87 455.2Z" fill="white" fill-opacity="0.15"/>
<path d="M219.95 432.92H211.24C210.44 432.92 209.8 432.27 209.8 431.48V421.7C209.8 420.9 209.15 420.26 208.36 420.26H198.03C197.23 420.26 196.59 420.91 196.59 421.7V431.48C196.59 432.28 195.94 432.92 195.15 432.92H186.44C185.64 432.92 185 433.57 185 434.36V444.68C185 445.48 185.65 446.12 186.44 446.12H196.59H209.8H219.95C220.75 446.12 221.39 445.47 221.39 444.68V434.36C221.39 433.57 220.74 432.92 219.95 432.92Z" fill="white" fill-opacity="0.15"/>
<path d="M240.53 455.2V446.5C240.53 445.7 241.18 445.06 241.97 445.06H251.75C252.55 445.06 253.19 444.41 253.19 443.62V433.29C253.19 432.49 252.54 431.85 251.75 431.85H241.97C241.17 431.85 240.53 431.2 240.53 430.41V421.7C240.53 420.9 239.88 420.26 239.09 420.26H228.76C227.96 420.26 227.32 420.91 227.32 421.7V431.85V445.06V455.2C227.32 456 227.96 456.64 228.76 456.64H239.08C239.88 456.65 240.53 456 240.53 455.2Z" fill="white" fill-opacity="0.15"/>
</g>
<g clip-path="url(#clip10_1330:3740)">
<path d="M143.3 516.92H134.59C133.79 516.92 133.15 516.27 133.15 515.48V505.7C133.15 504.9 132.5 504.26 131.71 504.26H121.39C120.59 504.26 119.95 504.91 119.95 505.7V515.48C119.95 516.28 119.3 516.92 118.51 516.92H109.8C109 516.92 108.36 517.57 108.36 518.36V528.68C108.36 529.48 109 530.12 109.8 530.12H119.95H133.16H143.31C144.11 530.12 144.75 529.47 144.75 528.68V518.36C144.74 517.57 144.1 516.92 143.3 516.92Z" fill="white" fill-opacity="0.15"/>
<path d="M163.88 539.2V530.5C163.88 529.7 164.53 529.06 165.32 529.06H175.1C175.9 529.06 176.54 528.41 176.54 527.62V517.29C176.54 516.49 175.9 515.85 175.1 515.85H165.32C164.53 515.85 163.88 515.2 163.88 514.41V505.7C163.88 504.9 163.23 504.26 162.44 504.26H152.12C151.32 504.26 150.68 504.91 150.68 505.7V515.85V529.06V539.2C150.68 540 151.32 540.64 152.12 540.64H162.44C163.24 540.65 163.88 540 163.88 539.2Z" fill="white" fill-opacity="0.15"/>
<path d="M67.96 516.92H59.25C58.45 516.92 57.81 516.27 57.81 515.48V505.7C57.81 504.9 57.16 504.26 56.37 504.26H46.05C45.25 504.26 44.61 504.91 44.61 505.7V515.48C44.61 516.28 43.96 516.92 43.17 516.92H34.46C33.66 516.92 33.02 517.57 33.02 518.36V528.68C33.02 529.48 33.66 530.12 34.46 530.12H44.61H57.82H67.97C68.77 530.12 69.41 529.47 69.41 528.68V518.36C69.4 517.57 68.76 516.92 67.96 516.92Z" fill="white" fill-opacity="0.15"/>
<path d="M87.3299 533.95V525.24C87.3299 524.44 87.9799 523.8 88.7699 523.8H98.5499C99.3499 523.8 99.9899 523.15 99.9899 522.36V512.03C99.9899 511.23 99.3499 510.59 98.5499 510.59H88.7699C87.9799 510.59 87.3299 509.94 87.3299 509.15V500.44C87.3299 499.64 86.6799 499 85.8899 499H75.5699C74.7699 499 74.1299 499.65 74.1299 500.44V510.59V523.8V533.95C74.1299 534.75 74.7699 535.39 75.5699 535.39H85.8899C86.6899 535.39 87.3299 534.74 87.3299 533.95Z" fill="white" fill-opacity="0.15"/>
<path d="M13.21 539.2V530.5C13.21 529.7 13.86 529.06 14.65 529.06H24.43C25.23 529.06 25.87 528.41 25.87 527.62V517.29C25.87 516.49 25.22 515.85 24.43 515.85H14.65C13.85 515.85 13.21 515.2 13.21 514.41V505.7C13.21 504.9 12.56 504.26 11.77 504.26H1.45001C0.650012 504.26 0.0100098 504.91 0.0100098 505.7V515.85V529.06V539.2C0.0100098 540 0.660012 540.64 1.45001 540.64H11.77C12.56 540.65 13.21 540 13.21 539.2Z" fill="white" fill-opacity="0.15"/>
</g>
<g clip-path="url(#clip11_1330:3740)">
<path d="M370.62 516.92H361.91C361.11 516.92 360.47 516.27 360.47 515.48V505.7C360.47 504.9 359.82 504.26 359.03 504.26H348.71C347.91 504.26 347.27 504.91 347.27 505.7V515.48C347.27 516.28 346.62 516.92 345.83 516.92H337.12C336.32 516.92 335.68 517.57 335.68 518.36V528.68C335.68 529.48 336.32 530.12 337.12 530.12H347.27H360.48H370.63C371.43 530.12 372.07 529.47 372.07 528.68V518.36C372.06 517.57 371.42 516.92 370.62 516.92Z" fill="white" fill-opacity="0.15"/>
<path d="M295.28 516.92H286.57C285.77 516.92 285.13 516.27 285.13 515.48V505.7C285.13 504.9 284.48 504.26 283.69 504.26H273.37C272.57 504.26 271.93 504.91 271.93 505.7V515.48C271.93 516.28 271.28 516.92 270.49 516.92H261.78C260.98 516.92 260.34 517.57 260.34 518.36V528.68C260.34 529.48 260.98 530.12 261.78 530.12H271.93H285.14H295.29C296.09 530.12 296.73 529.47 296.73 528.68V518.36C296.73 517.57 296.08 516.92 295.28 516.92Z" fill="white" fill-opacity="0.15"/>
<path d="M315.87 539.2V530.5C315.87 529.7 316.52 529.06 317.31 529.06H327.09C327.89 529.06 328.53 528.41 328.53 527.62V517.29C328.53 516.49 327.89 515.85 327.09 515.85H317.31C316.51 515.85 315.87 515.2 315.87 514.41V505.7C315.87 504.9 315.22 504.26 314.43 504.26H304.1C303.3 504.26 302.66 504.91 302.66 505.7V515.85V529.06V539.2C302.66 540 303.3 540.64 304.1 540.64H314.42C315.22 540.65 315.87 540 315.87 539.2Z" fill="white" fill-opacity="0.15"/>
<path d="M219.95 516.92H211.24C210.44 516.92 209.8 516.27 209.8 515.48V505.7C209.8 504.9 209.15 504.26 208.36 504.26H198.03C197.23 504.26 196.59 504.91 196.59 505.7V515.48C196.59 516.28 195.94 516.92 195.15 516.92H186.44C185.64 516.92 185 517.57 185 518.36V528.68C185 529.48 185.65 530.12 186.44 530.12H196.59H209.8H219.95C220.75 530.12 221.39 529.47 221.39 528.68V518.36C221.39 517.57 220.74 516.92 219.95 516.92Z" fill="white" fill-opacity="0.15"/>
<path d="M240.53 539.2V530.5C240.53 529.7 241.18 529.06 241.97 529.06H251.75C252.55 529.06 253.19 528.41 253.19 527.62V517.29C253.19 516.49 252.54 515.85 251.75 515.85H241.97C241.17 515.85 240.53 515.2 240.53 514.41V505.7C240.53 504.9 239.88 504.26 239.09 504.26H228.76C227.96 504.26 227.32 504.91 227.32 505.7V515.85V529.06V539.2C227.32 540 227.96 540.64 228.76 540.64H239.08C239.88 540.65 240.53 540 240.53 539.2Z" fill="white" fill-opacity="0.15"/>
</g>
<g clip-path="url(#clip12_1330:3740)">
<path d="M143.3 600.92H134.59C133.79 600.92 133.15 600.27 133.15 599.48V589.7C133.15 588.9 132.5 588.26 131.71 588.26H121.39C120.59 588.26 119.95 588.91 119.95 589.7V599.48C119.95 600.28 119.3 600.92 118.51 600.92H109.8C109 600.92 108.36 601.57 108.36 602.36V612.68C108.36 613.48 109 614.12 109.8 614.12H119.95H133.16H143.31C144.11 614.12 144.75 613.47 144.75 612.68V602.36C144.74 601.57 144.1 600.92 143.3 600.92Z" fill="white" fill-opacity="0.15"/>
<path d="M163.88 623.2V614.5C163.88 613.7 164.53 613.06 165.32 613.06H175.1C175.9 613.06 176.54 612.41 176.54 611.62V601.29C176.54 600.49 175.9 599.85 175.1 599.85H165.32C164.53 599.85 163.88 599.2 163.88 598.41V589.7C163.88 588.9 163.23 588.26 162.44 588.26H152.12C151.32 588.26 150.68 588.91 150.68 589.7V599.85V613.06V623.2C150.68 624 151.32 624.64 152.12 624.64H162.44C163.24 624.65 163.88 624 163.88 623.2Z" fill="white" fill-opacity="0.15"/>
<path d="M67.96 600.92H59.25C58.45 600.92 57.81 600.27 57.81 599.48V589.7C57.81 588.9 57.16 588.26 56.37 588.26H46.05C45.25 588.26 44.61 588.91 44.61 589.7V599.48C44.61 600.28 43.96 600.92 43.17 600.92H34.46C33.66 600.92 33.02 601.57 33.02 602.36V612.68C33.02 613.48 33.66 614.12 34.46 614.12H44.61H57.82H67.97C68.77 614.12 69.41 613.47 69.41 612.68V602.36C69.4 601.57 68.76 600.92 67.96 600.92Z" fill="white" fill-opacity="0.15"/>
<path d="M87.3299 617.95V609.24C87.3299 608.44 87.9799 607.8 88.7699 607.8H98.5499C99.3499 607.8 99.9899 607.15 99.9899 606.36V596.03C99.9899 595.23 99.3499 594.59 98.5499 594.59H88.7699C87.9799 594.59 87.3299 593.94 87.3299 593.15V584.44C87.3299 583.64 86.6799 583 85.8899 583H75.5699C74.7699 583 74.1299 583.65 74.1299 584.44V594.59V607.8V617.95C74.1299 618.75 74.7699 619.39 75.5699 619.39H85.8899C86.6899 619.39 87.3299 618.74 87.3299 617.95Z" fill="white" fill-opacity="0.15"/>
<path d="M13.21 623.2V614.5C13.21 613.7 13.86 613.06 14.65 613.06H24.43C25.23 613.06 25.87 612.41 25.87 611.62V601.29C25.87 600.49 25.22 599.85 24.43 599.85H14.65C13.85 599.85 13.21 599.2 13.21 598.41V589.7C13.21 588.9 12.56 588.26 11.77 588.26H1.45001C0.650012 588.26 0.0100098 588.91 0.0100098 589.7V599.85V613.06V623.2C0.0100098 624 0.660012 624.64 1.45001 624.64H11.77C12.56 624.65 13.21 624 13.21 623.2Z" fill="white" fill-opacity="0.15"/>
</g>
<g clip-path="url(#clip13_1330:3740)">
<path d="M370.62 600.92H361.91C361.11 600.92 360.47 600.27 360.47 599.48V589.7C360.47 588.9 359.82 588.26 359.03 588.26H348.71C347.91 588.26 347.27 588.91 347.27 589.7V599.48C347.27 600.28 346.62 600.92 345.83 600.92H337.12C336.32 600.92 335.68 601.57 335.68 602.36V612.68C335.68 613.48 336.32 614.12 337.12 614.12H347.27H360.48H370.63C371.43 614.12 372.07 613.47 372.07 612.68V602.36C372.06 601.57 371.42 600.92 370.62 600.92Z" fill="white" fill-opacity="0.15"/>
<path d="M295.28 600.92H286.57C285.77 600.92 285.13 600.27 285.13 599.48V589.7C285.13 588.9 284.48 588.26 283.69 588.26H273.37C272.57 588.26 271.93 588.91 271.93 589.7V599.48C271.93 600.28 271.28 600.92 270.49 600.92H261.78C260.98 600.92 260.34 601.57 260.34 602.36V612.68C260.34 613.48 260.98 614.12 261.78 614.12H271.93H285.14H295.29C296.09 614.12 296.73 613.47 296.73 612.68V602.36C296.73 601.57 296.08 600.92 295.28 600.92Z" fill="white" fill-opacity="0.15"/>
<path d="M315.87 623.2V614.5C315.87 613.7 316.52 613.06 317.31 613.06H327.09C327.89 613.06 328.53 612.41 328.53 611.62V601.29C328.53 600.49 327.89 599.85 327.09 599.85H317.31C316.51 599.85 315.87 599.2 315.87 598.41V589.7C315.87 588.9 315.22 588.26 314.43 588.26H304.1C303.3 588.26 302.66 588.91 302.66 589.7V599.85V613.06V623.2C302.66 624 303.3 624.64 304.1 624.64H314.42C315.22 624.65 315.87 624 315.87 623.2Z" fill="white" fill-opacity="0.15"/>
<path d="M219.95 600.92H211.24C210.44 600.92 209.8 600.27 209.8 599.48V589.7C209.8 588.9 209.15 588.26 208.36 588.26H198.03C197.23 588.26 196.59 588.91 196.59 589.7V599.48C196.59 600.28 195.94 600.92 195.15 600.92H186.44C185.64 600.92 185 601.57 185 602.36V612.68C185 613.48 185.65 614.12 186.44 614.12H196.59H209.8H219.95C220.75 614.12 221.39 613.47 221.39 612.68V602.36C221.39 601.57 220.74 600.92 219.95 600.92Z" fill="white" fill-opacity="0.15"/>
<path d="M240.53 623.2V614.5C240.53 613.7 241.18 613.06 241.97 613.06H251.75C252.55 613.06 253.19 612.41 253.19 611.62V601.29C253.19 600.49 252.54 599.85 251.75 599.85H241.97C241.17 599.85 240.53 599.2 240.53 598.41V589.7C240.53 588.9 239.88 588.26 239.09 588.26H228.76C227.96 588.26 227.32 588.91 227.32 589.7V599.85V613.06V623.2C227.32 624 227.96 624.64 228.76 624.64H239.08C239.88 624.65 240.53 624 240.53 623.2Z" fill="white" fill-opacity="0.15"/>
</g>
<g clip-path="url(#clip14_1330:3740)">
<path d="M-10.8368 60.9294L-2.21046 60.9294C-1.41814 60.9294 -0.784288 61.5849 -0.784288 62.3815L-0.784287 72.2437C-0.784287 73.0504 -0.140529 73.6958 0.641882 73.6958L10.8627 73.6958C11.6551 73.6958 12.2889 73.0403 12.2889 72.2437L12.2889 62.3815C12.2889 61.5748 12.9327 60.9294 13.7151 60.9294L22.3414 60.9294C23.1337 60.9294 23.7676 60.2739 23.7676 59.4773L23.7676 49.0706C23.7676 48.2639 23.1337 47.6185 22.3414 47.6185L12.2889 47.6185L-0.794188 47.6185L-10.8467 47.6185C-11.639 47.6185 -12.2729 48.2739 -12.2729 49.0706L-12.2729 59.4773C-12.263 60.2739 -11.6291 60.9294 -10.8368 60.9294Z" fill="white" fill-opacity="0.15"/>
<path d="M63.7794 60.9294L72.4058 60.9294C73.1981 60.9294 73.8319 61.5849 73.8319 62.3815L73.8319 72.2437C73.8319 73.0504 74.4757 73.6958 75.2581 73.6958L85.479 73.6958C86.2713 73.6958 86.9051 73.0403 86.9051 72.2437L86.9051 62.3815C86.9051 61.5748 87.5489 60.9294 88.3313 60.9294L96.9576 60.9294C97.7499 60.9294 98.3838 60.2739 98.3838 59.4773L98.3838 49.0706C98.3838 48.2639 97.7499 47.6185 96.9576 47.6185L86.9051 47.6185L73.822 47.6185L63.7695 47.6185C62.9772 47.6185 62.3434 48.2739 62.3434 49.0706L62.3434 59.4773C62.3434 60.2739 62.9871 60.9294 63.7794 60.9294Z" fill="white" fill-opacity="0.15"/>
<path d="M43.3871 38.4622L43.3871 47.2353C43.3871 48.042 42.7434 48.6874 41.9609 48.6874L32.2749 48.6874C31.4826 48.6874 30.8487 49.3428 30.8487 50.1395L30.8487 60.5563C30.8487 61.363 31.4826 62.0084 32.2749 62.0084L41.961 62.0084C42.7533 62.0084 43.3871 62.6639 43.3871 63.4605L43.3871 72.2437C43.3871 73.0504 44.0309 73.6958 44.8133 73.6958L55.0441 73.6958C55.8364 73.6958 56.4702 73.0403 56.4702 72.2437L56.4702 62.0084L56.4702 48.6874L56.4702 38.4622C56.4702 37.6554 55.8364 37.0101 55.044 37.0101L44.8232 37.0101C44.0309 37 43.3871 37.6554 43.3871 38.4622Z" fill="white" fill-opacity="0.15"/>
<path d="M138.386 60.9294L147.012 60.9294C147.804 60.9294 148.438 61.5849 148.438 62.3815L148.438 72.2437C148.438 73.0504 149.082 73.6958 149.864 73.6958L160.095 73.6958C160.887 73.6958 161.521 73.0403 161.521 72.2437L161.521 62.3815C161.521 61.5748 162.165 60.9294 162.948 60.9294L171.574 60.9294C172.366 60.9294 173 60.2739 173 59.4773L173 49.0706C173 48.2638 172.356 47.6185 171.574 47.6185L161.521 47.6185L148.438 47.6185L138.386 47.6185C137.593 47.6185 136.96 48.2739 136.96 49.0706L136.96 59.4773C136.96 60.2739 137.603 60.9294 138.386 60.9294Z" fill="white" fill-opacity="0.15"/>
<path d="M118.003 38.4622L118.003 47.2353C118.003 48.042 117.36 48.6874 116.577 48.6874L106.891 48.6874C106.099 48.6874 105.465 49.3428 105.465 50.1395L105.465 60.5563C105.465 61.363 106.109 62.0084 106.891 62.0084L116.577 62.0084C117.369 62.0084 118.003 62.6639 118.003 63.4605L118.003 72.2437C118.003 73.0504 118.647 73.6958 119.429 73.6958L129.66 73.6958C130.453 73.6958 131.086 73.0403 131.086 72.2437L131.086 62.0084L131.086 48.6874L131.086 38.4622C131.086 37.6554 130.453 37.0101 129.66 37.0101L119.439 37.0101C118.647 37 118.003 37.6554 118.003 38.4622Z" fill="white" fill-opacity="0.15"/>
</g>
<g clip-path="url(#clip15_1330:3740)">
<path d="M217.931 60.9294L226.557 60.9294C227.349 60.9294 227.983 61.5849 227.983 62.3815L227.983 72.2437C227.983 73.0504 228.627 73.6958 229.409 73.6958L239.63 73.6958C240.423 73.6958 241.056 73.0403 241.056 72.2437L241.056 62.3815C241.056 61.5748 241.7 60.9294 242.483 60.9294L251.109 60.9294C251.901 60.9294 252.535 60.2739 252.535 59.4773L252.535 49.0706C252.535 48.2638 251.901 47.6185 251.109 47.6185L241.056 47.6185L227.973 47.6185L217.921 47.6185C217.129 47.6185 216.495 48.2739 216.495 49.0706L216.495 59.4773C216.505 60.2739 217.138 60.9294 217.931 60.9294Z" fill="white" fill-opacity="0.15"/>
<path d="M197.548 38.4622L197.548 47.2353C197.548 48.042 196.905 48.6874 196.122 48.6874L186.436 48.6874C185.644 48.6874 185.01 49.3428 185.01 50.1395L185.01 60.5563C185.01 61.363 185.644 62.0084 186.436 62.0084L196.122 62.0084C196.905 62.0084 197.548 62.6639 197.548 63.4605L197.548 72.2437C197.548 73.0504 198.192 73.6958 198.975 73.6958L209.196 73.6958C209.988 73.6958 210.622 73.0403 210.622 72.2437L210.622 62.0084L210.622 48.6874L210.622 38.4622C210.622 37.6554 209.988 37.0101 209.196 37.0101L198.975 37.0101C198.182 37 197.548 37.6554 197.548 38.4622Z" fill="white" fill-opacity="0.15"/>
<path d="M292.547 60.9294L301.173 60.9294C301.966 60.9294 302.6 61.5849 302.6 62.3815L302.6 72.2437C302.6 73.0504 303.243 73.6958 304.026 73.6958L314.247 73.6958C315.039 73.6958 315.673 73.0403 315.673 72.2437L315.673 62.3815C315.673 61.5748 316.317 60.9294 317.099 60.9294L325.725 60.9294C326.518 60.9294 327.151 60.2739 327.151 59.4773L327.151 49.0706C327.151 48.2639 326.518 47.6185 325.725 47.6185L315.673 47.6185L302.59 47.6185L292.537 47.6185C291.745 47.6185 291.111 48.2739 291.111 49.0706L291.111 59.4773C291.121 60.2739 291.755 60.9294 292.547 60.9294Z" fill="white" fill-opacity="0.15"/>
<path d="M273.363 43.7563L273.363 52.5395C273.363 53.3462 272.719 53.9916 271.937 53.9916L262.251 53.9916C261.459 53.9916 260.825 54.647 260.825 55.4437L260.825 65.8605C260.825 66.6672 261.459 67.3126 262.251 67.3126L271.937 67.3126C272.719 67.3126 273.363 67.9681 273.363 68.7647L273.363 77.5479C273.363 78.3546 274.007 79 274.789 79L285.01 79C285.803 79 286.436 78.3445 286.436 77.5479L286.436 67.3126L286.436 53.9916L286.436 43.7563C286.436 42.9496 285.803 42.3042 285.01 42.3042L274.789 42.3042C273.997 42.3042 273.363 42.9596 273.363 43.7563Z" fill="white" fill-opacity="0.15"/>
<path d="M367.163 60.9294L375.79 60.9294C376.582 60.9294 377.216 61.5849 377.216 62.3815L377.216 72.2437C377.216 73.0504 377.86 73.6958 378.642 73.6958L388.863 73.6958C389.655 73.6958 390.289 73.0403 390.289 72.2437L390.289 62.3815C390.289 61.5748 390.933 60.9294 391.715 60.9294L400.342 60.9294C401.134 60.9294 401.768 60.2739 401.768 59.4773L401.768 49.0706C401.768 48.2639 401.134 47.6185 400.342 47.6185L390.289 47.6185L377.206 47.6185L367.153 47.6185C366.361 47.6185 365.727 48.2739 365.727 49.0706L365.727 59.4773C365.737 60.2739 366.371 60.9294 367.163 60.9294Z" fill="white" fill-opacity="0.15"/>
<path d="M346.771 38.4622L346.771 47.2353C346.771 48.042 346.127 48.6874 345.345 48.6874L335.659 48.6874C334.867 48.6874 334.233 49.3428 334.233 50.1395L334.233 60.5563C334.233 61.363 334.877 62.0084 335.659 62.0084L345.345 62.0084C346.137 62.0084 346.771 62.6639 346.771 63.4605L346.771 72.2437C346.771 73.0504 347.415 73.6958 348.197 73.6958L358.418 73.6958C359.211 73.6958 359.844 73.0403 359.844 72.2437L359.844 62.0084L359.844 48.6874L359.844 38.4622C359.844 37.6554 359.201 37.0101 358.418 37.0101L348.197 37.0101C347.415 37 346.771 37.6554 346.771 38.4622Z" fill="white" fill-opacity="0.15"/>
</g>
<g clip-path="url(#clip16_1330:3740)">
<path d="M-10.8368 648.929L-2.21046 648.929C-1.41814 648.929 -0.784288 649.585 -0.784288 650.382L-0.784287 660.244C-0.784287 661.05 -0.140529 661.696 0.641882 661.696L10.8627 661.696C11.6551 661.696 12.2889 661.04 12.2889 660.244L12.2889 650.382C12.2889 649.575 12.9327 648.929 13.7151 648.929L22.3414 648.929C23.1337 648.929 23.7676 648.274 23.7676 647.477L23.7676 637.071C23.7676 636.264 23.1337 635.618 22.3414 635.618L12.2889 635.618L-0.794188 635.618L-10.8467 635.618C-11.639 635.618 -12.2729 636.274 -12.2729 637.071L-12.2729 647.477C-12.263 648.274 -11.6291 648.929 -10.8368 648.929Z" fill="white" fill-opacity="0.15"/>
<path d="M63.7794 648.929L72.4058 648.929C73.1981 648.929 73.8319 649.585 73.8319 650.382L73.8319 660.244C73.8319 661.05 74.4757 661.696 75.2581 661.696L85.479 661.696C86.2713 661.696 86.9051 661.04 86.9051 660.244L86.9051 650.382C86.9051 649.575 87.5489 648.929 88.3313 648.929L96.9576 648.929C97.7499 648.929 98.3838 648.274 98.3838 647.477L98.3838 637.071C98.3838 636.264 97.7499 635.618 96.9576 635.618L86.9051 635.618L73.822 635.618L63.7695 635.618C62.9772 635.618 62.3434 636.274 62.3434 637.071L62.3434 647.477C62.3434 648.274 62.9871 648.929 63.7794 648.929Z" fill="white" fill-opacity="0.15"/>
<path d="M43.3871 626.462L43.3871 635.235C43.3871 636.042 42.7434 636.687 41.9609 636.687L32.2749 636.687C31.4826 636.687 30.8487 637.343 30.8487 638.139L30.8487 648.556C30.8487 649.363 31.4826 650.008 32.2749 650.008L41.961 650.008C42.7533 650.008 43.3871 650.664 43.3871 651.461L43.3871 660.244C43.3871 661.05 44.0309 661.696 44.8133 661.696L55.0441 661.696C55.8364 661.696 56.4702 661.04 56.4702 660.244L56.4702 650.008L56.4702 636.687L56.4702 626.462C56.4702 625.655 55.8364 625.01 55.044 625.01L44.8232 625.01C44.0309 625 43.3871 625.655 43.3871 626.462Z" fill="white" fill-opacity="0.15"/>
<path d="M138.386 648.929L147.012 648.929C147.804 648.929 148.438 649.585 148.438 650.382L148.438 660.244C148.438 661.05 149.082 661.696 149.864 661.696L160.095 661.696C160.887 661.696 161.521 661.04 161.521 660.244L161.521 650.382C161.521 649.575 162.165 648.929 162.948 648.929L171.574 648.929C172.366 648.929 173 648.274 173 647.477L173 637.071C173 636.264 172.356 635.618 171.574 635.618L161.521 635.618L148.438 635.618L138.386 635.618C137.593 635.618 136.96 636.274 136.96 637.071L136.96 647.477C136.96 648.274 137.603 648.929 138.386 648.929Z" fill="white" fill-opacity="0.15"/>
<path d="M118.003 626.462L118.003 635.235C118.003 636.042 117.36 636.687 116.577 636.687L106.891 636.687C106.099 636.687 105.465 637.343 105.465 638.139L105.465 648.556C105.465 649.363 106.109 650.008 106.891 650.008L116.577 650.008C117.369 650.008 118.003 650.664 118.003 651.461L118.003 660.244C118.003 661.05 118.647 661.696 119.429 661.696L129.66 661.696C130.453 661.696 131.086 661.04 131.086 660.244L131.086 650.008L131.086 636.687L131.086 626.462C131.086 625.655 130.453 625.01 129.66 625.01L119.439 625.01C118.647 625 118.003 625.655 118.003 626.462Z" fill="white" fill-opacity="0.15"/>
</g>
<g clip-path="url(#clip17_1330:3740)">
<path d="M217.931 648.929L226.557 648.929C227.349 648.929 227.983 649.585 227.983 650.382L227.983 660.244C227.983 661.05 228.627 661.696 229.409 661.696L239.63 661.696C240.423 661.696 241.056 661.04 241.056 660.244L241.056 650.382C241.056 649.575 241.7 648.929 242.483 648.929L251.109 648.929C251.901 648.929 252.535 648.274 252.535 647.477L252.535 637.071C252.535 636.264 251.901 635.618 251.109 635.618L241.056 635.618L227.973 635.618L217.921 635.618C217.129 635.618 216.495 636.274 216.495 637.071L216.495 647.477C216.505 648.274 217.138 648.929 217.931 648.929Z" fill="white" fill-opacity="0.15"/>
<path d="M197.548 626.462L197.548 635.235C197.548 636.042 196.905 636.687 196.122 636.687L186.436 636.687C185.644 636.687 185.01 637.343 185.01 638.139L185.01 648.556C185.01 649.363 185.644 650.008 186.436 650.008L196.122 650.008C196.905 650.008 197.548 650.664 197.548 651.461L197.548 660.244C197.548 661.05 198.192 661.696 198.975 661.696L209.196 661.696C209.988 661.696 210.622 661.04 210.622 660.244L210.622 650.008L210.622 636.687L210.622 626.462C210.622 625.655 209.988 625.01 209.196 625.01L198.975 625.01C198.182 625 197.548 625.655 197.548 626.462Z" fill="white" fill-opacity="0.15"/>
<path d="M292.547 648.929L301.173 648.929C301.966 648.929 302.6 649.585 302.6 650.382L302.6 660.244C302.6 661.05 303.243 661.696 304.026 661.696L314.247 661.696C315.039 661.696 315.673 661.04 315.673 660.244L315.673 650.382C315.673 649.575 316.317 648.929 317.099 648.929L325.725 648.929C326.518 648.929 327.151 648.274 327.151 647.477L327.151 637.071C327.151 636.264 326.518 635.618 325.725 635.618L315.673 635.618L302.59 635.618L292.537 635.618C291.745 635.618 291.111 636.274 291.111 637.071L291.111 647.477C291.121 648.274 291.755 648.929 292.547 648.929Z" fill="white" fill-opacity="0.15"/>
<path d="M273.363 631.756L273.363 640.539C273.363 641.346 272.719 641.992 271.937 641.992L262.251 641.992C261.459 641.992 260.825 642.647 260.825 643.444L260.825 653.86C260.825 654.667 261.459 655.313 262.251 655.313L271.937 655.313C272.719 655.313 273.363 655.968 273.363 656.765L273.363 665.548C273.363 666.355 274.007 667 274.789 667L285.01 667C285.803 667 286.436 666.345 286.436 665.548L286.436 655.313L286.436 641.992L286.436 631.756C286.436 630.95 285.803 630.304 285.01 630.304L274.789 630.304C273.997 630.304 273.363 630.96 273.363 631.756Z" fill="white" fill-opacity="0.15"/>
<path d="M367.163 648.929L375.79 648.929C376.582 648.929 377.216 649.585 377.216 650.382L377.216 660.244C377.216 661.05 377.86 661.696 378.642 661.696L388.863 661.696C389.655 661.696 390.289 661.04 390.289 660.244L390.289 650.382C390.289 649.575 390.933 648.929 391.715 648.929L400.342 648.929C401.134 648.929 401.768 648.274 401.768 647.477L401.768 637.071C401.768 636.264 401.134 635.618 400.342 635.618L390.289 635.618L377.206 635.618L367.153 635.618C366.361 635.618 365.727 636.274 365.727 637.071L365.727 647.477C365.737 648.274 366.371 648.929 367.163 648.929Z" fill="white" fill-opacity="0.15"/>
<path d="M346.771 626.462L346.771 635.235C346.771 636.042 346.127 636.687 345.345 636.687L335.659 636.687C334.867 636.687 334.233 637.343 334.233 638.139L334.233 648.556C334.233 649.363 334.877 650.008 335.659 650.008L345.345 650.008C346.137 650.008 346.771 650.664 346.771 651.461L346.771 660.244C346.771 661.05 347.415 661.696 348.197 661.696L358.418 661.696C359.211 661.696 359.844 661.04 359.844 660.244L359.844 650.008L359.844 636.687L359.844 626.462C359.844 625.655 359.201 625.01 358.418 625.01L348.197 625.01C347.415 625 346.771 625.655 346.771 626.462Z" fill="white" fill-opacity="0.15"/>
</g>
<g clip-path="url(#clip18_1330:3740)">
<path d="M-9.07013 144.73L-0.360139 144.73C0.439861 144.73 1.07986 145.38 1.07986 146.17L1.07986 155.95C1.07986 156.75 1.72987 157.39 2.51987 157.39L12.8399 157.39C13.6399 157.39 14.2799 156.74 14.2799 155.95L14.2799 146.17C14.2799 145.37 14.9299 144.73 15.7199 144.73L24.4299 144.73C25.2299 144.73 25.8699 144.08 25.8699 143.29L25.8699 132.97C25.8699 132.17 25.2299 131.53 24.4299 131.53L14.2799 131.53L1.06987 131.53L-9.08014 131.53C-9.88014 131.53 -10.5201 132.18 -10.5201 132.97L-10.5201 143.29C-10.5101 144.08 -9.87013 144.73 -9.07013 144.73Z" fill="white" fill-opacity="0.15"/>
<path d="M66.2697 144.73L74.9797 144.73C75.7797 144.73 76.4197 145.38 76.4197 146.17L76.4197 155.95C76.4197 156.75 77.0697 157.39 77.8597 157.39L88.1797 157.39C88.9797 157.39 89.6197 156.74 89.6197 155.95L89.6197 146.17C89.6197 145.37 90.2697 144.73 91.0597 144.73L99.7697 144.73C100.57 144.73 101.21 144.08 101.21 143.29L101.21 132.97C101.21 132.17 100.57 131.53 99.7697 131.53L89.6197 131.53L76.4097 131.53L66.2597 131.53C65.4597 131.53 64.8197 132.18 64.8197 132.97L64.8197 143.29C64.8197 144.08 65.4697 144.73 66.2697 144.73Z" fill="white" fill-opacity="0.15"/>
<path d="M45.6799 122.45L45.6799 131.15C45.6799 131.95 45.0299 132.59 44.2399 132.59L34.4599 132.59C33.6599 132.59 33.0199 133.24 33.0199 134.03L33.0199 144.36C33.0199 145.16 33.6599 145.8 34.4599 145.8L44.2399 145.8C45.0399 145.8 45.6799 146.45 45.6799 147.24L45.6799 155.95C45.6799 156.75 46.3299 157.39 47.1199 157.39L57.4499 157.39C58.2499 157.39 58.8899 156.74 58.8899 155.95L58.8899 145.8L58.8899 132.59L58.8899 122.45C58.8899 121.65 58.2499 121.01 57.4499 121.01L47.1299 121.01C46.3299 121 45.6799 121.65 45.6799 122.45Z" fill="white" fill-opacity="0.15"/>
<path d="M141.6 144.73L150.31 144.73C151.11 144.73 151.75 145.38 151.75 146.17L151.75 155.95C151.75 156.75 152.4 157.39 153.19 157.39L163.52 157.39C164.32 157.39 164.96 156.74 164.96 155.95L164.96 146.17C164.96 145.37 165.61 144.73 166.4 144.73L175.11 144.73C175.91 144.73 176.55 144.08 176.55 143.29L176.55 132.97C176.55 132.17 175.9 131.53 175.11 131.53L164.96 131.53L151.75 131.53L141.6 131.53C140.8 131.53 140.16 132.18 140.16 132.97L140.16 143.29C140.16 144.08 140.81 144.73 141.6 144.73Z" fill="white" fill-opacity="0.15"/>
<path d="M121.02 122.45L121.02 131.15C121.02 131.95 120.37 132.59 119.58 132.59L109.8 132.59C109 132.59 108.36 133.24 108.36 134.03L108.36 144.36C108.36 145.16 109.01 145.8 109.8 145.8L119.58 145.8C120.38 145.8 121.02 146.45 121.02 147.24L121.02 155.95C121.02 156.75 121.67 157.39 122.46 157.39L132.79 157.39C133.59 157.39 134.23 156.74 134.23 155.95L134.23 145.8L134.23 132.59L134.23 122.45C134.23 121.65 133.59 121.01 132.79 121.01L122.47 121.01C121.67 121 121.02 121.65 121.02 122.45Z" fill="white" fill-opacity="0.15"/>
</g>
<g clip-path="url(#clip19_1330:3740)">
<path d="M218.25 144.73L226.96 144.73C227.76 144.73 228.4 145.38 228.4 146.17L228.4 155.95C228.4 156.75 229.05 157.39 229.84 157.39L240.16 157.39C240.96 157.39 241.6 156.74 241.6 155.95L241.6 146.17C241.6 145.37 242.25 144.73 243.04 144.73L251.75 144.73C252.55 144.73 253.19 144.08 253.19 143.29L253.19 132.97C253.19 132.17 252.55 131.53 251.75 131.53L241.6 131.53L228.39 131.53L218.24 131.53C217.44 131.53 216.8 132.18 216.8 132.97L216.8 143.29C216.81 144.08 217.45 144.73 218.25 144.73Z" fill="white" fill-opacity="0.15"/>
<path d="M197.67 122.45L197.67 131.15C197.67 131.95 197.02 132.59 196.23 132.59L186.45 132.59C185.65 132.59 185.01 133.24 185.01 134.03L185.01 144.36C185.01 145.16 185.65 145.8 186.45 145.8L196.23 145.8C197.02 145.8 197.67 146.45 197.67 147.24L197.67 155.95C197.67 156.75 198.32 157.39 199.11 157.39L209.43 157.39C210.23 157.39 210.87 156.74 210.87 155.95L210.87 145.8L210.87 132.59L210.87 122.45C210.87 121.65 210.23 121.01 209.43 121.01L199.11 121.01C198.31 121 197.67 121.65 197.67 122.45Z" fill="white" fill-opacity="0.15"/>
<path d="M293.59 144.73L302.3 144.73C303.1 144.73 303.74 145.38 303.74 146.17L303.74 155.95C303.74 156.75 304.39 157.39 305.18 157.39L315.5 157.39C316.3 157.39 316.94 156.74 316.94 155.95L316.94 146.17C316.94 145.37 317.59 144.73 318.38 144.73L327.09 144.73C327.89 144.73 328.53 144.08 328.53 143.29L328.53 132.97C328.53 132.17 327.89 131.53 327.09 131.53L316.94 131.53L303.73 131.53L293.58 131.53C292.78 131.53 292.14 132.18 292.14 132.97L292.14 143.29C292.15 144.08 292.79 144.73 293.59 144.73Z" fill="white" fill-opacity="0.15"/>
<path d="M274.22 127.7L274.22 136.41C274.22 137.21 273.57 137.85 272.78 137.85L263 137.85C262.2 137.85 261.56 138.5 261.56 139.29L261.56 149.62C261.56 150.42 262.2 151.06 263 151.06L272.78 151.06C273.57 151.06 274.22 151.71 274.22 152.5L274.22 161.21C274.22 162.01 274.87 162.65 275.66 162.65L285.98 162.65C286.78 162.65 287.42 162 287.42 161.21L287.42 151.06L287.42 137.85L287.42 127.7C287.42 126.9 286.78 126.26 285.98 126.26L275.66 126.26C274.86 126.26 274.22 126.91 274.22 127.7Z" fill="white" fill-opacity="0.15"/>
<path d="M368.93 144.73L377.64 144.73C378.44 144.73 379.08 145.38 379.08 146.17L379.08 155.95C379.08 156.75 379.73 157.39 380.52 157.39L390.84 157.39C391.64 157.39 392.28 156.74 392.28 155.95L392.28 146.17C392.28 145.37 392.93 144.73 393.72 144.73L402.43 144.73C403.23 144.73 403.87 144.08 403.87 143.29L403.87 132.97C403.87 132.17 403.23 131.53 402.43 131.53L392.28 131.53L379.07 131.53L368.92 131.53C368.12 131.53 367.48 132.18 367.48 132.97L367.48 143.29C367.49 144.08 368.13 144.73 368.93 144.73Z" fill="white" fill-opacity="0.15"/>
<path d="M348.34 122.45L348.34 131.15C348.34 131.95 347.69 132.59 346.9 132.59L337.12 132.59C336.32 132.59 335.68 133.24 335.68 134.03L335.68 144.36C335.68 145.16 336.33 145.8 337.12 145.8L346.9 145.8C347.7 145.8 348.34 146.45 348.34 147.24L348.34 155.95C348.34 156.75 348.99 157.39 349.78 157.39L360.1 157.39C360.9 157.39 361.54 156.74 361.54 155.95L361.54 145.8L361.54 132.59L361.54 122.45C361.54 121.65 360.89 121.01 360.1 121.01L349.78 121.01C348.99 121 348.34 121.65 348.34 122.45Z" fill="white" fill-opacity="0.15"/>
</g>
<g clip-path="url(#clip20_1330:3740)">
<path d="M-9.07013 228.73L-0.360139 228.73C0.439861 228.73 1.07986 229.38 1.07986 230.17L1.07986 239.95C1.07986 240.75 1.72987 241.39 2.51987 241.39L12.8399 241.39C13.6399 241.39 14.2799 240.74 14.2799 239.95L14.2799 230.17C14.2799 229.37 14.9299 228.73 15.7199 228.73L24.4299 228.73C25.2299 228.73 25.8699 228.08 25.8699 227.29L25.8699 216.97C25.8699 216.17 25.2299 215.53 24.4299 215.53L14.2799 215.53L1.06987 215.53L-9.08014 215.53C-9.88014 215.53 -10.5201 216.18 -10.5201 216.97L-10.5201 227.29C-10.5101 228.08 -9.87013 228.73 -9.07013 228.73Z" fill="white" fill-opacity="0.15"/>
<path d="M66.2697 228.73L74.9797 228.73C75.7797 228.73 76.4197 229.38 76.4197 230.17L76.4197 239.95C76.4197 240.75 77.0697 241.39 77.8597 241.39L88.1797 241.39C88.9797 241.39 89.6197 240.74 89.6197 239.95L89.6197 230.17C89.6197 229.37 90.2697 228.73 91.0597 228.73L99.7697 228.73C100.57 228.73 101.21 228.08 101.21 227.29L101.21 216.97C101.21 216.17 100.57 215.53 99.7697 215.53L89.6197 215.53L76.4097 215.53L66.2597 215.53C65.4597 215.53 64.8197 216.18 64.8197 216.97L64.8197 227.29C64.8197 228.08 65.4697 228.73 66.2697 228.73Z" fill="#4BD6F7"/>
<path d="M45.6799 206.45L45.6799 215.15C45.6799 215.95 45.0299 216.59 44.2399 216.59L34.4599 216.59C33.6599 216.59 33.0199 217.24 33.0199 218.03L33.0199 228.36C33.0199 229.16 33.6599 229.8 34.4599 229.8L44.2399 229.8C45.0399 229.8 45.6799 230.45 45.6799 231.24L45.6799 239.95C45.6799 240.75 46.3299 241.39 47.1199 241.39L57.4499 241.39C58.2499 241.39 58.8899 240.74 58.8899 239.95L58.8899 229.8L58.8899 216.59L58.8899 206.45C58.8899 205.65 58.2499 205.01 57.4499 205.01L47.1299 205.01C46.3299 205 45.6799 205.65 45.6799 206.45Z" fill="white" fill-opacity="0.15"/>
<path d="M141.6 228.73L150.31 228.73C151.11 228.73 151.75 229.38 151.75 230.17L151.75 239.95C151.75 240.75 152.4 241.39 153.19 241.39L163.52 241.39C164.32 241.39 164.96 240.74 164.96 239.95L164.96 230.17C164.96 229.37 165.61 228.73 166.4 228.73L175.11 228.73C175.91 228.73 176.55 228.08 176.55 227.29L176.55 216.97C176.55 216.17 175.9 215.53 175.11 215.53L164.96 215.53L151.75 215.53L141.6 215.53C140.8 215.53 140.16 216.18 140.16 216.97L140.16 227.29C140.16 228.08 140.81 228.73 141.6 228.73Z" fill="white" fill-opacity="0.15"/>
<path d="M121.02 206.45L121.02 215.15C121.02 215.95 120.37 216.59 119.58 216.59L109.8 216.59C109 216.59 108.36 217.24 108.36 218.03L108.36 228.36C108.36 229.16 109.01 229.8 109.8 229.8L119.58 229.8C120.38 229.8 121.02 230.45 121.02 231.24L121.02 239.95C121.02 240.75 121.67 241.39 122.46 241.39L132.79 241.39C133.59 241.39 134.23 240.74 134.23 239.95L134.23 229.8L134.23 216.59L134.23 206.45C134.23 205.65 133.59 205.01 132.79 205.01L122.47 205.01C121.67 205 121.02 205.65 121.02 206.45Z" fill="white" fill-opacity="0.15"/>
</g>
<g clip-path="url(#clip21_1330:3740)">
<path d="M218.25 228.73L226.96 228.73C227.76 228.73 228.4 229.38 228.4 230.17L228.4 239.95C228.4 240.75 229.05 241.39 229.84 241.39L240.16 241.39C240.96 241.39 241.6 240.74 241.6 239.95L241.6 230.17C241.6 229.37 242.25 228.73 243.04 228.73L251.75 228.73C252.55 228.73 253.19 228.08 253.19 227.29L253.19 216.97C253.19 216.17 252.55 215.53 251.75 215.53L241.6 215.53L228.39 215.53L218.24 215.53C217.44 215.53 216.8 216.18 216.8 216.97L216.8 227.29C216.81 228.08 217.45 228.73 218.25 228.73Z" fill="white" fill-opacity="0.15"/>
<path d="M197.67 206.45L197.67 215.15C197.67 215.95 197.02 216.59 196.23 216.59L186.45 216.59C185.65 216.59 185.01 217.24 185.01 218.03L185.01 228.36C185.01 229.16 185.65 229.8 186.45 229.8L196.23 229.8C197.02 229.8 197.67 230.45 197.67 231.24L197.67 239.95C197.67 240.75 198.32 241.39 199.11 241.39L209.43 241.39C210.23 241.39 210.87 240.74 210.87 239.95L210.87 229.8L210.87 216.59L210.87 206.45C210.87 205.65 210.23 205.01 209.43 205.01L199.11 205.01C198.31 205 197.67 205.65 197.67 206.45Z" fill="white" fill-opacity="0.15"/>
<path d="M293.59 228.73L302.3 228.73C303.1 228.73 303.74 229.38 303.74 230.17L303.74 239.95C303.74 240.75 304.39 241.39 305.18 241.39L315.5 241.39C316.3 241.39 316.94 240.74 316.94 239.95L316.94 230.17C316.94 229.37 317.59 228.73 318.38 228.73L327.09 228.73C327.89 228.73 328.53 228.08 328.53 227.29L328.53 216.97C328.53 216.17 327.89 215.53 327.09 215.53L316.94 215.53L303.73 215.53L293.58 215.53C292.78 215.53 292.14 216.18 292.14 216.97L292.14 227.29C292.15 228.08 292.79 228.73 293.59 228.73Z" fill="white" fill-opacity="0.15"/>
<path d="M274.22 211.7L274.22 220.41C274.22 221.21 273.57 221.85 272.78 221.85L263 221.85C262.2 221.85 261.56 222.5 261.56 223.29L261.56 233.62C261.56 234.42 262.2 235.06 263 235.06L272.78 235.06C273.57 235.06 274.22 235.71 274.22 236.5L274.22 245.21C274.22 246.01 274.87 246.65 275.66 246.65L285.98 246.65C286.78 246.65 287.42 246 287.42 245.21L287.42 235.06L287.42 221.85L287.42 211.7C287.42 210.9 286.78 210.26 285.98 210.26L275.66 210.26C274.86 210.26 274.22 210.91 274.22 211.7Z" fill="white" fill-opacity="0.15"/>
<path d="M368.93 228.73L377.64 228.73C378.44 228.73 379.08 229.38 379.08 230.17L379.08 239.95C379.08 240.75 379.73 241.39 380.52 241.39L390.84 241.39C391.64 241.39 392.28 240.74 392.28 239.95L392.28 230.17C392.28 229.37 392.93 228.73 393.72 228.73L402.43 228.73C403.23 228.73 403.87 228.08 403.87 227.29L403.87 216.97C403.87 216.17 403.23 215.53 402.43 215.53L392.28 215.53L379.07 215.53L368.92 215.53C368.12 215.53 367.48 216.18 367.48 216.97L367.48 227.29C367.49 228.08 368.13 228.73 368.93 228.73Z" fill="white" fill-opacity="0.15"/>
<path d="M348.34 206.45L348.34 215.15C348.34 215.95 347.69 216.59 346.9 216.59L337.12 216.59C336.32 216.59 335.68 217.24 335.68 218.03L335.68 228.36C335.68 229.16 336.33 229.8 337.12 229.8L346.9 229.8C347.7 229.8 348.34 230.45 348.34 231.24L348.34 239.95C348.34 240.75 348.99 241.39 349.78 241.39L360.1 241.39C360.9 241.39 361.54 240.74 361.54 239.95L361.54 229.8L361.54 216.59L361.54 206.45C361.54 205.65 360.89 205.01 360.1 205.01L349.78 205.01C348.99 205 348.34 205.65 348.34 206.45Z" fill="white" fill-opacity="0.15"/>
</g>
<g clip-path="url(#clip22_1330:3740)">
<path d="M-9.07013 312.73L-0.360139 312.73C0.439861 312.73 1.07986 313.38 1.07986 314.17L1.07986 323.95C1.07986 324.75 1.72987 325.39 2.51987 325.39L12.8399 325.39C13.6399 325.39 14.2799 324.74 14.2799 323.95L14.2799 314.17C14.2799 313.37 14.9299 312.73 15.7199 312.73L24.4299 312.73C25.2299 312.73 25.8699 312.08 25.8699 311.29L25.8699 300.97C25.8699 300.17 25.2299 299.53 24.4299 299.53L14.2799 299.53L1.06987 299.53L-9.08014 299.53C-9.88014 299.53 -10.5201 300.18 -10.5201 300.97L-10.5201 311.29C-10.5101 312.08 -9.87013 312.73 -9.07013 312.73Z" fill="white" fill-opacity="0.15"/>
<path d="M66.2697 312.73L74.9797 312.73C75.7797 312.73 76.4197 313.38 76.4197 314.17L76.4197 323.95C76.4197 324.75 77.0697 325.39 77.8597 325.39L88.1797 325.39C88.9797 325.39 89.6197 324.74 89.6197 323.95L89.6197 314.17C89.6197 313.37 90.2697 312.73 91.0597 312.73L99.7697 312.73C100.57 312.73 101.21 312.08 101.21 311.29L101.21 300.97C101.21 300.17 100.57 299.53 99.7697 299.53L89.6197 299.53L76.4097 299.53L66.2597 299.53C65.4597 299.53 64.8197 300.18 64.8197 300.97L64.8197 311.29C64.8197 312.08 65.4697 312.73 66.2697 312.73Z" fill="white" fill-opacity="0.15"/>
<path d="M45.6799 290.45L45.6799 299.15C45.6799 299.95 45.0299 300.59 44.2399 300.59L34.4599 300.59C33.6599 300.59 33.0199 301.24 33.0199 302.03L33.0199 312.36C33.0199 313.16 33.6599 313.8 34.4599 313.8L44.2399 313.8C45.0399 313.8 45.6799 314.45 45.6799 315.24L45.6799 323.95C45.6799 324.75 46.3299 325.39 47.1199 325.39L57.4499 325.39C58.2499 325.39 58.8899 324.74 58.8899 323.95L58.8899 313.8L58.8899 300.59L58.8899 290.45C58.8899 289.65 58.2499 289.01 57.4499 289.01L47.1299 289.01C46.3299 289 45.6799 289.65 45.6799 290.45Z" fill="white" fill-opacity="0.15"/>
<path d="M141.6 312.73L150.31 312.73C151.11 312.73 151.75 313.38 151.75 314.17L151.75 323.95C151.75 324.75 152.4 325.39 153.19 325.39L163.52 325.39C164.32 325.39 164.96 324.74 164.96 323.95L164.96 314.17C164.96 313.37 165.61 312.73 166.4 312.73L175.11 312.73C175.91 312.73 176.55 312.08 176.55 311.29L176.55 300.97C176.55 300.17 175.9 299.53 175.11 299.53L164.96 299.53L151.75 299.53L141.6 299.53C140.8 299.53 140.16 300.18 140.16 300.97L140.16 311.29C140.16 312.08 140.81 312.73 141.6 312.73Z" fill="white" fill-opacity="0.15"/>
<path d="M121.02 290.45L121.02 299.15C121.02 299.95 120.37 300.59 119.58 300.59L109.8 300.59C109 300.59 108.36 301.24 108.36 302.03L108.36 312.36C108.36 313.16 109.01 313.8 109.8 313.8L119.58 313.8C120.38 313.8 121.02 314.45 121.02 315.24L121.02 323.95C121.02 324.75 121.67 325.39 122.46 325.39L132.79 325.39C133.59 325.39 134.23 324.74 134.23 323.95L134.23 313.8L134.23 300.59L134.23 290.45C134.23 289.65 133.59 289.01 132.79 289.01L122.47 289.01C121.67 289 121.02 289.65 121.02 290.45Z" fill="white" fill-opacity="0.15"/>
</g>
<g clip-path="url(#clip23_1330:3740)">
<path d="M218.25 312.73L226.96 312.73C227.76 312.73 228.4 313.38 228.4 314.17L228.4 323.95C228.4 324.75 229.05 325.39 229.84 325.39L240.16 325.39C240.96 325.39 241.6 324.74 241.6 323.95L241.6 314.17C241.6 313.37 242.25 312.73 243.04 312.73L251.75 312.73C252.55 312.73 253.19 312.08 253.19 311.29L253.19 300.97C253.19 300.17 252.55 299.53 251.75 299.53L241.6 299.53L228.39 299.53L218.24 299.53C217.44 299.53 216.8 300.18 216.8 300.97L216.8 311.29C216.81 312.08 217.45 312.73 218.25 312.73Z" fill="white" fill-opacity="0.15"/>
<path d="M197.67 290.45L197.67 299.15C197.67 299.95 197.02 300.59 196.23 300.59L186.45 300.59C185.65 300.59 185.01 301.24 185.01 302.03L185.01 312.36C185.01 313.16 185.65 313.8 186.45 313.8L196.23 313.8C197.02 313.8 197.67 314.45 197.67 315.24L197.67 323.95C197.67 324.75 198.32 325.39 199.11 325.39L209.43 325.39C210.23 325.39 210.87 324.74 210.87 323.95L210.87 313.8L210.87 300.59L210.87 290.45C210.87 289.65 210.23 289.01 209.43 289.01L199.11 289.01C198.31 289 197.67 289.65 197.67 290.45Z" fill="white" fill-opacity="0.15"/>
<path d="M293.59 312.73L302.3 312.73C303.1 312.73 303.74 313.38 303.74 314.17L303.74 323.95C303.74 324.75 304.39 325.39 305.18 325.39L315.5 325.39C316.3 325.39 316.94 324.74 316.94 323.95L316.94 314.17C316.94 313.37 317.59 312.73 318.38 312.73L327.09 312.73C327.89 312.73 328.53 312.08 328.53 311.29L328.53 300.97C328.53 300.17 327.89 299.53 327.09 299.53L316.94 299.53L303.73 299.53L293.58 299.53C292.78 299.53 292.14 300.18 292.14 300.97L292.14 311.29C292.15 312.08 292.79 312.73 293.59 312.73Z" fill="white" fill-opacity="0.15"/>
<path d="M274.22 295.7L274.22 304.41C274.22 305.21 273.57 305.85 272.78 305.85L263 305.85C262.2 305.85 261.56 306.5 261.56 307.29L261.56 317.62C261.56 318.42 262.2 319.06 263 319.06L272.78 319.06C273.57 319.06 274.22 319.71 274.22 320.5L274.22 329.21C274.22 330.01 274.87 330.65 275.66 330.65L285.98 330.65C286.78 330.65 287.42 330 287.42 329.21L287.42 319.06L287.42 305.85L287.42 295.7C287.42 294.9 286.78 294.26 285.98 294.26L275.66 294.26C274.86 294.26 274.22 294.91 274.22 295.7Z" fill="white" fill-opacity="0.15"/>
<path d="M368.93 312.73L377.64 312.73C378.44 312.73 379.08 313.38 379.08 314.17L379.08 323.95C379.08 324.75 379.73 325.39 380.52 325.39L390.84 325.39C391.64 325.39 392.28 324.74 392.28 323.95L392.28 314.17C392.28 313.37 392.93 312.73 393.72 312.73L402.43 312.73C403.23 312.73 403.87 312.08 403.87 311.29L403.87 300.97C403.87 300.17 403.23 299.53 402.43 299.53L392.28 299.53L379.07 299.53L368.92 299.53C368.12 299.53 367.48 300.18 367.48 300.97L367.48 311.29C367.49 312.08 368.13 312.73 368.93 312.73Z" fill="white" fill-opacity="0.15"/>
<path d="M348.34 290.45L348.34 299.15C348.34 299.95 347.69 300.59 346.9 300.59L337.12 300.59C336.32 300.59 335.68 301.24 335.68 302.03L335.68 312.36C335.68 313.16 336.33 313.8 337.12 313.8L346.9 313.8C347.7 313.8 348.34 314.45 348.34 315.24L348.34 323.95C348.34 324.75 348.99 325.39 349.78 325.39L360.1 325.39C360.9 325.39 361.54 324.74 361.54 323.95L361.54 313.8L361.54 300.59L361.54 290.45C361.54 289.65 360.89 289.01 360.1 289.01L349.78 289.01C348.99 289 348.34 289.65 348.34 290.45Z" fill="white" fill-opacity="0.15"/>
</g>
<g clip-path="url(#clip24_1330:3740)">
<path d="M-9.07013 396.73L-0.360139 396.73C0.439861 396.73 1.07986 397.38 1.07986 398.17L1.07986 407.95C1.07986 408.75 1.72987 409.39 2.51987 409.39L12.8399 409.39C13.6399 409.39 14.2799 408.74 14.2799 407.95L14.2799 398.17C14.2799 397.37 14.9299 396.73 15.7199 396.73L24.4299 396.73C25.2299 396.73 25.8699 396.08 25.8699 395.29L25.8699 384.97C25.8699 384.17 25.2299 383.53 24.4299 383.53L14.2799 383.53L1.06987 383.53L-9.08014 383.53C-9.88014 383.53 -10.5201 384.18 -10.5201 384.97L-10.5201 395.29C-10.5101 396.08 -9.87013 396.73 -9.07013 396.73Z" fill="white" fill-opacity="0.15"/>
<path d="M66.2697 396.73L74.9797 396.73C75.7797 396.73 76.4197 397.38 76.4197 398.17L76.4197 407.95C76.4197 408.75 77.0697 409.39 77.8597 409.39L88.1797 409.39C88.9797 409.39 89.6197 408.74 89.6197 407.95L89.6197 398.17C89.6197 397.37 90.2697 396.73 91.0597 396.73L99.7697 396.73C100.57 396.73 101.21 396.08 101.21 395.29L101.21 384.97C101.21 384.17 100.57 383.53 99.7697 383.53L89.6197 383.53L76.4097 383.53L66.2597 383.53C65.4597 383.53 64.8197 384.18 64.8197 384.97L64.8197 395.29C64.8197 396.08 65.4697 396.73 66.2697 396.73Z" fill="white" fill-opacity="0.15"/>
<path d="M45.6799 374.45L45.6799 383.15C45.6799 383.95 45.0299 384.59 44.2399 384.59L34.4599 384.59C33.6599 384.59 33.0199 385.24 33.0199 386.03L33.0199 396.36C33.0199 397.16 33.6599 397.8 34.4599 397.8L44.2399 397.8C45.0399 397.8 45.6799 398.45 45.6799 399.24L45.6799 407.95C45.6799 408.75 46.3299 409.39 47.1199 409.39L57.4499 409.39C58.2499 409.39 58.8899 408.74 58.8899 407.95L58.8899 397.8L58.8899 384.59L58.8899 374.45C58.8899 373.65 58.2499 373.01 57.4499 373.01L47.1299 373.01C46.3299 373 45.6799 373.65 45.6799 374.45Z" fill="white" fill-opacity="0.15"/>
<path d="M141.6 396.73L150.31 396.73C151.11 396.73 151.75 397.38 151.75 398.17L151.75 407.95C151.75 408.75 152.4 409.39 153.19 409.39L163.52 409.39C164.32 409.39 164.96 408.74 164.96 407.95L164.96 398.17C164.96 397.37 165.61 396.73 166.4 396.73L175.11 396.73C175.91 396.73 176.55 396.08 176.55 395.29L176.55 384.97C176.55 384.17 175.9 383.53 175.11 383.53L164.96 383.53L151.75 383.53L141.6 383.53C140.8 383.53 140.16 384.18 140.16 384.97L140.16 395.29C140.16 396.08 140.81 396.73 141.6 396.73Z" fill="white" fill-opacity="0.15"/>
<path d="M121.02 374.45L121.02 383.15C121.02 383.95 120.37 384.59 119.58 384.59L109.8 384.59C109 384.59 108.36 385.24 108.36 386.03L108.36 396.36C108.36 397.16 109.01 397.8 109.8 397.8L119.58 397.8C120.38 397.8 121.02 398.45 121.02 399.24L121.02 407.95C121.02 408.75 121.67 409.39 122.46 409.39L132.79 409.39C133.59 409.39 134.23 408.74 134.23 407.95L134.23 397.8L134.23 384.59L134.23 374.45C134.23 373.65 133.59 373.01 132.79 373.01L122.47 373.01C121.67 373 121.02 373.65 121.02 374.45Z" fill="#EEFF26"/>
</g>
<g clip-path="url(#clip25_1330:3740)">
<path d="M218.25 396.73L226.96 396.73C227.76 396.73 228.4 397.38 228.4 398.17L228.4 407.95C228.4 408.75 229.05 409.39 229.84 409.39L240.16 409.39C240.96 409.39 241.6 408.74 241.6 407.95L241.6 398.17C241.6 397.37 242.25 396.73 243.04 396.73L251.75 396.73C252.55 396.73 253.19 396.08 253.19 395.29L253.19 384.97C253.19 384.17 252.55 383.53 251.75 383.53L241.6 383.53L228.39 383.53L218.24 383.53C217.44 383.53 216.8 384.18 216.8 384.97L216.8 395.29C216.81 396.08 217.45 396.73 218.25 396.73Z" fill="white" fill-opacity="0.15"/>
<path d="M197.67 374.45L197.67 383.15C197.67 383.95 197.02 384.59 196.23 384.59L186.45 384.59C185.65 384.59 185.01 385.24 185.01 386.03L185.01 396.36C185.01 397.16 185.65 397.8 186.45 397.8L196.23 397.8C197.02 397.8 197.67 398.45 197.67 399.24L197.67 407.95C197.67 408.75 198.32 409.39 199.11 409.39L209.43 409.39C210.23 409.39 210.87 408.74 210.87 407.95L210.87 397.8L210.87 384.59L210.87 374.45C210.87 373.65 210.23 373.01 209.43 373.01L199.11 373.01C198.31 373 197.67 373.65 197.67 374.45Z" fill="white" fill-opacity="0.15"/>
<path d="M293.59 396.73L302.3 396.73C303.1 396.73 303.74 397.38 303.74 398.17L303.74 407.95C303.74 408.75 304.39 409.39 305.18 409.39L315.5 409.39C316.3 409.39 316.94 408.74 316.94 407.95L316.94 398.17C316.94 397.37 317.59 396.73 318.38 396.73L327.09 396.73C327.89 396.73 328.53 396.08 328.53 395.29L328.53 384.97C328.53 384.17 327.89 383.53 327.09 383.53L316.94 383.53L303.73 383.53L293.58 383.53C292.78 383.53 292.14 384.18 292.14 384.97L292.14 395.29C292.15 396.08 292.79 396.73 293.59 396.73Z" fill="white" fill-opacity="0.15"/>
<path d="M274.22 379.7L274.22 388.41C274.22 389.21 273.57 389.85 272.78 389.85L263 389.85C262.2 389.85 261.56 390.5 261.56 391.29L261.56 401.62C261.56 402.42 262.2 403.06 263 403.06L272.78 403.06C273.57 403.06 274.22 403.71 274.22 404.5L274.22 413.21C274.22 414.01 274.87 414.65 275.66 414.65L285.98 414.65C286.78 414.65 287.42 414 287.42 413.21L287.42 403.06L287.42 389.85L287.42 379.7C287.42 378.9 286.78 378.26 285.98 378.26L275.66 378.26C274.86 378.26 274.22 378.91 274.22 379.7Z" fill="white" fill-opacity="0.15"/>
<path d="M368.93 396.73L377.64 396.73C378.44 396.73 379.08 397.38 379.08 398.17L379.08 407.95C379.08 408.75 379.73 409.39 380.52 409.39L390.84 409.39C391.64 409.39 392.28 408.74 392.28 407.95L392.28 398.17C392.28 397.37 392.93 396.73 393.72 396.73L402.43 396.73C403.23 396.73 403.87 396.08 403.87 395.29L403.87 384.97C403.87 384.17 403.23 383.53 402.43 383.53L392.28 383.53L379.07 383.53L368.92 383.53C368.12 383.53 367.48 384.18 367.48 384.97L367.48 395.29C367.49 396.08 368.13 396.73 368.93 396.73Z" fill="white" fill-opacity="0.15"/>
<path d="M348.34 374.45L348.34 383.15C348.34 383.95 347.69 384.59 346.9 384.59L337.12 384.59C336.32 384.59 335.68 385.24 335.68 386.03L335.68 396.36C335.68 397.16 336.33 397.8 337.12 397.8L346.9 397.8C347.7 397.8 348.34 398.45 348.34 399.24L348.34 407.95C348.34 408.75 348.99 409.39 349.78 409.39L360.1 409.39C360.9 409.39 361.54 408.74 361.54 407.95L361.54 397.8L361.54 384.59L361.54 374.45C361.54 373.65 360.89 373.01 360.1 373.01L349.78 373.01C348.99 373 348.34 373.65 348.34 374.45Z" fill="white" fill-opacity="0.15"/>
</g>
<g clip-path="url(#clip26_1330:3740)">
<path d="M-9.07013 480.73L-0.360139 480.73C0.439861 480.73 1.07986 481.38 1.07986 482.17L1.07986 491.95C1.07986 492.75 1.72987 493.39 2.51987 493.39L12.8399 493.39C13.6399 493.39 14.2799 492.74 14.2799 491.95L14.2799 482.17C14.2799 481.37 14.9299 480.73 15.7199 480.73L24.4299 480.73C25.2299 480.73 25.8699 480.08 25.8699 479.29L25.8699 468.97C25.8699 468.17 25.2299 467.53 24.4299 467.53L14.2799 467.53L1.06987 467.53L-9.08014 467.53C-9.88014 467.53 -10.5201 468.18 -10.5201 468.97L-10.5201 479.29C-10.5101 480.08 -9.87013 480.73 -9.07013 480.73Z" fill="white" fill-opacity="0.15"/>
<path d="M66.2697 480.73L74.9797 480.73C75.7797 480.73 76.4197 481.38 76.4197 482.17L76.4197 491.95C76.4197 492.75 77.0697 493.39 77.8597 493.39L88.1797 493.39C88.9797 493.39 89.6197 492.74 89.6197 491.95L89.6197 482.17C89.6197 481.37 90.2697 480.73 91.0597 480.73L99.7697 480.73C100.57 480.73 101.21 480.08 101.21 479.29L101.21 468.97C101.21 468.17 100.57 467.53 99.7697 467.53L89.6197 467.53L76.4097 467.53L66.2597 467.53C65.4597 467.53 64.8197 468.18 64.8197 468.97L64.8197 479.29C64.8197 480.08 65.4697 480.73 66.2697 480.73Z" fill="white" fill-opacity="0.15"/>
<path d="M45.6799 458.45L45.6799 467.15C45.6799 467.95 45.0299 468.59 44.2399 468.59L34.4599 468.59C33.6599 468.59 33.0199 469.24 33.0199 470.03L33.0199 480.36C33.0199 481.16 33.6599 481.8 34.4599 481.8L44.2399 481.8C45.0399 481.8 45.6799 482.45 45.6799 483.24L45.6799 491.95C45.6799 492.75 46.3299 493.39 47.1199 493.39L57.4499 493.39C58.2499 493.39 58.8899 492.74 58.8899 491.95L58.8899 481.8L58.8899 468.59L58.8899 458.45C58.8899 457.65 58.2499 457.01 57.4499 457.01L47.1299 457.01C46.3299 457 45.6799 457.65 45.6799 458.45Z" fill="white" fill-opacity="0.15"/>
<path d="M141.6 480.73L150.31 480.73C151.11 480.73 151.75 481.38 151.75 482.17L151.75 491.95C151.75 492.75 152.4 493.39 153.19 493.39L163.52 493.39C164.32 493.39 164.96 492.74 164.96 491.95L164.96 482.17C164.96 481.37 165.61 480.73 166.4 480.73L175.11 480.73C175.91 480.73 176.55 480.08 176.55 479.29L176.55 468.97C176.55 468.17 175.9 467.53 175.11 467.53L164.96 467.53L151.75 467.53L141.6 467.53C140.8 467.53 140.16 468.18 140.16 468.97L140.16 479.29C140.16 480.08 140.81 480.73 141.6 480.73Z" fill="white" fill-opacity="0.15"/>
<path d="M121.02 458.45L121.02 467.15C121.02 467.95 120.37 468.59 119.58 468.59L109.8 468.59C109 468.59 108.36 469.24 108.36 470.03L108.36 480.36C108.36 481.16 109.01 481.8 109.8 481.8L119.58 481.8C120.38 481.8 121.02 482.45 121.02 483.24L121.02 491.95C121.02 492.75 121.67 493.39 122.46 493.39L132.79 493.39C133.59 493.39 134.23 492.74 134.23 491.95L134.23 481.8L134.23 468.59L134.23 458.45C134.23 457.65 133.59 457.01 132.79 457.01L122.47 457.01C121.67 457 121.02 457.65 121.02 458.45Z" fill="white" fill-opacity="0.15"/>
</g>
<g clip-path="url(#clip27_1330:3740)">
<path d="M218.25 480.73L226.96 480.73C227.76 480.73 228.4 481.38 228.4 482.17L228.4 491.95C228.4 492.75 229.05 493.39 229.84 493.39L240.16 493.39C240.96 493.39 241.6 492.74 241.6 491.95L241.6 482.17C241.6 481.37 242.25 480.73 243.04 480.73L251.75 480.73C252.55 480.73 253.19 480.08 253.19 479.29L253.19 468.97C253.19 468.17 252.55 467.53 251.75 467.53L241.6 467.53L228.39 467.53L218.24 467.53C217.44 467.53 216.8 468.18 216.8 468.97L216.8 479.29C216.81 480.08 217.45 480.73 218.25 480.73Z" fill="white" fill-opacity="0.15"/>
<path d="M197.67 458.45L197.67 467.15C197.67 467.95 197.02 468.59 196.23 468.59L186.45 468.59C185.65 468.59 185.01 469.24 185.01 470.03L185.01 480.36C185.01 481.16 185.65 481.8 186.45 481.8L196.23 481.8C197.02 481.8 197.67 482.45 197.67 483.24L197.67 491.95C197.67 492.75 198.32 493.39 199.11 493.39L209.43 493.39C210.23 493.39 210.87 492.74 210.87 491.95L210.87 481.8L210.87 468.59L210.87 458.45C210.87 457.65 210.23 457.01 209.43 457.01L199.11 457.01C198.31 457 197.67 457.65 197.67 458.45Z" fill="white" fill-opacity="0.15"/>
<path d="M293.59 480.73L302.3 480.73C303.1 480.73 303.74 481.38 303.74 482.17L303.74 491.95C303.74 492.75 304.39 493.39 305.18 493.39L315.5 493.39C316.3 493.39 316.94 492.74 316.94 491.95L316.94 482.17C316.94 481.37 317.59 480.73 318.38 480.73L327.09 480.73C327.89 480.73 328.53 480.08 328.53 479.29L328.53 468.97C328.53 468.17 327.89 467.53 327.09 467.53L316.94 467.53L303.73 467.53L293.58 467.53C292.78 467.53 292.14 468.18 292.14 468.97L292.14 479.29C292.15 480.08 292.79 480.73 293.59 480.73Z" fill="white" fill-opacity="0.15"/>
<path d="M274.22 463.7L274.22 472.41C274.22 473.21 273.57 473.85 272.78 473.85L263 473.85C262.2 473.85 261.56 474.5 261.56 475.29L261.56 485.62C261.56 486.42 262.2 487.06 263 487.06L272.78 487.06C273.57 487.06 274.22 487.71 274.22 488.5L274.22 497.21C274.22 498.01 274.87 498.65 275.66 498.65L285.98 498.65C286.78 498.65 287.42 498 287.42 497.21L287.42 487.06L287.42 473.85L287.42 463.7C287.42 462.9 286.78 462.26 285.98 462.26L275.66 462.26C274.86 462.26 274.22 462.91 274.22 463.7Z" fill="white" fill-opacity="0.15"/>
<path d="M368.93 480.73L377.64 480.73C378.44 480.73 379.08 481.38 379.08 482.17L379.08 491.95C379.08 492.75 379.73 493.39 380.52 493.39L390.84 493.39C391.64 493.39 392.28 492.74 392.28 491.95L392.28 482.17C392.28 481.37 392.93 480.73 393.72 480.73L402.43 480.73C403.23 480.73 403.87 480.08 403.87 479.29L403.87 468.97C403.87 468.17 403.23 467.53 402.43 467.53L392.28 467.53L379.07 467.53L368.92 467.53C368.12 467.53 367.48 468.18 367.48 468.97L367.48 479.29C367.49 480.08 368.13 480.73 368.93 480.73Z" fill="white" fill-opacity="0.15"/>
<path d="M348.34 458.45L348.34 467.15C348.34 467.95 347.69 468.59 346.9 468.59L337.12 468.59C336.32 468.59 335.68 469.24 335.68 470.03L335.68 480.36C335.68 481.16 336.33 481.8 337.12 481.8L346.9 481.8C347.7 481.8 348.34 482.45 348.34 483.24L348.34 491.95C348.34 492.75 348.99 493.39 349.78 493.39L360.1 493.39C360.9 493.39 361.54 492.74 361.54 491.95L361.54 481.8L361.54 468.59L361.54 458.45C361.54 457.65 360.89 457.01 360.1 457.01L349.78 457.01C348.99 457 348.34 457.65 348.34 458.45Z" fill="#F7A334"/>
</g>
<path d="M218.25 564.731L226.96 564.731C227.76 564.731 228.4 565.381 228.4 566.171L228.4 575.951C228.4 576.751 229.05 577.391 229.84 577.391L240.16 577.391C240.96 577.391 241.6 576.741 241.6 575.951L241.6 566.171C241.6 565.371 242.25 564.731 243.04 564.731L251.75 564.731C252.55 564.731 253.19 564.081 253.19 563.291L253.19 552.971C253.19 552.171 252.55 551.531 251.75 551.531L241.6 551.531L228.39 551.531L218.24 551.531C217.44 551.531 216.8 552.181 216.8 552.971L216.8 563.291C216.81 564.081 217.45 564.731 218.25 564.731Z" fill="#367FFF"/>
<path d="M197.67 542.451L197.67 551.151C197.67 551.951 197.02 552.591 196.23 552.591L186.45 552.591C185.65 552.591 185.01 553.241 185.01 554.031L185.01 564.361C185.01 565.161 185.65 565.801 186.45 565.801L196.23 565.801C197.02 565.801 197.67 566.451 197.67 567.241L197.67 575.951C197.67 576.751 198.32 577.391 199.11 577.391L209.43 577.391C210.23 577.391 210.87 576.741 210.87 575.951L210.87 565.801L210.87 552.591L210.87 542.451C210.87 541.651 210.23 541.011 209.43 541.011L199.11 541.011C198.31 541.001 197.67 541.651 197.67 542.451Z" fill="white" fill-opacity="0.15"/>
<path d="M293.59 564.731L302.3 564.731C303.1 564.731 303.74 565.381 303.74 566.171L303.74 575.951C303.74 576.751 304.39 577.391 305.18 577.391L315.5 577.391C316.3 577.391 316.94 576.741 316.94 575.951L316.94 566.171C316.94 565.371 317.59 564.731 318.38 564.731L327.09 564.731C327.89 564.731 328.53 564.081 328.53 563.291L328.53 552.971C328.53 552.171 327.89 551.531 327.09 551.531L316.94 551.531L303.73 551.531L293.58 551.531C292.78 551.531 292.14 552.181 292.14 552.971L292.14 563.291C292.15 564.081 292.79 564.731 293.59 564.731Z" fill="white" fill-opacity="0.15"/>
<path d="M274.22 547.7L274.22 556.41C274.22 557.21 273.57 557.85 272.78 557.85L263 557.85C262.2 557.85 261.56 558.5 261.56 559.29L261.56 569.62C261.56 570.42 262.2 571.06 263 571.06L272.78 571.06C273.57 571.06 274.22 571.71 274.22 572.5L274.22 581.21C274.22 582.01 274.87 582.65 275.66 582.65L285.98 582.65C286.78 582.65 287.42 582 287.42 581.21L287.42 571.06L287.42 557.85L287.42 547.7C287.42 546.9 286.78 546.26 285.98 546.26L275.66 546.26C274.86 546.26 274.22 546.91 274.22 547.7Z" fill="white" fill-opacity="0.15"/>
<path d="M-9.07037 564.731L-0.360383 564.731C0.439617 564.731 1.07962 565.381 1.07962 566.171L1.07962 575.951C1.07962 576.751 1.72962 577.391 2.51962 577.391L12.8396 577.391C13.6396 577.391 14.2796 576.741 14.2796 575.951L14.2796 566.171C14.2796 565.371 14.9296 564.731 15.7196 564.731L24.4296 564.731C25.2296 564.731 25.8696 564.081 25.8696 563.291L25.8696 552.971C25.8696 552.171 25.2296 551.531 24.4296 551.531L14.2796 551.531L1.06962 551.531L-9.08039 551.531C-9.88039 551.531 -10.5204 552.181 -10.5204 552.971L-10.5204 563.291C-10.5104 564.081 -9.87037 564.731 -9.07037 564.731Z" fill="white" fill-opacity="0.15"/>
<path d="M368.93 564.731L377.64 564.731C378.44 564.731 379.08 565.381 379.08 566.171L379.08 575.951C379.08 576.751 379.73 577.391 380.52 577.391L390.84 577.391C391.64 577.391 392.28 576.741 392.28 575.951L392.28 566.171C392.28 565.371 392.93 564.731 393.72 564.731L402.43 564.731C403.23 564.731 403.87 564.081 403.87 563.291L403.87 552.971C403.87 552.171 403.23 551.531 402.43 551.531L392.28 551.531L379.07 551.531L368.92 551.531C368.12 551.531 367.48 552.181 367.48 552.971L367.48 563.291C367.49 564.081 368.13 564.731 368.93 564.731Z" fill="white" fill-opacity="0.15"/>
<path d="M348.34 542.451L348.34 551.151C348.34 551.951 347.69 552.591 346.9 552.591L337.12 552.591C336.32 552.591 335.68 553.241 335.68 554.031L335.68 564.361C335.68 565.161 336.33 565.801 337.12 565.801L346.9 565.801C347.7 565.801 348.34 566.451 348.34 567.241L348.34 575.951C348.34 576.751 348.99 577.391 349.78 577.391L360.1 577.391C360.9 577.391 361.54 576.741 361.54 575.951L361.54 565.801L361.54 552.591L361.54 542.451C361.54 541.651 360.89 541.011 360.1 541.011L349.78 541.011C348.99 541.001 348.34 541.651 348.34 542.451Z" fill="white" fill-opacity="0.15"/>
<path d="M66.27 564.731L74.98 564.731C75.78 564.731 76.42 565.381 76.42 566.171L76.42 575.951C76.42 576.751 77.07 577.391 77.86 577.391L88.18 577.391C88.98 577.391 89.62 576.741 89.62 575.951L89.62 566.171C89.62 565.371 90.27 564.731 91.06 564.731L99.77 564.731C100.57 564.731 101.21 564.081 101.21 563.291L101.21 552.971C101.21 552.171 100.57 551.531 99.77 551.531L89.62 551.531L76.41 551.531L66.26 551.531C65.46 551.531 64.82 552.181 64.82 552.971L64.82 563.291C64.82 564.081 65.47 564.731 66.27 564.731Z" fill="white"/>
<path d="M45.6797 542.451L45.6797 551.151C45.6797 551.951 45.0297 552.591 44.2397 552.591L34.4597 552.591C33.6597 552.591 33.0197 553.241 33.0197 554.031L33.0197 564.361C33.0197 565.161 33.6597 565.801 34.4597 565.801L44.2397 565.801C45.0397 565.801 45.6797 566.451 45.6797 567.241L45.6797 575.951C45.6797 576.751 46.3297 577.391 47.1197 577.391L57.4497 577.391C58.2497 577.391 58.8896 576.741 58.8896 575.951L58.8896 565.801L58.8896 552.591L58.8896 542.451C58.8896 541.651 58.2497 541.011 57.4497 541.011L47.1297 541.011C46.3297 541.001 45.6797 541.651 45.6797 542.451Z" fill="white" fill-opacity="0.15"/>
<path d="M141.6 564.731L150.31 564.731C151.11 564.731 151.75 565.381 151.75 566.171L151.75 575.951C151.75 576.751 152.4 577.391 153.19 577.391L163.52 577.391C164.32 577.391 164.96 576.741 164.96 575.951L164.96 566.171C164.96 565.371 165.61 564.731 166.4 564.731L175.11 564.731C175.91 564.731 176.55 564.081 176.55 563.291L176.55 552.971C176.55 552.171 175.9 551.531 175.11 551.531L164.96 551.531L151.75 551.531L141.6 551.531C140.8 551.531 140.16 552.181 140.16 552.971L140.16 563.291C140.16 564.081 140.81 564.731 141.6 564.731Z" fill="white" fill-opacity="0.15"/>
<path d="M121.02 542.451L121.02 551.151C121.02 551.951 120.37 552.591 119.58 552.591L109.8 552.591C109 552.591 108.36 553.241 108.36 554.031L108.36 564.361C108.36 565.161 109.01 565.801 109.8 565.801L119.58 565.801C120.38 565.801 121.02 566.451 121.02 567.241L121.02 575.951C121.02 576.751 121.67 577.391 122.46 577.391L132.79 577.391C133.59 577.391 134.23 576.741 134.23 575.951L134.23 565.801L134.23 552.591L134.23 542.451C134.23 541.651 133.59 541.011 132.79 541.011L122.47 541.011C121.67 541.001 121.02 541.651 121.02 542.451Z" fill="white" fill-opacity="0.15"/>
</g>
<defs>
<clipPath id="clip0_1330:3740">
<rect width="369.55" height="41.65" fill="white" transform="translate(-193 79)"/>
</clipPath>
<clipPath id="clip1_1330:3740">
<rect width="369.55" height="41.65" fill="white" transform="translate(185 79)"/>
</clipPath>
<clipPath id="clip2_1330:3740">
<rect width="369.55" height="41.65" fill="white" transform="translate(-193 163)"/>
</clipPath>
<clipPath id="clip3_1330:3740">
<rect width="369.55" height="41.65" fill="white" transform="translate(185 163)"/>
</clipPath>
<clipPath id="clip4_1330:3740">
<rect width="369.55" height="41.65" fill="white" transform="translate(-193 247)"/>
</clipPath>
<clipPath id="clip5_1330:3740">
<rect width="369.55" height="41.65" fill="white" transform="translate(185 247)"/>
</clipPath>
<clipPath id="clip6_1330:3740">
<rect width="369.55" height="41.65" fill="white" transform="translate(-193 331)"/>
</clipPath>
<clipPath id="clip7_1330:3740">
<rect width="369.55" height="41.65" fill="white" transform="translate(185 331)"/>
</clipPath>
<clipPath id="clip8_1330:3740">
<rect width="369.55" height="41.65" fill="white" transform="translate(-193 415)"/>
</clipPath>
<clipPath id="clip9_1330:3740">
<rect width="369.55" height="41.65" fill="white" transform="translate(185 415)"/>
</clipPath>
<clipPath id="clip10_1330:3740">
<rect width="369.55" height="41.65" fill="white" transform="translate(-193 499)"/>
</clipPath>
<clipPath id="clip11_1330:3740">
<rect width="369.55" height="41.65" fill="white" transform="translate(185 499)"/>
</clipPath>
<clipPath id="clip12_1330:3740">
<rect width="369.55" height="41.65" fill="white" transform="translate(-193 583)"/>
</clipPath>
<clipPath id="clip13_1330:3740">
<rect width="369.55" height="41.65" fill="white" transform="translate(185 583)"/>
</clipPath>
<clipPath id="clip14_1330:3740">
<rect width="366" height="42" fill="white" transform="translate(173 79) rotate(180)"/>
</clipPath>
<clipPath id="clip15_1330:3740">
<rect width="366" height="42" fill="white" transform="translate(551 79) rotate(180)"/>
</clipPath>
<clipPath id="clip16_1330:3740">
<rect width="366" height="42" fill="white" transform="translate(173 667) rotate(180)"/>
</clipPath>
<clipPath id="clip17_1330:3740">
<rect width="366" height="42" fill="white" transform="translate(551 667) rotate(180)"/>
</clipPath>
<clipPath id="clip18_1330:3740">
<rect width="369.55" height="41.65" fill="white" transform="translate(176.55 162.65) rotate(180)"/>
</clipPath>
<clipPath id="clip19_1330:3740">
<rect width="369.55" height="41.65" fill="white" transform="translate(554.55 162.65) rotate(180)"/>
</clipPath>
<clipPath id="clip20_1330:3740">
<rect width="369.55" height="41.65" fill="white" transform="translate(176.55 246.65) rotate(180)"/>
</clipPath>
<clipPath id="clip21_1330:3740">
<rect width="369.55" height="41.65" fill="white" transform="translate(554.55 246.65) rotate(180)"/>
</clipPath>
<clipPath id="clip22_1330:3740">
<rect width="369.55" height="41.65" fill="white" transform="translate(176.55 330.65) rotate(180)"/>
</clipPath>
<clipPath id="clip23_1330:3740">
<rect width="369.55" height="41.65" fill="white" transform="translate(554.55 330.65) rotate(180)"/>
</clipPath>
<clipPath id="clip24_1330:3740">
<rect width="369.55" height="41.65" fill="white" transform="translate(176.55 414.65) rotate(180)"/>
</clipPath>
<clipPath id="clip25_1330:3740">
<rect width="369.55" height="41.65" fill="white" transform="translate(554.55 414.65) rotate(180)"/>
</clipPath>
<clipPath id="clip26_1330:3740">
<rect width="369.55" height="41.65" fill="white" transform="translate(176.55 498.65) rotate(180)"/>
</clipPath>
<clipPath id="clip27_1330:3740">
<rect width="369.55" height="41.65" fill="white" transform="translate(554.55 498.65) rotate(180)"/>
</clipPath>
</defs>
</svg>
