<svg width="356" height="640" viewBox="0 0 356 640" fill="none" xmlns="http://www.w3.org/2000/svg">
<g clip-path="url(#clip0_1229:3516)">
<rect width="360" height="640" transform="translate(-4)" fill="white"/>
<rect x="-19" y="-15" width="392" height="709" fill="black"/>
<path d="M102.28 47.9198H93.5698C92.7698 47.9198 92.1298 47.2698 92.1298 46.4798V36.6998C92.1298 35.8998 91.4798 35.2598 90.6898 35.2598H80.3699C79.5699 35.2598 78.9298 35.9098 78.9298 36.6998V46.4798C78.9298 47.2798 78.2798 47.9198 77.4898 47.9198H68.7798C67.9798 47.9198 67.3398 48.5698 67.3398 49.3598V59.6798C67.3398 60.4798 67.9798 61.1198 68.7798 61.1198H78.9298H92.1398H102.29C103.09 61.1198 103.73 60.4698 103.73 59.6798V49.3598C103.73 48.5698 103.08 47.9198 102.28 47.9198Z" fill="#4BD6F7"/>
<path d="M26.95 47.9198H18.24C17.44 47.9198 16.8 47.2698 16.8 46.4798V36.6998C16.8 35.8998 16.15 35.2598 15.36 35.2598H5.03C4.23 35.2598 3.59 35.9098 3.59 36.6998V46.4798C3.59 47.2798 2.94 47.9198 2.15 47.9198H-6.56C-7.36 47.9198 -8 48.5698 -8 49.3598V59.6798C-8 60.4798 -7.35 61.1198 -6.56 61.1198H3.59H16.8H26.95C27.75 61.1198 28.39 60.4698 28.39 59.6798V49.3598C28.39 48.5698 27.74 47.9198 26.95 47.9198Z" fill="white" fill-opacity="0.15"/>
<path d="M47.5298 70.1998V61.4998C47.5298 60.6998 48.1798 60.0598 48.9698 60.0598H58.7498C59.5498 60.0598 60.1898 59.4098 60.1898 58.6198V48.2898C60.1898 47.4898 59.5398 46.8498 58.7498 46.8498H48.9698C48.1698 46.8498 47.5298 46.1998 47.5298 45.4098V36.6998C47.5298 35.8998 46.8798 35.2598 46.0898 35.2598H35.7598C34.9598 35.2598 34.3198 35.9098 34.3198 36.6998V46.8498V60.0598V70.1998C34.3198 70.9998 34.9598 71.6398 35.7598 71.6398H46.0798C46.8798 71.6498 47.5298 70.9998 47.5298 70.1998Z" fill="white" fill-opacity="0.15"/>
<path d="M328.3 47.9198H319.59C318.79 47.9198 318.15 47.2698 318.15 46.4798V36.6998C318.15 35.8998 317.5 35.2598 316.71 35.2598H306.39C305.59 35.2598 304.95 35.9098 304.95 36.6998V46.4798C304.95 47.2798 304.3 47.9198 303.51 47.9198H294.8C294 47.9198 293.36 48.5698 293.36 49.3598V59.6798C293.36 60.4798 294 61.1198 294.8 61.1198H304.95H318.16H328.31C329.11 61.1198 329.75 60.4698 329.75 59.6798V49.3598C329.74 48.5698 329.1 47.9198 328.3 47.9198Z" fill="white" fill-opacity="0.15"/>
<path d="M348.88 70.1998V61.4998C348.88 60.6998 349.53 60.0598 350.32 60.0598H360.1C360.9 60.0598 361.54 59.4098 361.54 58.6198V48.2898C361.54 47.4898 360.9 46.8498 360.1 46.8498H350.32C349.53 46.8498 348.88 46.1998 348.88 45.4098V36.6998C348.88 35.8998 348.23 35.2598 347.44 35.2598H337.12C336.32 35.2598 335.68 35.9098 335.68 36.6998V46.8498V60.0598V70.1998C335.68 70.9998 336.32 71.6398 337.12 71.6398H347.44C348.24 71.6498 348.88 70.9998 348.88 70.1998Z" fill="white" fill-opacity="0.15"/>
<path d="M252.96 47.9198H244.25C243.45 47.9198 242.81 47.2698 242.81 46.4798V36.6998C242.81 35.8998 242.16 35.2598 241.37 35.2598H231.05C230.25 35.2598 229.61 35.9098 229.61 36.6998V46.4798C229.61 47.2798 228.96 47.9198 228.17 47.9198H219.46C218.66 47.9198 218.02 48.5698 218.02 49.3598V59.6798C218.02 60.4798 218.66 61.1198 219.46 61.1198H229.61H242.82H252.97C253.77 61.1198 254.41 60.4698 254.41 59.6798V49.3598C254.4 48.5698 253.76 47.9198 252.96 47.9198Z" fill="white" fill-opacity="0.15"/>
<path d="M272.33 64.95V56.24C272.33 55.44 272.98 54.8 273.77 54.8H283.55C284.35 54.8 284.99 54.15 284.99 53.36V43.03C284.99 42.23 284.35 41.59 283.55 41.59H273.77C272.98 41.59 272.33 40.94 272.33 40.15V31.44C272.33 30.64 271.68 30 270.89 30H260.57C259.77 30 259.13 30.65 259.13 31.44V41.59V54.8V64.95C259.13 65.75 259.77 66.39 260.57 66.39H270.89C271.69 66.39 272.33 65.74 272.33 64.95Z" fill="white" fill-opacity="0.15"/>
<path d="M177.62 47.9198H168.91C168.11 47.9198 167.47 47.2698 167.47 46.4798V36.6998C167.47 35.8998 166.82 35.2598 166.03 35.2598H155.71C154.91 35.2598 154.27 35.9098 154.27 36.6998V46.4798C154.27 47.2798 153.62 47.9198 152.83 47.9198H144.12C143.32 47.9198 142.68 48.5698 142.68 49.3598V59.6798C142.68 60.4798 143.32 61.1198 144.12 61.1198H154.27H167.48H177.63C178.43 61.1198 179.07 60.4698 179.07 59.6798V49.3598C179.06 48.5698 178.42 47.9198 177.62 47.9198Z" fill="white" fill-opacity="0.15"/>
<path d="M198.21 70.1998V61.4998C198.21 60.6998 198.86 60.0598 199.65 60.0598H209.43C210.23 60.0598 210.87 59.4098 210.87 58.6198V48.2898C210.87 47.4898 210.22 46.8498 209.43 46.8498H199.65C198.85 46.8498 198.21 46.1998 198.21 45.4098V36.6998C198.21 35.8998 197.56 35.2598 196.77 35.2598H186.45C185.65 35.2598 185.01 35.9098 185.01 36.6998V46.8498V60.0598V70.1998C185.01 70.9998 185.66 71.6398 186.45 71.6398H196.77C197.56 71.6498 198.21 70.9998 198.21 70.1998Z" fill="white" fill-opacity="0.15"/>
<path d="M122.87 70.1998V61.4998C122.87 60.6998 123.52 60.0598 124.31 60.0598H134.09C134.89 60.0598 135.53 59.4098 135.53 58.6198V48.2898C135.53 47.4898 134.89 46.8498 134.09 46.8498H124.31C123.51 46.8498 122.87 46.1998 122.87 45.4098V36.6998C122.87 35.8998 122.22 35.2598 121.43 35.2598H111.1C110.3 35.2598 109.66 35.9098 109.66 36.6998V46.8498V60.0598V70.1998C109.66 70.9998 110.3 71.6398 111.1 71.6398H121.42C122.22 71.6498 122.87 70.9998 122.87 70.1998Z" fill="white" fill-opacity="0.15"/>
<g clip-path="url(#clip1_1229:3516)">
<path d="M328.3 131.92H319.59C318.79 131.92 318.15 131.27 318.15 130.48V120.7C318.15 119.9 317.5 119.26 316.71 119.26H306.39C305.59 119.26 304.95 119.91 304.95 120.7V130.48C304.95 131.28 304.3 131.92 303.51 131.92H294.8C294 131.92 293.36 132.57 293.36 133.36V143.68C293.36 144.48 294 145.12 294.8 145.12H304.95H318.16H328.31C329.11 145.12 329.75 144.47 329.75 143.68V133.36C329.74 132.57 329.1 131.92 328.3 131.92Z" fill="white" fill-opacity="0.15"/>
<path d="M348.88 154.2V145.5C348.88 144.7 349.53 144.06 350.32 144.06H360.1C360.9 144.06 361.54 143.41 361.54 142.62V132.29C361.54 131.49 360.9 130.85 360.1 130.85H350.32C349.53 130.85 348.88 130.2 348.88 129.41V120.7C348.88 119.9 348.23 119.26 347.44 119.26H337.12C336.32 119.26 335.68 119.91 335.68 120.7V130.85V144.06V154.2C335.68 155 336.32 155.64 337.12 155.64H347.44C348.24 155.65 348.88 155 348.88 154.2Z" fill="white" fill-opacity="0.15"/>
<path d="M252.96 131.92H244.25C243.45 131.92 242.81 131.27 242.81 130.48V120.7C242.81 119.9 242.16 119.26 241.37 119.26H231.05C230.25 119.26 229.61 119.91 229.61 120.7V130.48C229.61 131.28 228.96 131.92 228.17 131.92H219.46C218.66 131.92 218.02 132.57 218.02 133.36V143.68C218.02 144.48 218.66 145.12 219.46 145.12H229.61H242.82H252.97C253.77 145.12 254.41 144.47 254.41 143.68V133.36C254.4 132.57 253.76 131.92 252.96 131.92Z" fill="white" fill-opacity="0.15"/>
<path d="M272.33 148.95V140.24C272.33 139.44 272.98 138.8 273.77 138.8H283.55C284.35 138.8 284.99 138.15 284.99 137.36V127.03C284.99 126.23 284.35 125.59 283.55 125.59H273.77C272.98 125.59 272.33 124.94 272.33 124.15V115.44C272.33 114.64 271.68 114 270.89 114H260.57C259.77 114 259.13 114.65 259.13 115.44V125.59V138.8V148.95C259.13 149.75 259.77 150.39 260.57 150.39H270.89C271.69 150.39 272.33 149.74 272.33 148.95Z" fill="white" fill-opacity="0.15"/>
<path d="M177.62 131.92H168.91C168.11 131.92 167.47 131.27 167.47 130.48V120.7C167.47 119.9 166.82 119.26 166.03 119.26H155.71C154.91 119.26 154.27 119.91 154.27 120.7V130.48C154.27 131.28 153.62 131.92 152.83 131.92H144.12C143.32 131.92 142.68 132.57 142.68 133.36V143.68C142.68 144.48 143.32 145.12 144.12 145.12H154.27H167.48H177.63C178.43 145.12 179.07 144.47 179.07 143.68V133.36C179.06 132.57 178.42 131.92 177.62 131.92Z" fill="white" fill-opacity="0.15"/>
<path d="M198.21 154.2V145.5C198.21 144.7 198.86 144.06 199.65 144.06H209.43C210.23 144.06 210.87 143.41 210.87 142.62V132.29C210.87 131.49 210.22 130.85 209.43 130.85H199.65C198.85 130.85 198.21 130.2 198.21 129.41V120.7C198.21 119.9 197.56 119.26 196.77 119.26H186.45C185.65 119.26 185.01 119.91 185.01 120.7V130.85V144.06V154.2C185.01 155 185.66 155.64 186.45 155.64H196.77C197.56 155.65 198.21 155 198.21 154.2Z" fill="white" fill-opacity="0.15"/>
<path d="M102.28 131.92H93.57C92.77 131.92 92.13 131.27 92.13 130.48V120.7C92.13 119.9 91.48 119.26 90.69 119.26H80.37C79.57 119.26 78.93 119.91 78.93 120.7V130.48C78.93 131.28 78.28 131.92 77.49 131.92H68.78C67.98 131.92 67.34 132.57 67.34 133.36V143.68C67.34 144.48 67.98 145.12 68.78 145.12H78.93H92.14H102.29C103.09 145.12 103.73 144.47 103.73 143.68V133.36C103.73 132.57 103.08 131.92 102.28 131.92Z" fill="white" fill-opacity="0.15"/>
<path d="M122.87 154.2V145.5C122.87 144.7 123.52 144.06 124.31 144.06H134.09C134.89 144.06 135.53 143.41 135.53 142.62V132.29C135.53 131.49 134.89 130.85 134.09 130.85H124.31C123.51 130.85 122.87 130.2 122.87 129.41V120.7C122.87 119.9 122.22 119.26 121.43 119.26H111.1C110.3 119.26 109.66 119.91 109.66 120.7V130.85V144.06V154.2C109.66 155 110.3 155.64 111.1 155.64H121.42C122.22 155.65 122.87 155 122.87 154.2Z" fill="white" fill-opacity="0.15"/>
<path d="M26.95 131.92H18.24C17.44 131.92 16.8 131.27 16.8 130.48V120.7C16.8 119.9 16.15 119.26 15.36 119.26H5.03C4.23 119.26 3.59 119.91 3.59 120.7V130.48C3.59 131.28 2.94 131.92 2.15 131.92H-6.56C-7.36 131.92 -8 132.57 -8 133.36V143.68C-8 144.48 -7.35 145.12 -6.56 145.12H3.59H16.8H26.95C27.75 145.12 28.39 144.47 28.39 143.68V133.36C28.39 132.57 27.74 131.92 26.95 131.92Z" fill="white" fill-opacity="0.15"/>
<path d="M47.53 154.2V145.5C47.53 144.7 48.18 144.06 48.97 144.06H58.75C59.55 144.06 60.19 143.41 60.19 142.62V132.29C60.19 131.49 59.54 130.85 58.75 130.85H48.97C48.17 130.85 47.53 130.2 47.53 129.41V120.7C47.53 119.9 46.88 119.26 46.09 119.26H35.76C34.96 119.26 34.32 119.91 34.32 120.7V130.85V144.06V154.2C34.32 155 34.96 155.64 35.76 155.64H46.08C46.88 155.65 47.53 155 47.53 154.2Z" fill="white" fill-opacity="0.15"/>
</g>
<g clip-path="url(#clip2_1229:3516)">
<path d="M328.3 215.92H319.59C318.79 215.92 318.15 215.27 318.15 214.48V204.7C318.15 203.9 317.5 203.26 316.71 203.26H306.39C305.59 203.26 304.95 203.91 304.95 204.7V214.48C304.95 215.28 304.3 215.92 303.51 215.92H294.8C294 215.92 293.36 216.57 293.36 217.36V227.68C293.36 228.48 294 229.12 294.8 229.12H304.95H318.16H328.31C329.11 229.12 329.75 228.47 329.75 227.68V217.36C329.74 216.57 329.1 215.92 328.3 215.92Z" fill="white" fill-opacity="0.15"/>
<path d="M348.88 238.2V229.5C348.88 228.7 349.53 228.06 350.32 228.06H360.1C360.9 228.06 361.54 227.41 361.54 226.62V216.29C361.54 215.49 360.9 214.85 360.1 214.85H350.32C349.53 214.85 348.88 214.2 348.88 213.41V204.7C348.88 203.9 348.23 203.26 347.44 203.26H337.12C336.32 203.26 335.68 203.91 335.68 204.7V214.85V228.06V238.2C335.68 239 336.32 239.64 337.12 239.64H347.44C348.24 239.65 348.88 239 348.88 238.2Z" fill="white" fill-opacity="0.15"/>
<path d="M252.96 215.92H244.25C243.45 215.92 242.81 215.27 242.81 214.48V204.7C242.81 203.9 242.16 203.26 241.37 203.26H231.05C230.25 203.26 229.61 203.91 229.61 204.7V214.48C229.61 215.28 228.96 215.92 228.17 215.92H219.46C218.66 215.92 218.02 216.57 218.02 217.36V227.68C218.02 228.48 218.66 229.12 219.46 229.12H229.61H242.82H252.97C253.77 229.12 254.41 228.47 254.41 227.68V217.36C254.4 216.57 253.76 215.92 252.96 215.92Z" fill="white" fill-opacity="0.15"/>
<path d="M272.33 232.95V224.24C272.33 223.44 272.98 222.8 273.77 222.8H283.55C284.35 222.8 284.99 222.15 284.99 221.36V211.03C284.99 210.23 284.35 209.59 283.55 209.59H273.77C272.98 209.59 272.33 208.94 272.33 208.15V199.44C272.33 198.64 271.68 198 270.89 198H260.57C259.77 198 259.13 198.65 259.13 199.44V209.59V222.8V232.95C259.13 233.75 259.77 234.39 260.57 234.39H270.89C271.69 234.39 272.33 233.74 272.33 232.95Z" fill="#F4DB47"/>
<path d="M177.62 215.92H168.91C168.11 215.92 167.47 215.27 167.47 214.48V204.7C167.47 203.9 166.82 203.26 166.03 203.26H155.71C154.91 203.26 154.27 203.91 154.27 204.7V214.48C154.27 215.28 153.62 215.92 152.83 215.92H144.12C143.32 215.92 142.68 216.57 142.68 217.36V227.68C142.68 228.48 143.32 229.12 144.12 229.12H154.27H167.48H177.63C178.43 229.12 179.07 228.47 179.07 227.68V217.36C179.06 216.57 178.42 215.92 177.62 215.92Z" fill="white" fill-opacity="0.15"/>
<path d="M198.21 238.2V229.5C198.21 228.7 198.86 228.06 199.65 228.06H209.43C210.23 228.06 210.87 227.41 210.87 226.62V216.29C210.87 215.49 210.22 214.85 209.43 214.85H199.65C198.85 214.85 198.21 214.2 198.21 213.41V204.7C198.21 203.9 197.56 203.26 196.77 203.26H186.45C185.65 203.26 185.01 203.91 185.01 204.7V214.85V228.06V238.2C185.01 239 185.66 239.64 186.45 239.64H196.77C197.56 239.65 198.21 239 198.21 238.2Z" fill="white" fill-opacity="0.15"/>
<path d="M102.28 215.92H93.57C92.77 215.92 92.13 215.27 92.13 214.48V204.7C92.13 203.9 91.48 203.26 90.69 203.26H80.37C79.57 203.26 78.93 203.91 78.93 204.7V214.48C78.93 215.28 78.28 215.92 77.49 215.92H68.78C67.98 215.92 67.34 216.57 67.34 217.36V227.68C67.34 228.48 67.98 229.12 68.78 229.12H78.93H92.14H102.29C103.09 229.12 103.73 228.47 103.73 227.68V217.36C103.73 216.57 103.08 215.92 102.28 215.92Z" fill="white"/>
<path d="M122.87 238.2V229.5C122.87 228.7 123.52 228.06 124.31 228.06H134.09C134.89 228.06 135.53 227.41 135.53 226.62V216.29C135.53 215.49 134.89 214.85 134.09 214.85H124.31C123.51 214.85 122.87 214.2 122.87 213.41V204.7C122.87 203.9 122.22 203.26 121.43 203.26H111.1C110.3 203.26 109.66 203.91 109.66 204.7V214.85V228.06V238.2C109.66 239 110.3 239.64 111.1 239.64H121.42C122.22 239.65 122.87 239 122.87 238.2Z" fill="white" fill-opacity="0.15"/>
<path d="M26.95 215.92H18.24C17.44 215.92 16.8 215.27 16.8 214.48V204.7C16.8 203.9 16.15 203.26 15.36 203.26H5.03C4.23 203.26 3.59 203.91 3.59 204.7V214.48C3.59 215.28 2.94 215.92 2.15 215.92H-6.56C-7.36 215.92 -8 216.57 -8 217.36V227.68C-8 228.48 -7.35 229.12 -6.56 229.12H3.59H16.8H26.95C27.75 229.12 28.39 228.47 28.39 227.68V217.36C28.39 216.57 27.74 215.92 26.95 215.92Z" fill="white" fill-opacity="0.15"/>
<path d="M47.53 238.2V229.5C47.53 228.7 48.18 228.06 48.97 228.06H58.75C59.55 228.06 60.19 227.41 60.19 226.62V216.29C60.19 215.49 59.54 214.85 58.75 214.85H48.97C48.17 214.85 47.53 214.2 47.53 213.41V204.7C47.53 203.9 46.88 203.26 46.09 203.26H35.76C34.96 203.26 34.32 203.91 34.32 204.7V214.85V228.06V238.2C34.32 239 34.96 239.64 35.76 239.64H46.08C46.88 239.65 47.53 239 47.53 238.2Z" fill="white" fill-opacity="0.15"/>
</g>
<g clip-path="url(#clip3_1229:3516)">
<path d="M328.3 299.92H319.59C318.79 299.92 318.15 299.27 318.15 298.48V288.7C318.15 287.9 317.5 287.26 316.71 287.26H306.39C305.59 287.26 304.95 287.91 304.95 288.7V298.48C304.95 299.28 304.3 299.92 303.51 299.92H294.8C294 299.92 293.36 300.57 293.36 301.36V311.68C293.36 312.48 294 313.12 294.8 313.12H304.95H318.16H328.31C329.11 313.12 329.75 312.47 329.75 311.68V301.36C329.74 300.57 329.1 299.92 328.3 299.92Z" fill="white" fill-opacity="0.15"/>
<path d="M348.88 322.2V313.5C348.88 312.7 349.53 312.06 350.32 312.06H360.1C360.9 312.06 361.54 311.41 361.54 310.62V300.29C361.54 299.49 360.9 298.85 360.1 298.85H350.32C349.53 298.85 348.88 298.2 348.88 297.41V288.7C348.88 287.9 348.23 287.26 347.44 287.26H337.12C336.32 287.26 335.68 287.91 335.68 288.7V298.85V312.06V322.2C335.68 323 336.32 323.64 337.12 323.64H347.44C348.24 323.65 348.88 323 348.88 322.2Z" fill="white" fill-opacity="0.15"/>
<path d="M252.96 299.92H244.25C243.45 299.92 242.81 299.27 242.81 298.48V288.7C242.81 287.9 242.16 287.26 241.37 287.26H231.05C230.25 287.26 229.61 287.91 229.61 288.7V298.48C229.61 299.28 228.96 299.92 228.17 299.92H219.46C218.66 299.92 218.02 300.57 218.02 301.36V311.68C218.02 312.48 218.66 313.12 219.46 313.12H229.61H242.82H252.97C253.77 313.12 254.41 312.47 254.41 311.68V301.36C254.4 300.57 253.76 299.92 252.96 299.92Z" fill="white" fill-opacity="0.15"/>
<path d="M272.33 316.95V308.24C272.33 307.44 272.98 306.8 273.77 306.8H283.55C284.35 306.8 284.99 306.15 284.99 305.36V295.03C284.99 294.23 284.35 293.59 283.55 293.59H273.77C272.98 293.59 272.33 292.94 272.33 292.15V283.44C272.33 282.64 271.68 282 270.89 282H260.57C259.77 282 259.13 282.65 259.13 283.44V293.59V306.8V316.95C259.13 317.75 259.77 318.39 260.57 318.39H270.89C271.69 318.39 272.33 317.74 272.33 316.95Z" fill="white" fill-opacity="0.15"/>
<path d="M177.62 299.92H168.91C168.11 299.92 167.47 299.27 167.47 298.48V288.7C167.47 287.9 166.82 287.26 166.03 287.26H155.71C154.91 287.26 154.27 287.91 154.27 288.7V298.48C154.27 299.28 153.62 299.92 152.83 299.92H144.12C143.32 299.92 142.68 300.57 142.68 301.36V311.68C142.68 312.48 143.32 313.12 144.12 313.12H154.27H167.48H177.63C178.43 313.12 179.07 312.47 179.07 311.68V301.36C179.06 300.57 178.42 299.92 177.62 299.92Z" fill="white" fill-opacity="0.15"/>
<path d="M198.21 322.2V313.5C198.21 312.7 198.86 312.06 199.65 312.06H209.43C210.23 312.06 210.87 311.41 210.87 310.62V300.29C210.87 299.49 210.22 298.85 209.43 298.85H199.65C198.85 298.85 198.21 298.2 198.21 297.41V288.7C198.21 287.9 197.56 287.26 196.77 287.26H186.45C185.65 287.26 185.01 287.91 185.01 288.7V298.85V312.06V322.2C185.01 323 185.66 323.64 186.45 323.64H196.77C197.56 323.65 198.21 323 198.21 322.2Z" fill="white" fill-opacity="0.15"/>
<path d="M102.28 299.92H93.57C92.77 299.92 92.13 299.27 92.13 298.48V288.7C92.13 287.9 91.48 287.26 90.69 287.26H80.37C79.57 287.26 78.93 287.91 78.93 288.7V298.48C78.93 299.28 78.28 299.92 77.49 299.92H68.78C67.98 299.92 67.34 300.57 67.34 301.36V311.68C67.34 312.48 67.98 313.12 68.78 313.12H78.93H92.14H102.29C103.09 313.12 103.73 312.47 103.73 311.68V301.36C103.73 300.57 103.08 299.92 102.28 299.92Z" fill="white" fill-opacity="0.15"/>
<path d="M122.87 322.2V313.5C122.87 312.7 123.52 312.06 124.31 312.06H134.09C134.89 312.06 135.53 311.41 135.53 310.62V300.29C135.53 299.49 134.89 298.85 134.09 298.85H124.31C123.51 298.85 122.87 298.2 122.87 297.41V288.7C122.87 287.9 122.22 287.26 121.43 287.26H111.1C110.3 287.26 109.66 287.91 109.66 288.7V298.85V312.06V322.2C109.66 323 110.3 323.64 111.1 323.64H121.42C122.22 323.65 122.87 323 122.87 322.2Z" fill="white" fill-opacity="0.15"/>
<path d="M26.95 299.92H18.24C17.44 299.92 16.8 299.27 16.8 298.48V288.7C16.8 287.9 16.15 287.26 15.36 287.26H5.03C4.23 287.26 3.59 287.91 3.59 288.7V298.48C3.59 299.28 2.94 299.92 2.15 299.92H-6.56C-7.36 299.92 -8 300.57 -8 301.36V311.68C-8 312.48 -7.35 313.12 -6.56 313.12H3.59H16.8H26.95C27.75 313.12 28.39 312.47 28.39 311.68V301.36C28.39 300.57 27.74 299.92 26.95 299.92Z" fill="white" fill-opacity="0.15"/>
<path d="M47.53 322.2V313.5C47.53 312.7 48.18 312.06 48.97 312.06H58.75C59.55 312.06 60.19 311.41 60.19 310.62V300.29C60.19 299.49 59.54 298.85 58.75 298.85H48.97C48.17 298.85 47.53 298.2 47.53 297.41V288.7C47.53 287.9 46.88 287.26 46.09 287.26H35.76C34.96 287.26 34.32 287.91 34.32 288.7V298.85V312.06V322.2C34.32 323 34.96 323.64 35.76 323.64H46.08C46.88 323.65 47.53 323 47.53 322.2Z" fill="white" fill-opacity="0.15"/>
</g>
<g clip-path="url(#clip4_1229:3516)">
<path d="M328.3 383.92H319.59C318.79 383.92 318.15 383.27 318.15 382.48V372.7C318.15 371.9 317.5 371.26 316.71 371.26H306.39C305.59 371.26 304.95 371.91 304.95 372.7V382.48C304.95 383.28 304.3 383.92 303.51 383.92H294.8C294 383.92 293.36 384.57 293.36 385.36V395.68C293.36 396.48 294 397.12 294.8 397.12H304.95H318.16H328.31C329.11 397.12 329.75 396.47 329.75 395.68V385.36C329.74 384.57 329.1 383.92 328.3 383.92Z" fill="white" fill-opacity="0.15"/>
<path d="M348.88 406.2V397.5C348.88 396.7 349.53 396.06 350.32 396.06H360.1C360.9 396.06 361.54 395.41 361.54 394.62V384.29C361.54 383.49 360.9 382.85 360.1 382.85H350.32C349.53 382.85 348.88 382.2 348.88 381.41V372.7C348.88 371.9 348.23 371.26 347.44 371.26H337.12C336.32 371.26 335.68 371.91 335.68 372.7V382.85V396.06V406.2C335.68 407 336.32 407.64 337.12 407.64H347.44C348.24 407.65 348.88 407 348.88 406.2Z" fill="white" fill-opacity="0.15"/>
<path d="M252.96 383.92H244.25C243.45 383.92 242.81 383.27 242.81 382.48V372.7C242.81 371.9 242.16 371.26 241.37 371.26H231.05C230.25 371.26 229.61 371.91 229.61 372.7V382.48C229.61 383.28 228.96 383.92 228.17 383.92H219.46C218.66 383.92 218.02 384.57 218.02 385.36V395.68C218.02 396.48 218.66 397.12 219.46 397.12H229.61H242.82H252.97C253.77 397.12 254.41 396.47 254.41 395.68V385.36C254.4 384.57 253.76 383.92 252.96 383.92Z" fill="white" fill-opacity="0.15"/>
<path d="M272.33 400.95V392.24C272.33 391.44 272.98 390.8 273.77 390.8H283.55C284.35 390.8 284.99 390.15 284.99 389.36V379.03C284.99 378.23 284.35 377.59 283.55 377.59H273.77C272.98 377.59 272.33 376.94 272.33 376.15V367.44C272.33 366.64 271.68 366 270.89 366H260.57C259.77 366 259.13 366.65 259.13 367.44V377.59V390.8V400.95C259.13 401.75 259.77 402.39 260.57 402.39H270.89C271.69 402.39 272.33 401.74 272.33 400.95Z" fill="white" fill-opacity="0.15"/>
<path d="M177.62 383.92H168.91C168.11 383.92 167.47 383.27 167.47 382.48V372.7C167.47 371.9 166.82 371.26 166.03 371.26H155.71C154.91 371.26 154.27 371.91 154.27 372.7V382.48C154.27 383.28 153.62 383.92 152.83 383.92H144.12C143.32 383.92 142.68 384.57 142.68 385.36V395.68C142.68 396.48 143.32 397.12 144.12 397.12H154.27H167.48H177.63C178.43 397.12 179.07 396.47 179.07 395.68V385.36C179.06 384.57 178.42 383.92 177.62 383.92Z" fill="white" fill-opacity="0.15"/>
<path d="M198.21 406.2V397.5C198.21 396.7 198.86 396.06 199.65 396.06H209.43C210.23 396.06 210.87 395.41 210.87 394.62V384.29C210.87 383.49 210.22 382.85 209.43 382.85H199.65C198.85 382.85 198.21 382.2 198.21 381.41V372.7C198.21 371.9 197.56 371.26 196.77 371.26H186.45C185.65 371.26 185.01 371.91 185.01 372.7V382.85V396.06V406.2C185.01 407 185.66 407.64 186.45 407.64H196.77C197.56 407.65 198.21 407 198.21 406.2Z" fill="white" fill-opacity="0.15"/>
<path d="M102.28 383.92H93.57C92.77 383.92 92.13 383.27 92.13 382.48V372.7C92.13 371.9 91.48 371.26 90.69 371.26H80.37C79.57 371.26 78.93 371.91 78.93 372.7V382.48C78.93 383.28 78.28 383.92 77.49 383.92H68.78C67.98 383.92 67.34 384.57 67.34 385.36V395.68C67.34 396.48 67.98 397.12 68.78 397.12H78.93H92.14H102.29C103.09 397.12 103.73 396.47 103.73 395.68V385.36C103.73 384.57 103.08 383.92 102.28 383.92Z" fill="white" fill-opacity="0.15"/>
<path d="M122.87 406.2V397.5C122.87 396.7 123.52 396.06 124.31 396.06H134.09C134.89 396.06 135.53 395.41 135.53 394.62V384.29C135.53 383.49 134.89 382.85 134.09 382.85H124.31C123.51 382.85 122.87 382.2 122.87 381.41V372.7C122.87 371.9 122.22 371.26 121.43 371.26H111.1C110.3 371.26 109.66 371.91 109.66 372.7V382.85V396.06V406.2C109.66 407 110.3 407.64 111.1 407.64H121.42C122.22 407.65 122.87 407 122.87 406.2Z" fill="white" fill-opacity="0.15"/>
<path d="M26.95 383.92H18.24C17.44 383.92 16.8 383.27 16.8 382.48V372.7C16.8 371.9 16.15 371.26 15.36 371.26H5.03C4.23 371.26 3.59 371.91 3.59 372.7V382.48C3.59 383.28 2.94 383.92 2.15 383.92H-6.56C-7.36 383.92 -8 384.57 -8 385.36V395.68C-8 396.48 -7.35 397.12 -6.56 397.12H3.59H16.8H26.95C27.75 397.12 28.39 396.47 28.39 395.68V385.36C28.39 384.57 27.74 383.92 26.95 383.92Z" fill="white" fill-opacity="0.15"/>
<path d="M47.53 406.2V397.5C47.53 396.7 48.18 396.06 48.97 396.06H58.75C59.55 396.06 60.19 395.41 60.19 394.62V384.29C60.19 383.49 59.54 382.85 58.75 382.85H48.97C48.17 382.85 47.53 382.2 47.53 381.41V372.7C47.53 371.9 46.88 371.26 46.09 371.26H35.76C34.96 371.26 34.32 371.91 34.32 372.7V382.85V396.06V406.2C34.32 407 34.96 407.64 35.76 407.64H46.08C46.88 407.65 47.53 407 47.53 406.2Z" fill="white" fill-opacity="0.15"/>
</g>
<g clip-path="url(#clip5_1229:3516)">
<path d="M328.3 467.92H319.59C318.79 467.92 318.15 467.27 318.15 466.48V456.7C318.15 455.9 317.5 455.26 316.71 455.26H306.39C305.59 455.26 304.95 455.91 304.95 456.7V466.48C304.95 467.28 304.3 467.92 303.51 467.92H294.8C294 467.92 293.36 468.57 293.36 469.36V479.68C293.36 480.48 294 481.12 294.8 481.12H304.95H318.16H328.31C329.11 481.12 329.75 480.47 329.75 479.68V469.36C329.74 468.57 329.1 467.92 328.3 467.92Z" fill="#367FFF"/>
<path d="M348.88 490.2V481.5C348.88 480.7 349.53 480.06 350.32 480.06H360.1C360.9 480.06 361.54 479.41 361.54 478.62V468.29C361.54 467.49 360.9 466.85 360.1 466.85H350.32C349.53 466.85 348.88 466.2 348.88 465.41V456.7C348.88 455.9 348.23 455.26 347.44 455.26H337.12C336.32 455.26 335.68 455.91 335.68 456.7V466.85V480.06V490.2C335.68 491 336.32 491.64 337.12 491.64H347.44C348.24 491.65 348.88 491 348.88 490.2Z" fill="white" fill-opacity="0.15"/>
<path d="M252.96 467.92H244.25C243.45 467.92 242.81 467.27 242.81 466.48V456.7C242.81 455.9 242.16 455.26 241.37 455.26H231.05C230.25 455.26 229.61 455.91 229.61 456.7V466.48C229.61 467.28 228.96 467.92 228.17 467.92H219.46C218.66 467.92 218.02 468.57 218.02 469.36V479.68C218.02 480.48 218.66 481.12 219.46 481.12H229.61H242.82H252.97C253.77 481.12 254.41 480.47 254.41 479.68V469.36C254.4 468.57 253.76 467.92 252.96 467.92Z" fill="white" fill-opacity="0.15"/>
<path d="M272.33 484.95V476.24C272.33 475.44 272.98 474.8 273.77 474.8H283.55C284.35 474.8 284.99 474.15 284.99 473.36V463.03C284.99 462.23 284.35 461.59 283.55 461.59H273.77C272.98 461.59 272.33 460.94 272.33 460.15V451.44C272.33 450.64 271.68 450 270.89 450H260.57C259.77 450 259.13 450.65 259.13 451.44V461.59V474.8V484.95C259.13 485.75 259.77 486.39 260.57 486.39H270.89C271.69 486.39 272.33 485.74 272.33 484.95Z" fill="white" fill-opacity="0.15"/>
<path d="M177.62 467.92H168.91C168.11 467.92 167.47 467.27 167.47 466.48V456.7C167.47 455.9 166.82 455.26 166.03 455.26H155.71C154.91 455.26 154.27 455.91 154.27 456.7V466.48C154.27 467.28 153.62 467.92 152.83 467.92H144.12C143.32 467.92 142.68 468.57 142.68 469.36V479.68C142.68 480.48 143.32 481.12 144.12 481.12H154.27H167.48H177.63C178.43 481.12 179.07 480.47 179.07 479.68V469.36C179.06 468.57 178.42 467.92 177.62 467.92Z" fill="white" fill-opacity="0.15"/>
<path d="M198.21 490.2V481.5C198.21 480.7 198.86 480.06 199.65 480.06H209.43C210.23 480.06 210.87 479.41 210.87 478.62V468.29C210.87 467.49 210.22 466.85 209.43 466.85H199.65C198.85 466.85 198.21 466.2 198.21 465.41V456.7C198.21 455.9 197.56 455.26 196.77 455.26H186.45C185.65 455.26 185.01 455.91 185.01 456.7V466.85V480.06V490.2C185.01 491 185.66 491.64 186.45 491.64H196.77C197.56 491.65 198.21 491 198.21 490.2Z" fill="white" fill-opacity="0.15"/>
<path d="M102.28 467.92H93.57C92.77 467.92 92.13 467.27 92.13 466.48V456.7C92.13 455.9 91.48 455.26 90.69 455.26H80.37C79.57 455.26 78.93 455.91 78.93 456.7V466.48C78.93 467.28 78.28 467.92 77.49 467.92H68.78C67.98 467.92 67.34 468.57 67.34 469.36V479.68C67.34 480.48 67.98 481.12 68.78 481.12H78.93H92.14H102.29C103.09 481.12 103.73 480.47 103.73 479.68V469.36C103.73 468.57 103.08 467.92 102.28 467.92Z" fill="white" fill-opacity="0.15"/>
<path d="M122.87 490.2V481.5C122.87 480.7 123.52 480.06 124.31 480.06H134.09C134.89 480.06 135.53 479.41 135.53 478.62V468.29C135.53 467.49 134.89 466.85 134.09 466.85H124.31C123.51 466.85 122.87 466.2 122.87 465.41V456.7C122.87 455.9 122.22 455.26 121.43 455.26H111.1C110.3 455.26 109.66 455.91 109.66 456.7V466.85V480.06V490.2C109.66 491 110.3 491.64 111.1 491.64H121.42C122.22 491.65 122.87 491 122.87 490.2Z" fill="white" fill-opacity="0.15"/>
<path d="M26.95 467.92H18.24C17.44 467.92 16.8 467.27 16.8 466.48V456.7C16.8 455.9 16.15 455.26 15.36 455.26H5.03C4.23 455.26 3.59 455.91 3.59 456.7V466.48C3.59 467.28 2.94 467.92 2.15 467.92H-6.56C-7.36 467.92 -8 468.57 -8 469.36V479.68C-8 480.48 -7.35 481.12 -6.56 481.12H3.59H16.8H26.95C27.75 481.12 28.39 480.47 28.39 479.68V469.36C28.39 468.57 27.74 467.92 26.95 467.92Z" fill="white" fill-opacity="0.15"/>
<path d="M47.53 490.2V481.5C47.53 480.7 48.18 480.06 48.97 480.06H58.75C59.55 480.06 60.19 479.41 60.19 478.62V468.29C60.19 467.49 59.54 466.85 58.75 466.85H48.97C48.17 466.85 47.53 466.2 47.53 465.41V456.7C47.53 455.9 46.88 455.26 46.09 455.26H35.76C34.96 455.26 34.32 455.91 34.32 456.7V466.85V480.06V490.2C34.32 491 34.96 491.64 35.76 491.64H46.08C46.88 491.65 47.53 491 47.53 490.2Z" fill="white" fill-opacity="0.15"/>
</g>
<g clip-path="url(#clip6_1229:3516)">
<path d="M328.3 551.92H319.59C318.79 551.92 318.15 551.27 318.15 550.48V540.7C318.15 539.9 317.5 539.26 316.71 539.26H306.39C305.59 539.26 304.95 539.91 304.95 540.7V550.48C304.95 551.28 304.3 551.92 303.51 551.92H294.8C294 551.92 293.36 552.57 293.36 553.36V563.68C293.36 564.48 294 565.12 294.8 565.12H304.95H318.16H328.31C329.11 565.12 329.75 564.47 329.75 563.68V553.36C329.74 552.57 329.1 551.92 328.3 551.92Z" fill="white" fill-opacity="0.15"/>
<path d="M348.88 574.2V565.5C348.88 564.7 349.53 564.06 350.32 564.06H360.1C360.9 564.06 361.54 563.41 361.54 562.62V552.29C361.54 551.49 360.9 550.85 360.1 550.85H350.32C349.53 550.85 348.88 550.2 348.88 549.41V540.7C348.88 539.9 348.23 539.26 347.44 539.26H337.12C336.32 539.26 335.68 539.91 335.68 540.7V550.85V564.06V574.2C335.68 575 336.32 575.64 337.12 575.64H347.44C348.24 575.65 348.88 575 348.88 574.2Z" fill="white" fill-opacity="0.15"/>
<path d="M252.96 551.92H244.25C243.45 551.92 242.81 551.27 242.81 550.48V540.7C242.81 539.9 242.16 539.26 241.37 539.26H231.05C230.25 539.26 229.61 539.91 229.61 540.7V550.48C229.61 551.28 228.96 551.92 228.17 551.92H219.46C218.66 551.92 218.02 552.57 218.02 553.36V563.68C218.02 564.48 218.66 565.12 219.46 565.12H229.61H242.82H252.97C253.77 565.12 254.41 564.47 254.41 563.68V553.36C254.4 552.57 253.76 551.92 252.96 551.92Z" fill="white" fill-opacity="0.15"/>
<path d="M272.33 568.95V560.24C272.33 559.44 272.98 558.8 273.77 558.8H283.55C284.35 558.8 284.99 558.15 284.99 557.36V547.03C284.99 546.23 284.35 545.59 283.55 545.59H273.77C272.98 545.59 272.33 544.94 272.33 544.15V535.44C272.33 534.64 271.68 534 270.89 534H260.57C259.77 534 259.13 534.65 259.13 535.44V545.59V558.8V568.95C259.13 569.75 259.77 570.39 260.57 570.39H270.89C271.69 570.39 272.33 569.74 272.33 568.95Z" fill="white" fill-opacity="0.15"/>
<path d="M177.62 551.92H168.91C168.11 551.92 167.47 551.27 167.47 550.48V540.7C167.47 539.9 166.82 539.26 166.03 539.26H155.71C154.91 539.26 154.27 539.91 154.27 540.7V550.48C154.27 551.28 153.62 551.92 152.83 551.92H144.12C143.32 551.92 142.68 552.57 142.68 553.36V563.68C142.68 564.48 143.32 565.12 144.12 565.12H154.27H167.48H177.63C178.43 565.12 179.07 564.47 179.07 563.68V553.36C179.06 552.57 178.42 551.92 177.62 551.92Z" fill="white" fill-opacity="0.15"/>
<path d="M198.21 574.2V565.5C198.21 564.7 198.86 564.06 199.65 564.06H209.43C210.23 564.06 210.87 563.41 210.87 562.62V552.29C210.87 551.49 210.22 550.85 209.43 550.85H199.65C198.85 550.85 198.21 550.2 198.21 549.41V540.7C198.21 539.9 197.56 539.26 196.77 539.26H186.45C185.65 539.26 185.01 539.91 185.01 540.7V550.85V564.06V574.2C185.01 575 185.66 575.64 186.45 575.64H196.77C197.56 575.65 198.21 575 198.21 574.2Z" fill="white" fill-opacity="0.15"/>
<path d="M102.28 551.92H93.57C92.77 551.92 92.13 551.27 92.13 550.48V540.7C92.13 539.9 91.48 539.26 90.69 539.26H80.37C79.57 539.26 78.93 539.91 78.93 540.7V550.48C78.93 551.28 78.28 551.92 77.49 551.92H68.78C67.98 551.92 67.34 552.57 67.34 553.36V563.68C67.34 564.48 67.98 565.12 68.78 565.12H78.93H92.14H102.29C103.09 565.12 103.73 564.47 103.73 563.68V553.36C103.73 552.57 103.08 551.92 102.28 551.92Z" fill="white" fill-opacity="0.15"/>
<path d="M122.87 574.2V565.5C122.87 564.7 123.52 564.06 124.31 564.06H134.09C134.89 564.06 135.53 563.41 135.53 562.62V552.29C135.53 551.49 134.89 550.85 134.09 550.85H124.31C123.51 550.85 122.87 550.2 122.87 549.41V540.7C122.87 539.9 122.22 539.26 121.43 539.26H111.1C110.3 539.26 109.66 539.91 109.66 540.7V550.85V564.06V574.2C109.66 575 110.3 575.64 111.1 575.64H121.42C122.22 575.65 122.87 575 122.87 574.2Z" fill="white" fill-opacity="0.15"/>
<path d="M26.95 551.92H18.24C17.44 551.92 16.8 551.27 16.8 550.48V540.7C16.8 539.9 16.15 539.26 15.36 539.26H5.03C4.23 539.26 3.59 539.91 3.59 540.7V550.48C3.59 551.28 2.94 551.92 2.15 551.92H-6.56C-7.36 551.92 -8 552.57 -8 553.36V563.68C-8 564.48 -7.35 565.12 -6.56 565.12H3.59H16.8H26.95C27.75 565.12 28.39 564.47 28.39 563.68V553.36C28.39 552.57 27.74 551.92 26.95 551.92Z" fill="white" fill-opacity="0.15"/>
<path d="M47.53 574.2V565.5C47.53 564.7 48.18 564.06 48.97 564.06H58.75C59.55 564.06 60.19 563.41 60.19 562.62V552.29C60.19 551.49 59.54 550.85 58.75 550.85H48.97C48.17 550.85 47.53 550.2 47.53 549.41V540.7C47.53 539.9 46.88 539.26 46.09 539.26H35.76C34.96 539.26 34.32 539.91 34.32 540.7V550.85V564.06V574.2C34.32 575 34.96 575.64 35.76 575.64H46.08C46.88 575.65 47.53 575 47.53 574.2Z" fill="#EEFF26"/>
</g>
<g clip-path="url(#clip7_1229:3516)">
<path d="M328.3 635.92H319.59C318.79 635.92 318.15 635.27 318.15 634.48V624.7C318.15 623.9 317.5 623.26 316.71 623.26H306.39C305.59 623.26 304.95 623.91 304.95 624.7V634.48C304.95 635.28 304.3 635.92 303.51 635.92H294.8C294 635.92 293.36 636.57 293.36 637.36V647.68C293.36 648.48 294 649.12 294.8 649.12H304.95H318.16H328.31C329.11 649.12 329.75 648.47 329.75 647.68V637.36C329.74 636.57 329.1 635.92 328.3 635.92Z" fill="white" fill-opacity="0.15"/>
<path d="M348.88 658.2V649.5C348.88 648.7 349.53 648.06 350.32 648.06H360.1C360.9 648.06 361.54 647.41 361.54 646.62V636.29C361.54 635.49 360.9 634.85 360.1 634.85H350.32C349.53 634.85 348.88 634.2 348.88 633.41V624.7C348.88 623.9 348.23 623.26 347.44 623.26H337.12C336.32 623.26 335.68 623.91 335.68 624.7V634.85V648.06V658.2C335.68 659 336.32 659.64 337.12 659.64H347.44C348.24 659.65 348.88 659 348.88 658.2Z" fill="white" fill-opacity="0.15"/>
<path d="M252.96 635.92H244.25C243.45 635.92 242.81 635.27 242.81 634.48V624.7C242.81 623.9 242.16 623.26 241.37 623.26H231.05C230.25 623.26 229.61 623.91 229.61 624.7V634.48C229.61 635.28 228.96 635.92 228.17 635.92H219.46C218.66 635.92 218.02 636.57 218.02 637.36V647.68C218.02 648.48 218.66 649.12 219.46 649.12H229.61H242.82H252.97C253.77 649.12 254.41 648.47 254.41 647.68V637.36C254.4 636.57 253.76 635.92 252.96 635.92Z" fill="white" fill-opacity="0.15"/>
<path d="M272.33 652.95V644.24C272.33 643.44 272.98 642.8 273.77 642.8H283.55C284.35 642.8 284.99 642.15 284.99 641.36V631.03C284.99 630.23 284.35 629.59 283.55 629.59H273.77C272.98 629.59 272.33 628.94 272.33 628.15V619.44C272.33 618.64 271.68 618 270.89 618H260.57C259.77 618 259.13 618.65 259.13 619.44V629.59V642.8V652.95C259.13 653.75 259.77 654.39 260.57 654.39H270.89C271.69 654.39 272.33 653.74 272.33 652.95Z" fill="white" fill-opacity="0.15"/>
<path d="M177.62 635.92H168.91C168.11 635.92 167.47 635.27 167.47 634.48V624.7C167.47 623.9 166.82 623.26 166.03 623.26H155.71C154.91 623.26 154.27 623.91 154.27 624.7V634.48C154.27 635.28 153.62 635.92 152.83 635.92H144.12C143.32 635.92 142.68 636.57 142.68 637.36V647.68C142.68 648.48 143.32 649.12 144.12 649.12H154.27H167.48H177.63C178.43 649.12 179.07 648.47 179.07 647.68V637.36C179.06 636.57 178.42 635.92 177.62 635.92Z" fill="white" fill-opacity="0.15"/>
<path d="M198.21 658.2V649.5C198.21 648.7 198.86 648.06 199.65 648.06H209.43C210.23 648.06 210.87 647.41 210.87 646.62V636.29C210.87 635.49 210.22 634.85 209.43 634.85H199.65C198.85 634.85 198.21 634.2 198.21 633.41V624.7C198.21 623.9 197.56 623.26 196.77 623.26H186.45C185.65 623.26 185.01 623.91 185.01 624.7V634.85V648.06V658.2C185.01 659 185.66 659.64 186.45 659.64H196.77C197.56 659.65 198.21 659 198.21 658.2Z" fill="white" fill-opacity="0.15"/>
<path d="M102.28 635.92H93.57C92.77 635.92 92.13 635.27 92.13 634.48V624.7C92.13 623.9 91.48 623.26 90.69 623.26H80.37C79.57 623.26 78.93 623.91 78.93 624.7V634.48C78.93 635.28 78.28 635.92 77.49 635.92H68.78C67.98 635.92 67.34 636.57 67.34 637.36V647.68C67.34 648.48 67.98 649.12 68.78 649.12H78.93H92.14H102.29C103.09 649.12 103.73 648.47 103.73 647.68V637.36C103.73 636.57 103.08 635.92 102.28 635.92Z" fill="white" fill-opacity="0.15"/>
<path d="M122.87 658.2V649.5C122.87 648.7 123.52 648.06 124.31 648.06H134.09C134.89 648.06 135.53 647.41 135.53 646.62V636.29C135.53 635.49 134.89 634.85 134.09 634.85H124.31C123.51 634.85 122.87 634.2 122.87 633.41V624.7C122.87 623.9 122.22 623.26 121.43 623.26H111.1C110.3 623.26 109.66 623.91 109.66 624.7V634.85V648.06V658.2C109.66 659 110.3 659.64 111.1 659.64H121.42C122.22 659.65 122.87 659 122.87 658.2Z" fill="white" fill-opacity="0.15"/>
<path d="M26.95 635.92H18.24C17.44 635.92 16.8 635.27 16.8 634.48V624.7C16.8 623.9 16.15 623.26 15.36 623.26H5.03C4.23 623.26 3.59 623.91 3.59 624.7V634.48C3.59 635.28 2.94 635.92 2.15 635.92H-6.56C-7.36 635.92 -8 636.57 -8 637.36V647.68C-8 648.48 -7.35 649.12 -6.56 649.12H3.59H16.8H26.95C27.75 649.12 28.39 648.47 28.39 647.68V637.36C28.39 636.57 27.74 635.92 26.95 635.92Z" fill="white" fill-opacity="0.15"/>
<path d="M47.53 658.2V649.5C47.53 648.7 48.18 648.06 48.97 648.06H58.75C59.55 648.06 60.19 647.41 60.19 646.62V636.29C60.19 635.49 59.54 634.85 58.75 634.85H48.97C48.17 634.85 47.53 634.2 47.53 633.41V624.7C47.53 623.9 46.88 623.26 46.09 623.26H35.76C34.96 623.26 34.32 623.91 34.32 624.7V634.85V648.06V658.2C34.32 659 34.96 659.64 35.76 659.64H46.08C46.88 659.65 47.53 659 47.53 658.2Z" fill="white" fill-opacity="0.15"/>
</g>
<g clip-path="url(#clip8_1229:3516)">
<path d="M24.9306 95.9294L33.5569 95.9294C34.3492 95.9294 34.983 96.5849 34.983 97.3815L34.983 107.244C34.983 108.05 35.6268 108.696 36.4092 108.696L46.6301 108.696C47.4224 108.696 48.0562 108.04 48.0562 107.244L48.0562 97.3815C48.0562 96.5748 48.7 95.9294 49.4824 95.9294L58.1087 95.9294C58.9011 95.9294 59.5349 95.2739 59.5349 94.4773L59.5349 84.0706C59.5349 83.2638 58.9011 82.6185 58.1087 82.6185L48.0562 82.6185L34.9731 82.6185L24.9206 82.6185C24.1283 82.6185 23.4945 83.2739 23.4945 84.0706L23.4945 94.4773C23.5044 95.2739 24.1382 95.9294 24.9306 95.9294Z" fill="white" fill-opacity="0.15"/>
<path d="M4.54824 73.4622L4.54825 82.2353C4.54825 83.042 3.90449 83.6874 3.12208 83.6874L-6.56398 83.6874C-7.35629 83.6874 -7.99015 84.3428 -7.99014 85.1395L-7.99014 95.5563C-7.99014 96.363 -7.35629 97.0084 -6.56397 97.0084L3.12208 97.0084C3.90449 97.0084 4.54825 97.6639 4.54825 98.4605L4.54825 107.244C4.54825 108.05 5.19201 108.696 5.97442 108.696L16.1953 108.696C16.9876 108.696 17.6215 108.04 17.6215 107.244L17.6215 97.0084L17.6215 83.6874L17.6215 73.4622C17.6215 72.6554 16.9876 72.0101 16.1953 72.0101L5.97441 72.0101C5.1821 72 4.54824 72.6554 4.54824 73.4622Z" fill="white" fill-opacity="0.15"/>
<path d="M99.5468 95.9294L108.173 95.9294C108.965 95.9294 109.599 96.5849 109.599 97.3815L109.599 107.244C109.599 108.05 110.243 108.696 111.026 108.696L121.246 108.696C122.039 108.696 122.673 108.04 122.673 107.244L122.673 97.3815C122.673 96.5748 123.316 95.9294 124.099 95.9294L132.725 95.9294C133.517 95.9294 134.151 95.2739 134.151 94.4773L134.151 84.0706C134.151 83.2639 133.517 82.6185 132.725 82.6185L122.673 82.6185L109.589 82.6185L99.5369 82.6185C98.7446 82.6185 98.1108 83.2739 98.1108 84.0706L98.1108 94.4773C98.1207 95.2739 98.7545 95.9294 99.5468 95.9294Z" fill="white" fill-opacity="0.15"/>
<path d="M80.363 78.7563L80.363 87.5395C80.363 88.3462 79.7192 88.9916 78.9368 88.9916L69.2507 88.9916C68.4584 88.9916 67.8246 89.647 67.8246 90.4437L67.8246 100.86C67.8246 101.667 68.4584 102.313 69.2507 102.313L78.9368 102.313C79.7192 102.313 80.363 102.968 80.363 103.765L80.363 112.548C80.363 113.355 81.0067 114 81.7891 114L92.01 114C92.8023 114 93.4362 113.345 93.4362 112.548L93.4362 102.313L93.4362 88.9916L93.4362 78.7563C93.4362 77.9496 92.8023 77.3042 92.01 77.3042L81.7891 77.3042C80.9968 77.3042 80.363 77.9596 80.363 78.7563Z" fill="white" fill-opacity="0.15"/>
<path d="M174.163 95.9294L182.789 95.9294C183.582 95.9294 184.216 96.5849 184.216 97.3815L184.216 107.244C184.216 108.05 184.859 108.696 185.642 108.696L195.863 108.696C196.655 108.696 197.289 108.04 197.289 107.244L197.289 97.3815C197.289 96.5748 197.933 95.9294 198.715 95.9294L207.341 95.9294C208.134 95.9294 208.767 95.2739 208.767 94.4773L208.767 84.0706C208.767 83.2639 208.134 82.6185 207.341 82.6185L197.289 82.6185L184.206 82.6185L174.153 82.6185C173.361 82.6185 172.727 83.2739 172.727 84.0706L172.727 94.4773C172.737 95.2739 173.371 95.9294 174.163 95.9294Z" fill="white" fill-opacity="0.15"/>
<path d="M153.771 73.4622L153.771 82.2353C153.771 83.042 153.127 83.6874 152.345 83.6874L142.659 83.6874C141.866 83.6874 141.233 84.3428 141.233 85.1395L141.233 95.5563C141.233 96.363 141.876 97.0084 142.659 97.0084L152.345 97.0084C153.137 97.0084 153.771 97.6639 153.771 98.4605L153.771 107.244C153.771 108.05 154.415 108.696 155.197 108.696L165.418 108.696C166.21 108.696 166.844 108.04 166.844 107.244L166.844 97.0084L166.844 83.6874L166.844 73.4622C166.844 72.6554 166.2 72.0101 165.418 72.0101L155.197 72.0101C154.415 72 153.771 72.6554 153.771 73.4622Z" fill="white" fill-opacity="0.15"/>
<path d="M248.779 95.9294L257.406 95.9294C258.198 95.9294 258.832 96.5849 258.832 97.3815L258.832 107.244C258.832 108.05 259.476 108.696 260.258 108.696L270.479 108.696C271.271 108.696 271.905 108.04 271.905 107.244L271.905 97.3815C271.905 96.5748 272.549 95.9294 273.331 95.9294L281.958 95.9294C282.75 95.9294 283.384 95.2739 283.384 94.4773L283.384 84.0706C283.384 83.2639 282.75 82.6185 281.958 82.6185L271.905 82.6185L258.822 82.6185L248.769 82.6185C247.977 82.6185 247.343 83.2739 247.343 84.0706L247.343 94.4773C247.343 95.2739 247.987 95.9294 248.779 95.9294Z" fill="white" fill-opacity="0.15"/>
<path d="M228.387 73.4622L228.387 82.2353C228.387 83.042 227.743 83.6874 226.961 83.6874L217.275 83.6874C216.483 83.6874 215.849 84.3428 215.849 85.1395L215.849 95.5563C215.849 96.363 216.483 97.0084 217.275 97.0084L226.961 97.0084C227.753 97.0084 228.387 97.6639 228.387 98.4605L228.387 107.244C228.387 108.05 229.031 108.696 229.813 108.696L240.044 108.696C240.836 108.696 241.47 108.04 241.47 107.244L241.47 97.0084L241.47 83.6874L241.47 73.4622C241.47 72.6554 240.836 72.0101 240.044 72.0101L229.823 72.0101C229.031 72 228.387 72.6554 228.387 73.4622Z" fill="white" fill-opacity="0.15"/>
<path d="M323.386 95.9294L332.012 95.9294C332.804 95.9294 333.438 96.5849 333.438 97.3815L333.438 107.244C333.438 108.05 334.082 108.696 334.864 108.696L345.095 108.696C345.887 108.696 346.521 108.04 346.521 107.244L346.521 97.3815C346.521 96.5748 347.165 95.9294 347.948 95.9294L356.574 95.9294C357.366 95.9294 358 95.2739 358 94.4773L358 84.0706C358 83.2638 357.356 82.6185 356.574 82.6185L346.521 82.6185L333.438 82.6185L323.386 82.6185C322.593 82.6185 321.96 83.2739 321.96 84.0706L321.96 94.4773C321.96 95.2739 322.603 95.9294 323.386 95.9294Z" fill="#9F47FC"/>
<path d="M303.003 73.4622L303.003 82.2353C303.003 83.042 302.36 83.6874 301.577 83.6874L291.891 83.6874C291.099 83.6874 290.465 84.3428 290.465 85.1395L290.465 95.5563C290.465 96.363 291.109 97.0084 291.891 97.0084L301.577 97.0084C302.37 97.0084 303.003 97.6639 303.003 98.4605L303.003 107.244C303.003 108.05 303.647 108.696 304.43 108.696L314.66 108.696C315.453 108.696 316.087 108.04 316.087 107.244L316.087 97.0084L316.087 83.6874L316.087 73.4622C316.087 72.6554 315.453 72.0101 314.66 72.0101L304.44 72.0101C303.647 72 303.003 72.6554 303.003 73.4622Z" fill="white" fill-opacity="0.15"/>
</g>
<g clip-path="url(#clip9_1229:3516)">
<path d="M24.9306 11.9294L33.5569 11.9294C34.3492 11.9294 34.983 12.5849 34.983 13.3815L34.983 23.2437C34.983 24.0504 35.6268 24.6958 36.4092 24.6958L46.6301 24.6958C47.4224 24.6958 48.0562 24.0403 48.0562 23.2437L48.0562 13.3815C48.0562 12.5748 48.7 11.9294 49.4824 11.9294L58.1087 11.9294C58.9011 11.9294 59.5349 11.2739 59.5349 10.4773L59.5349 0.0705717C59.5349 -0.736152 58.9011 -1.38153 58.1087 -1.38153L48.0562 -1.38153L34.9731 -1.38153L24.9206 -1.38153C24.1283 -1.38153 23.4945 -0.726064 23.4945 0.0705749L23.4945 10.4773C23.5044 11.2739 24.1382 11.9294 24.9306 11.9294Z" fill="white" fill-opacity="0.15"/>
<path d="M4.54824 -10.5378L4.54825 -1.76472C4.54825 -0.957999 3.90449 -0.31262 3.12208 -0.31262L-6.56398 -0.312619C-7.35629 -0.312619 -7.99015 0.342843 -7.99014 1.13948L-7.99014 11.5563C-7.99014 12.363 -7.35629 13.0084 -6.56397 13.0084L3.12208 13.0084C3.90449 13.0084 4.54825 13.6639 4.54825 14.4605L4.54825 23.2437C4.54825 24.0504 5.19201 24.6958 5.97442 24.6958L16.1953 24.6958C16.9876 24.6958 17.6215 24.0403 17.6215 23.2437L17.6215 13.0084L17.6215 -0.312621L17.6215 -10.5378C17.6215 -11.3446 16.9876 -11.9899 16.1953 -11.9899L5.97441 -11.9899C5.1821 -12 4.54824 -11.3446 4.54824 -10.5378Z" fill="white" fill-opacity="0.15"/>
<path d="M99.5468 11.9294L108.173 11.9294C108.965 11.9294 109.599 12.5849 109.599 13.3815L109.599 23.2437C109.599 24.0504 110.243 24.6958 111.026 24.6958L121.246 24.6958C122.039 24.6958 122.673 24.0403 122.673 23.2437L122.673 13.3815C122.673 12.5748 123.316 11.9294 124.099 11.9294L132.725 11.9294C133.517 11.9294 134.151 11.2739 134.151 10.4773L134.151 0.0705746C134.151 -0.736149 133.517 -1.38153 132.725 -1.38153L122.673 -1.38153L109.589 -1.38153L99.5369 -1.38152C98.7446 -1.38152 98.1108 -0.726061 98.1108 0.0705778L98.1108 10.4773C98.1207 11.2739 98.7545 11.9294 99.5468 11.9294Z" fill="white" fill-opacity="0.15"/>
<path d="M80.363 -5.24372L80.363 3.53948C80.363 4.3462 79.7192 4.99158 78.9368 4.99158L69.2507 4.99158C68.4584 4.99158 67.8246 5.64704 67.8246 6.44368L67.8246 16.8605C67.8246 17.6672 68.4584 18.3126 69.2507 18.3126L78.9368 18.3126C79.7192 18.3126 80.363 18.9681 80.363 19.7647L80.363 28.5479C80.363 29.3546 81.0067 30 81.7891 30L92.01 30C92.8023 30 93.4362 29.3445 93.4362 28.5479L93.4362 18.3126L93.4362 4.99158L93.4362 -5.24372C93.4362 -6.05044 92.8023 -6.69582 92.01 -6.69582L81.7891 -6.69582C80.9968 -6.69582 80.363 -6.04036 80.363 -5.24372Z" fill="white" fill-opacity="0.15"/>
<path d="M174.163 11.9294L182.789 11.9294C183.582 11.9294 184.216 12.5849 184.216 13.3815L184.216 23.2437C184.216 24.0504 184.859 24.6958 185.642 24.6958L195.863 24.6958C196.655 24.6958 197.289 24.0403 197.289 23.2437L197.289 13.3815C197.289 12.5748 197.933 11.9294 198.715 11.9294L207.341 11.9294C208.134 11.9294 208.767 11.2739 208.767 10.4773L208.767 0.0705746C208.767 -0.736149 208.134 -1.38153 207.341 -1.38153L197.289 -1.38153L184.206 -1.38153L174.153 -1.38152C173.361 -1.38152 172.727 -0.726061 172.727 0.0705778L172.727 10.4773C172.737 11.2739 173.371 11.9294 174.163 11.9294Z" fill="white" fill-opacity="0.15"/>
<path d="M153.771 -10.5378L153.771 -1.76472C153.771 -0.957993 153.127 -0.312614 152.345 -0.312614L142.659 -0.312613C141.866 -0.312613 141.233 0.342848 141.233 1.13949L141.233 11.5563C141.233 12.363 141.876 13.0084 142.659 13.0084L152.345 13.0084C153.137 13.0084 153.771 13.6639 153.771 14.4605L153.771 23.2437C153.771 24.0504 154.415 24.6958 155.197 24.6958L165.418 24.6958C166.21 24.6958 166.844 24.0403 166.844 23.2437L166.844 13.0084L166.844 -0.312615L166.844 -10.5378C166.844 -11.3446 166.2 -11.9899 165.418 -11.9899L155.197 -11.9899C154.415 -12 153.771 -11.3446 153.771 -10.5378Z" fill="white" fill-opacity="0.15"/>
<path d="M248.779 11.9294L257.406 11.9294C258.198 11.9294 258.832 12.5849 258.832 13.3815L258.832 23.2437C258.832 24.0504 259.476 24.6958 260.258 24.6958L270.479 24.6958C271.271 24.6958 271.905 24.0403 271.905 23.2437L271.905 13.3815C271.905 12.5748 272.549 11.9294 273.331 11.9294L281.958 11.9294C282.75 11.9294 283.384 11.2739 283.384 10.4773L283.384 0.0705746C283.384 -0.736149 282.75 -1.38153 281.958 -1.38153L271.905 -1.38153L258.822 -1.38153L248.769 -1.38152C247.977 -1.38152 247.343 -0.726061 247.343 0.0705778L247.343 10.4773C247.343 11.2739 247.987 11.9294 248.779 11.9294Z" fill="white" fill-opacity="0.15"/>
<path d="M228.387 -10.5378L228.387 -1.76472C228.387 -0.957993 227.743 -0.312614 226.961 -0.312614L217.275 -0.312613C216.483 -0.312613 215.849 0.342848 215.849 1.13949L215.849 11.5563C215.849 12.363 216.483 13.0084 217.275 13.0084L226.961 13.0084C227.753 13.0084 228.387 13.6639 228.387 14.4605L228.387 23.2437C228.387 24.0504 229.031 24.6958 229.813 24.6958L240.044 24.6958C240.836 24.6958 241.47 24.0403 241.47 23.2437L241.47 13.0084L241.47 -0.312615L241.47 -10.5378C241.47 -11.3446 240.836 -11.9899 240.044 -11.9899L229.823 -11.9899C229.031 -12 228.387 -11.3446 228.387 -10.5378Z" fill="white" fill-opacity="0.15"/>
<path d="M323.386 11.9294L332.012 11.9294C332.804 11.9294 333.438 12.5849 333.438 13.3815L333.438 23.2437C333.438 24.0504 334.082 24.6958 334.864 24.6958L345.095 24.6958C345.887 24.6958 346.521 24.0403 346.521 23.2437L346.521 13.3815C346.521 12.5748 347.165 11.9294 347.948 11.9294L356.574 11.9294C357.366 11.9294 358 11.2739 358 10.4773L358 0.0705717C358 -0.736152 357.356 -1.38153 356.574 -1.38153L346.521 -1.38153L333.438 -1.38153L323.386 -1.38153C322.593 -1.38153 321.96 -0.726064 321.96 0.0705749L321.96 10.4773C321.96 11.2739 322.603 11.9294 323.386 11.9294Z" fill="white" fill-opacity="0.15"/>
<path d="M303.003 -10.5378L303.003 -1.76472C303.003 -0.957993 302.36 -0.312614 301.577 -0.312614L291.891 -0.312613C291.099 -0.312613 290.465 0.342848 290.465 1.13949L290.465 11.5563C290.465 12.363 291.109 13.0084 291.891 13.0084L301.577 13.0084C302.37 13.0084 303.003 13.6639 303.003 14.4605L303.003 23.2437C303.003 24.0504 303.647 24.6958 304.43 24.6958L314.66 24.6958C315.453 24.6958 316.087 24.0403 316.087 23.2437L316.087 13.0084L316.087 -0.312615L316.087 -10.5378C316.087 -11.3446 315.453 -11.9899 314.66 -11.9899L304.44 -11.9899C303.647 -12 303.003 -11.3446 303.003 -10.5378Z" fill="white" fill-opacity="0.15"/>
</g>
<g clip-path="url(#clip10_1229:3516)">
<path d="M25.2498 179.73L33.9598 179.73C34.7598 179.73 35.3998 180.38 35.3998 181.17L35.3998 190.95C35.3998 191.75 36.0498 192.39 36.8398 192.39L47.1598 192.39C47.9598 192.39 48.5998 191.74 48.5998 190.95L48.5998 181.17C48.5998 180.37 49.2498 179.73 50.0398 179.73L58.7498 179.73C59.5498 179.73 60.1898 179.08 60.1898 178.29L60.1898 167.97C60.1898 167.17 59.5498 166.53 58.7498 166.53L48.5998 166.53L35.3898 166.53L25.2398 166.53C24.4398 166.53 23.7998 167.18 23.7998 167.97L23.7998 178.29C23.8098 179.08 24.4498 179.73 25.2498 179.73Z" fill="white" fill-opacity="0.15"/>
<path d="M4.6698 157.45L4.6698 166.15C4.6698 166.95 4.0198 167.59 3.2298 167.59L-6.5502 167.59C-7.3502 167.59 -7.99021 168.24 -7.99021 169.03L-7.9902 179.36C-7.9902 180.16 -7.3502 180.8 -6.5502 180.8L3.2298 180.8C4.0198 180.8 4.6698 181.45 4.6698 182.24L4.6698 190.95C4.6698 191.75 5.3198 192.39 6.1098 192.39L16.4298 192.39C17.2298 192.39 17.8698 191.74 17.8698 190.95L17.8698 180.8L17.8698 167.59L17.8698 157.45C17.8698 156.65 17.2298 156.01 16.4298 156.01L6.1098 156.01C5.3098 156 4.6698 156.65 4.6698 157.45Z" fill="white" fill-opacity="0.15"/>
<path d="M100.59 179.73L109.3 179.73C110.1 179.73 110.74 180.38 110.74 181.17L110.74 190.95C110.74 191.75 111.39 192.39 112.18 192.39L122.5 192.39C123.3 192.39 123.94 191.74 123.94 190.95L123.94 181.17C123.94 180.37 124.59 179.73 125.38 179.73L134.09 179.73C134.89 179.73 135.53 179.08 135.53 178.29L135.53 167.97C135.53 167.17 134.89 166.53 134.09 166.53L123.94 166.53L110.73 166.53L100.58 166.53C99.7798 166.53 99.1398 167.18 99.1398 167.97L99.1398 178.29C99.1498 179.08 99.7898 179.73 100.59 179.73Z" fill="white" fill-opacity="0.15"/>
<path d="M81.2198 162.7L81.2198 171.41C81.2198 172.21 80.5698 172.85 79.7798 172.85L69.9998 172.85C69.1998 172.85 68.5598 173.5 68.5598 174.29L68.5598 184.62C68.5598 185.42 69.1998 186.06 69.9998 186.06L79.7798 186.06C80.5698 186.06 81.2198 186.71 81.2198 187.5L81.2198 196.21C81.2198 197.01 81.8698 197.65 82.6598 197.65L92.9798 197.65C93.7798 197.65 94.4198 197 94.4198 196.21L94.4198 186.06L94.4198 172.85L94.4198 162.7C94.4198 161.9 93.7798 161.26 92.9798 161.26L82.6598 161.26C81.8598 161.26 81.2198 161.91 81.2198 162.7Z" fill="white" fill-opacity="0.15"/>
<path d="M175.93 179.73L184.64 179.73C185.44 179.73 186.08 180.38 186.08 181.17L186.08 190.95C186.08 191.75 186.73 192.39 187.52 192.39L197.84 192.39C198.64 192.39 199.28 191.74 199.28 190.95L199.28 181.17C199.28 180.37 199.93 179.73 200.72 179.73L209.43 179.73C210.23 179.73 210.87 179.08 210.87 178.29L210.87 167.97C210.87 167.17 210.23 166.53 209.43 166.53L199.28 166.53L186.07 166.53L175.92 166.53C175.12 166.53 174.48 167.18 174.48 167.97L174.48 178.29C174.49 179.08 175.13 179.73 175.93 179.73Z" fill="white" fill-opacity="0.15"/>
<path d="M155.34 157.45L155.34 166.15C155.34 166.95 154.69 167.59 153.9 167.59L144.12 167.59C143.32 167.59 142.68 168.24 142.68 169.03L142.68 179.36C142.68 180.16 143.33 180.8 144.12 180.8L153.9 180.8C154.7 180.8 155.34 181.45 155.34 182.24L155.34 190.95C155.34 191.75 155.99 192.39 156.78 192.39L167.1 192.39C167.9 192.39 168.54 191.74 168.54 190.95L168.54 180.8L168.54 167.59L168.54 157.45C168.54 156.65 167.89 156.01 167.1 156.01L156.78 156.01C155.99 156 155.34 156.65 155.34 157.45Z" fill="white" fill-opacity="0.15"/>
<path d="M251.27 179.73L259.98 179.73C260.78 179.73 261.42 180.38 261.42 181.17L261.42 190.95C261.42 191.75 262.07 192.39 262.86 192.39L273.18 192.39C273.98 192.39 274.62 191.74 274.62 190.95L274.62 181.17C274.62 180.37 275.27 179.73 276.06 179.73L284.77 179.73C285.57 179.73 286.21 179.08 286.21 178.29L286.21 167.97C286.21 167.17 285.57 166.53 284.77 166.53L274.62 166.53L261.41 166.53L251.26 166.53C250.46 166.53 249.82 167.18 249.82 167.97L249.82 178.29C249.82 179.08 250.47 179.73 251.27 179.73Z" fill="white" fill-opacity="0.15"/>
<path d="M230.68 157.45L230.68 166.15C230.68 166.95 230.03 167.59 229.24 167.59L219.46 167.59C218.66 167.59 218.02 168.24 218.02 169.03L218.02 179.36C218.02 180.16 218.66 180.8 219.46 180.8L229.24 180.8C230.04 180.8 230.68 181.45 230.68 182.24L230.68 190.95C230.68 191.75 231.33 192.39 232.12 192.39L242.45 192.39C243.25 192.39 243.89 191.74 243.89 190.95L243.89 180.8L243.89 167.59L243.89 157.45C243.89 156.65 243.25 156.01 242.45 156.01L232.13 156.01C231.33 156 230.68 156.65 230.68 157.45Z" fill="white" fill-opacity="0.15"/>
<path d="M326.6 179.73L335.31 179.73C336.11 179.73 336.75 180.38 336.75 181.17L336.75 190.95C336.75 191.75 337.4 192.39 338.19 192.39L348.52 192.39C349.32 192.39 349.96 191.74 349.96 190.95L349.96 181.17C349.96 180.37 350.61 179.73 351.4 179.73L360.11 179.73C360.91 179.73 361.55 179.08 361.55 178.29L361.55 167.97C361.55 167.17 360.9 166.53 360.11 166.53L349.96 166.53L336.75 166.53L326.6 166.53C325.8 166.53 325.16 167.18 325.16 167.97L325.16 178.29C325.16 179.08 325.81 179.73 326.6 179.73Z" fill="white" fill-opacity="0.15"/>
<path d="M306.02 157.45L306.02 166.15C306.02 166.95 305.37 167.59 304.58 167.59L294.8 167.59C294 167.59 293.36 168.24 293.36 169.03L293.36 179.36C293.36 180.16 294.01 180.8 294.8 180.8L304.58 180.8C305.38 180.8 306.02 181.45 306.02 182.24L306.02 190.95C306.02 191.75 306.67 192.39 307.46 192.39L317.79 192.39C318.59 192.39 319.23 191.74 319.23 190.95L319.23 180.8L319.23 167.59L319.23 157.45C319.23 156.65 318.59 156.01 317.79 156.01L307.47 156.01C306.67 156 306.02 156.65 306.02 157.45Z" fill="white" fill-opacity="0.15"/>
</g>
<g clip-path="url(#clip11_1229:3516)">
<path d="M25.2498 263.73L33.9598 263.73C34.7598 263.73 35.3998 264.38 35.3998 265.17L35.3998 274.95C35.3998 275.75 36.0498 276.39 36.8398 276.39L47.1598 276.39C47.9598 276.39 48.5998 275.74 48.5998 274.95L48.5998 265.17C48.5998 264.37 49.2498 263.73 50.0398 263.73L58.7498 263.73C59.5498 263.73 60.1898 263.08 60.1898 262.29L60.1898 251.97C60.1898 251.17 59.5498 250.53 58.7498 250.53L48.5998 250.53L35.3898 250.53L25.2398 250.53C24.4398 250.53 23.7998 251.18 23.7998 251.97L23.7998 262.29C23.8098 263.08 24.4498 263.73 25.2498 263.73Z" fill="white" fill-opacity="0.15"/>
<path d="M4.6698 241.45L4.6698 250.15C4.6698 250.95 4.0198 251.59 3.2298 251.59L-6.5502 251.59C-7.3502 251.59 -7.99021 252.24 -7.99021 253.03L-7.9902 263.36C-7.9902 264.16 -7.3502 264.8 -6.5502 264.8L3.2298 264.8C4.0198 264.8 4.6698 265.45 4.6698 266.24L4.6698 274.95C4.6698 275.75 5.3198 276.39 6.1098 276.39L16.4298 276.39C17.2298 276.39 17.8698 275.74 17.8698 274.95L17.8698 264.8L17.8698 251.59L17.8698 241.45C17.8698 240.65 17.2298 240.01 16.4298 240.01L6.1098 240.01C5.3098 240 4.6698 240.65 4.6698 241.45Z" fill="white" fill-opacity="0.15"/>
<path d="M100.59 263.73L109.3 263.73C110.1 263.73 110.74 264.38 110.74 265.17L110.74 274.95C110.74 275.75 111.39 276.39 112.18 276.39L122.5 276.39C123.3 276.39 123.94 275.74 123.94 274.95L123.94 265.17C123.94 264.37 124.59 263.73 125.38 263.73L134.09 263.73C134.89 263.73 135.53 263.08 135.53 262.29L135.53 251.97C135.53 251.17 134.89 250.53 134.09 250.53L123.94 250.53L110.73 250.53L100.58 250.53C99.7798 250.53 99.1398 251.18 99.1398 251.97L99.1398 262.29C99.1498 263.08 99.7898 263.73 100.59 263.73Z" fill="white" fill-opacity="0.15"/>
<path d="M81.2198 246.7L81.2198 255.41C81.2198 256.21 80.5698 256.85 79.7798 256.85L69.9998 256.85C69.1998 256.85 68.5598 257.5 68.5598 258.29L68.5598 268.62C68.5598 269.42 69.1998 270.06 69.9998 270.06L79.7798 270.06C80.5698 270.06 81.2198 270.71 81.2198 271.5L81.2198 280.21C81.2198 281.01 81.8698 281.65 82.6598 281.65L92.9798 281.65C93.7798 281.65 94.4198 281 94.4198 280.21L94.4198 270.06L94.4198 256.85L94.4198 246.7C94.4198 245.9 93.7798 245.26 92.9798 245.26L82.6598 245.26C81.8598 245.26 81.2198 245.91 81.2198 246.7Z" fill="white" fill-opacity="0.15"/>
<path d="M175.93 263.73L184.64 263.73C185.44 263.73 186.08 264.38 186.08 265.17L186.08 274.95C186.08 275.75 186.73 276.39 187.52 276.39L197.84 276.39C198.64 276.39 199.28 275.74 199.28 274.95L199.28 265.17C199.28 264.37 199.93 263.73 200.72 263.73L209.43 263.73C210.23 263.73 210.87 263.08 210.87 262.29L210.87 251.97C210.87 251.17 210.23 250.53 209.43 250.53L199.28 250.53L186.07 250.53L175.92 250.53C175.12 250.53 174.48 251.18 174.48 251.97L174.48 262.29C174.49 263.08 175.13 263.73 175.93 263.73Z" fill="white" fill-opacity="0.15"/>
<path d="M155.34 241.45L155.34 250.15C155.34 250.95 154.69 251.59 153.9 251.59L144.12 251.59C143.32 251.59 142.68 252.24 142.68 253.03L142.68 263.36C142.68 264.16 143.33 264.8 144.12 264.8L153.9 264.8C154.7 264.8 155.34 265.45 155.34 266.24L155.34 274.95C155.34 275.75 155.99 276.39 156.78 276.39L167.1 276.39C167.9 276.39 168.54 275.74 168.54 274.95L168.54 264.8L168.54 251.59L168.54 241.45C168.54 240.65 167.89 240.01 167.1 240.01L156.78 240.01C155.99 240 155.34 240.65 155.34 241.45Z" fill="white" fill-opacity="0.15"/>
<path d="M251.27 263.73L259.98 263.73C260.78 263.73 261.42 264.38 261.42 265.17L261.42 274.95C261.42 275.75 262.07 276.39 262.86 276.39L273.18 276.39C273.98 276.39 274.62 275.74 274.62 274.95L274.62 265.17C274.62 264.37 275.27 263.73 276.06 263.73L284.77 263.73C285.57 263.73 286.21 263.08 286.21 262.29L286.21 251.97C286.21 251.17 285.57 250.53 284.77 250.53L274.62 250.53L261.41 250.53L251.26 250.53C250.46 250.53 249.82 251.18 249.82 251.97L249.82 262.29C249.82 263.08 250.47 263.73 251.27 263.73Z" fill="white" fill-opacity="0.15"/>
<path d="M230.68 241.45L230.68 250.15C230.68 250.95 230.03 251.59 229.24 251.59L219.46 251.59C218.66 251.59 218.02 252.24 218.02 253.03L218.02 263.36C218.02 264.16 218.66 264.8 219.46 264.8L229.24 264.8C230.04 264.8 230.68 265.45 230.68 266.24L230.68 274.95C230.68 275.75 231.33 276.39 232.12 276.39L242.45 276.39C243.25 276.39 243.89 275.74 243.89 274.95L243.89 264.8L243.89 251.59L243.89 241.45C243.89 240.65 243.25 240.01 242.45 240.01L232.13 240.01C231.33 240 230.68 240.65 230.68 241.45Z" fill="white" fill-opacity="0.15"/>
<path d="M326.6 263.73L335.31 263.73C336.11 263.73 336.75 264.38 336.75 265.17L336.75 274.95C336.75 275.75 337.4 276.39 338.19 276.39L348.52 276.39C349.32 276.39 349.96 275.74 349.96 274.95L349.96 265.17C349.96 264.37 350.61 263.73 351.4 263.73L360.11 263.73C360.91 263.73 361.55 263.08 361.55 262.29L361.55 251.97C361.55 251.17 360.9 250.53 360.11 250.53L349.96 250.53L336.75 250.53L326.6 250.53C325.8 250.53 325.16 251.18 325.16 251.97L325.16 262.29C325.16 263.08 325.81 263.73 326.6 263.73Z" fill="white" fill-opacity="0.15"/>
<path d="M306.02 241.45L306.02 250.15C306.02 250.95 305.37 251.59 304.58 251.59L294.8 251.59C294 251.59 293.36 252.24 293.36 253.03L293.36 263.36C293.36 264.16 294.01 264.8 294.8 264.8L304.58 264.8C305.38 264.8 306.02 265.45 306.02 266.24L306.02 274.95C306.02 275.75 306.67 276.39 307.46 276.39L317.79 276.39C318.59 276.39 319.23 275.74 319.23 274.95L319.23 264.8L319.23 251.59L319.23 241.45C319.23 240.65 318.59 240.01 317.79 240.01L307.47 240.01C306.67 240 306.02 240.65 306.02 241.45Z" fill="white" fill-opacity="0.15"/>
</g>
<g clip-path="url(#clip12_1229:3516)">
<path d="M25.2498 347.73L33.9598 347.73C34.7598 347.73 35.3998 348.38 35.3998 349.17L35.3998 358.95C35.3998 359.75 36.0498 360.39 36.8398 360.39L47.1598 360.39C47.9598 360.39 48.5998 359.74 48.5998 358.95L48.5998 349.17C48.5998 348.37 49.2498 347.73 50.0398 347.73L58.7498 347.73C59.5498 347.73 60.1898 347.08 60.1898 346.29L60.1898 335.97C60.1898 335.17 59.5498 334.53 58.7498 334.53L48.5998 334.53L35.3898 334.53L25.2398 334.53C24.4398 334.53 23.7998 335.18 23.7998 335.97L23.7998 346.29C23.8098 347.08 24.4498 347.73 25.2498 347.73Z" fill="white" fill-opacity="0.15"/>
<path d="M4.6698 325.45L4.6698 334.15C4.6698 334.95 4.0198 335.59 3.2298 335.59L-6.5502 335.59C-7.3502 335.59 -7.99021 336.24 -7.99021 337.03L-7.9902 347.36C-7.9902 348.16 -7.3502 348.8 -6.5502 348.8L3.2298 348.8C4.0198 348.8 4.6698 349.45 4.6698 350.24L4.6698 358.95C4.6698 359.75 5.3198 360.39 6.1098 360.39L16.4298 360.39C17.2298 360.39 17.8698 359.74 17.8698 358.95L17.8698 348.8L17.8698 335.59L17.8698 325.45C17.8698 324.65 17.2298 324.01 16.4298 324.01L6.1098 324.01C5.3098 324 4.6698 324.65 4.6698 325.45Z" fill="white" fill-opacity="0.15"/>
<path d="M100.59 347.73L109.3 347.73C110.1 347.73 110.74 348.38 110.74 349.17L110.74 358.95C110.74 359.75 111.39 360.39 112.18 360.39L122.5 360.39C123.3 360.39 123.94 359.74 123.94 358.95L123.94 349.17C123.94 348.37 124.59 347.73 125.38 347.73L134.09 347.73C134.89 347.73 135.53 347.08 135.53 346.29L135.53 335.97C135.53 335.17 134.89 334.53 134.09 334.53L123.94 334.53L110.73 334.53L100.58 334.53C99.7798 334.53 99.1398 335.18 99.1398 335.97L99.1398 346.29C99.1498 347.08 99.7898 347.73 100.59 347.73Z" fill="white" fill-opacity="0.15"/>
<path d="M81.2198 330.7L81.2198 339.41C81.2198 340.21 80.5698 340.85 79.7798 340.85L69.9998 340.85C69.1998 340.85 68.5598 341.5 68.5598 342.29L68.5598 352.62C68.5598 353.42 69.1998 354.06 69.9998 354.06L79.7798 354.06C80.5698 354.06 81.2198 354.71 81.2198 355.5L81.2198 364.21C81.2198 365.01 81.8698 365.65 82.6598 365.65L92.9798 365.65C93.7798 365.65 94.4198 365 94.4198 364.21L94.4198 354.06L94.4198 340.85L94.4198 330.7C94.4198 329.9 93.7798 329.26 92.9798 329.26L82.6598 329.26C81.8598 329.26 81.2198 329.91 81.2198 330.7Z" fill="white" fill-opacity="0.15"/>
<path d="M175.93 347.73L184.64 347.73C185.44 347.73 186.08 348.38 186.08 349.17L186.08 358.95C186.08 359.75 186.73 360.39 187.52 360.39L197.84 360.39C198.64 360.39 199.28 359.74 199.28 358.95L199.28 349.17C199.28 348.37 199.93 347.73 200.72 347.73L209.43 347.73C210.23 347.73 210.87 347.08 210.87 346.29L210.87 335.97C210.87 335.17 210.23 334.53 209.43 334.53L199.28 334.53L186.07 334.53L175.92 334.53C175.12 334.53 174.48 335.18 174.48 335.97L174.48 346.29C174.49 347.08 175.13 347.73 175.93 347.73Z" fill="white" fill-opacity="0.15"/>
<path d="M155.34 325.45L155.34 334.15C155.34 334.95 154.69 335.59 153.9 335.59L144.12 335.59C143.32 335.59 142.68 336.24 142.68 337.03L142.68 347.36C142.68 348.16 143.33 348.8 144.12 348.8L153.9 348.8C154.7 348.8 155.34 349.45 155.34 350.24L155.34 358.95C155.34 359.75 155.99 360.39 156.78 360.39L167.1 360.39C167.9 360.39 168.54 359.74 168.54 358.95L168.54 348.8L168.54 335.59L168.54 325.45C168.54 324.65 167.89 324.01 167.1 324.01L156.78 324.01C155.99 324 155.34 324.65 155.34 325.45Z" fill="white" fill-opacity="0.15"/>
<path d="M251.27 347.73L259.98 347.73C260.78 347.73 261.42 348.38 261.42 349.17L261.42 358.95C261.42 359.75 262.07 360.39 262.86 360.39L273.18 360.39C273.98 360.39 274.62 359.74 274.62 358.95L274.62 349.17C274.62 348.37 275.27 347.73 276.06 347.73L284.77 347.73C285.57 347.73 286.21 347.08 286.21 346.29L286.21 335.97C286.21 335.17 285.57 334.53 284.77 334.53L274.62 334.53L261.41 334.53L251.26 334.53C250.46 334.53 249.82 335.18 249.82 335.97L249.82 346.29C249.82 347.08 250.47 347.73 251.27 347.73Z" fill="white" fill-opacity="0.15"/>
<path d="M230.68 325.45L230.68 334.15C230.68 334.95 230.03 335.59 229.24 335.59L219.46 335.59C218.66 335.59 218.02 336.24 218.02 337.03L218.02 347.36C218.02 348.16 218.66 348.8 219.46 348.8L229.24 348.8C230.04 348.8 230.68 349.45 230.68 350.24L230.68 358.95C230.68 359.75 231.33 360.39 232.12 360.39L242.45 360.39C243.25 360.39 243.89 359.74 243.89 358.95L243.89 348.8L243.89 335.59L243.89 325.45C243.89 324.65 243.25 324.01 242.45 324.01L232.13 324.01C231.33 324 230.68 324.65 230.68 325.45Z" fill="white" fill-opacity="0.15"/>
<path d="M326.6 347.73L335.31 347.73C336.11 347.73 336.75 348.38 336.75 349.17L336.75 358.95C336.75 359.75 337.4 360.39 338.19 360.39L348.52 360.39C349.32 360.39 349.96 359.74 349.96 358.95L349.96 349.17C349.96 348.37 350.61 347.73 351.4 347.73L360.11 347.73C360.91 347.73 361.55 347.08 361.55 346.29L361.55 335.97C361.55 335.17 360.9 334.53 360.11 334.53L349.96 334.53L336.75 334.53L326.6 334.53C325.8 334.53 325.16 335.18 325.16 335.97L325.16 346.29C325.16 347.08 325.81 347.73 326.6 347.73Z" fill="white" fill-opacity="0.15"/>
<path d="M306.02 325.45L306.02 334.15C306.02 334.95 305.37 335.59 304.58 335.59L294.8 335.59C294 335.59 293.36 336.24 293.36 337.03L293.36 347.36C293.36 348.16 294.01 348.8 294.8 348.8L304.58 348.8C305.38 348.8 306.02 349.45 306.02 350.24L306.02 358.95C306.02 359.75 306.67 360.39 307.46 360.39L317.79 360.39C318.59 360.39 319.23 359.74 319.23 358.95L319.23 348.8L319.23 335.59L319.23 325.45C319.23 324.65 318.59 324.01 317.79 324.01L307.47 324.01C306.67 324 306.02 324.65 306.02 325.45Z" fill="white" fill-opacity="0.15"/>
</g>
<g clip-path="url(#clip13_1229:3516)">
<path d="M25.2498 431.73L33.9598 431.73C34.7598 431.73 35.3998 432.38 35.3998 433.17L35.3998 442.95C35.3998 443.75 36.0498 444.39 36.8398 444.39L47.1598 444.39C47.9598 444.39 48.5998 443.74 48.5998 442.95L48.5998 433.17C48.5998 432.37 49.2498 431.73 50.0398 431.73L58.7498 431.73C59.5498 431.73 60.1898 431.08 60.1898 430.29L60.1898 419.97C60.1898 419.17 59.5498 418.53 58.7498 418.53L48.5998 418.53L35.3898 418.53L25.2398 418.53C24.4398 418.53 23.7998 419.18 23.7998 419.97L23.7998 430.29C23.8098 431.08 24.4498 431.73 25.2498 431.73Z" fill="white" fill-opacity="0.15"/>
<path d="M4.6698 409.45L4.6698 418.15C4.6698 418.95 4.0198 419.59 3.2298 419.59L-6.5502 419.59C-7.3502 419.59 -7.99021 420.24 -7.99021 421.03L-7.9902 431.36C-7.9902 432.16 -7.3502 432.8 -6.5502 432.8L3.2298 432.8C4.0198 432.8 4.6698 433.45 4.6698 434.24L4.6698 442.95C4.6698 443.75 5.3198 444.39 6.1098 444.39L16.4298 444.39C17.2298 444.39 17.8698 443.74 17.8698 442.95L17.8698 432.8L17.8698 419.59L17.8698 409.45C17.8698 408.65 17.2298 408.01 16.4298 408.01L6.1098 408.01C5.3098 408 4.6698 408.65 4.6698 409.45Z" fill="white" fill-opacity="0.15"/>
<path d="M100.59 431.73L109.3 431.73C110.1 431.73 110.74 432.38 110.74 433.17L110.74 442.95C110.74 443.75 111.39 444.39 112.18 444.39L122.5 444.39C123.3 444.39 123.94 443.74 123.94 442.95L123.94 433.17C123.94 432.37 124.59 431.73 125.38 431.73L134.09 431.73C134.89 431.73 135.53 431.08 135.53 430.29L135.53 419.97C135.53 419.17 134.89 418.53 134.09 418.53L123.94 418.53L110.73 418.53L100.58 418.53C99.7798 418.53 99.1398 419.18 99.1398 419.97L99.1398 430.29C99.1498 431.08 99.7898 431.73 100.59 431.73Z" fill="white" fill-opacity="0.15"/>
<path d="M81.2198 414.7L81.2198 423.41C81.2198 424.21 80.5698 424.85 79.7798 424.85L69.9998 424.85C69.1998 424.85 68.5598 425.5 68.5598 426.29L68.5598 436.62C68.5598 437.42 69.1998 438.06 69.9998 438.06L79.7798 438.06C80.5698 438.06 81.2198 438.71 81.2198 439.5L81.2198 448.21C81.2198 449.01 81.8698 449.65 82.6598 449.65L92.9798 449.65C93.7798 449.65 94.4198 449 94.4198 448.21L94.4198 438.06L94.4198 424.85L94.4198 414.7C94.4198 413.9 93.7798 413.26 92.9798 413.26L82.6598 413.26C81.8598 413.26 81.2198 413.91 81.2198 414.7Z" fill="white" fill-opacity="0.15"/>
<path d="M175.93 431.73L184.64 431.73C185.44 431.73 186.08 432.38 186.08 433.17L186.08 442.95C186.08 443.75 186.73 444.39 187.52 444.39L197.84 444.39C198.64 444.39 199.28 443.74 199.28 442.95L199.28 433.17C199.28 432.37 199.93 431.73 200.72 431.73L209.43 431.73C210.23 431.73 210.87 431.08 210.87 430.29L210.87 419.97C210.87 419.17 210.23 418.53 209.43 418.53L199.28 418.53L186.07 418.53L175.92 418.53C175.12 418.53 174.48 419.18 174.48 419.97L174.48 430.29C174.49 431.08 175.13 431.73 175.93 431.73Z" fill="#BAF734"/>
<path d="M155.34 409.45L155.34 418.15C155.34 418.95 154.69 419.59 153.9 419.59L144.12 419.59C143.32 419.59 142.68 420.24 142.68 421.03L142.68 431.36C142.68 432.16 143.33 432.8 144.12 432.8L153.9 432.8C154.7 432.8 155.34 433.45 155.34 434.24L155.34 442.95C155.34 443.75 155.99 444.39 156.78 444.39L167.1 444.39C167.9 444.39 168.54 443.74 168.54 442.95L168.54 432.8L168.54 419.59L168.54 409.45C168.54 408.65 167.89 408.01 167.1 408.01L156.78 408.01C155.99 408 155.34 408.65 155.34 409.45Z" fill="white" fill-opacity="0.15"/>
<path d="M251.27 431.73L259.98 431.73C260.78 431.73 261.42 432.38 261.42 433.17L261.42 442.95C261.42 443.75 262.07 444.39 262.86 444.39L273.18 444.39C273.98 444.39 274.62 443.74 274.62 442.95L274.62 433.17C274.62 432.37 275.27 431.73 276.06 431.73L284.77 431.73C285.57 431.73 286.21 431.08 286.21 430.29L286.21 419.97C286.21 419.17 285.57 418.53 284.77 418.53L274.62 418.53L261.41 418.53L251.26 418.53C250.46 418.53 249.82 419.18 249.82 419.97L249.82 430.29C249.82 431.08 250.47 431.73 251.27 431.73Z" fill="white" fill-opacity="0.15"/>
<path d="M230.68 409.45L230.68 418.15C230.68 418.95 230.03 419.59 229.24 419.59L219.46 419.59C218.66 419.59 218.02 420.24 218.02 421.03L218.02 431.36C218.02 432.16 218.66 432.8 219.46 432.8L229.24 432.8C230.04 432.8 230.68 433.45 230.68 434.24L230.68 442.95C230.68 443.75 231.33 444.39 232.12 444.39L242.45 444.39C243.25 444.39 243.89 443.74 243.89 442.95L243.89 432.8L243.89 419.59L243.89 409.45C243.89 408.65 243.25 408.01 242.45 408.01L232.13 408.01C231.33 408 230.68 408.65 230.68 409.45Z" fill="white" fill-opacity="0.15"/>
<path d="M326.6 431.73L335.31 431.73C336.11 431.73 336.75 432.38 336.75 433.17L336.75 442.95C336.75 443.75 337.4 444.39 338.19 444.39L348.52 444.39C349.32 444.39 349.96 443.74 349.96 442.95L349.96 433.17C349.96 432.37 350.61 431.73 351.4 431.73L360.11 431.73C360.91 431.73 361.55 431.08 361.55 430.29L361.55 419.97C361.55 419.17 360.9 418.53 360.11 418.53L349.96 418.53L336.75 418.53L326.6 418.53C325.8 418.53 325.16 419.18 325.16 419.97L325.16 430.29C325.16 431.08 325.81 431.73 326.6 431.73Z" fill="white" fill-opacity="0.15"/>
<path d="M306.02 409.45L306.02 418.15C306.02 418.95 305.37 419.59 304.58 419.59L294.8 419.59C294 419.59 293.36 420.24 293.36 421.03L293.36 431.36C293.36 432.16 294.01 432.8 294.8 432.8L304.58 432.8C305.38 432.8 306.02 433.45 306.02 434.24L306.02 442.95C306.02 443.75 306.67 444.39 307.46 444.39L317.79 444.39C318.59 444.39 319.23 443.74 319.23 442.95L319.23 432.8L319.23 419.59L319.23 409.45C319.23 408.65 318.59 408.01 317.79 408.01L307.47 408.01C306.67 408 306.02 408.65 306.02 409.45Z" fill="white" fill-opacity="0.15"/>
</g>
<g clip-path="url(#clip14_1229:3516)">
<path d="M25.2498 515.73L33.9598 515.73C34.7598 515.73 35.3998 516.38 35.3998 517.17L35.3998 526.95C35.3998 527.75 36.0498 528.39 36.8398 528.39L47.1598 528.39C47.9598 528.39 48.5998 527.74 48.5998 526.95L48.5998 517.17C48.5998 516.37 49.2498 515.73 50.0398 515.73L58.7498 515.73C59.5498 515.73 60.1898 515.08 60.1898 514.29L60.1898 503.97C60.1898 503.17 59.5498 502.53 58.7498 502.53L48.5998 502.53L35.3898 502.53L25.2398 502.53C24.4398 502.53 23.7998 503.18 23.7998 503.97L23.7998 514.29C23.8098 515.08 24.4498 515.73 25.2498 515.73Z" fill="white" fill-opacity="0.15"/>
<path d="M4.6698 493.45L4.6698 502.15C4.6698 502.95 4.0198 503.59 3.2298 503.59L-6.5502 503.59C-7.3502 503.59 -7.99021 504.24 -7.99021 505.03L-7.9902 515.36C-7.9902 516.16 -7.3502 516.8 -6.5502 516.8L3.2298 516.8C4.0198 516.8 4.6698 517.45 4.6698 518.24L4.6698 526.95C4.6698 527.75 5.3198 528.39 6.1098 528.39L16.4298 528.39C17.2298 528.39 17.8698 527.74 17.8698 526.95L17.8698 516.8L17.8698 503.59L17.8698 493.45C17.8698 492.65 17.2298 492.01 16.4298 492.01L6.1098 492.01C5.3098 492 4.6698 492.65 4.6698 493.45Z" fill="white" fill-opacity="0.15"/>
<path d="M100.59 515.73L109.3 515.73C110.1 515.73 110.74 516.38 110.74 517.17L110.74 526.95C110.74 527.75 111.39 528.39 112.18 528.39L122.5 528.39C123.3 528.39 123.94 527.74 123.94 526.95L123.94 517.17C123.94 516.37 124.59 515.73 125.38 515.73L134.09 515.73C134.89 515.73 135.53 515.08 135.53 514.29L135.53 503.97C135.53 503.17 134.89 502.53 134.09 502.53L123.94 502.53L110.73 502.53L100.58 502.53C99.7798 502.53 99.1398 503.18 99.1398 503.97L99.1398 514.29C99.1498 515.08 99.7898 515.73 100.59 515.73Z" fill="white" fill-opacity="0.15"/>
<path d="M81.2198 498.7L81.2198 507.41C81.2198 508.21 80.5698 508.85 79.7798 508.85L69.9998 508.85C69.1998 508.85 68.5598 509.5 68.5598 510.29L68.5598 520.62C68.5598 521.42 69.1998 522.06 69.9998 522.06L79.7798 522.06C80.5698 522.06 81.2198 522.71 81.2198 523.5L81.2198 532.21C81.2198 533.01 81.8698 533.65 82.6598 533.65L92.9798 533.65C93.7798 533.65 94.4198 533 94.4198 532.21L94.4198 522.06L94.4198 508.85L94.4198 498.7C94.4198 497.9 93.7798 497.26 92.9798 497.26L82.6598 497.26C81.8598 497.26 81.2198 497.91 81.2198 498.7Z" fill="white" fill-opacity="0.15"/>
<path d="M175.93 515.73L184.64 515.73C185.44 515.73 186.08 516.38 186.08 517.17L186.08 526.95C186.08 527.75 186.73 528.39 187.52 528.39L197.84 528.39C198.64 528.39 199.28 527.74 199.28 526.95L199.28 517.17C199.28 516.37 199.93 515.73 200.72 515.73L209.43 515.73C210.23 515.73 210.87 515.08 210.87 514.29L210.87 503.97C210.87 503.17 210.23 502.53 209.43 502.53L199.28 502.53L186.07 502.53L175.92 502.53C175.12 502.53 174.48 503.18 174.48 503.97L174.48 514.29C174.49 515.08 175.13 515.73 175.93 515.73Z" fill="white" fill-opacity="0.15"/>
<path d="M155.34 493.45L155.34 502.15C155.34 502.95 154.69 503.59 153.9 503.59L144.12 503.59C143.32 503.59 142.68 504.24 142.68 505.03L142.68 515.36C142.68 516.16 143.33 516.8 144.12 516.8L153.9 516.8C154.7 516.8 155.34 517.45 155.34 518.24L155.34 526.95C155.34 527.75 155.99 528.39 156.78 528.39L167.1 528.39C167.9 528.39 168.54 527.74 168.54 526.95L168.54 516.8L168.54 503.59L168.54 493.45C168.54 492.65 167.89 492.01 167.1 492.01L156.78 492.01C155.99 492 155.34 492.65 155.34 493.45Z" fill="white" fill-opacity="0.15"/>
<path d="M251.27 515.73L259.98 515.73C260.78 515.73 261.42 516.38 261.42 517.17L261.42 526.95C261.42 527.75 262.07 528.39 262.86 528.39L273.18 528.39C273.98 528.39 274.62 527.74 274.62 526.95L274.62 517.17C274.62 516.37 275.27 515.73 276.06 515.73L284.77 515.73C285.57 515.73 286.21 515.08 286.21 514.29L286.21 503.97C286.21 503.17 285.57 502.53 284.77 502.53L274.62 502.53L261.41 502.53L251.26 502.53C250.46 502.53 249.82 503.18 249.82 503.97L249.82 514.29C249.82 515.08 250.47 515.73 251.27 515.73Z" fill="white" fill-opacity="0.15"/>
<path d="M230.68 493.45L230.68 502.15C230.68 502.95 230.03 503.59 229.24 503.59L219.46 503.59C218.66 503.59 218.02 504.24 218.02 505.03L218.02 515.36C218.02 516.16 218.66 516.8 219.46 516.8L229.24 516.8C230.04 516.8 230.68 517.45 230.68 518.24L230.68 526.95C230.68 527.75 231.33 528.39 232.12 528.39L242.45 528.39C243.25 528.39 243.89 527.74 243.89 526.95L243.89 516.8L243.89 503.59L243.89 493.45C243.89 492.65 243.25 492.01 242.45 492.01L232.13 492.01C231.33 492 230.68 492.65 230.68 493.45Z" fill="white" fill-opacity="0.15"/>
<path d="M326.6 515.73L335.31 515.73C336.11 515.73 336.75 516.38 336.75 517.17L336.75 526.95C336.75 527.75 337.4 528.39 338.19 528.39L348.52 528.39C349.32 528.39 349.96 527.74 349.96 526.95L349.96 517.17C349.96 516.37 350.61 515.73 351.4 515.73L360.11 515.73C360.91 515.73 361.55 515.08 361.55 514.29L361.55 503.97C361.55 503.17 360.9 502.53 360.11 502.53L349.96 502.53L336.75 502.53L326.6 502.53C325.8 502.53 325.16 503.18 325.16 503.97L325.16 514.29C325.16 515.08 325.81 515.73 326.6 515.73Z" fill="white" fill-opacity="0.15"/>
<path d="M306.02 493.45L306.02 502.15C306.02 502.95 305.37 503.59 304.58 503.59L294.8 503.59C294 503.59 293.36 504.24 293.36 505.03L293.36 515.36C293.36 516.16 294.01 516.8 294.8 516.8L304.58 516.8C305.38 516.8 306.02 517.45 306.02 518.24L306.02 526.95C306.02 527.75 306.67 528.39 307.46 528.39L317.79 528.39C318.59 528.39 319.23 527.74 319.23 526.95L319.23 516.8L319.23 503.59L319.23 493.45C319.23 492.65 318.59 492.01 317.79 492.01L307.47 492.01C306.67 492 306.02 492.65 306.02 493.45Z" fill="white" fill-opacity="0.15"/>
</g>
<path d="M25.2499 599.731L33.9599 599.731C34.7599 599.731 35.3999 600.381 35.3999 601.171L35.3999 610.951C35.3999 611.751 36.0499 612.391 36.8399 612.391L47.1599 612.391C47.9599 612.391 48.5999 611.741 48.5999 610.951L48.5999 601.171C48.5999 600.371 49.2499 599.731 50.0399 599.731L58.7499 599.731C59.5499 599.731 60.1899 599.081 60.1899 598.291L60.1899 587.971C60.1899 587.171 59.5499 586.531 58.7499 586.531L48.5999 586.531L35.3899 586.531L25.2399 586.531C24.4399 586.531 23.7999 587.181 23.7999 587.971L23.7999 598.291C23.8099 599.081 24.4499 599.731 25.2499 599.731Z" fill="white" fill-opacity="0.15"/>
<path d="M4.66961 577.451L4.66961 586.151C4.66961 586.951 4.01961 587.591 3.22961 587.591L-6.55039 587.591C-7.35039 587.591 -7.99039 588.241 -7.99039 589.031L-7.99039 599.361C-7.99039 600.161 -7.35039 600.801 -6.55039 600.801L3.22961 600.801C4.01961 600.801 4.66962 601.451 4.66962 602.241L4.66962 610.951C4.66962 611.751 5.31962 612.391 6.10962 612.391L16.4296 612.391C17.2296 612.391 17.8696 611.741 17.8696 610.951L17.8696 600.801L17.8696 587.591L17.8696 577.451C17.8696 576.651 17.2296 576.011 16.4296 576.011L6.10962 576.011C5.30962 576.001 4.66961 576.651 4.66961 577.451Z" fill="white" fill-opacity="0.15"/>
<path d="M100.59 599.731L109.3 599.731C110.1 599.731 110.74 600.381 110.74 601.171L110.74 610.951C110.74 611.751 111.39 612.391 112.18 612.391L122.5 612.391C123.3 612.391 123.94 611.741 123.94 610.951L123.94 601.171C123.94 600.371 124.59 599.731 125.38 599.731L134.09 599.731C134.89 599.731 135.53 599.081 135.53 598.291L135.53 587.971C135.53 587.171 134.89 586.531 134.09 586.531L123.94 586.531L110.73 586.531L100.58 586.531C99.7798 586.531 99.1398 587.181 99.1398 587.971L99.1398 598.291C99.1498 599.081 99.7898 599.731 100.59 599.731Z" fill="white" fill-opacity="0.15"/>
<path d="M81.2199 582.7L81.2199 591.41C81.2199 592.21 80.5699 592.85 79.7799 592.85L69.9999 592.85C69.1999 592.85 68.5599 593.5 68.5599 594.29L68.5599 604.62C68.5599 605.42 69.1999 606.06 69.9999 606.06L79.7799 606.06C80.5699 606.06 81.2199 606.71 81.2199 607.5L81.2199 616.21C81.2199 617.01 81.8699 617.65 82.6599 617.65L92.9799 617.65C93.7799 617.65 94.4199 617 94.4199 616.21L94.4199 606.06L94.4199 592.85L94.4199 582.7C94.4199 581.9 93.7799 581.26 92.9799 581.26L82.6599 581.26C81.8599 581.26 81.2199 581.91 81.2199 582.7Z" fill="white" fill-opacity="0.15"/>
<path d="M175.93 599.731L184.64 599.731C185.44 599.731 186.08 600.381 186.08 601.171L186.08 610.951C186.08 611.751 186.73 612.391 187.52 612.391L197.84 612.391C198.64 612.391 199.28 611.741 199.28 610.951L199.28 601.171C199.28 600.371 199.93 599.731 200.72 599.731L209.43 599.731C210.23 599.731 210.87 599.081 210.87 598.291L210.87 587.971C210.87 587.171 210.23 586.531 209.43 586.531L199.28 586.531L186.07 586.531L175.92 586.531C175.12 586.531 174.48 587.181 174.48 587.971L174.48 598.291C174.49 599.081 175.13 599.731 175.93 599.731Z" fill="white" fill-opacity="0.15"/>
<path d="M155.34 577.451L155.34 586.151C155.34 586.951 154.69 587.591 153.9 587.591L144.12 587.591C143.32 587.591 142.68 588.241 142.68 589.031L142.68 599.361C142.68 600.161 143.33 600.801 144.12 600.801L153.9 600.801C154.7 600.801 155.34 601.451 155.34 602.241L155.34 610.951C155.34 611.751 155.99 612.391 156.78 612.391L167.1 612.391C167.9 612.391 168.54 611.741 168.54 610.951L168.54 600.801L168.54 587.591L168.54 577.451C168.54 576.651 167.89 576.011 167.1 576.011L156.78 576.011C155.99 576.001 155.34 576.651 155.34 577.451Z" fill="white" fill-opacity="0.15"/>
<path d="M251.27 599.731L259.98 599.731C260.78 599.731 261.42 600.381 261.42 601.171L261.42 610.951C261.42 611.751 262.07 612.391 262.86 612.391L273.18 612.391C273.98 612.391 274.62 611.741 274.62 610.951L274.62 601.171C274.62 600.371 275.27 599.731 276.06 599.731L284.77 599.731C285.57 599.731 286.21 599.081 286.21 598.291L286.21 587.971C286.21 587.171 285.57 586.531 284.77 586.531L274.62 586.531L261.41 586.531L251.26 586.531C250.46 586.531 249.82 587.181 249.82 587.971L249.82 598.291C249.82 599.081 250.47 599.731 251.27 599.731Z" fill="white" fill-opacity="0.15"/>
<path d="M230.68 577.451L230.68 586.151C230.68 586.951 230.03 587.591 229.24 587.591L219.46 587.591C218.66 587.591 218.02 588.241 218.02 589.031L218.02 599.361C218.02 600.161 218.66 600.801 219.46 600.801L229.24 600.801C230.04 600.801 230.68 601.451 230.68 602.241L230.68 610.951C230.68 611.751 231.33 612.391 232.12 612.391L242.45 612.391C243.25 612.391 243.89 611.741 243.89 610.951L243.89 600.801L243.89 587.591L243.89 577.451C243.89 576.651 243.25 576.011 242.45 576.011L232.13 576.011C231.33 576.001 230.68 576.651 230.68 577.451Z" fill="#FB2D11"/>
<path d="M326.6 599.731L335.31 599.731C336.11 599.731 336.75 600.381 336.75 601.171L336.75 610.951C336.75 611.751 337.4 612.391 338.19 612.391L348.52 612.391C349.32 612.391 349.96 611.741 349.96 610.951L349.96 601.171C349.96 600.371 350.61 599.731 351.4 599.731L360.11 599.731C360.91 599.731 361.55 599.081 361.55 598.291L361.55 587.971C361.55 587.171 360.9 586.531 360.11 586.531L349.96 586.531L336.75 586.531L326.6 586.531C325.8 586.531 325.16 587.181 325.16 587.971L325.16 598.291C325.16 599.081 325.81 599.731 326.6 599.731Z" fill="white" fill-opacity="0.15"/>
<path d="M306.02 577.451L306.02 586.151C306.02 586.951 305.37 587.591 304.58 587.591L294.8 587.591C294 587.591 293.36 588.241 293.36 589.031L293.36 599.361C293.36 600.161 294.01 600.801 294.8 600.801L304.58 600.801C305.38 600.801 306.02 601.451 306.02 602.241L306.02 610.951C306.02 611.751 306.67 612.391 307.46 612.391L317.79 612.391C318.59 612.391 319.23 611.741 319.23 610.951L319.23 600.801L319.23 587.591L319.23 577.451C319.23 576.651 318.59 576.011 317.79 576.011L307.47 576.011C306.67 576.001 306.02 576.651 306.02 577.451Z" fill="white" fill-opacity="0.15"/>
<g filter="url(#filter0_b_1229:3516)">
<path d="M-4 -1H356V641H-4V-1Z" fill="black" fill-opacity="0.2"/>
</g>
</g>
<defs>
<filter id="filter0_b_1229:3516" x="-6" y="-3" width="364" height="646" filterUnits="userSpaceOnUse" color-interpolation-filters="sRGB">
<feFlood flood-opacity="0" result="BackgroundImageFix"/>
<feGaussianBlur in="BackgroundImage" stdDeviation="1"/>
<feComposite in2="SourceAlpha" operator="in" result="effect1_backgroundBlur_1229:3516"/>
<feBlend mode="normal" in="SourceGraphic" in2="effect1_backgroundBlur_1229:3516" result="shape"/>
</filter>
<clipPath id="clip0_1229:3516">
<rect width="360" height="640" fill="white" transform="translate(-4)"/>
</clipPath>
<clipPath id="clip1_1229:3516">
<rect width="369.55" height="41.65" fill="white" transform="translate(-8 114)"/>
</clipPath>
<clipPath id="clip2_1229:3516">
<rect width="369.55" height="41.65" fill="white" transform="translate(-8 198)"/>
</clipPath>
<clipPath id="clip3_1229:3516">
<rect width="369.55" height="41.65" fill="white" transform="translate(-8 282)"/>
</clipPath>
<clipPath id="clip4_1229:3516">
<rect width="369.55" height="41.65" fill="white" transform="translate(-8 366)"/>
</clipPath>
<clipPath id="clip5_1229:3516">
<rect width="369.55" height="41.65" fill="white" transform="translate(-8 450)"/>
</clipPath>
<clipPath id="clip6_1229:3516">
<rect width="369.55" height="41.65" fill="white" transform="translate(-8 534)"/>
</clipPath>
<clipPath id="clip7_1229:3516">
<rect width="369.55" height="41.65" fill="white" transform="translate(-8 618)"/>
</clipPath>
<clipPath id="clip8_1229:3516">
<rect width="366" height="42" fill="white" transform="translate(358 114) rotate(180)"/>
</clipPath>
<clipPath id="clip9_1229:3516">
<rect width="366" height="42" fill="white" transform="translate(358 30) rotate(180)"/>
</clipPath>
<clipPath id="clip10_1229:3516">
<rect width="369.55" height="41.65" fill="white" transform="translate(361.55 197.65) rotate(180)"/>
</clipPath>
<clipPath id="clip11_1229:3516">
<rect width="369.55" height="41.65" fill="white" transform="translate(361.55 281.65) rotate(180)"/>
</clipPath>
<clipPath id="clip12_1229:3516">
<rect width="369.55" height="41.65" fill="white" transform="translate(361.55 365.65) rotate(180)"/>
</clipPath>
<clipPath id="clip13_1229:3516">
<rect width="369.55" height="41.65" fill="white" transform="translate(361.55 449.65) rotate(180)"/>
</clipPath>
<clipPath id="clip14_1229:3516">
<rect width="369.55" height="41.65" fill="white" transform="translate(361.55 533.65) rotate(180)"/>
</clipPath>
</defs>
</svg>
