<svg width="360" height="640" viewBox="0 0 360 640" fill="none" xmlns="http://www.w3.org/2000/svg">
<rect width="360" height="640" fill="white"/>
<g clip-path="url(#clip0)">
<rect width="360" height="640" fill="white"/>
<rect x="-15" y="-15" width="392" height="709" fill="black"/>
<path d="M106.28 47.9198H97.5698C96.7698 47.9198 96.1298 47.2698 96.1298 46.4798V36.6998C96.1298 35.8998 95.4799 35.2598 94.6898 35.2598H84.3699C83.5698 35.2598 82.9298 35.9098 82.9298 36.6998V46.4798C82.9298 47.2798 82.2798 47.9198 81.4898 47.9198H72.7798C71.9798 47.9198 71.3398 48.5698 71.3398 49.3598V59.6798C71.3398 60.4798 71.9798 61.1198 72.7798 61.1198H82.9298H96.1398H106.29C107.09 61.1198 107.73 60.4698 107.73 59.6798V49.3598C107.73 48.5698 107.08 47.9198 106.28 47.9198Z" fill="white" fill-opacity="0.15"/>
<path d="M30.95 47.9198H22.24C21.44 47.9198 20.8 47.2698 20.8 46.4798V36.6998C20.8 35.8998 20.15 35.2598 19.36 35.2598H9.03C8.23 35.2598 7.59 35.9098 7.59 36.6998V46.4798C7.59 47.2798 6.94 47.9198 6.15 47.9198H-2.56C-3.36 47.9198 -4 48.5698 -4 49.3598V59.6798C-4 60.4798 -3.35 61.1198 -2.56 61.1198H7.59H20.8H30.95C31.75 61.1198 32.39 60.4698 32.39 59.6798V49.3598C32.39 48.5698 31.74 47.9198 30.95 47.9198Z" fill="white" fill-opacity="0.15"/>
<path d="M51.5298 70.1998V61.4998C51.5298 60.6998 52.1798 60.0598 52.9698 60.0598H62.7498C63.5498 60.0598 64.1898 59.4098 64.1898 58.6198V48.2898C64.1898 47.4898 63.5398 46.8498 62.7498 46.8498H52.9698C52.1698 46.8498 51.5298 46.1998 51.5298 45.4098V36.6998C51.5298 35.8998 50.8798 35.2598 50.0898 35.2598H39.7598C38.9598 35.2598 38.3198 35.9098 38.3198 36.6998V46.8498V60.0598V70.1998C38.3198 70.9998 38.9598 71.6398 39.7598 71.6398H50.0798C50.8798 71.6498 51.5298 70.9998 51.5298 70.1998Z" fill="white" fill-opacity="0.15"/>
<path d="M332.3 47.9198H323.59C322.79 47.9198 322.15 47.2698 322.15 46.4798V36.6998C322.15 35.8998 321.5 35.2598 320.71 35.2598H310.39C309.59 35.2598 308.95 35.9098 308.95 36.6998V46.4798C308.95 47.2798 308.3 47.9198 307.51 47.9198H298.8C298 47.9198 297.36 48.5698 297.36 49.3598V59.6798C297.36 60.4798 298 61.1198 298.8 61.1198H308.95H322.16H332.31C333.11 61.1198 333.75 60.4698 333.75 59.6798V49.3598C333.74 48.5698 333.1 47.9198 332.3 47.9198Z" fill="white" fill-opacity="0.15"/>
<path d="M352.88 70.1998V61.4998C352.88 60.6998 353.53 60.0598 354.32 60.0598H364.1C364.9 60.0598 365.54 59.4098 365.54 58.6198V48.2898C365.54 47.4898 364.9 46.8498 364.1 46.8498H354.32C353.53 46.8498 352.88 46.1998 352.88 45.4098V36.6998C352.88 35.8998 352.23 35.2598 351.44 35.2598H341.12C340.32 35.2598 339.68 35.9098 339.68 36.6998V46.8498V60.0598V70.1998C339.68 70.9998 340.32 71.6398 341.12 71.6398H351.44C352.24 71.6498 352.88 70.9998 352.88 70.1998Z" fill="white" fill-opacity="0.15"/>
<path d="M255.94 47.66H247.23C246.43 47.66 245.79 47.01 245.79 46.22V36.44C245.79 35.64 245.14 35 244.35 35H234.03C233.23 35 232.59 35.65 232.59 36.44V46.22C232.59 47.02 231.94 47.66 231.15 47.66H222.44C221.64 47.66 221 48.31 221 49.1V59.42C221 60.22 221.64 60.86 222.44 60.86H232.59H245.8H255.95C256.75 60.86 257.39 60.21 257.39 59.42V49.1C257.38 48.31 256.74 47.66 255.94 47.66Z" fill="white" fill-opacity="0.15"/>
<path d="M276.33 64.95V56.24C276.33 55.44 276.98 54.8 277.77 54.8H287.55C288.35 54.8 288.99 54.15 288.99 53.36V43.03C288.99 42.23 288.35 41.59 287.55 41.59H277.77C276.98 41.59 276.33 40.94 276.33 40.15V31.44C276.33 30.64 275.68 30 274.89 30H264.57C263.77 30 263.13 30.65 263.13 31.44V41.59V54.8V64.95C263.13 65.75 263.77 66.39 264.57 66.39H274.89C275.69 66.39 276.33 65.74 276.33 64.95Z" fill="white" fill-opacity="0.15"/>
<path d="M181.62 47.9198H172.91C172.11 47.9198 171.47 47.2698 171.47 46.4798V36.6998C171.47 35.8998 170.82 35.2598 170.03 35.2598H159.71C158.91 35.2598 158.27 35.9098 158.27 36.6998V46.4798C158.27 47.2798 157.62 47.9198 156.83 47.9198H148.12C147.32 47.9198 146.68 48.5698 146.68 49.3598V59.6798C146.68 60.4798 147.32 61.1198 148.12 61.1198H158.27H171.48H181.63C182.43 61.1198 183.07 60.4698 183.07 59.6798V49.3598C183.06 48.5698 182.42 47.9198 181.62 47.9198Z" fill="white" fill-opacity="0.15"/>
<path d="M202.21 70.1998V61.4998C202.21 60.6998 202.86 60.0598 203.65 60.0598H213.43C214.23 60.0598 214.87 59.4098 214.87 58.6198V48.2898C214.87 47.4898 214.22 46.8498 213.43 46.8498H203.65C202.85 46.8498 202.21 46.1998 202.21 45.4098V36.6998C202.21 35.8998 201.56 35.2598 200.77 35.2598H190.45C189.65 35.2598 189.01 35.9098 189.01 36.6998V46.8498V60.0598V70.1998C189.01 70.9998 189.66 71.6398 190.45 71.6398H200.77C201.56 71.6498 202.21 70.9998 202.21 70.1998Z" fill="white" fill-opacity="0.15"/>
<path d="M126.87 70.1998V61.4998C126.87 60.6998 127.52 60.0598 128.31 60.0598H138.09C138.89 60.0598 139.53 59.4098 139.53 58.6198V48.2898C139.53 47.4898 138.89 46.8498 138.09 46.8498H128.31C127.51 46.8498 126.87 46.1998 126.87 45.4098V36.6998C126.87 35.8998 126.22 35.2598 125.43 35.2598H115.1C114.3 35.2598 113.66 35.9098 113.66 36.6998V46.8498V60.0598V70.1998C113.66 70.9998 114.3 71.6398 115.1 71.6398H125.42C126.22 71.6498 126.87 70.9998 126.87 70.1998Z" fill="white" fill-opacity="0.15"/>
<g clip-path="url(#clip1)">
<path d="M332.3 131.92H323.59C322.79 131.92 322.15 131.27 322.15 130.48V120.7C322.15 119.9 321.5 119.26 320.71 119.26H310.39C309.59 119.26 308.95 119.91 308.95 120.7V130.48C308.95 131.28 308.3 131.92 307.51 131.92H298.8C298 131.92 297.36 132.57 297.36 133.36V143.68C297.36 144.48 298 145.12 298.8 145.12H308.95H322.16H332.31C333.11 145.12 333.75 144.47 333.75 143.68V133.36C333.74 132.57 333.1 131.92 332.3 131.92Z" fill="white" fill-opacity="0.15"/>
<path d="M352.88 154.2V145.5C352.88 144.7 353.53 144.06 354.32 144.06H364.1C364.9 144.06 365.54 143.41 365.54 142.62V132.29C365.54 131.49 364.9 130.85 364.1 130.85H354.32C353.53 130.85 352.88 130.2 352.88 129.41V120.7C352.88 119.9 352.23 119.26 351.44 119.26H341.12C340.32 119.26 339.68 119.91 339.68 120.7V130.85V144.06V154.2C339.68 155 340.32 155.64 341.12 155.64H351.44C352.24 155.65 352.88 155 352.88 154.2Z" fill="white" fill-opacity="0.15"/>
<path d="M256.96 131.92H248.25C247.45 131.92 246.81 131.27 246.81 130.48V120.7C246.81 119.9 246.16 119.26 245.37 119.26H235.05C234.25 119.26 233.61 119.91 233.61 120.7V130.48C233.61 131.28 232.96 131.92 232.17 131.92H223.46C222.66 131.92 222.02 132.57 222.02 133.36V143.68C222.02 144.48 222.66 145.12 223.46 145.12H233.61H246.82H256.97C257.77 145.12 258.41 144.47 258.41 143.68V133.36C258.4 132.57 257.76 131.92 256.96 131.92Z" fill="white" fill-opacity="0.15"/>
<path d="M276.33 148.95V140.24C276.33 139.44 276.98 138.8 277.77 138.8H287.55C288.35 138.8 288.99 138.15 288.99 137.36V127.03C288.99 126.23 288.35 125.59 287.55 125.59H277.77C276.98 125.59 276.33 124.94 276.33 124.15V115.44C276.33 114.64 275.68 114 274.89 114H264.57C263.77 114 263.13 114.65 263.13 115.44V125.59V138.8V148.95C263.13 149.75 263.77 150.39 264.57 150.39H274.89C275.69 150.39 276.33 149.74 276.33 148.95Z" fill="white" fill-opacity="0.15"/>
<path d="M181.62 131.92H172.91C172.11 131.92 171.47 131.27 171.47 130.48V120.7C171.47 119.9 170.82 119.26 170.03 119.26H159.71C158.91 119.26 158.27 119.91 158.27 120.7V130.48C158.27 131.28 157.62 131.92 156.83 131.92H148.12C147.32 131.92 146.68 132.57 146.68 133.36V143.68C146.68 144.48 147.32 145.12 148.12 145.12H158.27H171.48H181.63C182.43 145.12 183.07 144.47 183.07 143.68V133.36C183.06 132.57 182.42 131.92 181.62 131.92Z" fill="white" fill-opacity="0.15"/>
<path d="M202.21 154.2V145.5C202.21 144.7 202.86 144.06 203.65 144.06H213.43C214.23 144.06 214.87 143.41 214.87 142.62V132.29C214.87 131.49 214.22 130.85 213.43 130.85H203.65C202.85 130.85 202.21 130.2 202.21 129.41V120.7C202.21 119.9 201.56 119.26 200.77 119.26H190.45C189.65 119.26 189.01 119.91 189.01 120.7V130.85V144.06V154.2C189.01 155 189.66 155.64 190.45 155.64H200.77C201.56 155.65 202.21 155 202.21 154.2Z" fill="white" fill-opacity="0.15"/>
<path d="M106.28 131.92H97.57C96.77 131.92 96.13 131.27 96.13 130.48V120.7C96.13 119.9 95.48 119.26 94.69 119.26H84.37C83.57 119.26 82.93 119.91 82.93 120.7V130.48C82.93 131.28 82.28 131.92 81.49 131.92H72.78C71.98 131.92 71.34 132.57 71.34 133.36V143.68C71.34 144.48 71.98 145.12 72.78 145.12H82.93H96.14H106.29C107.09 145.12 107.73 144.47 107.73 143.68V133.36C107.73 132.57 107.08 131.92 106.28 131.92Z" fill="white" fill-opacity="0.15"/>
<path d="M126.87 154.2V145.5C126.87 144.7 127.52 144.06 128.31 144.06H138.09C138.89 144.06 139.53 143.41 139.53 142.62V132.29C139.53 131.49 138.89 130.85 138.09 130.85H128.31C127.51 130.85 126.87 130.2 126.87 129.41V120.7C126.87 119.9 126.22 119.26 125.43 119.26H115.1C114.3 119.26 113.66 119.91 113.66 120.7V130.85V144.06V154.2C113.66 155 114.3 155.64 115.1 155.64H125.42C126.22 155.65 126.87 155 126.87 154.2Z" fill="white" fill-opacity="0.15"/>
<path d="M30.95 131.92H22.24C21.44 131.92 20.8 131.27 20.8 130.48V120.7C20.8 119.9 20.15 119.26 19.36 119.26H9.03C8.23 119.26 7.59 119.91 7.59 120.7V130.48C7.59 131.28 6.94 131.92 6.15 131.92H-2.56C-3.36 131.92 -4 132.57 -4 133.36V143.68C-4 144.48 -3.35 145.12 -2.56 145.12H7.59H20.8H30.95C31.75 145.12 32.39 144.47 32.39 143.68V133.36C32.39 132.57 31.74 131.92 30.95 131.92Z" fill="white" fill-opacity="0.15"/>
<path d="M51.53 154.2V145.5C51.53 144.7 52.18 144.06 52.97 144.06H62.75C63.55 144.06 64.19 143.41 64.19 142.62V132.29C64.19 131.49 63.54 130.85 62.75 130.85H52.97C52.17 130.85 51.53 130.2 51.53 129.41V120.7C51.53 119.9 50.88 119.26 50.09 119.26H39.76C38.96 119.26 38.32 119.91 38.32 120.7V130.85V144.06V154.2C38.32 155 38.96 155.64 39.76 155.64H50.08C50.88 155.65 51.53 155 51.53 154.2Z" fill="white" fill-opacity="0.15"/>
</g>
<g clip-path="url(#clip2)">
<path d="M332.3 215.92H323.59C322.79 215.92 322.15 215.27 322.15 214.48V204.7C322.15 203.9 321.5 203.26 320.71 203.26H310.39C309.59 203.26 308.95 203.91 308.95 204.7V214.48C308.95 215.28 308.3 215.92 307.51 215.92H298.8C298 215.92 297.36 216.57 297.36 217.36V227.68C297.36 228.48 298 229.12 298.8 229.12H308.95H322.16H332.31C333.11 229.12 333.75 228.47 333.75 227.68V217.36C333.74 216.57 333.1 215.92 332.3 215.92Z" fill="white" fill-opacity="0.15"/>
<path d="M352.88 238.2V229.5C352.88 228.7 353.53 228.06 354.32 228.06H364.1C364.9 228.06 365.54 227.41 365.54 226.62V216.29C365.54 215.49 364.9 214.85 364.1 214.85H354.32C353.53 214.85 352.88 214.2 352.88 213.41V204.7C352.88 203.9 352.23 203.26 351.44 203.26H341.12C340.32 203.26 339.68 203.91 339.68 204.7V214.85V228.06V238.2C339.68 239 340.32 239.64 341.12 239.64H351.44C352.24 239.65 352.88 239 352.88 238.2Z" fill="white" fill-opacity="0.15"/>
<path d="M256.96 215.92H248.25C247.45 215.92 246.81 215.27 246.81 214.48V204.7C246.81 203.9 246.16 203.26 245.37 203.26H235.05C234.25 203.26 233.61 203.91 233.61 204.7V214.48C233.61 215.28 232.96 215.92 232.17 215.92H223.46C222.66 215.92 222.02 216.57 222.02 217.36V227.68C222.02 228.48 222.66 229.12 223.46 229.12H233.61H246.82H256.97C257.77 229.12 258.41 228.47 258.41 227.68V217.36C258.4 216.57 257.76 215.92 256.96 215.92Z" fill="white" fill-opacity="0.15"/>
<path d="M276.33 232.95V224.24C276.33 223.44 276.98 222.8 277.77 222.8H287.55C288.35 222.8 288.99 222.15 288.99 221.36V211.03C288.99 210.23 288.35 209.59 287.55 209.59H277.77C276.98 209.59 276.33 208.94 276.33 208.15V199.44C276.33 198.64 275.68 198 274.89 198H264.57C263.77 198 263.13 198.65 263.13 199.44V209.59V222.8V232.95C263.13 233.75 263.77 234.39 264.57 234.39H274.89C275.69 234.39 276.33 233.74 276.33 232.95Z" fill="white" fill-opacity="0.15"/>
<path d="M181.62 215.92H172.91C172.11 215.92 171.47 215.27 171.47 214.48V204.7C171.47 203.9 170.82 203.26 170.03 203.26H159.71C158.91 203.26 158.27 203.91 158.27 204.7V214.48C158.27 215.28 157.62 215.92 156.83 215.92H148.12C147.32 215.92 146.68 216.57 146.68 217.36V227.68C146.68 228.48 147.32 229.12 148.12 229.12H158.27H171.48H181.63C182.43 229.12 183.07 228.47 183.07 227.68V217.36C183.06 216.57 182.42 215.92 181.62 215.92Z" fill="white" fill-opacity="0.15"/>
<path d="M202.21 238.2V229.5C202.21 228.7 202.86 228.06 203.65 228.06H213.43C214.23 228.06 214.87 227.41 214.87 226.62V216.29C214.87 215.49 214.22 214.85 213.43 214.85H203.65C202.85 214.85 202.21 214.2 202.21 213.41V204.7C202.21 203.9 201.56 203.26 200.77 203.26H190.45C189.65 203.26 189.01 203.91 189.01 204.7V214.85V228.06V238.2C189.01 239 189.66 239.64 190.45 239.64H200.77C201.56 239.65 202.21 239 202.21 238.2Z" fill="white" fill-opacity="0.15"/>
<path d="M106.28 215.92H97.57C96.77 215.92 96.13 215.27 96.13 214.48V204.7C96.13 203.9 95.48 203.26 94.69 203.26H84.37C83.57 203.26 82.93 203.91 82.93 204.7V214.48C82.93 215.28 82.28 215.92 81.49 215.92H72.78C71.98 215.92 71.34 216.57 71.34 217.36V227.68C71.34 228.48 71.98 229.12 72.78 229.12H82.93H96.14H106.29C107.09 229.12 107.73 228.47 107.73 227.68V217.36C107.73 216.57 107.08 215.92 106.28 215.92Z" fill="#367FFF"/>
<path d="M126.87 238.2V229.5C126.87 228.7 127.52 228.06 128.31 228.06H138.09C138.89 228.06 139.53 227.41 139.53 226.62V216.29C139.53 215.49 138.89 214.85 138.09 214.85H128.31C127.51 214.85 126.87 214.2 126.87 213.41V204.7C126.87 203.9 126.22 203.26 125.43 203.26H115.1C114.3 203.26 113.66 203.91 113.66 204.7V214.85V228.06V238.2C113.66 239 114.3 239.64 115.1 239.64H125.42C126.22 239.65 126.87 239 126.87 238.2Z" fill="white" fill-opacity="0.15"/>
<path d="M30.95 215.92H22.24C21.44 215.92 20.8 215.27 20.8 214.48V204.7C20.8 203.9 20.15 203.26 19.36 203.26H9.03C8.23 203.26 7.59 203.91 7.59 204.7V214.48C7.59 215.28 6.94 215.92 6.15 215.92H-2.56C-3.36 215.92 -4 216.57 -4 217.36V227.68C-4 228.48 -3.35 229.12 -2.56 229.12H7.59H20.8H30.95C31.75 229.12 32.39 228.47 32.39 227.68V217.36C32.39 216.57 31.74 215.92 30.95 215.92Z" fill="white" fill-opacity="0.15"/>
<path d="M51.53 238.2V229.5C51.53 228.7 52.18 228.06 52.97 228.06H62.75C63.55 228.06 64.19 227.41 64.19 226.62V216.29C64.19 215.49 63.54 214.85 62.75 214.85H52.97C52.17 214.85 51.53 214.2 51.53 213.41V204.7C51.53 203.9 50.88 203.26 50.09 203.26H39.76C38.96 203.26 38.32 203.91 38.32 204.7V214.85V228.06V238.2C38.32 239 38.96 239.64 39.76 239.64H50.08C50.88 239.65 51.53 239 51.53 238.2Z" fill="white" fill-opacity="0.15"/>
</g>
<g clip-path="url(#clip3)">
<path d="M332.3 299.92H323.59C322.79 299.92 322.15 299.27 322.15 298.48V288.7C322.15 287.9 321.5 287.26 320.71 287.26H310.39C309.59 287.26 308.95 287.91 308.95 288.7V298.48C308.95 299.28 308.3 299.92 307.51 299.92H298.8C298 299.92 297.36 300.57 297.36 301.36V311.68C297.36 312.48 298 313.12 298.8 313.12H308.95H322.16H332.31C333.11 313.12 333.75 312.47 333.75 311.68V301.36C333.74 300.57 333.1 299.92 332.3 299.92Z" fill="#BAF734"/>
<path d="M352.88 322.2V313.5C352.88 312.7 353.53 312.06 354.32 312.06H364.1C364.9 312.06 365.54 311.41 365.54 310.62V300.29C365.54 299.49 364.9 298.85 364.1 298.85H354.32C353.53 298.85 352.88 298.2 352.88 297.41V288.7C352.88 287.9 352.23 287.26 351.44 287.26H341.12C340.32 287.26 339.68 287.91 339.68 288.7V298.85V312.06V322.2C339.68 323 340.32 323.64 341.12 323.64H351.44C352.24 323.65 352.88 323 352.88 322.2Z" fill="white" fill-opacity="0.15"/>
<path d="M256.96 299.92H248.25C247.45 299.92 246.81 299.27 246.81 298.48V288.7C246.81 287.9 246.16 287.26 245.37 287.26H235.05C234.25 287.26 233.61 287.91 233.61 288.7V298.48C233.61 299.28 232.96 299.92 232.17 299.92H223.46C222.66 299.92 222.02 300.57 222.02 301.36V311.68C222.02 312.48 222.66 313.12 223.46 313.12H233.61H246.82H256.97C257.77 313.12 258.41 312.47 258.41 311.68V301.36C258.4 300.57 257.76 299.92 256.96 299.92Z" fill="white" fill-opacity="0.15"/>
<path d="M276.33 316.95V308.24C276.33 307.44 276.98 306.8 277.77 306.8H287.55C288.35 306.8 288.99 306.15 288.99 305.36V295.03C288.99 294.23 288.35 293.59 287.55 293.59H277.77C276.98 293.59 276.33 292.94 276.33 292.15V283.44C276.33 282.64 275.68 282 274.89 282H264.57C263.77 282 263.13 282.65 263.13 283.44V293.59V306.8V316.95C263.13 317.75 263.77 318.39 264.57 318.39H274.89C275.69 318.39 276.33 317.74 276.33 316.95Z" fill="white" fill-opacity="0.15"/>
<path d="M181.62 299.92H172.91C172.11 299.92 171.47 299.27 171.47 298.48V288.7C171.47 287.9 170.82 287.26 170.03 287.26H159.71C158.91 287.26 158.27 287.91 158.27 288.7V298.48C158.27 299.28 157.62 299.92 156.83 299.92H148.12C147.32 299.92 146.68 300.57 146.68 301.36V311.68C146.68 312.48 147.32 313.12 148.12 313.12H158.27H171.48H181.63C182.43 313.12 183.07 312.47 183.07 311.68V301.36C183.06 300.57 182.42 299.92 181.62 299.92Z" fill="white" fill-opacity="0.15"/>
<path d="M202.21 322.2V313.5C202.21 312.7 202.86 312.06 203.65 312.06H213.43C214.23 312.06 214.87 311.41 214.87 310.62V300.29C214.87 299.49 214.22 298.85 213.43 298.85H203.65C202.85 298.85 202.21 298.2 202.21 297.41V288.7C202.21 287.9 201.56 287.26 200.77 287.26H190.45C189.65 287.26 189.01 287.91 189.01 288.7V298.85V312.06V322.2C189.01 323 189.66 323.64 190.45 323.64H200.77C201.56 323.65 202.21 323 202.21 322.2Z" fill="white" fill-opacity="0.15"/>
<path d="M106.28 299.92H97.57C96.77 299.92 96.13 299.27 96.13 298.48V288.7C96.13 287.9 95.48 287.26 94.69 287.26H84.37C83.57 287.26 82.93 287.91 82.93 288.7V298.48C82.93 299.28 82.28 299.92 81.49 299.92H72.78C71.98 299.92 71.34 300.57 71.34 301.36V311.68C71.34 312.48 71.98 313.12 72.78 313.12H82.93H96.14H106.29C107.09 313.12 107.73 312.47 107.73 311.68V301.36C107.73 300.57 107.08 299.92 106.28 299.92Z" fill="white" fill-opacity="0.15"/>
<path d="M126.87 322.2V313.5C126.87 312.7 127.52 312.06 128.31 312.06H138.09C138.89 312.06 139.53 311.41 139.53 310.62V300.29C139.53 299.49 138.89 298.85 138.09 298.85H128.31C127.51 298.85 126.87 298.2 126.87 297.41V288.7C126.87 287.9 126.22 287.26 125.43 287.26H115.1C114.3 287.26 113.66 287.91 113.66 288.7V298.85V312.06V322.2C113.66 323 114.3 323.64 115.1 323.64H125.42C126.22 323.65 126.87 323 126.87 322.2Z" fill="white" fill-opacity="0.15"/>
<path d="M30.95 299.92H22.24C21.44 299.92 20.8 299.27 20.8 298.48V288.7C20.8 287.9 20.15 287.26 19.36 287.26H9.03C8.23 287.26 7.59 287.91 7.59 288.7V298.48C7.59 299.28 6.94 299.92 6.15 299.92H-2.56C-3.36 299.92 -4 300.57 -4 301.36V311.68C-4 312.48 -3.35 313.12 -2.56 313.12H7.59H20.8H30.95C31.75 313.12 32.39 312.47 32.39 311.68V301.36C32.39 300.57 31.74 299.92 30.95 299.92Z" fill="white" fill-opacity="0.15"/>
<path d="M51.53 322.2V313.5C51.53 312.7 52.18 312.06 52.97 312.06H62.75C63.55 312.06 64.19 311.41 64.19 310.62V300.29C64.19 299.49 63.54 298.85 62.75 298.85H52.97C52.17 298.85 51.53 298.2 51.53 297.41V288.7C51.53 287.9 50.88 287.26 50.09 287.26H39.76C38.96 287.26 38.32 287.91 38.32 288.7V298.85V312.06V322.2C38.32 323 38.96 323.64 39.76 323.64H50.08C50.88 323.65 51.53 323 51.53 322.2Z" fill="white" fill-opacity="0.15"/>
</g>
<g clip-path="url(#clip4)">
<path d="M332.3 383.92H323.59C322.79 383.92 322.15 383.27 322.15 382.48V372.7C322.15 371.9 321.5 371.26 320.71 371.26H310.39C309.59 371.26 308.95 371.91 308.95 372.7V382.48C308.95 383.28 308.3 383.92 307.51 383.92H298.8C298 383.92 297.36 384.57 297.36 385.36V395.68C297.36 396.48 298 397.12 298.8 397.12H308.95H322.16H332.31C333.11 397.12 333.75 396.47 333.75 395.68V385.36C333.74 384.57 333.1 383.92 332.3 383.92Z" fill="white" fill-opacity="0.15"/>
<path d="M352.88 406.2V397.5C352.88 396.7 353.53 396.06 354.32 396.06H364.1C364.9 396.06 365.54 395.41 365.54 394.62V384.29C365.54 383.49 364.9 382.85 364.1 382.85H354.32C353.53 382.85 352.88 382.2 352.88 381.41V372.7C352.88 371.9 352.23 371.26 351.44 371.26H341.12C340.32 371.26 339.68 371.91 339.68 372.7V382.85V396.06V406.2C339.68 407 340.32 407.64 341.12 407.64H351.44C352.24 407.65 352.88 407 352.88 406.2Z" fill="white" fill-opacity="0.15"/>
<path d="M256.96 383.92H248.25C247.45 383.92 246.81 383.27 246.81 382.48V372.7C246.81 371.9 246.16 371.26 245.37 371.26H235.05C234.25 371.26 233.61 371.91 233.61 372.7V382.48C233.61 383.28 232.96 383.92 232.17 383.92H223.46C222.66 383.92 222.02 384.57 222.02 385.36V395.68C222.02 396.48 222.66 397.12 223.46 397.12H233.61H246.82H256.97C257.77 397.12 258.41 396.47 258.41 395.68V385.36C258.4 384.57 257.76 383.92 256.96 383.92Z" fill="white" fill-opacity="0.15"/>
<path d="M276.33 400.95V392.24C276.33 391.44 276.98 390.8 277.77 390.8H287.55C288.35 390.8 288.99 390.15 288.99 389.36V379.03C288.99 378.23 288.35 377.59 287.55 377.59H277.77C276.98 377.59 276.33 376.94 276.33 376.15V367.44C276.33 366.64 275.68 366 274.89 366H264.57C263.77 366 263.13 366.65 263.13 367.44V377.59V390.8V400.95C263.13 401.75 263.77 402.39 264.57 402.39H274.89C275.69 402.39 276.33 401.74 276.33 400.95Z" fill="#FB2D11"/>
<path d="M181.62 383.92H172.91C172.11 383.92 171.47 383.27 171.47 382.48V372.7C171.47 371.9 170.82 371.26 170.03 371.26H159.71C158.91 371.26 158.27 371.91 158.27 372.7V382.48C158.27 383.28 157.62 383.92 156.83 383.92H148.12C147.32 383.92 146.68 384.57 146.68 385.36V395.68C146.68 396.48 147.32 397.12 148.12 397.12H158.27H171.48H181.63C182.43 397.12 183.07 396.47 183.07 395.68V385.36C183.06 384.57 182.42 383.92 181.62 383.92Z" fill="white" fill-opacity="0.15"/>
<path d="M202.21 406.2V397.5C202.21 396.7 202.86 396.06 203.65 396.06H213.43C214.23 396.06 214.87 395.41 214.87 394.62V384.29C214.87 383.49 214.22 382.85 213.43 382.85H203.65C202.85 382.85 202.21 382.2 202.21 381.41V372.7C202.21 371.9 201.56 371.26 200.77 371.26H190.45C189.65 371.26 189.01 371.91 189.01 372.7V382.85V396.06V406.2C189.01 407 189.66 407.64 190.45 407.64H200.77C201.56 407.65 202.21 407 202.21 406.2Z" fill="white" fill-opacity="0.15"/>
<path d="M106.28 383.92H97.57C96.77 383.92 96.13 383.27 96.13 382.48V372.7C96.13 371.9 95.48 371.26 94.69 371.26H84.37C83.57 371.26 82.93 371.91 82.93 372.7V382.48C82.93 383.28 82.28 383.92 81.49 383.92H72.78C71.98 383.92 71.34 384.57 71.34 385.36V395.68C71.34 396.48 71.98 397.12 72.78 397.12H82.93H96.14H106.29C107.09 397.12 107.73 396.47 107.73 395.68V385.36C107.73 384.57 107.08 383.92 106.28 383.92Z" fill="white" fill-opacity="0.15"/>
<path d="M126.87 406.2V397.5C126.87 396.7 127.52 396.06 128.31 396.06H138.09C138.89 396.06 139.53 395.41 139.53 394.62V384.29C139.53 383.49 138.89 382.85 138.09 382.85H128.31C127.51 382.85 126.87 382.2 126.87 381.41V372.7C126.87 371.9 126.22 371.26 125.43 371.26H115.1C114.3 371.26 113.66 371.91 113.66 372.7V382.85V396.06V406.2C113.66 407 114.3 407.64 115.1 407.64H125.42C126.22 407.65 126.87 407 126.87 406.2Z" fill="white" fill-opacity="0.15"/>
<path d="M30.95 383.92H22.24C21.44 383.92 20.8 383.27 20.8 382.48V372.7C20.8 371.9 20.15 371.26 19.36 371.26H9.03C8.23 371.26 7.59 371.91 7.59 372.7V382.48C7.59 383.28 6.94 383.92 6.15 383.92H-2.56C-3.36 383.92 -4 384.57 -4 385.36V395.68C-4 396.48 -3.35 397.12 -2.56 397.12H7.59H20.8H30.95C31.75 397.12 32.39 396.47 32.39 395.68V385.36C32.39 384.57 31.74 383.92 30.95 383.92Z" fill="white" fill-opacity="0.15"/>
<path d="M51.53 406.2V397.5C51.53 396.7 52.18 396.06 52.97 396.06H62.75C63.55 396.06 64.19 395.41 64.19 394.62V384.29C64.19 383.49 63.54 382.85 62.75 382.85H52.97C52.17 382.85 51.53 382.2 51.53 381.41V372.7C51.53 371.9 50.88 371.26 50.09 371.26H39.76C38.96 371.26 38.32 371.91 38.32 372.7V382.85V396.06V406.2C38.32 407 38.96 407.64 39.76 407.64H50.08C50.88 407.65 51.53 407 51.53 406.2Z" fill="white" fill-opacity="0.15"/>
</g>
<g clip-path="url(#clip5)">
<path d="M332.3 467.92H323.59C322.79 467.92 322.15 467.27 322.15 466.48V456.7C322.15 455.9 321.5 455.26 320.71 455.26H310.39C309.59 455.26 308.95 455.91 308.95 456.7V466.48C308.95 467.28 308.3 467.92 307.51 467.92H298.8C298 467.92 297.36 468.57 297.36 469.36V479.68C297.36 480.48 298 481.12 298.8 481.12H308.95H322.16H332.31C333.11 481.12 333.75 480.47 333.75 479.68V469.36C333.74 468.57 333.1 467.92 332.3 467.92Z" fill="white" fill-opacity="0.15"/>
<path d="M352.88 490.2V481.5C352.88 480.7 353.53 480.06 354.32 480.06H364.1C364.9 480.06 365.54 479.41 365.54 478.62V468.29C365.54 467.49 364.9 466.85 364.1 466.85H354.32C353.53 466.85 352.88 466.2 352.88 465.41V456.7C352.88 455.9 352.23 455.26 351.44 455.26H341.12C340.32 455.26 339.68 455.91 339.68 456.7V466.85V480.06V490.2C339.68 491 340.32 491.64 341.12 491.64H351.44C352.24 491.65 352.88 491 352.88 490.2Z" fill="white" fill-opacity="0.15"/>
<path d="M256.96 467.92H248.25C247.45 467.92 246.81 467.27 246.81 466.48V456.7C246.81 455.9 246.16 455.26 245.37 455.26H235.05C234.25 455.26 233.61 455.91 233.61 456.7V466.48C233.61 467.28 232.96 467.92 232.17 467.92H223.46C222.66 467.92 222.02 468.57 222.02 469.36V479.68C222.02 480.48 222.66 481.12 223.46 481.12H233.61H246.82H256.97C257.77 481.12 258.41 480.47 258.41 479.68V469.36C258.4 468.57 257.76 467.92 256.96 467.92Z" fill="white" fill-opacity="0.15"/>
<path d="M276.33 484.95V476.24C276.33 475.44 276.98 474.8 277.77 474.8H287.55C288.35 474.8 288.99 474.15 288.99 473.36V463.03C288.99 462.23 288.35 461.59 287.55 461.59H277.77C276.98 461.59 276.33 460.94 276.33 460.15V451.44C276.33 450.64 275.68 450 274.89 450H264.57C263.77 450 263.13 450.65 263.13 451.44V461.59V474.8V484.95C263.13 485.75 263.77 486.39 264.57 486.39H274.89C275.69 486.39 276.33 485.74 276.33 484.95Z" fill="white" fill-opacity="0.15"/>
<path d="M181.62 467.92H172.91C172.11 467.92 171.47 467.27 171.47 466.48V456.7C171.47 455.9 170.82 455.26 170.03 455.26H159.71C158.91 455.26 158.27 455.91 158.27 456.7V466.48C158.27 467.28 157.62 467.92 156.83 467.92H148.12C147.32 467.92 146.68 468.57 146.68 469.36V479.68C146.68 480.48 147.32 481.12 148.12 481.12H158.27H171.48H181.63C182.43 481.12 183.07 480.47 183.07 479.68V469.36C183.06 468.57 182.42 467.92 181.62 467.92Z" fill="white" fill-opacity="0.15"/>
<path d="M202.21 490.2V481.5C202.21 480.7 202.86 480.06 203.65 480.06H213.43C214.23 480.06 214.87 479.41 214.87 478.62V468.29C214.87 467.49 214.22 466.85 213.43 466.85H203.65C202.85 466.85 202.21 466.2 202.21 465.41V456.7C202.21 455.9 201.56 455.26 200.77 455.26H190.45C189.65 455.26 189.01 455.91 189.01 456.7V466.85V480.06V490.2C189.01 491 189.66 491.64 190.45 491.64H200.77C201.56 491.65 202.21 491 202.21 490.2Z" fill="white" fill-opacity="0.15"/>
<path d="M106.28 467.92H97.57C96.77 467.92 96.13 467.27 96.13 466.48V456.7C96.13 455.9 95.48 455.26 94.69 455.26H84.37C83.57 455.26 82.93 455.91 82.93 456.7V466.48C82.93 467.28 82.28 467.92 81.49 467.92H72.78C71.98 467.92 71.34 468.57 71.34 469.36V479.68C71.34 480.48 71.98 481.12 72.78 481.12H82.93H96.14H106.29C107.09 481.12 107.73 480.47 107.73 479.68V469.36C107.73 468.57 107.08 467.92 106.28 467.92Z" fill="white" fill-opacity="0.15"/>
<path d="M126.87 490.2V481.5C126.87 480.7 127.52 480.06 128.31 480.06H138.09C138.89 480.06 139.53 479.41 139.53 478.62V468.29C139.53 467.49 138.89 466.85 138.09 466.85H128.31C127.51 466.85 126.87 466.2 126.87 465.41V456.7C126.87 455.9 126.22 455.26 125.43 455.26H115.1C114.3 455.26 113.66 455.91 113.66 456.7V466.85V480.06V490.2C113.66 491 114.3 491.64 115.1 491.64H125.42C126.22 491.65 126.87 491 126.87 490.2Z" fill="white" fill-opacity="0.15"/>
<path d="M30.95 467.92H22.24C21.44 467.92 20.8 467.27 20.8 466.48V456.7C20.8 455.9 20.15 455.26 19.36 455.26H9.03C8.23 455.26 7.59 455.91 7.59 456.7V466.48C7.59 467.28 6.94 467.92 6.15 467.92H-2.56C-3.36 467.92 -4 468.57 -4 469.36V479.68C-4 480.48 -3.35 481.12 -2.56 481.12H7.59H20.8H30.95C31.75 481.12 32.39 480.47 32.39 479.68V469.36C32.39 468.57 31.74 467.92 30.95 467.92Z" fill="white" fill-opacity="0.15"/>
<path d="M51.53 490.2V481.5C51.53 480.7 52.18 480.06 52.97 480.06H62.75C63.55 480.06 64.19 479.41 64.19 478.62V468.29C64.19 467.49 63.54 466.85 62.75 466.85H52.97C52.17 466.85 51.53 466.2 51.53 465.41V456.7C51.53 455.9 50.88 455.26 50.09 455.26H39.76C38.96 455.26 38.32 455.91 38.32 456.7V466.85V480.06V490.2C38.32 491 38.96 491.64 39.76 491.64H50.08C50.88 491.65 51.53 491 51.53 490.2Z" fill="white" fill-opacity="0.15"/>
</g>
<g clip-path="url(#clip6)">
<path d="M332.3 551.92H323.59C322.79 551.92 322.15 551.27 322.15 550.48V540.7C322.15 539.9 321.5 539.26 320.71 539.26H310.39C309.59 539.26 308.95 539.91 308.95 540.7V550.48C308.95 551.28 308.3 551.92 307.51 551.92H298.8C298 551.92 297.36 552.57 297.36 553.36V563.68C297.36 564.48 298 565.12 298.8 565.12H308.95H322.16H332.31C333.11 565.12 333.75 564.47 333.75 563.68V553.36C333.74 552.57 333.1 551.92 332.3 551.92Z" fill="#9F47FC"/>
<path d="M352.88 574.2V565.5C352.88 564.7 353.53 564.06 354.32 564.06H364.1C364.9 564.06 365.54 563.41 365.54 562.62V552.29C365.54 551.49 364.9 550.85 364.1 550.85H354.32C353.53 550.85 352.88 550.2 352.88 549.41V540.7C352.88 539.9 352.23 539.26 351.44 539.26H341.12C340.32 539.26 339.68 539.91 339.68 540.7V550.85V564.06V574.2C339.68 575 340.32 575.64 341.12 575.64H351.44C352.24 575.65 352.88 575 352.88 574.2Z" fill="white" fill-opacity="0.15"/>
<path d="M256.96 551.92H248.25C247.45 551.92 246.81 551.27 246.81 550.48V540.7C246.81 539.9 246.16 539.26 245.37 539.26H235.05C234.25 539.26 233.61 539.91 233.61 540.7V550.48C233.61 551.28 232.96 551.92 232.17 551.92H223.46C222.66 551.92 222.02 552.57 222.02 553.36V563.68C222.02 564.48 222.66 565.12 223.46 565.12H233.61H246.82H256.97C257.77 565.12 258.41 564.47 258.41 563.68V553.36C258.4 552.57 257.76 551.92 256.96 551.92Z" fill="white" fill-opacity="0.15"/>
<path d="M276.33 568.95V560.24C276.33 559.44 276.98 558.8 277.77 558.8H287.55C288.35 558.8 288.99 558.15 288.99 557.36V547.03C288.99 546.23 288.35 545.59 287.55 545.59H277.77C276.98 545.59 276.33 544.94 276.33 544.15V535.44C276.33 534.64 275.68 534 274.89 534H264.57C263.77 534 263.13 534.65 263.13 535.44V545.59V558.8V568.95C263.13 569.75 263.77 570.39 264.57 570.39H274.89C275.69 570.39 276.33 569.74 276.33 568.95Z" fill="white" fill-opacity="0.15"/>
<path d="M181.62 551.92H172.91C172.11 551.92 171.47 551.27 171.47 550.48V540.7C171.47 539.9 170.82 539.26 170.03 539.26H159.71C158.91 539.26 158.27 539.91 158.27 540.7V550.48C158.27 551.28 157.62 551.92 156.83 551.92H148.12C147.32 551.92 146.68 552.57 146.68 553.36V563.68C146.68 564.48 147.32 565.12 148.12 565.12H158.27H171.48H181.63C182.43 565.12 183.07 564.47 183.07 563.68V553.36C183.06 552.57 182.42 551.92 181.62 551.92Z" fill="white" fill-opacity="0.15"/>
<path d="M202.21 574.2V565.5C202.21 564.7 202.86 564.06 203.65 564.06H213.43C214.23 564.06 214.87 563.41 214.87 562.62V552.29C214.87 551.49 214.22 550.85 213.43 550.85H203.65C202.85 550.85 202.21 550.2 202.21 549.41V540.7C202.21 539.9 201.56 539.26 200.77 539.26H190.45C189.65 539.26 189.01 539.91 189.01 540.7V550.85V564.06V574.2C189.01 575 189.66 575.64 190.45 575.64H200.77C201.56 575.65 202.21 575 202.21 574.2Z" fill="white" fill-opacity="0.15"/>
<path d="M106.28 551.92H97.57C96.77 551.92 96.13 551.27 96.13 550.48V540.7C96.13 539.9 95.48 539.26 94.69 539.26H84.37C83.57 539.26 82.93 539.91 82.93 540.7V550.48C82.93 551.28 82.28 551.92 81.49 551.92H72.78C71.98 551.92 71.34 552.57 71.34 553.36V563.68C71.34 564.48 71.98 565.12 72.78 565.12H82.93H96.14H106.29C107.09 565.12 107.73 564.47 107.73 563.68V553.36C107.73 552.57 107.08 551.92 106.28 551.92Z" fill="white" fill-opacity="0.15"/>
<path d="M126.87 574.2V565.5C126.87 564.7 127.52 564.06 128.31 564.06H138.09C138.89 564.06 139.53 563.41 139.53 562.62V552.29C139.53 551.49 138.89 550.85 138.09 550.85H128.31C127.51 550.85 126.87 550.2 126.87 549.41V540.7C126.87 539.9 126.22 539.26 125.43 539.26H115.1C114.3 539.26 113.66 539.91 113.66 540.7V550.85V564.06V574.2C113.66 575 114.3 575.64 115.1 575.64H125.42C126.22 575.65 126.87 575 126.87 574.2Z" fill="white" fill-opacity="0.15"/>
<path d="M30.95 551.92H22.24C21.44 551.92 20.8 551.27 20.8 550.48V540.7C20.8 539.9 20.15 539.26 19.36 539.26H9.03C8.23 539.26 7.59 539.91 7.59 540.7V550.48C7.59 551.28 6.94 551.92 6.15 551.92H-2.56C-3.36 551.92 -4 552.57 -4 553.36V563.68C-4 564.48 -3.35 565.12 -2.56 565.12H7.59H20.8H30.95C31.75 565.12 32.39 564.47 32.39 563.68V553.36C32.39 552.57 31.74 551.92 30.95 551.92Z" fill="white" fill-opacity="0.15"/>
<path d="M51.53 574.2V565.5C51.53 564.7 52.18 564.06 52.97 564.06H62.75C63.55 564.06 64.19 563.41 64.19 562.62V552.29C64.19 551.49 63.54 550.85 62.75 550.85H52.97C52.17 550.85 51.53 550.2 51.53 549.41V540.7C51.53 539.9 50.88 539.26 50.09 539.26H39.76C38.96 539.26 38.32 539.91 38.32 540.7V550.85V564.06V574.2C38.32 575 38.96 575.64 39.76 575.64H50.08C50.88 575.65 51.53 575 51.53 574.2Z" fill="white" fill-opacity="0.15"/>
</g>
<g clip-path="url(#clip7)">
<path d="M332.3 635.92H323.59C322.79 635.92 322.15 635.27 322.15 634.48V624.7C322.15 623.9 321.5 623.26 320.71 623.26H310.39C309.59 623.26 308.95 623.91 308.95 624.7V634.48C308.95 635.28 308.3 635.92 307.51 635.92H298.8C298 635.92 297.36 636.57 297.36 637.36V647.68C297.36 648.48 298 649.12 298.8 649.12H308.95H322.16H332.31C333.11 649.12 333.75 648.47 333.75 647.68V637.36C333.74 636.57 333.1 635.92 332.3 635.92Z" fill="white" fill-opacity="0.15"/>
<path d="M352.88 658.2V649.5C352.88 648.7 353.53 648.06 354.32 648.06H364.1C364.9 648.06 365.54 647.41 365.54 646.62V636.29C365.54 635.49 364.9 634.85 364.1 634.85H354.32C353.53 634.85 352.88 634.2 352.88 633.41V624.7C352.88 623.9 352.23 623.26 351.44 623.26H341.12C340.32 623.26 339.68 623.91 339.68 624.7V634.85V648.06V658.2C339.68 659 340.32 659.64 341.12 659.64H351.44C352.24 659.65 352.88 659 352.88 658.2Z" fill="white" fill-opacity="0.15"/>
<path d="M256.96 635.92H248.25C247.45 635.92 246.81 635.27 246.81 634.48V624.7C246.81 623.9 246.16 623.26 245.37 623.26H235.05C234.25 623.26 233.61 623.91 233.61 624.7V634.48C233.61 635.28 232.96 635.92 232.17 635.92H223.46C222.66 635.92 222.02 636.57 222.02 637.36V647.68C222.02 648.48 222.66 649.12 223.46 649.12H233.61H246.82H256.97C257.77 649.12 258.41 648.47 258.41 647.68V637.36C258.4 636.57 257.76 635.92 256.96 635.92Z" fill="white" fill-opacity="0.15"/>
<path d="M276.33 652.95V644.24C276.33 643.44 276.98 642.8 277.77 642.8H287.55C288.35 642.8 288.99 642.15 288.99 641.36V631.03C288.99 630.23 288.35 629.59 287.55 629.59H277.77C276.98 629.59 276.33 628.94 276.33 628.15V619.44C276.33 618.64 275.68 618 274.89 618H264.57C263.77 618 263.13 618.65 263.13 619.44V629.59V642.8V652.95C263.13 653.75 263.77 654.39 264.57 654.39H274.89C275.69 654.39 276.33 653.74 276.33 652.95Z" fill="white" fill-opacity="0.15"/>
<path d="M181.62 635.92H172.91C172.11 635.92 171.47 635.27 171.47 634.48V624.7C171.47 623.9 170.82 623.26 170.03 623.26H159.71C158.91 623.26 158.27 623.91 158.27 624.7V634.48C158.27 635.28 157.62 635.92 156.83 635.92H148.12C147.32 635.92 146.68 636.57 146.68 637.36V647.68C146.68 648.48 147.32 649.12 148.12 649.12H158.27H171.48H181.63C182.43 649.12 183.07 648.47 183.07 647.68V637.36C183.06 636.57 182.42 635.92 181.62 635.92Z" fill="white" fill-opacity="0.15"/>
<path d="M202.21 658.2V649.5C202.21 648.7 202.86 648.06 203.65 648.06H213.43C214.23 648.06 214.87 647.41 214.87 646.62V636.29C214.87 635.49 214.22 634.85 213.43 634.85H203.65C202.85 634.85 202.21 634.2 202.21 633.41V624.7C202.21 623.9 201.56 623.26 200.77 623.26H190.45C189.65 623.26 189.01 623.91 189.01 624.7V634.85V648.06V658.2C189.01 659 189.66 659.64 190.45 659.64H200.77C201.56 659.65 202.21 659 202.21 658.2Z" fill="white" fill-opacity="0.15"/>
<path d="M106.28 635.92H97.57C96.77 635.92 96.13 635.27 96.13 634.48V624.7C96.13 623.9 95.48 623.26 94.69 623.26H84.37C83.57 623.26 82.93 623.91 82.93 624.7V634.48C82.93 635.28 82.28 635.92 81.49 635.92H72.78C71.98 635.92 71.34 636.57 71.34 637.36V647.68C71.34 648.48 71.98 649.12 72.78 649.12H82.93H96.14H106.29C107.09 649.12 107.73 648.47 107.73 647.68V637.36C107.73 636.57 107.08 635.92 106.28 635.92Z" fill="white" fill-opacity="0.15"/>
<path d="M126.87 658.2V649.5C126.87 648.7 127.52 648.06 128.31 648.06H138.09C138.89 648.06 139.53 647.41 139.53 646.62V636.29C139.53 635.49 138.89 634.85 138.09 634.85H128.31C127.51 634.85 126.87 634.2 126.87 633.41V624.7C126.87 623.9 126.22 623.26 125.43 623.26H115.1C114.3 623.26 113.66 623.91 113.66 624.7V634.85V648.06V658.2C113.66 659 114.3 659.64 115.1 659.64H125.42C126.22 659.65 126.87 659 126.87 658.2Z" fill="white" fill-opacity="0.15"/>
<path d="M30.95 635.92H22.24C21.44 635.92 20.8 635.27 20.8 634.48V624.7C20.8 623.9 20.15 623.26 19.36 623.26H9.03C8.23 623.26 7.59 623.91 7.59 624.7V634.48C7.59 635.28 6.94 635.92 6.15 635.92H-2.56C-3.36 635.92 -4 636.57 -4 637.36V647.68C-4 648.48 -3.35 649.12 -2.56 649.12H7.59H20.8H30.95C31.75 649.12 32.39 648.47 32.39 647.68V637.36C32.39 636.57 31.74 635.92 30.95 635.92Z" fill="white" fill-opacity="0.15"/>
<path d="M51.53 658.2V649.5C51.53 648.7 52.18 648.06 52.97 648.06H62.75C63.55 648.06 64.19 647.41 64.19 646.62V636.29C64.19 635.49 63.54 634.85 62.75 634.85H52.97C52.17 634.85 51.53 634.2 51.53 633.41V624.7C51.53 623.9 50.88 623.26 50.09 623.26H39.76C38.96 623.26 38.32 623.91 38.32 624.7V634.85V648.06V658.2C38.32 659 38.96 659.64 39.76 659.64H50.08C50.88 659.65 51.53 659 51.53 658.2Z" fill="white" fill-opacity="0.15"/>
</g>
<g clip-path="url(#clip8)">
<path d="M28.9306 95.9294L37.5569 95.9294C38.3492 95.9294 38.983 96.5849 38.983 97.3815L38.983 107.244C38.983 108.05 39.6268 108.696 40.4092 108.696L50.6301 108.696C51.4224 108.696 52.0562 108.04 52.0562 107.244L52.0562 97.3815C52.0562 96.5748 52.7 95.9294 53.4824 95.9294L62.1087 95.9294C62.9011 95.9294 63.5349 95.2739 63.5349 94.4773L63.5349 84.0706C63.5349 83.2638 62.9011 82.6185 62.1087 82.6185L52.0562 82.6185L38.9731 82.6185L28.9206 82.6185C28.1283 82.6185 27.4945 83.2739 27.4945 84.0706L27.4945 94.4773C27.5044 95.2739 28.1382 95.9294 28.9306 95.9294Z" fill="white" fill-opacity="0.15"/>
<path d="M8.54825 73.4622L8.54825 82.2353C8.54825 83.042 7.90449 83.6874 7.12208 83.6874L-2.56397 83.6874C-3.35629 83.6874 -3.99014 84.3428 -3.99014 85.1395L-3.99014 95.5563C-3.99014 96.363 -3.35629 97.0084 -2.56397 97.0084L7.12208 97.0084C7.90449 97.0084 8.54825 97.6639 8.54825 98.4605L8.54825 107.244C8.54825 108.05 9.19201 108.696 9.97442 108.696L20.1953 108.696C20.9876 108.696 21.6215 108.04 21.6215 107.244L21.6215 97.0084L21.6215 83.6874L21.6215 73.4622C21.6215 72.6554 20.9876 72.0101 20.1953 72.0101L9.97441 72.0101C9.1821 72 8.54825 72.6554 8.54825 73.4622Z" fill="white" fill-opacity="0.15"/>
<path d="M103.547 95.9294L112.173 95.9294C112.965 95.9294 113.599 96.5849 113.599 97.3815L113.599 107.244C113.599 108.05 114.243 108.696 115.026 108.696L125.246 108.696C126.039 108.696 126.673 108.04 126.673 107.244L126.673 97.3815C126.673 96.5748 127.316 95.9294 128.099 95.9294L136.725 95.9294C137.517 95.9294 138.151 95.2739 138.151 94.4773L138.151 84.0706C138.151 83.2639 137.517 82.6185 136.725 82.6185L126.673 82.6185L113.589 82.6185L103.537 82.6185C102.745 82.6185 102.111 83.2739 102.111 84.0706L102.111 94.4773C102.121 95.2739 102.755 95.9294 103.547 95.9294Z" fill="white" fill-opacity="0.15"/>
<path d="M84.363 78.7563L84.363 87.5395C84.363 88.3462 83.7192 88.9916 82.9368 88.9916L73.2507 88.9916C72.4584 88.9916 71.8246 89.647 71.8246 90.4437L71.8246 100.86C71.8246 101.667 72.4584 102.313 73.2507 102.313L82.9368 102.313C83.7192 102.313 84.363 102.968 84.363 103.765L84.363 112.548C84.363 113.355 85.0067 114 85.7891 114L96.01 114C96.8023 114 97.4362 113.345 97.4362 112.548L97.4362 102.313L97.4362 88.9916L97.4362 78.7563C97.4362 77.9496 96.8023 77.3042 96.01 77.3042L85.7891 77.3042C84.9968 77.3042 84.363 77.9596 84.363 78.7563Z" fill="white" fill-opacity="0.15"/>
<path d="M178.163 95.9294L186.789 95.9294C187.582 95.9294 188.216 96.5849 188.216 97.3815L188.216 107.244C188.216 108.05 188.859 108.696 189.642 108.696L199.863 108.696C200.655 108.696 201.289 108.04 201.289 107.244L201.289 97.3815C201.289 96.5748 201.933 95.9294 202.715 95.9294L211.341 95.9294C212.134 95.9294 212.767 95.2739 212.767 94.4773L212.767 84.0706C212.767 83.2639 212.134 82.6185 211.341 82.6185L201.289 82.6185L188.206 82.6185L178.153 82.6185C177.361 82.6185 176.727 83.2739 176.727 84.0706L176.727 94.4773C176.737 95.2739 177.371 95.9294 178.163 95.9294Z" fill="white" fill-opacity="0.15"/>
<path d="M157.771 73.4622L157.771 82.2353C157.771 83.042 157.127 83.6874 156.345 83.6874L146.659 83.6874C145.866 83.6874 145.233 84.3428 145.233 85.1395L145.233 95.5563C145.233 96.363 145.876 97.0084 146.659 97.0084L156.345 97.0084C157.137 97.0084 157.771 97.6639 157.771 98.4605L157.771 107.244C157.771 108.05 158.415 108.696 159.197 108.696L169.418 108.696C170.21 108.696 170.844 108.04 170.844 107.244L170.844 97.0084L170.844 83.6874L170.844 73.4622C170.844 72.6554 170.2 72.0101 169.418 72.0101L159.197 72.0101C158.415 72 157.771 72.6554 157.771 73.4622Z" fill="white" fill-opacity="0.15"/>
<path d="M252.779 95.9294L261.406 95.9294C262.198 95.9294 262.832 96.5849 262.832 97.3815L262.832 107.244C262.832 108.05 263.476 108.696 264.258 108.696L274.479 108.696C275.271 108.696 275.905 108.04 275.905 107.244L275.905 97.3815C275.905 96.5748 276.549 95.9294 277.331 95.9294L285.958 95.9294C286.75 95.9294 287.384 95.2739 287.384 94.4773L287.384 84.0706C287.384 83.2639 286.75 82.6185 285.958 82.6185L275.905 82.6185L262.822 82.6185L252.769 82.6185C251.977 82.6185 251.343 83.2739 251.343 84.0706L251.343 94.4773C251.343 95.2739 251.987 95.9294 252.779 95.9294Z" fill="white" fill-opacity="0.15"/>
<path d="M232.387 73.4622L232.387 82.2353C232.387 83.042 231.743 83.6874 230.961 83.6874L221.275 83.6874C220.483 83.6874 219.849 84.3428 219.849 85.1395L219.849 95.5563C219.849 96.363 220.483 97.0084 221.275 97.0084L230.961 97.0084C231.753 97.0084 232.387 97.6639 232.387 98.4605L232.387 107.244C232.387 108.05 233.031 108.696 233.813 108.696L244.044 108.696C244.836 108.696 245.47 108.04 245.47 107.244L245.47 97.0084L245.47 83.6874L245.47 73.4622C245.47 72.6554 244.836 72.0101 244.044 72.0101L233.823 72.0101C233.031 72 232.387 72.6554 232.387 73.4622Z" fill="white" fill-opacity="0.15"/>
<path d="M327.386 95.9294L336.012 95.9294C336.804 95.9294 337.438 96.5849 337.438 97.3815L337.438 107.244C337.438 108.05 338.082 108.696 338.864 108.696L349.095 108.696C349.887 108.696 350.521 108.04 350.521 107.244L350.521 97.3815C350.521 96.5748 351.165 95.9294 351.948 95.9294L360.574 95.9294C361.366 95.9294 362 95.2739 362 94.4773L362 84.0706C362 83.2638 361.356 82.6185 360.574 82.6185L350.521 82.6185L337.438 82.6185L327.386 82.6185C326.593 82.6185 325.96 83.2739 325.96 84.0706L325.96 94.4773C325.96 95.2739 326.603 95.9294 327.386 95.9294Z" fill="white"/>
<path d="M307.003 73.4622L307.003 82.2353C307.003 83.042 306.36 83.6874 305.577 83.6874L295.891 83.6874C295.099 83.6874 294.465 84.3428 294.465 85.1395L294.465 95.5563C294.465 96.363 295.109 97.0084 295.891 97.0084L305.577 97.0084C306.37 97.0084 307.003 97.6639 307.003 98.4605L307.003 107.244C307.003 108.05 307.647 108.696 308.43 108.696L318.66 108.696C319.453 108.696 320.087 108.04 320.087 107.244L320.087 97.0084L320.087 83.6874L320.087 73.4622C320.087 72.6554 319.453 72.0101 318.66 72.0101L308.44 72.0101C307.647 72 307.003 72.6554 307.003 73.4622Z" fill="white" fill-opacity="0.15"/>
</g>
<g clip-path="url(#clip9)">
<path d="M28.9306 11.9294L37.5569 11.9294C38.3492 11.9294 38.983 12.5849 38.983 13.3815L38.983 23.2437C38.983 24.0504 39.6268 24.6958 40.4092 24.6958L50.6301 24.6958C51.4224 24.6958 52.0562 24.0403 52.0562 23.2437L52.0562 13.3815C52.0562 12.5748 52.7 11.9294 53.4824 11.9294L62.1087 11.9294C62.9011 11.9294 63.5349 11.2739 63.5349 10.4773L63.5349 0.0705719C63.5349 -0.736151 62.9011 -1.38153 62.1087 -1.38153L52.0562 -1.38153L38.9731 -1.38153L28.9206 -1.38153C28.1283 -1.38153 27.4945 -0.726065 27.4945 0.0705751L27.4945 10.4773C27.5044 11.2739 28.1382 11.9294 28.9306 11.9294Z" fill="white" fill-opacity="0.15"/>
<path d="M8.54825 -10.5378L8.54825 -1.76472C8.54825 -0.957999 7.90449 -0.312619 7.12208 -0.312619L-2.56397 -0.312618C-3.35629 -0.312618 -3.99014 0.342842 -3.99014 1.13948L-3.99014 11.5563C-3.99014 12.363 -3.35629 13.0084 -2.56397 13.0084L7.12208 13.0084C7.90449 13.0084 8.54825 13.6639 8.54825 14.4605L8.54825 23.2437C8.54825 24.0504 9.19201 24.6958 9.97442 24.6958L20.1953 24.6958C20.9876 24.6958 21.6215 24.0403 21.6215 23.2437L21.6215 13.0084L21.6215 -0.31262L21.6215 -10.5378C21.6215 -11.3446 20.9876 -11.9899 20.1953 -11.9899L9.97441 -11.9899C9.1821 -12 8.54825 -11.3446 8.54825 -10.5378Z" fill="white" fill-opacity="0.15"/>
<path d="M103.547 11.9294L112.173 11.9294C112.965 11.9294 113.599 12.5849 113.599 13.3815L113.599 23.2437C113.599 24.0504 114.243 24.6958 115.026 24.6958L125.246 24.6958C126.039 24.6958 126.673 24.0403 126.673 23.2437L126.673 13.3815C126.673 12.5748 127.316 11.9294 128.099 11.9294L136.725 11.9294C137.517 11.9294 138.151 11.2739 138.151 10.4773L138.151 0.0705738C138.151 -0.736149 137.517 -1.38153 136.725 -1.38153L126.673 -1.38153L113.589 -1.38152L103.537 -1.38152C102.745 -1.38152 102.111 -0.726061 102.111 0.070577L102.111 10.4773C102.121 11.2739 102.755 11.9294 103.547 11.9294Z" fill="white" fill-opacity="0.15"/>
<path d="M84.363 -5.24372L84.363 3.53948C84.363 4.3462 83.7192 4.99158 82.9368 4.99158L73.2507 4.99158C72.4584 4.99158 71.8246 5.64705 71.8246 6.44368L71.8246 16.8605C71.8246 17.6672 72.4584 18.3126 73.2507 18.3126L82.9368 18.3126C83.7192 18.3126 84.363 18.9681 84.363 19.7647L84.363 28.5479C84.363 29.3546 85.0067 30 85.7891 30L96.01 30C96.8023 30 97.4362 29.3445 97.4362 28.5479L97.4362 18.3126L97.4362 4.99158L97.4362 -5.24372C97.4362 -6.05045 96.8023 -6.69582 96.01 -6.69582L85.7891 -6.69582C84.9968 -6.69582 84.363 -6.04036 84.363 -5.24372Z" fill="white" fill-opacity="0.15"/>
<path d="M178.163 11.9294L186.789 11.9294C187.582 11.9294 188.216 12.5849 188.216 13.3815L188.216 23.2437C188.216 24.0504 188.859 24.6958 189.642 24.6958L199.863 24.6958C200.655 24.6958 201.289 24.0403 201.289 23.2437L201.289 13.3815C201.289 12.5748 201.933 11.9294 202.715 11.9294L211.341 11.9294C212.134 11.9294 212.767 11.2739 212.767 10.4773L212.767 0.0705738C212.767 -0.736149 212.134 -1.38153 211.341 -1.38153L201.289 -1.38153L188.206 -1.38152L178.153 -1.38152C177.361 -1.38152 176.727 -0.726061 176.727 0.070577L176.727 10.4773C176.737 11.2739 177.371 11.9294 178.163 11.9294Z" fill="white" fill-opacity="0.15"/>
<path d="M157.771 -10.5378L157.771 -1.76472C157.771 -0.957993 157.127 -0.312613 156.345 -0.312613L146.659 -0.312612C145.866 -0.312612 145.233 0.342848 145.233 1.13949L145.233 11.5563C145.233 12.363 145.876 13.0084 146.659 13.0084L156.345 13.0084C157.137 13.0084 157.771 13.6639 157.771 14.4605L157.771 23.2437C157.771 24.0504 158.415 24.6958 159.197 24.6958L169.418 24.6958C170.21 24.6958 170.844 24.0403 170.844 23.2437L170.844 13.0084L170.844 -0.312614L170.844 -10.5378C170.844 -11.3446 170.2 -11.9899 169.418 -11.9899L159.197 -11.9899C158.415 -12 157.771 -11.3446 157.771 -10.5378Z" fill="white" fill-opacity="0.15"/>
<path d="M252.779 11.9294L261.406 11.9294C262.198 11.9294 262.832 12.5849 262.832 13.3815L262.832 23.2437C262.832 24.0504 263.476 24.6958 264.258 24.6958L274.479 24.6958C275.271 24.6958 275.905 24.0403 275.905 23.2437L275.905 13.3815C275.905 12.5748 276.549 11.9294 277.331 11.9294L285.958 11.9294C286.75 11.9294 287.384 11.2739 287.384 10.4773L287.384 0.0705738C287.384 -0.736149 286.75 -1.38153 285.958 -1.38153L275.905 -1.38153L262.822 -1.38152L252.769 -1.38152C251.977 -1.38152 251.343 -0.726061 251.343 0.070577L251.343 10.4773C251.343 11.2739 251.987 11.9294 252.779 11.9294Z" fill="white" fill-opacity="0.15"/>
<path d="M232.387 -10.5378L232.387 -1.76472C232.387 -0.957993 231.743 -0.312613 230.961 -0.312613L221.275 -0.312612C220.483 -0.312612 219.849 0.342848 219.849 1.13949L219.849 11.5563C219.849 12.363 220.483 13.0084 221.275 13.0084L230.961 13.0084C231.753 13.0084 232.387 13.6639 232.387 14.4605L232.387 23.2437C232.387 24.0504 233.031 24.6958 233.813 24.6958L244.044 24.6958C244.836 24.6958 245.47 24.0403 245.47 23.2437L245.47 13.0084L245.47 -0.312614L245.47 -10.5378C245.47 -11.3446 244.836 -11.9899 244.044 -11.9899L233.823 -11.9899C233.031 -12 232.387 -11.3446 232.387 -10.5378Z" fill="white" fill-opacity="0.15"/>
<path d="M327.386 11.9294L336.012 11.9294C336.804 11.9294 337.438 12.5849 337.438 13.3815L337.438 23.2437C337.438 24.0504 338.082 24.6958 338.864 24.6958L349.095 24.6958C349.887 24.6958 350.521 24.0403 350.521 23.2437L350.521 13.3815C350.521 12.5748 351.165 11.9294 351.948 11.9294L360.574 11.9294C361.366 11.9294 362 11.2739 362 10.4773L362 0.0705719C362 -0.736151 361.356 -1.38153 360.574 -1.38153L350.521 -1.38153L337.438 -1.38153L327.386 -1.38153C326.593 -1.38153 325.96 -0.726065 325.96 0.0705751L325.96 10.4773C325.96 11.2739 326.603 11.9294 327.386 11.9294Z" fill="white" fill-opacity="0.15"/>
<path d="M307.003 -10.5378L307.003 -1.76472C307.003 -0.957993 306.36 -0.312613 305.577 -0.312613L295.891 -0.312612C295.099 -0.312612 294.465 0.342848 294.465 1.13949L294.465 11.5563C294.465 12.363 295.109 13.0084 295.891 13.0084L305.577 13.0084C306.37 13.0084 307.003 13.6639 307.003 14.4605L307.003 23.2437C307.003 24.0504 307.647 24.6958 308.43 24.6958L318.66 24.6958C319.453 24.6958 320.087 24.0403 320.087 23.2437L320.087 13.0084L320.087 -0.312614L320.087 -10.5378C320.087 -11.3446 319.453 -11.9899 318.66 -11.9899L308.44 -11.9899C307.647 -12 307.003 -11.3446 307.003 -10.5378Z" fill="white" fill-opacity="0.15"/>
</g>
<g clip-path="url(#clip10)">
<path d="M29.2498 179.73L37.9598 179.73C38.7598 179.73 39.3998 180.38 39.3998 181.17L39.3998 190.95C39.3998 191.75 40.0498 192.39 40.8398 192.39L51.1598 192.39C51.9598 192.39 52.5998 191.74 52.5998 190.95L52.5998 181.17C52.5998 180.37 53.2498 179.73 54.0398 179.73L62.7498 179.73C63.5498 179.73 64.1898 179.08 64.1898 178.29L64.1898 167.97C64.1898 167.17 63.5498 166.53 62.7498 166.53L52.5998 166.53L39.3898 166.53L29.2398 166.53C28.4398 166.53 27.7998 167.18 27.7998 167.97L27.7998 178.29C27.8098 179.08 28.4498 179.73 29.2498 179.73Z" fill="white" fill-opacity="0.15"/>
<path d="M8.6698 157.45L8.6698 166.15C8.6698 166.95 8.0198 167.59 7.2298 167.59L-2.5502 167.59C-3.3502 167.59 -3.99021 168.24 -3.99021 169.03L-3.9902 179.36C-3.9902 180.16 -3.3502 180.8 -2.5502 180.8L7.2298 180.8C8.0198 180.8 8.6698 181.45 8.6698 182.24L8.6698 190.95C8.6698 191.75 9.3198 192.39 10.1098 192.39L20.4298 192.39C21.2298 192.39 21.8698 191.74 21.8698 190.95L21.8698 180.8L21.8698 167.59L21.8698 157.45C21.8698 156.65 21.2298 156.01 20.4298 156.01L10.1098 156.01C9.3098 156 8.6698 156.65 8.6698 157.45Z" fill="white" fill-opacity="0.15"/>
<path d="M104.59 179.73L113.3 179.73C114.1 179.73 114.74 180.38 114.74 181.17L114.74 190.95C114.74 191.75 115.39 192.39 116.18 192.39L126.5 192.39C127.3 192.39 127.94 191.74 127.94 190.95L127.94 181.17C127.94 180.37 128.59 179.73 129.38 179.73L138.09 179.73C138.89 179.73 139.53 179.08 139.53 178.29L139.53 167.97C139.53 167.17 138.89 166.53 138.09 166.53L127.94 166.53L114.73 166.53L104.58 166.53C103.78 166.53 103.14 167.18 103.14 167.97L103.14 178.29C103.15 179.08 103.79 179.73 104.59 179.73Z" fill="white" fill-opacity="0.15"/>
<path d="M85.2198 162.7L85.2198 171.41C85.2198 172.21 84.5698 172.85 83.7798 172.85L73.9998 172.85C73.1998 172.85 72.5598 173.5 72.5598 174.29L72.5598 184.62C72.5598 185.42 73.1998 186.06 73.9998 186.06L83.7798 186.06C84.5698 186.06 85.2198 186.71 85.2198 187.5L85.2198 196.21C85.2198 197.01 85.8698 197.65 86.6598 197.65L96.9798 197.65C97.7798 197.65 98.4198 197 98.4198 196.21L98.4198 186.06L98.4198 172.85L98.4198 162.7C98.4198 161.9 97.7798 161.26 96.9798 161.26L86.6598 161.26C85.8598 161.26 85.2198 161.91 85.2198 162.7Z" fill="white" fill-opacity="0.15"/>
<path d="M179.93 179.73L188.64 179.73C189.44 179.73 190.08 180.38 190.08 181.17L190.08 190.95C190.08 191.75 190.73 192.39 191.52 192.39L201.84 192.39C202.64 192.39 203.28 191.74 203.28 190.95L203.28 181.17C203.28 180.37 203.93 179.73 204.72 179.73L213.43 179.73C214.23 179.73 214.87 179.08 214.87 178.29L214.87 167.97C214.87 167.17 214.23 166.53 213.43 166.53L203.28 166.53L190.07 166.53L179.92 166.53C179.12 166.53 178.48 167.18 178.48 167.97L178.48 178.29C178.49 179.08 179.13 179.73 179.93 179.73Z" fill="white" fill-opacity="0.15"/>
<path d="M159.34 157.45L159.34 166.15C159.34 166.95 158.69 167.59 157.9 167.59L148.12 167.59C147.32 167.59 146.68 168.24 146.68 169.03L146.68 179.36C146.68 180.16 147.33 180.8 148.12 180.8L157.9 180.8C158.7 180.8 159.34 181.45 159.34 182.24L159.34 190.95C159.34 191.75 159.99 192.39 160.78 192.39L171.1 192.39C171.9 192.39 172.54 191.74 172.54 190.95L172.54 180.8L172.54 167.59L172.54 157.45C172.54 156.65 171.89 156.01 171.1 156.01L160.78 156.01C159.99 156 159.34 156.65 159.34 157.45Z" fill="white" fill-opacity="0.15"/>
<path d="M255.27 179.73L263.98 179.73C264.78 179.73 265.42 180.38 265.42 181.17L265.42 190.95C265.42 191.75 266.07 192.39 266.86 192.39L277.18 192.39C277.98 192.39 278.62 191.74 278.62 190.95L278.62 181.17C278.62 180.37 279.27 179.73 280.06 179.73L288.77 179.73C289.57 179.73 290.21 179.08 290.21 178.29L290.21 167.97C290.21 167.17 289.57 166.53 288.77 166.53L278.62 166.53L265.41 166.53L255.26 166.53C254.46 166.53 253.82 167.18 253.82 167.97L253.82 178.29C253.82 179.08 254.47 179.73 255.27 179.73Z" fill="white" fill-opacity="0.15"/>
<path d="M234.68 157.45L234.68 166.15C234.68 166.95 234.03 167.59 233.24 167.59L223.46 167.59C222.66 167.59 222.02 168.24 222.02 169.03L222.02 179.36C222.02 180.16 222.66 180.8 223.46 180.8L233.24 180.8C234.04 180.8 234.68 181.45 234.68 182.24L234.68 190.95C234.68 191.75 235.33 192.39 236.12 192.39L246.45 192.39C247.25 192.39 247.89 191.74 247.89 190.95L247.89 180.8L247.89 167.59L247.89 157.45C247.89 156.65 247.25 156.01 246.45 156.01L236.13 156.01C235.33 156 234.68 156.65 234.68 157.45Z" fill="white" fill-opacity="0.15"/>
<path d="M330.6 179.73L339.31 179.73C340.11 179.73 340.75 180.38 340.75 181.17L340.75 190.95C340.75 191.75 341.4 192.39 342.19 192.39L352.52 192.39C353.32 192.39 353.96 191.74 353.96 190.95L353.96 181.17C353.96 180.37 354.61 179.73 355.4 179.73L364.11 179.73C364.91 179.73 365.55 179.08 365.55 178.29L365.55 167.97C365.55 167.17 364.9 166.53 364.11 166.53L353.96 166.53L340.75 166.53L330.6 166.53C329.8 166.53 329.16 167.18 329.16 167.97L329.16 178.29C329.16 179.08 329.81 179.73 330.6 179.73Z" fill="white" fill-opacity="0.15"/>
<path d="M310.02 157.45L310.02 166.15C310.02 166.95 309.37 167.59 308.58 167.59L298.8 167.59C298 167.59 297.36 168.24 297.36 169.03L297.36 179.36C297.36 180.16 298.01 180.8 298.8 180.8L308.58 180.8C309.38 180.8 310.02 181.45 310.02 182.24L310.02 190.95C310.02 191.75 310.67 192.39 311.46 192.39L321.79 192.39C322.59 192.39 323.23 191.74 323.23 190.95L323.23 180.8L323.23 167.59L323.23 157.45C323.23 156.65 322.59 156.01 321.79 156.01L311.47 156.01C310.67 156 310.02 156.65 310.02 157.45Z" fill="white" fill-opacity="0.15"/>
</g>
<g clip-path="url(#clip11)">
<path d="M29.2498 263.73L37.9598 263.73C38.7598 263.73 39.3998 264.38 39.3998 265.17L39.3998 274.95C39.3998 275.75 40.0498 276.39 40.8398 276.39L51.1598 276.39C51.9598 276.39 52.5998 275.74 52.5998 274.95L52.5998 265.17C52.5998 264.37 53.2498 263.73 54.0398 263.73L62.7498 263.73C63.5498 263.73 64.1898 263.08 64.1898 262.29L64.1898 251.97C64.1898 251.17 63.5498 250.53 62.7498 250.53L52.5998 250.53L39.3898 250.53L29.2398 250.53C28.4398 250.53 27.7998 251.18 27.7998 251.97L27.7998 262.29C27.8098 263.08 28.4498 263.73 29.2498 263.73Z" fill="white" fill-opacity="0.15"/>
<path d="M8.6698 241.45L8.6698 250.15C8.6698 250.95 8.0198 251.59 7.2298 251.59L-2.5502 251.59C-3.3502 251.59 -3.99021 252.24 -3.99021 253.03L-3.9902 263.36C-3.9902 264.16 -3.3502 264.8 -2.5502 264.8L7.2298 264.8C8.0198 264.8 8.6698 265.45 8.6698 266.24L8.6698 274.95C8.6698 275.75 9.3198 276.39 10.1098 276.39L20.4298 276.39C21.2298 276.39 21.8698 275.74 21.8698 274.95L21.8698 264.8L21.8698 251.59L21.8698 241.45C21.8698 240.65 21.2298 240.01 20.4298 240.01L10.1098 240.01C9.3098 240 8.6698 240.65 8.6698 241.45Z" fill="white" fill-opacity="0.15"/>
<path d="M104.59 263.73L113.3 263.73C114.1 263.73 114.74 264.38 114.74 265.17L114.74 274.95C114.74 275.75 115.39 276.39 116.18 276.39L126.5 276.39C127.3 276.39 127.94 275.74 127.94 274.95L127.94 265.17C127.94 264.37 128.59 263.73 129.38 263.73L138.09 263.73C138.89 263.73 139.53 263.08 139.53 262.29L139.53 251.97C139.53 251.17 138.89 250.53 138.09 250.53L127.94 250.53L114.73 250.53L104.58 250.53C103.78 250.53 103.14 251.18 103.14 251.97L103.14 262.29C103.15 263.08 103.79 263.73 104.59 263.73Z" fill="white" fill-opacity="0.15"/>
<path d="M85.2198 246.7L85.2198 255.41C85.2198 256.21 84.5698 256.85 83.7798 256.85L73.9998 256.85C73.1998 256.85 72.5598 257.5 72.5598 258.29L72.5598 268.62C72.5598 269.42 73.1998 270.06 73.9998 270.06L83.7798 270.06C84.5698 270.06 85.2198 270.71 85.2198 271.5L85.2198 280.21C85.2198 281.01 85.8698 281.65 86.6598 281.65L96.9798 281.65C97.7798 281.65 98.4198 281 98.4198 280.21L98.4198 270.06L98.4198 256.85L98.4198 246.7C98.4198 245.9 97.7798 245.26 96.9798 245.26L86.6598 245.26C85.8598 245.26 85.2198 245.91 85.2198 246.7Z" fill="white" fill-opacity="0.15"/>
<path d="M179.93 263.73L188.64 263.73C189.44 263.73 190.08 264.38 190.08 265.17L190.08 274.95C190.08 275.75 190.73 276.39 191.52 276.39L201.84 276.39C202.64 276.39 203.28 275.74 203.28 274.95L203.28 265.17C203.28 264.37 203.93 263.73 204.72 263.73L213.43 263.73C214.23 263.73 214.87 263.08 214.87 262.29L214.87 251.97C214.87 251.17 214.23 250.53 213.43 250.53L203.28 250.53L190.07 250.53L179.92 250.53C179.12 250.53 178.48 251.18 178.48 251.97L178.48 262.29C178.49 263.08 179.13 263.73 179.93 263.73Z" fill="white" fill-opacity="0.15"/>
<path d="M159.34 241.45L159.34 250.15C159.34 250.95 158.69 251.59 157.9 251.59L148.12 251.59C147.32 251.59 146.68 252.24 146.68 253.03L146.68 263.36C146.68 264.16 147.33 264.8 148.12 264.8L157.9 264.8C158.7 264.8 159.34 265.45 159.34 266.24L159.34 274.95C159.34 275.75 159.99 276.39 160.78 276.39L171.1 276.39C171.9 276.39 172.54 275.74 172.54 274.95L172.54 264.8L172.54 251.59L172.54 241.45C172.54 240.65 171.89 240.01 171.1 240.01L160.78 240.01C159.99 240 159.34 240.65 159.34 241.45Z" fill="white" fill-opacity="0.15"/>
<path d="M255.27 263.73L263.98 263.73C264.78 263.73 265.42 264.38 265.42 265.17L265.42 274.95C265.42 275.75 266.07 276.39 266.86 276.39L277.18 276.39C277.98 276.39 278.62 275.74 278.62 274.95L278.62 265.17C278.62 264.37 279.27 263.73 280.06 263.73L288.77 263.73C289.57 263.73 290.21 263.08 290.21 262.29L290.21 251.97C290.21 251.17 289.57 250.53 288.77 250.53L278.62 250.53L265.41 250.53L255.26 250.53C254.46 250.53 253.82 251.18 253.82 251.97L253.82 262.29C253.82 263.08 254.47 263.73 255.27 263.73Z" fill="white" fill-opacity="0.15"/>
<path d="M234.68 241.45L234.68 250.15C234.68 250.95 234.03 251.59 233.24 251.59L223.46 251.59C222.66 251.59 222.02 252.24 222.02 253.03L222.02 263.36C222.02 264.16 222.66 264.8 223.46 264.8L233.24 264.8C234.04 264.8 234.68 265.45 234.68 266.24L234.68 274.95C234.68 275.75 235.33 276.39 236.12 276.39L246.45 276.39C247.25 276.39 247.89 275.74 247.89 274.95L247.89 264.8L247.89 251.59L247.89 241.45C247.89 240.65 247.25 240.01 246.45 240.01L236.13 240.01C235.33 240 234.68 240.65 234.68 241.45Z" fill="white" fill-opacity="0.15"/>
<path d="M330.6 263.73L339.31 263.73C340.11 263.73 340.75 264.38 340.75 265.17L340.75 274.95C340.75 275.75 341.4 276.39 342.19 276.39L352.52 276.39C353.32 276.39 353.96 275.74 353.96 274.95L353.96 265.17C353.96 264.37 354.61 263.73 355.4 263.73L364.11 263.73C364.91 263.73 365.55 263.08 365.55 262.29L365.55 251.97C365.55 251.17 364.9 250.53 364.11 250.53L353.96 250.53L340.75 250.53L330.6 250.53C329.8 250.53 329.16 251.18 329.16 251.97L329.16 262.29C329.16 263.08 329.81 263.73 330.6 263.73Z" fill="white" fill-opacity="0.15"/>
<path d="M310.02 241.45L310.02 250.15C310.02 250.95 309.37 251.59 308.58 251.59L298.8 251.59C298 251.59 297.36 252.24 297.36 253.03L297.36 263.36C297.36 264.16 298.01 264.8 298.8 264.8L308.58 264.8C309.38 264.8 310.02 265.45 310.02 266.24L310.02 274.95C310.02 275.75 310.67 276.39 311.46 276.39L321.79 276.39C322.59 276.39 323.23 275.74 323.23 274.95L323.23 264.8L323.23 251.59L323.23 241.45C323.23 240.65 322.59 240.01 321.79 240.01L311.47 240.01C310.67 240 310.02 240.65 310.02 241.45Z" fill="white" fill-opacity="0.15"/>
</g>
<g clip-path="url(#clip12)">
<path d="M29.2498 347.73L37.9598 347.73C38.7598 347.73 39.3998 348.38 39.3998 349.17L39.3998 358.95C39.3998 359.75 40.0498 360.39 40.8398 360.39L51.1598 360.39C51.9598 360.39 52.5998 359.74 52.5998 358.95L52.5998 349.17C52.5998 348.37 53.2498 347.73 54.0398 347.73L62.7498 347.73C63.5498 347.73 64.1898 347.08 64.1898 346.29L64.1898 335.97C64.1898 335.17 63.5498 334.53 62.7498 334.53L52.5998 334.53L39.3898 334.53L29.2398 334.53C28.4398 334.53 27.7998 335.18 27.7998 335.97L27.7998 346.29C27.8098 347.08 28.4498 347.73 29.2498 347.73Z" fill="#4BD6F7"/>
<path d="M8.6698 325.45L8.6698 334.15C8.6698 334.95 8.0198 335.59 7.2298 335.59L-2.5502 335.59C-3.3502 335.59 -3.99021 336.24 -3.99021 337.03L-3.9902 347.36C-3.9902 348.16 -3.3502 348.8 -2.5502 348.8L7.2298 348.8C8.0198 348.8 8.6698 349.45 8.6698 350.24L8.6698 358.95C8.6698 359.75 9.3198 360.39 10.1098 360.39L20.4298 360.39C21.2298 360.39 21.8698 359.74 21.8698 358.95L21.8698 348.8L21.8698 335.59L21.8698 325.45C21.8698 324.65 21.2298 324.01 20.4298 324.01L10.1098 324.01C9.3098 324 8.6698 324.65 8.6698 325.45Z" fill="white" fill-opacity="0.15"/>
<path d="M104.59 347.73L113.3 347.73C114.1 347.73 114.74 348.38 114.74 349.17L114.74 358.95C114.74 359.75 115.39 360.39 116.18 360.39L126.5 360.39C127.3 360.39 127.94 359.74 127.94 358.95L127.94 349.17C127.94 348.37 128.59 347.73 129.38 347.73L138.09 347.73C138.89 347.73 139.53 347.08 139.53 346.29L139.53 335.97C139.53 335.17 138.89 334.53 138.09 334.53L127.94 334.53L114.73 334.53L104.58 334.53C103.78 334.53 103.14 335.18 103.14 335.97L103.14 346.29C103.15 347.08 103.79 347.73 104.59 347.73Z" fill="white" fill-opacity="0.15"/>
<path d="M85.2198 330.7L85.2198 339.41C85.2198 340.21 84.5698 340.85 83.7798 340.85L73.9998 340.85C73.1998 340.85 72.5598 341.5 72.5598 342.29L72.5598 352.62C72.5598 353.42 73.1998 354.06 73.9998 354.06L83.7798 354.06C84.5698 354.06 85.2198 354.71 85.2198 355.5L85.2198 364.21C85.2198 365.01 85.8698 365.65 86.6598 365.65L96.9798 365.65C97.7798 365.65 98.4198 365 98.4198 364.21L98.4198 354.06L98.4198 340.85L98.4198 330.7C98.4198 329.9 97.7798 329.26 96.9798 329.26L86.6598 329.26C85.8598 329.26 85.2198 329.91 85.2198 330.7Z" fill="white" fill-opacity="0.15"/>
<path d="M179.93 347.73L188.64 347.73C189.44 347.73 190.08 348.38 190.08 349.17L190.08 358.95C190.08 359.75 190.73 360.39 191.52 360.39L201.84 360.39C202.64 360.39 203.28 359.74 203.28 358.95L203.28 349.17C203.28 348.37 203.93 347.73 204.72 347.73L213.43 347.73C214.23 347.73 214.87 347.08 214.87 346.29L214.87 335.97C214.87 335.17 214.23 334.53 213.43 334.53L203.28 334.53L190.07 334.53L179.92 334.53C179.12 334.53 178.48 335.18 178.48 335.97L178.48 346.29C178.49 347.08 179.13 347.73 179.93 347.73Z" fill="white" fill-opacity="0.15"/>
<path d="M159.34 325.45L159.34 334.15C159.34 334.95 158.69 335.59 157.9 335.59L148.12 335.59C147.32 335.59 146.68 336.24 146.68 337.03L146.68 347.36C146.68 348.16 147.33 348.8 148.12 348.8L157.9 348.8C158.7 348.8 159.34 349.45 159.34 350.24L159.34 358.95C159.34 359.75 159.99 360.39 160.78 360.39L171.1 360.39C171.9 360.39 172.54 359.74 172.54 358.95L172.54 348.8L172.54 335.59L172.54 325.45C172.54 324.65 171.89 324.01 171.1 324.01L160.78 324.01C159.99 324 159.34 324.65 159.34 325.45Z" fill="white" fill-opacity="0.15"/>
<path d="M255.27 347.73L263.98 347.73C264.78 347.73 265.42 348.38 265.42 349.17L265.42 358.95C265.42 359.75 266.07 360.39 266.86 360.39L277.18 360.39C277.98 360.39 278.62 359.74 278.62 358.95L278.62 349.17C278.62 348.37 279.27 347.73 280.06 347.73L288.77 347.73C289.57 347.73 290.21 347.08 290.21 346.29L290.21 335.97C290.21 335.17 289.57 334.53 288.77 334.53L278.62 334.53L265.41 334.53L255.26 334.53C254.46 334.53 253.82 335.18 253.82 335.97L253.82 346.29C253.82 347.08 254.47 347.73 255.27 347.73Z" fill="white" fill-opacity="0.15"/>
<path d="M234.68 325.45L234.68 334.15C234.68 334.95 234.03 335.59 233.24 335.59L223.46 335.59C222.66 335.59 222.02 336.24 222.02 337.03L222.02 347.36C222.02 348.16 222.66 348.8 223.46 348.8L233.24 348.8C234.04 348.8 234.68 349.45 234.68 350.24L234.68 358.95C234.68 359.75 235.33 360.39 236.12 360.39L246.45 360.39C247.25 360.39 247.89 359.74 247.89 358.95L247.89 348.8L247.89 335.59L247.89 325.45C247.89 324.65 247.25 324.01 246.45 324.01L236.13 324.01C235.33 324 234.68 324.65 234.68 325.45Z" fill="white" fill-opacity="0.15"/>
<path d="M330.6 347.73L339.31 347.73C340.11 347.73 340.75 348.38 340.75 349.17L340.75 358.95C340.75 359.75 341.4 360.39 342.19 360.39L352.52 360.39C353.32 360.39 353.96 359.74 353.96 358.95L353.96 349.17C353.96 348.37 354.61 347.73 355.4 347.73L364.11 347.73C364.91 347.73 365.55 347.08 365.55 346.29L365.55 335.97C365.55 335.17 364.9 334.53 364.11 334.53L353.96 334.53L340.75 334.53L330.6 334.53C329.8 334.53 329.16 335.18 329.16 335.97L329.16 346.29C329.16 347.08 329.81 347.73 330.6 347.73Z" fill="white" fill-opacity="0.15"/>
<path d="M310.02 325.45L310.02 334.15C310.02 334.95 309.37 335.59 308.58 335.59L298.8 335.59C298 335.59 297.36 336.24 297.36 337.03L297.36 347.36C297.36 348.16 298.01 348.8 298.8 348.8L308.58 348.8C309.38 348.8 310.02 349.45 310.02 350.24L310.02 358.95C310.02 359.75 310.67 360.39 311.46 360.39L321.79 360.39C322.59 360.39 323.23 359.74 323.23 358.95L323.23 348.8L323.23 335.59L323.23 325.45C323.23 324.65 322.59 324.01 321.79 324.01L311.47 324.01C310.67 324 310.02 324.65 310.02 325.45Z" fill="white" fill-opacity="0.15"/>
</g>
<g clip-path="url(#clip13)">
<path d="M29.2498 431.73L37.9598 431.73C38.7598 431.73 39.3998 432.38 39.3998 433.17L39.3998 442.95C39.3998 443.75 40.0498 444.39 40.8398 444.39L51.1598 444.39C51.9598 444.39 52.5998 443.74 52.5998 442.95L52.5998 433.17C52.5998 432.37 53.2498 431.73 54.0398 431.73L62.7498 431.73C63.5498 431.73 64.1898 431.08 64.1898 430.29L64.1898 419.97C64.1898 419.17 63.5498 418.53 62.7498 418.53L52.5998 418.53L39.3898 418.53L29.2398 418.53C28.4398 418.53 27.7998 419.18 27.7998 419.97L27.7998 430.29C27.8098 431.08 28.4498 431.73 29.2498 431.73Z" fill="white" fill-opacity="0.15"/>
<path d="M8.6698 409.45L8.6698 418.15C8.6698 418.95 8.0198 419.59 7.2298 419.59L-2.5502 419.59C-3.3502 419.59 -3.99021 420.24 -3.99021 421.03L-3.9902 431.36C-3.9902 432.16 -3.3502 432.8 -2.5502 432.8L7.2298 432.8C8.0198 432.8 8.6698 433.45 8.6698 434.24L8.6698 442.95C8.6698 443.75 9.3198 444.39 10.1098 444.39L20.4298 444.39C21.2298 444.39 21.8698 443.74 21.8698 442.95L21.8698 432.8L21.8698 419.59L21.8698 409.45C21.8698 408.65 21.2298 408.01 20.4298 408.01L10.1098 408.01C9.3098 408 8.6698 408.65 8.6698 409.45Z" fill="white" fill-opacity="0.15"/>
<path d="M104.59 431.73L113.3 431.73C114.1 431.73 114.74 432.38 114.74 433.17L114.74 442.95C114.74 443.75 115.39 444.39 116.18 444.39L126.5 444.39C127.3 444.39 127.94 443.74 127.94 442.95L127.94 433.17C127.94 432.37 128.59 431.73 129.38 431.73L138.09 431.73C138.89 431.73 139.53 431.08 139.53 430.29L139.53 419.97C139.53 419.17 138.89 418.53 138.09 418.53L127.94 418.53L114.73 418.53L104.58 418.53C103.78 418.53 103.14 419.18 103.14 419.97L103.14 430.29C103.15 431.08 103.79 431.73 104.59 431.73Z" fill="white" fill-opacity="0.15"/>
<path d="M85.2198 414.7L85.2198 423.41C85.2198 424.21 84.5698 424.85 83.7798 424.85L73.9998 424.85C73.1998 424.85 72.5598 425.5 72.5598 426.29L72.5598 436.62C72.5598 437.42 73.1998 438.06 73.9998 438.06L83.7798 438.06C84.5698 438.06 85.2198 438.71 85.2198 439.5L85.2198 448.21C85.2198 449.01 85.8698 449.65 86.6598 449.65L96.9798 449.65C97.7798 449.65 98.4198 449 98.4198 448.21L98.4198 438.06L98.4198 424.85L98.4198 414.7C98.4198 413.9 97.7798 413.26 96.9798 413.26L86.6598 413.26C85.8598 413.26 85.2198 413.91 85.2198 414.7Z" fill="white" fill-opacity="0.15"/>
<path d="M179.93 431.73L188.64 431.73C189.44 431.73 190.08 432.38 190.08 433.17L190.08 442.95C190.08 443.75 190.73 444.39 191.52 444.39L201.84 444.39C202.64 444.39 203.28 443.74 203.28 442.95L203.28 433.17C203.28 432.37 203.93 431.73 204.72 431.73L213.43 431.73C214.23 431.73 214.87 431.08 214.87 430.29L214.87 419.97C214.87 419.17 214.23 418.53 213.43 418.53L203.28 418.53L190.07 418.53L179.92 418.53C179.12 418.53 178.48 419.18 178.48 419.97L178.48 430.29C178.49 431.08 179.13 431.73 179.93 431.73Z" fill="white" fill-opacity="0.15"/>
<path d="M159.34 409.45L159.34 418.15C159.34 418.95 158.69 419.59 157.9 419.59L148.12 419.59C147.32 419.59 146.68 420.24 146.68 421.03L146.68 431.36C146.68 432.16 147.33 432.8 148.12 432.8L157.9 432.8C158.7 432.8 159.34 433.45 159.34 434.24L159.34 442.95C159.34 443.75 159.99 444.39 160.78 444.39L171.1 444.39C171.9 444.39 172.54 443.74 172.54 442.95L172.54 432.8L172.54 419.59L172.54 409.45C172.54 408.65 171.89 408.01 171.1 408.01L160.78 408.01C159.99 408 159.34 408.65 159.34 409.45Z" fill="white" fill-opacity="0.15"/>
<path d="M255.27 431.73L263.98 431.73C264.78 431.73 265.42 432.38 265.42 433.17L265.42 442.95C265.42 443.75 266.07 444.39 266.86 444.39L277.18 444.39C277.98 444.39 278.62 443.74 278.62 442.95L278.62 433.17C278.62 432.37 279.27 431.73 280.06 431.73L288.77 431.73C289.57 431.73 290.21 431.08 290.21 430.29L290.21 419.97C290.21 419.17 289.57 418.53 288.77 418.53L278.62 418.53L265.41 418.53L255.26 418.53C254.46 418.53 253.82 419.18 253.82 419.97L253.82 430.29C253.82 431.08 254.47 431.73 255.27 431.73Z" fill="white" fill-opacity="0.15"/>
<path d="M234.68 409.45L234.68 418.15C234.68 418.95 234.03 419.59 233.24 419.59L223.46 419.59C222.66 419.59 222.02 420.24 222.02 421.03L222.02 431.36C222.02 432.16 222.66 432.8 223.46 432.8L233.24 432.8C234.04 432.8 234.68 433.45 234.68 434.24L234.68 442.95C234.68 443.75 235.33 444.39 236.12 444.39L246.45 444.39C247.25 444.39 247.89 443.74 247.89 442.95L247.89 432.8L247.89 419.59L247.89 409.45C247.89 408.65 247.25 408.01 246.45 408.01L236.13 408.01C235.33 408 234.68 408.65 234.68 409.45Z" fill="white" fill-opacity="0.15"/>
<path d="M330.6 431.73L339.31 431.73C340.11 431.73 340.75 432.38 340.75 433.17L340.75 442.95C340.75 443.75 341.4 444.39 342.19 444.39L352.52 444.39C353.32 444.39 353.96 443.74 353.96 442.95L353.96 433.17C353.96 432.37 354.61 431.73 355.4 431.73L364.11 431.73C364.91 431.73 365.55 431.08 365.55 430.29L365.55 419.97C365.55 419.17 364.9 418.53 364.11 418.53L353.96 418.53L340.75 418.53L330.6 418.53C329.8 418.53 329.16 419.18 329.16 419.97L329.16 430.29C329.16 431.08 329.81 431.73 330.6 431.73Z" fill="white" fill-opacity="0.15"/>
<path d="M310.02 409.45L310.02 418.15C310.02 418.95 309.37 419.59 308.58 419.59L298.8 419.59C298 419.59 297.36 420.24 297.36 421.03L297.36 431.36C297.36 432.16 298.01 432.8 298.8 432.8L308.58 432.8C309.38 432.8 310.02 433.45 310.02 434.24L310.02 442.95C310.02 443.75 310.67 444.39 311.46 444.39L321.79 444.39C322.59 444.39 323.23 443.74 323.23 442.95L323.23 432.8L323.23 419.59L323.23 409.45C323.23 408.65 322.59 408.01 321.79 408.01L311.47 408.01C310.67 408 310.02 408.65 310.02 409.45Z" fill="white" fill-opacity="0.15"/>
</g>
<g clip-path="url(#clip14)">
<path d="M29.2498 515.73L37.9598 515.73C38.7598 515.73 39.3998 516.38 39.3998 517.17L39.3998 526.95C39.3998 527.75 40.0498 528.39 40.8398 528.39L51.1598 528.39C51.9598 528.39 52.5998 527.74 52.5998 526.95L52.5998 517.17C52.5998 516.37 53.2498 515.73 54.0398 515.73L62.7498 515.73C63.5498 515.73 64.1898 515.08 64.1898 514.29L64.1898 503.97C64.1898 503.17 63.5498 502.53 62.7498 502.53L52.5998 502.53L39.3898 502.53L29.2398 502.53C28.4398 502.53 27.7998 503.18 27.7998 503.97L27.7998 514.29C27.8098 515.08 28.4498 515.73 29.2498 515.73Z" fill="white" fill-opacity="0.15"/>
<path d="M8.6698 493.45L8.6698 502.15C8.6698 502.95 8.0198 503.59 7.2298 503.59L-2.5502 503.59C-3.3502 503.59 -3.99021 504.24 -3.99021 505.03L-3.9902 515.36C-3.9902 516.16 -3.3502 516.8 -2.5502 516.8L7.2298 516.8C8.0198 516.8 8.6698 517.45 8.6698 518.24L8.6698 526.95C8.6698 527.75 9.3198 528.39 10.1098 528.39L20.4298 528.39C21.2298 528.39 21.8698 527.74 21.8698 526.95L21.8698 516.8L21.8698 503.59L21.8698 493.45C21.8698 492.65 21.2298 492.01 20.4298 492.01L10.1098 492.01C9.3098 492 8.6698 492.65 8.6698 493.45Z" fill="white" fill-opacity="0.15"/>
<path d="M104.59 515.73L113.3 515.73C114.1 515.73 114.74 516.38 114.74 517.17L114.74 526.95C114.74 527.75 115.39 528.39 116.18 528.39L126.5 528.39C127.3 528.39 127.94 527.74 127.94 526.95L127.94 517.17C127.94 516.37 128.59 515.73 129.38 515.73L138.09 515.73C138.89 515.73 139.53 515.08 139.53 514.29L139.53 503.97C139.53 503.17 138.89 502.53 138.09 502.53L127.94 502.53L114.73 502.53L104.58 502.53C103.78 502.53 103.14 503.18 103.14 503.97L103.14 514.29C103.15 515.08 103.79 515.73 104.59 515.73Z" fill="white" fill-opacity="0.15"/>
<path d="M85.2198 498.7L85.2198 507.41C85.2198 508.21 84.5698 508.85 83.7798 508.85L73.9998 508.85C73.1998 508.85 72.5598 509.5 72.5598 510.29L72.5598 520.62C72.5598 521.42 73.1998 522.06 73.9998 522.06L83.7798 522.06C84.5698 522.06 85.2198 522.71 85.2198 523.5L85.2198 532.21C85.2198 533.01 85.8698 533.65 86.6598 533.65L96.9798 533.65C97.7798 533.65 98.4198 533 98.4198 532.21L98.4198 522.06L98.4198 508.85L98.4198 498.7C98.4198 497.9 97.7798 497.26 96.9798 497.26L86.6598 497.26C85.8598 497.26 85.2198 497.91 85.2198 498.7Z" fill="white" fill-opacity="0.15"/>
<path d="M179.93 515.73L188.64 515.73C189.44 515.73 190.08 516.38 190.08 517.17L190.08 526.95C190.08 527.75 190.73 528.39 191.52 528.39L201.84 528.39C202.64 528.39 203.28 527.74 203.28 526.95L203.28 517.17C203.28 516.37 203.93 515.73 204.72 515.73L213.43 515.73C214.23 515.73 214.87 515.08 214.87 514.29L214.87 503.97C214.87 503.17 214.23 502.53 213.43 502.53L203.28 502.53L190.07 502.53L179.92 502.53C179.12 502.53 178.48 503.18 178.48 503.97L178.48 514.29C178.49 515.08 179.13 515.73 179.93 515.73Z" fill="white" fill-opacity="0.15"/>
<path d="M159.34 493.45L159.34 502.15C159.34 502.95 158.69 503.59 157.9 503.59L148.12 503.59C147.32 503.59 146.68 504.24 146.68 505.03L146.68 515.36C146.68 516.16 147.33 516.8 148.12 516.8L157.9 516.8C158.7 516.8 159.34 517.45 159.34 518.24L159.34 526.95C159.34 527.75 159.99 528.39 160.78 528.39L171.1 528.39C171.9 528.39 172.54 527.74 172.54 526.95L172.54 516.8L172.54 503.59L172.54 493.45C172.54 492.65 171.89 492.01 171.1 492.01L160.78 492.01C159.99 492 159.34 492.65 159.34 493.45Z" fill="white" fill-opacity="0.15"/>
<path d="M255.27 515.73L263.98 515.73C264.78 515.73 265.42 516.38 265.42 517.17L265.42 526.95C265.42 527.75 266.07 528.39 266.86 528.39L277.18 528.39C277.98 528.39 278.62 527.74 278.62 526.95L278.62 517.17C278.62 516.37 279.27 515.73 280.06 515.73L288.77 515.73C289.57 515.73 290.21 515.08 290.21 514.29L290.21 503.97C290.21 503.17 289.57 502.53 288.77 502.53L278.62 502.53L265.41 502.53L255.26 502.53C254.46 502.53 253.82 503.18 253.82 503.97L253.82 514.29C253.82 515.08 254.47 515.73 255.27 515.73Z" fill="white" fill-opacity="0.15"/>
<path d="M234.68 493.45L234.68 502.15C234.68 502.95 234.03 503.59 233.24 503.59L223.46 503.59C222.66 503.59 222.02 504.24 222.02 505.03L222.02 515.36C222.02 516.16 222.66 516.8 223.46 516.8L233.24 516.8C234.04 516.8 234.68 517.45 234.68 518.24L234.68 526.95C234.68 527.75 235.33 528.39 236.12 528.39L246.45 528.39C247.25 528.39 247.89 527.74 247.89 526.95L247.89 516.8L247.89 503.59L247.89 493.45C247.89 492.65 247.25 492.01 246.45 492.01L236.13 492.01C235.33 492 234.68 492.65 234.68 493.45Z" fill="white" fill-opacity="0.15"/>
<path d="M330.6 515.73L339.31 515.73C340.11 515.73 340.75 516.38 340.75 517.17L340.75 526.95C340.75 527.75 341.4 528.39 342.19 528.39L352.52 528.39C353.32 528.39 353.96 527.74 353.96 526.95L353.96 517.17C353.96 516.37 354.61 515.73 355.4 515.73L364.11 515.73C364.91 515.73 365.55 515.08 365.55 514.29L365.55 503.97C365.55 503.17 364.9 502.53 364.11 502.53L353.96 502.53L340.75 502.53L330.6 502.53C329.8 502.53 329.16 503.18 329.16 503.97L329.16 514.29C329.16 515.08 329.81 515.73 330.6 515.73Z" fill="white" fill-opacity="0.15"/>
<path d="M310.02 493.45L310.02 502.15C310.02 502.95 309.37 503.59 308.58 503.59L298.8 503.59C298 503.59 297.36 504.24 297.36 505.03L297.36 515.36C297.36 516.16 298.01 516.8 298.8 516.8L308.58 516.8C309.38 516.8 310.02 517.45 310.02 518.24L310.02 526.95C310.02 527.75 310.67 528.39 311.46 528.39L321.79 528.39C322.59 528.39 323.23 527.74 323.23 526.95L323.23 516.8L323.23 503.59L323.23 493.45C323.23 492.65 322.59 492.01 321.79 492.01L311.47 492.01C310.67 492 310.02 492.65 310.02 493.45Z" fill="white" fill-opacity="0.15"/>
</g>
<path d="M29.2499 599.731L37.9599 599.731C38.7599 599.731 39.3999 600.381 39.3999 601.171L39.3999 610.951C39.3999 611.751 40.0499 612.391 40.8399 612.391L51.1599 612.391C51.9599 612.391 52.5999 611.741 52.5999 610.951L52.5999 601.171C52.5999 600.371 53.2499 599.731 54.0399 599.731L62.7499 599.731C63.5499 599.731 64.1899 599.081 64.1899 598.291L64.1899 587.971C64.1899 587.171 63.5499 586.531 62.7499 586.531L52.5999 586.531L39.3899 586.531L29.2399 586.531C28.4399 586.531 27.7999 587.181 27.7999 587.971L27.7999 598.291C27.8099 599.081 28.4499 599.731 29.2499 599.731Z" fill="white" fill-opacity="0.15"/>
<path d="M8.66961 577.451L8.66961 586.151C8.66961 586.951 8.01961 587.591 7.22961 587.591L-2.55039 587.591C-3.35039 587.591 -3.99039 588.241 -3.99039 589.031L-3.99039 599.361C-3.99039 600.161 -3.35038 600.801 -2.55039 600.801L7.22961 600.801C8.01961 600.801 8.66962 601.451 8.66962 602.241L8.66962 610.951C8.66962 611.751 9.31962 612.391 10.1096 612.391L20.4296 612.391C21.2296 612.391 21.8696 611.741 21.8696 610.951L21.8696 600.801L21.8696 587.591L21.8696 577.451C21.8696 576.651 21.2296 576.011 20.4296 576.011L10.1096 576.011C9.30962 576.001 8.66961 576.651 8.66961 577.451Z" fill="white" fill-opacity="0.15"/>
<path d="M104.59 599.731L113.3 599.731C114.1 599.731 114.74 600.381 114.74 601.171L114.74 610.951C114.74 611.751 115.39 612.391 116.18 612.391L126.5 612.391C127.3 612.391 127.94 611.741 127.94 610.951L127.94 601.171C127.94 600.371 128.59 599.731 129.38 599.731L138.09 599.731C138.89 599.731 139.53 599.081 139.53 598.291L139.53 587.971C139.53 587.171 138.89 586.531 138.09 586.531L127.94 586.531L114.73 586.531L104.58 586.531C103.78 586.531 103.14 587.181 103.14 587.971L103.14 598.291C103.15 599.081 103.79 599.731 104.59 599.731Z" fill="white" fill-opacity="0.15"/>
<path d="M85.2199 582.7L85.2199 591.41C85.2199 592.21 84.5699 592.85 83.7799 592.85L73.9999 592.85C73.1999 592.85 72.5599 593.5 72.5599 594.29L72.5599 604.62C72.5599 605.42 73.1999 606.06 73.9999 606.06L83.7799 606.06C84.5699 606.06 85.2199 606.71 85.2199 607.5L85.2199 616.21C85.2199 617.01 85.8699 617.65 86.6599 617.65L96.9799 617.65C97.7799 617.65 98.4199 617 98.4199 616.21L98.4199 606.06L98.4199 592.85L98.4199 582.7C98.4199 581.9 97.7799 581.26 96.9799 581.26L86.6599 581.26C85.8599 581.26 85.2199 581.91 85.2199 582.7Z" fill="#F7A334"/>
<path d="M179.93 599.731L188.64 599.731C189.44 599.731 190.08 600.381 190.08 601.171L190.08 610.951C190.08 611.751 190.73 612.391 191.52 612.391L201.84 612.391C202.64 612.391 203.28 611.741 203.28 610.951L203.28 601.171C203.28 600.371 203.93 599.731 204.72 599.731L213.43 599.731C214.23 599.731 214.87 599.081 214.87 598.291L214.87 587.971C214.87 587.171 214.23 586.531 213.43 586.531L203.28 586.531L190.07 586.531L179.92 586.531C179.12 586.531 178.48 587.181 178.48 587.971L178.48 598.291C178.49 599.081 179.13 599.731 179.93 599.731Z" fill="white" fill-opacity="0.15"/>
<path d="M159.34 577.451L159.34 586.151C159.34 586.951 158.69 587.591 157.9 587.591L148.12 587.591C147.32 587.591 146.68 588.241 146.68 589.031L146.68 599.361C146.68 600.161 147.33 600.801 148.12 600.801L157.9 600.801C158.7 600.801 159.34 601.451 159.34 602.241L159.34 610.951C159.34 611.751 159.99 612.391 160.78 612.391L171.1 612.391C171.9 612.391 172.54 611.741 172.54 610.951L172.54 600.801L172.54 587.591L172.54 577.451C172.54 576.651 171.89 576.011 171.1 576.011L160.78 576.011C159.99 576.001 159.34 576.651 159.34 577.451Z" fill="white" fill-opacity="0.15"/>
<path d="M255.27 599.731L263.98 599.731C264.78 599.731 265.42 600.381 265.42 601.171L265.42 610.951C265.42 611.751 266.07 612.391 266.86 612.391L277.18 612.391C277.98 612.391 278.62 611.741 278.62 610.951L278.62 601.171C278.62 600.371 279.27 599.731 280.06 599.731L288.77 599.731C289.57 599.731 290.21 599.081 290.21 598.291L290.21 587.971C290.21 587.171 289.57 586.531 288.77 586.531L278.62 586.531L265.41 586.531L255.26 586.531C254.46 586.531 253.82 587.181 253.82 587.971L253.82 598.291C253.82 599.081 254.47 599.731 255.27 599.731Z" fill="white" fill-opacity="0.15"/>
<path d="M234.68 577.451L234.68 586.151C234.68 586.951 234.03 587.591 233.24 587.591L223.46 587.591C222.66 587.591 222.02 588.241 222.02 589.031L222.02 599.361C222.02 600.161 222.66 600.801 223.46 600.801L233.24 600.801C234.04 600.801 234.68 601.451 234.68 602.241L234.68 610.951C234.68 611.751 235.33 612.391 236.12 612.391L246.45 612.391C247.25 612.391 247.89 611.741 247.89 610.951L247.89 600.801L247.89 587.591L247.89 577.451C247.89 576.651 247.25 576.011 246.45 576.011L236.13 576.011C235.33 576.001 234.68 576.651 234.68 577.451Z" fill="white" fill-opacity="0.15"/>
<path d="M330.6 599.731L339.31 599.731C340.11 599.731 340.75 600.381 340.75 601.171L340.75 610.951C340.75 611.751 341.4 612.391 342.19 612.391L352.52 612.391C353.32 612.391 353.96 611.741 353.96 610.951L353.96 601.171C353.96 600.371 354.61 599.731 355.4 599.731L364.11 599.731C364.91 599.731 365.55 599.081 365.55 598.291L365.55 587.971C365.55 587.171 364.9 586.531 364.11 586.531L353.96 586.531L340.75 586.531L330.6 586.531C329.8 586.531 329.16 587.181 329.16 587.971L329.16 598.291C329.16 599.081 329.81 599.731 330.6 599.731Z" fill="white" fill-opacity="0.15"/>
<path d="M310.02 577.451L310.02 586.151C310.02 586.951 309.37 587.591 308.58 587.591L298.8 587.591C298 587.591 297.36 588.241 297.36 589.031L297.36 599.361C297.36 600.161 298.01 600.801 298.8 600.801L308.58 600.801C309.38 600.801 310.02 601.451 310.02 602.241L310.02 610.951C310.02 611.751 310.67 612.391 311.46 612.391L321.79 612.391C322.59 612.391 323.23 611.741 323.23 610.951L323.23 600.801L323.23 587.591L323.23 577.451C323.23 576.651 322.59 576.011 321.79 576.011L311.47 576.011C310.67 576.001 310.02 576.651 310.02 577.451Z" fill="white" fill-opacity="0.15"/>
<g filter="url(#filter0_b)">
<path d="M0 -1H360V641H0V-1Z" fill="black" fill-opacity="0.2"/>
</g>
</g>
<defs>
<filter id="filter0_b" x="-2" y="-3" width="364" height="646" filterUnits="userSpaceOnUse" color-interpolation-filters="sRGB">
<feFlood flood-opacity="0" result="BackgroundImageFix"/>
<feGaussianBlur in="BackgroundImage" stdDeviation="1"/>
<feComposite in2="SourceAlpha" operator="in" result="effect1_backgroundBlur"/>
<feBlend mode="normal" in="SourceGraphic" in2="effect1_backgroundBlur" result="shape"/>
</filter>
<clipPath id="clip0">
<rect width="360" height="640" fill="white"/>
</clipPath>
<clipPath id="clip1">
<rect width="369.55" height="41.65" fill="white" transform="translate(-4 114)"/>
</clipPath>
<clipPath id="clip2">
<rect width="369.55" height="41.65" fill="white" transform="translate(-4 198)"/>
</clipPath>
<clipPath id="clip3">
<rect width="369.55" height="41.65" fill="white" transform="translate(-4 282)"/>
</clipPath>
<clipPath id="clip4">
<rect width="369.55" height="41.65" fill="white" transform="translate(-4 366)"/>
</clipPath>
<clipPath id="clip5">
<rect width="369.55" height="41.65" fill="white" transform="translate(-4 450)"/>
</clipPath>
<clipPath id="clip6">
<rect width="369.55" height="41.65" fill="white" transform="translate(-4 534)"/>
</clipPath>
<clipPath id="clip7">
<rect width="369.55" height="41.65" fill="white" transform="translate(-4 618)"/>
</clipPath>
<clipPath id="clip8">
<rect width="366" height="42" fill="white" transform="translate(362 114) rotate(180)"/>
</clipPath>
<clipPath id="clip9">
<rect width="366" height="42" fill="white" transform="translate(362 30) rotate(180)"/>
</clipPath>
<clipPath id="clip10">
<rect width="369.55" height="41.65" fill="white" transform="translate(365.55 197.65) rotate(180)"/>
</clipPath>
<clipPath id="clip11">
<rect width="369.55" height="41.65" fill="white" transform="translate(365.55 281.65) rotate(180)"/>
</clipPath>
<clipPath id="clip12">
<rect width="369.55" height="41.65" fill="white" transform="translate(365.55 365.65) rotate(180)"/>
</clipPath>
<clipPath id="clip13">
<rect width="369.55" height="41.65" fill="white" transform="translate(365.55 449.65) rotate(180)"/>
</clipPath>
<clipPath id="clip14">
<rect width="369.55" height="41.65" fill="white" transform="translate(365.55 533.65) rotate(180)"/>
</clipPath>
</defs>
</svg>
