<svg width="360" height="640" viewBox="0 0 360 640" fill="none" xmlns="http://www.w3.org/2000/svg">
<g clip-path="url(#clip0_1771:10445)">
<rect width="360" height="640" fill="white"/>
<rect width="360" height="640" fill="black"/>
<path d="M39.814 -14.7975L52.4849 -20.3938C53.4986 -20.8373 53.9632 -22.0411 53.5197 -23.0547L47.9234 -35.7256C47.4799 -36.7393 46.2973 -37.2039 45.2625 -36.7604L32.5916 -31.1641C31.578 -30.7206 30.3953 -31.1852 29.9307 -32.1989L24.3344 -44.8909C23.891 -45.9046 22.7083 -46.3691 21.6735 -45.9257L9.00266 -40.3294C7.98899 -39.8859 7.52441 -38.7033 7.96789 -37.6685L14.3667 -23.1392L21.589 -6.77265L27.9878 7.75663C28.4313 8.7703 29.614 9.2349 30.6487 8.79142L43.3196 3.19511C44.3333 2.75163 44.7979 1.56902 44.3544 0.53423L38.7581 -12.1578C38.3357 -13.1503 38.8003 -14.3541 39.814 -14.7975Z" stroke="white" stroke-opacity="0.5" stroke-width="0.5" stroke-miterlimit="10"/>
<path d="M143.058 -9.726L148.654 2.94487C149.098 3.95854 150.302 4.42314 151.315 3.97966L164.007 -1.61664C165.021 -2.06012 165.486 -3.24274 165.042 -4.27753L159.446 -16.9484C159.002 -17.9621 159.467 -19.1447 160.481 -19.6093L173.152 -25.2056C174.165 -25.6491 174.63 -26.8528 174.186 -27.8665L168.59 -40.5374C168.147 -41.551 166.964 -42.0156 165.95 -41.5722L151.421 -35.1734L135.054 -27.951L120.525 -21.5522C119.511 -21.1087 119.047 -19.9049 119.49 -18.8913L125.087 -6.2204C125.53 -5.20673 126.734 -4.74213 127.748 -5.18561L140.418 -10.7819C141.432 -11.2043 142.615 -10.7397 143.058 -9.726Z" stroke="white" stroke-opacity="0.5" stroke-width="0.5" stroke-miterlimit="10"/>
<path d="M-10.5534 -14.3079L-16.1497 -26.9788C-16.5932 -27.9924 -17.7969 -28.457 -18.8105 -28.0136L-31.4814 -22.4173C-32.4951 -21.9738 -32.9597 -20.7912 -32.5163 -19.7564L-26.92 -7.08549C-26.4765 -6.07182 -26.9199 -4.8892 -27.9547 -4.4246L-40.6468 1.1717C-41.6604 1.61518 -42.125 2.7978 -41.6815 3.83258L-36.0852 16.5246C-35.6417 17.5383 -34.4591 18.0029 -33.4243 17.5594L-18.895 11.1606L-2.52849 3.93817L12.0008 -2.46062C13.0145 -2.9041 13.479 -4.08671 13.0356 -5.1215L7.43928 -17.7924C6.99579 -18.806 5.79204 -19.2707 4.77837 -18.8272L-7.91365 -13.2309C-8.92732 -12.8296 -10.1099 -13.2942 -10.5534 -14.3079Z" stroke="white" stroke-opacity="0.5" stroke-width="0.5" stroke-miterlimit="10"/>
<path d="M40.299 35.5924L45.8953 48.2632C46.3388 49.2769 47.5215 49.7415 48.5562 49.298L61.2482 43.7017C62.2619 43.2582 62.7265 42.0756 62.283 41.0408L56.6867 28.37C56.2433 27.3563 56.7078 26.1737 57.7215 25.7091L70.3924 20.1128C71.4061 19.6693 71.8706 18.4867 71.4272 17.4519L65.8309 4.781C65.3874 3.76733 64.2048 3.30273 63.1911 3.74621L48.6618 10.145L32.2953 17.3674L17.7449 23.7873C16.7312 24.2308 16.2666 25.4345 16.7101 26.4482L22.3064 39.1191C22.7499 40.1328 23.9536 40.5974 24.9673 40.1539L37.6381 34.5576C38.6518 34.1141 39.8556 34.5787 40.299 35.5924Z" stroke="white" stroke-opacity="0.5" stroke-width="0.5" stroke-miterlimit="10"/>
<path d="M-10.0892 36.0578L-22.76 41.6541C-23.7737 42.0976 -24.2383 43.3013 -23.7948 44.315L-18.1985 56.9859C-17.755 57.9996 -16.5724 58.4642 -15.5376 58.0207L-2.86672 52.4244C-1.85305 51.9809 -0.670418 52.4455 -0.205819 53.4592L5.39047 66.1512C5.83395 67.1648 7.01659 67.6294 8.05138 67.186L20.7223 61.5897C21.7359 61.1462 22.2005 59.9635 21.757 58.9288L15.3582 44.3995L8.13581 28.0329L1.73701 13.5037C1.29353 12.49 0.110961 12.0254 -0.923827 12.4689L-13.6158 18.0652C-14.6295 18.5087 -15.0941 19.6913 -14.6506 20.7261L-9.05432 33.4181C-8.61084 34.4317 -9.07548 35.6143 -10.0892 36.0578Z" stroke="white" stroke-opacity="0.5" stroke-width="0.5" stroke-miterlimit="10"/>
<path d="M92.6716 -9.26054L80.0007 -3.66423C78.987 -3.22075 78.5225 -2.03814 78.9659 -1.00335L84.5622 11.6675C85.0057 12.6812 86.1883 13.1458 87.2231 12.7023L99.894 7.10601C100.908 6.66253 102.09 7.12713 102.555 8.1408L108.151 20.8328C108.595 21.8465 109.777 22.3111 110.812 21.8676L123.483 16.2713C124.497 15.8278 124.961 14.6452 124.518 13.6104L118.119 -0.918878L110.897 -17.2854L104.498 -31.8147C104.054 -32.8284 102.872 -33.293 101.837 -32.8495L89.166 -27.2532C88.1523 -26.8097 87.6877 -25.6271 88.1312 -24.5923L93.7275 -11.9214C94.1499 -10.8866 93.6853 -9.70402 92.6716 -9.26054Z" stroke="white" stroke-opacity="0.5" stroke-width="0.5" stroke-miterlimit="10"/>
<path d="M-14.2485 182.405L-8.65215 195.076C-8.20867 196.089 -7.00498 196.554 -5.99131 196.111L6.70071 190.514C7.71438 190.071 8.17896 188.888 7.73548 187.853L2.13918 175.182C1.6957 174.169 2.16028 172.986 3.17395 172.522L15.8448 166.925C16.8585 166.482 17.3231 165.278 16.8797 164.264L11.2834 151.594C10.8399 150.58 9.65728 150.115 8.6436 150.559L-5.88568 156.957L-22.2522 164.18L-36.7815 170.579C-37.7952 171.022 -38.2598 172.226 -37.8163 173.24L-32.22 185.91C-31.7765 186.924 -30.5939 187.389 -29.5592 186.945L-16.8883 181.349C-15.8957 180.927 -14.692 181.37 -14.2485 182.405Z" stroke="white" stroke-opacity="0.5" stroke-width="0.5" stroke-miterlimit="10"/>
<path d="M34.7669 88.4519L29.1707 75.781C28.7272 74.7673 27.5234 74.3027 26.5098 74.7462L13.8177 80.3425C12.8041 80.786 12.3395 81.9686 12.783 82.9823L18.3793 95.6532C18.8227 96.6668 18.3582 97.8495 17.3445 98.3141L4.67361 103.91C3.65994 104.354 3.1953 105.536 3.63878 106.571L9.23514 119.242C9.67862 120.256 10.8612 120.72 11.8749 120.277L26.4041 113.878L42.7707 106.656L57.3 100.257C58.3136 99.8134 58.7783 98.6308 58.3348 97.596L52.7384 84.9251C52.295 83.9115 51.0913 83.4469 50.0776 83.8904L37.4067 89.4867C36.393 89.9302 35.2104 89.4656 34.7669 88.4519Z" stroke="white" stroke-opacity="0.5" stroke-width="0.5" stroke-miterlimit="10"/>
<path d="M85.1334 87.9642L97.8043 82.3679C98.818 81.9244 99.2825 80.7207 98.8391 79.707L93.2428 67.0361C92.7993 66.0224 91.6166 65.5578 90.5819 66.0013L77.911 71.5976C76.8973 72.0411 75.7147 71.5765 75.2501 70.5628L69.6538 57.8708C69.2103 56.8572 68.0277 56.3926 66.9929 56.8361L54.322 62.4324C53.3083 62.8758 52.8437 64.0584 53.2872 65.0932L59.686 79.6225L66.9085 95.9891L73.3072 110.518C73.7507 111.532 74.9333 111.997 75.9681 111.553L88.639 105.957C89.6526 105.513 90.1173 104.331 89.6738 103.296L84.0775 90.6039C83.6763 89.6114 84.1197 88.4288 85.1334 87.9642Z" stroke="white" stroke-opacity="0.5" stroke-width="0.5" stroke-miterlimit="10"/>
<path d="M85.6183 138.354L91.2146 151.025C91.6581 152.039 92.8619 152.503 93.8755 152.06L106.568 146.463C107.581 146.02 108.046 144.837 107.602 143.803L102.006 131.132C101.563 130.118 102.027 128.935 103.041 128.471L115.712 122.874C116.725 122.431 117.19 121.227 116.746 120.214L111.15 107.543C110.707 106.529 109.524 106.064 108.489 106.508L93.96 112.907L77.5935 120.129L63.0642 126.528C62.0505 126.971 61.5859 128.175 62.0294 129.189L67.6257 141.86C68.0692 142.873 69.2518 143.338 70.2866 142.894L82.9574 137.298C83.9711 136.876 85.1749 137.34 85.6183 138.354Z" stroke="white" stroke-opacity="0.5" stroke-width="0.5" stroke-miterlimit="10"/>
<path d="M35.2302 138.818L22.5594 144.414C21.5457 144.858 21.081 146.04 21.5245 147.075L27.1209 159.767C27.5644 160.781 28.7469 161.245 29.7817 160.802L42.4526 155.206C43.4663 154.762 44.6489 155.227 45.1135 156.24L50.7098 168.932C51.1533 169.946 52.3359 170.411 53.3707 169.967L66.0416 164.371C67.0553 163.927 67.5198 162.745 67.0764 161.71L60.6776 147.181L53.4552 130.814L47.0563 116.285C46.6129 115.271 45.4303 114.807 44.3955 115.25L31.7246 120.846C30.7109 121.29 30.2463 122.473 30.6898 123.507L36.2861 136.178C36.7085 137.192 36.2439 138.374 35.2302 138.818Z" stroke="white" stroke-opacity="0.5" stroke-width="0.5" stroke-miterlimit="10"/>
<path d="M137.528 43.1316L131.931 30.4607C131.488 29.447 130.305 28.9824 129.27 29.4259L116.578 35.0222C115.565 35.4657 115.1 36.6483 115.544 37.6831L121.14 50.354C121.583 51.3676 121.119 52.5502 120.105 53.0148L107.434 58.6112C106.421 59.0546 105.956 60.2584 106.4 61.272L111.996 73.9429C112.439 74.9566 113.622 75.4212 114.636 74.9777L129.165 68.5789L145.531 61.3565L160.061 54.9577C161.074 54.5142 161.539 53.3105 161.095 52.2968L155.499 39.626C155.056 38.6123 153.852 38.1477 152.838 38.5912L140.167 44.1875C139.154 44.6098 137.971 44.1452 137.528 43.1316Z" stroke="white" stroke-opacity="0.5" stroke-width="0.5" stroke-miterlimit="10"/>
<path d="M187.916 42.6458L200.586 37.0495C201.6 36.606 202.065 35.4234 201.621 34.3886L196.025 21.6966C195.581 20.683 194.399 20.2184 193.364 20.6618L180.693 26.2581C179.68 26.7016 178.497 26.237 178.032 25.2234L172.436 12.5525C171.993 11.5388 170.81 11.0742 169.775 11.5177L157.104 17.114C156.091 17.5575 155.626 18.7401 156.069 19.7749L162.468 34.3042L169.691 50.6707L176.089 65.2C176.533 66.2137 177.716 66.6783 178.75 66.2348L191.442 60.6385C192.456 60.195 192.921 58.9913 192.477 57.9776L186.881 45.3067C186.437 44.293 186.881 43.1104 187.916 42.6458Z" stroke="white" stroke-opacity="0.5" stroke-width="0.5" stroke-miterlimit="10"/>
<path d="M188.379 93.0357L193.975 105.707C194.419 106.72 195.623 107.185 196.636 106.741L209.307 101.145C210.321 100.702 210.785 99.519 210.342 98.4842L204.746 85.8133C204.302 84.7996 204.767 83.617 205.78 83.1524L218.472 77.5561C219.486 77.1126 219.951 75.9089 219.507 74.8952L213.911 62.2244C213.467 61.2107 212.285 60.7461 211.25 61.1896L196.721 67.5884L180.354 74.8108L165.825 81.2096C164.811 81.653 164.347 82.8568 164.79 83.8704L170.387 96.5413C170.83 97.555 172.013 98.0196 173.047 97.5761L185.718 91.9798C186.753 91.5574 187.936 92.022 188.379 93.0357Z" stroke="white" stroke-opacity="0.5" stroke-width="0.5" stroke-miterlimit="10"/>
<path d="M137.991 93.4992L125.32 99.0955C124.306 99.539 123.842 100.722 124.285 101.756L129.882 114.448C130.325 115.462 131.508 115.927 132.542 115.483L145.213 109.887C146.227 109.443 147.41 109.908 147.874 110.922L153.471 123.593C153.914 124.606 155.097 125.071 156.131 124.627L168.802 119.031C169.816 118.588 170.281 117.405 169.837 116.37L163.438 101.841L156.216 85.4743L149.817 70.9451C149.374 69.9314 148.191 69.4668 147.156 69.9103L134.485 75.5066C133.472 75.9501 133.007 77.1538 133.451 78.1675L139.047 90.8383C139.469 91.8731 139.005 93.0558 137.991 93.4992Z" stroke="white" stroke-opacity="0.5" stroke-width="0.5" stroke-miterlimit="10"/>
<path d="M237.393 -0.921172L231.797 -13.5921C231.353 -14.6057 230.17 -15.0703 229.136 -14.6268L216.444 -9.03054C215.43 -8.58705 214.965 -7.40443 215.409 -6.36965L221.005 6.30123C221.449 7.31491 220.984 8.49752 219.97 8.96212L207.3 14.5584C206.286 15.0019 205.821 16.2056 206.265 17.2193L211.861 29.8902C212.305 30.9039 213.487 31.3685 214.501 30.925L229.03 24.5262L245.397 17.3038L259.926 10.905C260.94 10.4615 261.404 9.25777 260.961 8.2441L255.364 -4.42678C254.921 -5.44045 253.717 -5.90505 252.704 -5.46157L240.033 0.134735C239.019 0.557098 237.836 0.092499 237.393 -0.921172Z" stroke="white" stroke-opacity="0.5" stroke-width="0.5" stroke-miterlimit="10"/>
<path d="M287.782 -1.38542L300.453 -6.98173C301.466 -7.42521 301.931 -8.60783 301.487 -9.64262L295.891 -22.3346C295.448 -23.3483 294.265 -23.8129 293.23 -23.3694L280.559 -17.7731C279.546 -17.3296 278.363 -17.7942 277.899 -18.8079L272.302 -31.4788C271.859 -32.4924 270.676 -32.957 269.641 -32.5136L256.97 -26.9172C255.957 -26.4738 255.492 -25.2912 255.936 -24.2564L262.334 -9.72709L269.557 6.63946L275.956 21.1687C276.399 22.1824 277.582 22.647 278.617 22.2035L291.309 16.6072C292.322 16.1637 292.787 14.96 292.343 13.9463L286.747 1.27546C286.304 0.240667 286.768 -0.941943 287.782 -1.38542Z" stroke="white" stroke-opacity="0.5" stroke-width="0.5" stroke-miterlimit="10"/>
<path d="M288.246 48.981L293.843 61.6519C294.286 62.6656 295.49 63.1302 296.504 62.6867L309.174 57.0904C310.188 56.6469 310.653 55.4643 310.209 54.4295L304.613 41.7586C304.169 40.745 304.613 39.5623 305.648 39.0977L318.34 33.5014C319.353 33.058 319.818 31.8542 319.374 30.8405L313.778 18.1697C313.335 17.156 312.152 16.6914 311.117 17.1349L296.588 23.5337L280.221 30.7561L265.692 37.1549C264.678 37.5984 264.214 38.8021 264.657 39.8157L270.254 52.4866C270.697 53.5003 271.901 53.9649 272.915 53.5214L285.607 47.9251C286.62 47.5028 287.803 47.9674 288.246 48.981Z" stroke="white" stroke-opacity="0.5" stroke-width="0.5" stroke-miterlimit="10"/>
<path d="M237.859 49.468L225.188 55.0643C224.175 55.5078 223.71 56.6904 224.153 57.7252L229.75 70.4172C230.193 71.4308 231.376 71.8954 232.411 71.452L245.082 65.8556C246.095 65.4122 247.278 65.8768 247.742 66.8904L253.339 79.5613C253.782 80.575 254.965 81.0396 256 80.5961L268.67 74.9998C269.684 74.5563 270.149 73.3737 269.705 72.3389L263.306 57.8096L256.084 41.4431L249.685 26.9138C249.242 25.9001 248.059 25.4355 247.024 25.879L234.353 31.4753C233.34 31.9188 232.875 33.1014 233.319 34.1362L238.915 46.8071C239.337 47.8208 238.873 49.0245 237.859 49.468Z" stroke="white" stroke-opacity="0.5" stroke-width="0.5" stroke-miterlimit="10"/>
<path d="M340.621 4.14767L327.95 9.74397C326.936 10.1874 326.472 11.3701 326.915 12.4049L332.511 25.0969C332.955 26.1105 334.138 26.5751 335.172 26.1316L347.843 20.5353C348.857 20.0918 350.039 20.5564 350.504 21.5701L356.1 34.241C356.544 35.2547 357.726 35.7193 358.761 35.2758L371.453 29.6795C372.467 29.236 372.932 28.0534 372.488 27.0186L366.089 12.4893L358.867 -3.87722L352.468 -18.4065C352.025 -19.4202 350.842 -19.8848 349.807 -19.4413L337.136 -13.845C336.123 -13.4015 335.658 -12.1978 336.102 -11.1841L341.698 1.48678C342.099 2.50045 341.656 3.70419 340.621 4.14767Z" stroke="white" stroke-opacity="0.5" stroke-width="0.5" stroke-miterlimit="10"/>
<path d="M-20.5212 229.415L-26.1175 216.744C-26.561 215.73 -27.7435 215.266 -28.7783 215.709L-41.4703 221.305C-42.484 221.749 -42.9486 222.931 -42.5051 223.966L-36.9088 236.637C-36.4653 237.651 -36.93 238.833 -37.9436 239.298L-50.6145 244.894C-51.6282 245.338 -52.0928 246.52 -51.6493 247.555L-46.053 260.226C-45.6095 261.24 -44.4269 261.704 -43.4132 261.261L-28.8839 254.862L-12.5174 247.64L2.01189 241.241C3.02556 240.797 3.49014 239.594 3.04666 238.58L-2.54964 225.909C-2.99312 224.895 -4.19687 224.431 -5.21054 224.874L-17.8814 230.471C-18.8951 230.893 -20.0777 230.428 -20.5212 229.415Z" stroke="white" stroke-opacity="0.5" stroke-width="0.5" stroke-miterlimit="10"/>
<path d="M29.8443 228.951L42.5152 223.355C43.5288 222.911 43.9935 221.728 43.55 220.694L37.9536 208.023C37.5102 207.009 36.3276 206.545 35.2928 206.988L22.6219 212.584C21.6082 213.028 20.4256 212.563 19.961 211.55L14.3647 198.879C13.9212 197.865 12.7386 197.4 11.7038 197.844L-0.967066 203.44C-1.98074 203.884 -2.44531 205.066 -2.00183 206.101L4.39696 220.63L11.6193 236.997L18.0181 251.526C18.4616 252.54 19.6442 253.004 20.679 252.561L33.371 246.965C34.3847 246.521 34.8493 245.339 34.4058 244.304L28.8095 231.612C28.366 230.577 28.8306 229.394 29.8443 228.951Z" stroke="white" stroke-opacity="0.5" stroke-width="0.5" stroke-miterlimit="10"/>
<path d="M30.3323 279.315L35.9285 291.986C36.372 293 37.5758 293.465 38.5894 293.021L51.2603 287.425C52.274 286.981 52.7386 285.799 52.2951 284.785L46.6988 272.114C46.2553 271.1 46.7199 269.918 47.7336 269.453L60.4256 263.857C61.4393 263.413 61.9038 262.231 61.4604 261.196L55.8641 248.525C55.4206 247.511 54.238 247.047 53.2032 247.49L38.6739 253.889L22.3074 261.112L7.7781 267.51C6.76443 267.954 6.29979 269.136 6.74327 270.171L12.3396 282.842C12.7831 283.856 13.9868 284.32 15.0005 283.877L27.6713 278.281C28.685 277.837 29.8677 278.302 30.3323 279.315Z" stroke="white" stroke-opacity="0.5" stroke-width="0.5" stroke-miterlimit="10"/>
<path d="M-20.055 279.804L-32.7259 285.4C-33.7395 285.844 -34.2041 287.047 -33.7606 288.061L-28.1643 300.732C-27.7208 301.746 -26.5382 302.21 -25.5034 301.767L-12.8325 296.17C-11.8189 295.727 -10.6362 296.192 -10.1716 297.205L-4.57535 309.897C-4.13187 310.911 -2.94923 311.376 -1.91444 310.932L10.7564 305.336C11.7701 304.892 12.2347 303.71 11.7912 302.675L5.39241 288.146L-1.83002 271.779L-8.22881 257.25C-8.67229 256.236 -9.85486 255.771 -10.8896 256.215L-23.5605 261.811C-24.5742 262.255 -25.0388 263.437 -24.5954 264.472L-18.9991 277.164C-18.5767 278.157 -19.0413 279.36 -20.055 279.804Z" stroke="white" stroke-opacity="0.5" stroke-width="0.5" stroke-miterlimit="10"/>
<path d="M79.345 185.382L73.7487 172.711C73.3053 171.697 72.1226 171.232 71.0878 171.676L58.3959 177.272C57.3822 177.716 56.9176 178.898 57.361 179.933L62.9574 192.604C63.4009 193.618 62.9362 194.8 61.9226 195.265L49.2517 200.861C48.238 201.305 47.7734 202.508 48.2169 203.522L53.8132 216.193C54.2567 217.207 55.4393 217.671 56.453 217.228L70.9823 210.829L87.3488 203.607L101.878 197.208C102.892 196.764 103.356 195.582 102.913 194.547L97.3166 181.876C96.8731 180.862 95.6693 180.398 94.6557 180.841L81.9848 186.437C80.9711 186.86 79.7885 186.395 79.345 185.382Z" stroke="white" stroke-opacity="0.5" stroke-width="0.5" stroke-miterlimit="10"/>
<path d="M129.713 184.9L142.384 179.303C143.398 178.86 143.863 177.677 143.419 176.643L137.823 163.972C137.379 162.958 136.197 162.493 135.162 162.937L122.491 168.533C121.477 168.977 120.295 168.512 119.83 167.498L114.234 154.806C113.79 153.793 112.608 153.328 111.573 153.772L98.9021 159.368C97.8884 159.811 97.4238 160.994 97.8673 162.029L104.266 176.558L111.488 192.925L117.887 207.454C118.331 208.468 119.513 208.932 120.548 208.489L133.24 202.892C134.254 202.449 134.718 201.266 134.275 200.231L128.679 187.539C128.235 186.547 128.7 185.343 129.713 184.9Z" stroke="white" stroke-opacity="0.5" stroke-width="0.5" stroke-miterlimit="10"/>
<path d="M130.199 235.286L135.796 247.957C136.239 248.97 137.443 249.435 138.457 248.991L151.128 243.395C152.141 242.952 152.606 241.769 152.162 240.734L146.566 228.063C146.123 227.05 146.566 225.867 147.601 225.402L160.293 219.806C161.306 219.363 161.771 218.159 161.328 217.145L155.731 204.474C155.288 203.461 154.105 202.996 153.07 203.44L138.541 209.838L122.175 217.061L107.645 223.46C106.632 223.903 106.167 225.086 106.61 226.12L112.207 238.791C112.65 239.805 113.854 240.27 114.868 239.826L127.56 234.23C128.552 233.807 129.756 234.272 130.199 235.286Z" stroke="white" stroke-opacity="0.5" stroke-width="0.5" stroke-miterlimit="10"/>
<path d="M79.8122 235.749L67.1413 241.345C66.1277 241.789 65.6631 242.971 66.1066 244.006L71.7029 256.677C72.1463 257.691 73.329 258.155 74.3638 257.712L87.0346 252.115C88.0483 251.672 89.2309 252.115 89.6955 253.15L95.2918 265.821C95.7353 266.835 96.9179 267.299 97.9527 266.856L110.624 261.26C111.637 260.816 112.102 259.633 111.658 258.599L105.26 244.069L98.0372 227.703L91.6384 213.174C91.1949 212.16 90.0123 211.695 88.9775 212.139L76.3066 217.735C75.2929 218.179 74.8283 219.361 75.2718 220.396L80.8681 233.088C81.2905 234.123 80.8259 235.305 79.8122 235.749Z" stroke="white" stroke-opacity="0.5" stroke-width="0.5" stroke-miterlimit="10"/>
<path d="M182.107 140.063L176.51 127.392C176.067 126.379 174.884 125.914 173.85 126.358L161.179 131.954C160.165 132.397 159.7 133.58 160.144 134.615L165.74 147.286C166.184 148.299 165.719 149.482 164.705 149.947L152.013 155.543C151 155.986 150.535 157.19 150.979 158.204L156.575 170.875C157.018 171.888 158.201 172.353 159.215 171.909L173.744 165.511L190.111 158.288L204.64 151.889C205.653 151.446 206.118 150.263 205.675 149.228L200.078 136.558C199.635 135.544 198.431 135.079 197.417 135.523L184.725 141.119C183.733 141.541 182.55 141.077 182.107 140.063Z" stroke="white" stroke-opacity="0.5" stroke-width="0.5" stroke-miterlimit="10"/>
<path d="M232.474 139.578L245.145 133.982C246.159 133.538 246.623 132.355 246.18 131.321L240.584 118.65C240.14 117.636 238.957 117.171 237.923 117.615L225.252 123.211C224.238 123.655 223.056 123.19 222.591 122.176L216.995 109.506C216.551 108.492 215.369 108.027 214.334 108.471L201.663 114.067C200.649 114.511 200.185 115.693 200.628 116.728L207.027 131.257L214.249 147.624L220.648 162.153C221.092 163.167 222.274 163.631 223.309 163.188L235.98 157.592C236.994 157.148 237.458 155.966 237.015 154.931L231.418 142.239C231.017 141.225 231.461 140.021 232.474 139.578Z" stroke="white" stroke-opacity="0.5" stroke-width="0.5" stroke-miterlimit="10"/>
<path d="M232.961 189.965L238.557 202.636C239.001 203.65 240.205 204.115 241.218 203.671L253.889 198.075C254.903 197.631 255.367 196.449 254.924 195.414L249.328 182.743C248.884 181.729 249.349 180.547 250.362 180.082L263.055 174.486C264.068 174.042 264.533 172.839 264.089 171.825L258.493 159.154C258.05 158.14 256.867 157.676 255.832 158.119L241.303 164.518L224.936 171.74L210.407 178.139C209.393 178.583 208.929 179.765 209.372 180.8L214.968 193.471C215.412 194.485 216.616 194.949 217.629 194.506L230.321 188.909C231.314 188.487 232.518 188.952 232.961 189.965Z" stroke="white" stroke-opacity="0.5" stroke-width="0.5" stroke-miterlimit="10"/>
<path d="M182.569 190.431L169.898 196.027C168.884 196.47 168.42 197.653 168.863 198.688L174.46 211.359C174.903 212.372 176.086 212.837 177.121 212.393L189.791 206.797C190.805 206.354 191.988 206.818 192.452 207.832L198.049 220.503C198.492 221.516 199.675 221.981 200.71 221.538L213.402 215.941C214.415 215.498 214.88 214.315 214.436 213.28L208.038 198.751L200.815 182.385L194.416 167.855C193.973 166.842 192.79 166.377 191.755 166.82L179.085 172.417C178.071 172.86 177.606 174.043 178.05 175.078L183.646 187.77C184.047 188.804 183.583 189.987 182.569 190.431Z" stroke="white" stroke-opacity="0.5" stroke-width="0.5" stroke-miterlimit="10"/>
<path d="M280.18 97.0456L274.584 84.3748C274.14 83.3611 272.936 82.8965 271.923 83.34L259.231 88.9363C258.217 89.3797 257.753 90.5624 258.196 91.5972L263.792 104.268C264.236 105.282 263.771 106.464 262.758 106.929L250.087 112.525C249.073 112.969 248.608 114.172 249.052 115.186L254.648 127.857C255.092 128.871 256.274 129.335 257.288 128.892L271.817 122.493L288.184 115.271L302.713 108.872C303.727 108.428 304.191 107.225 303.748 106.211L298.152 93.54C297.708 92.5263 296.504 92.0618 295.491 92.5052L282.82 98.1015C281.806 98.5239 280.623 98.0593 280.18 97.0456Z" stroke="white" stroke-opacity="0.5" stroke-width="0.5" stroke-miterlimit="10"/>
<path d="M330.568 96.5618L343.239 90.9655C344.252 90.522 344.717 89.3394 344.274 88.3047L338.677 75.6126C338.234 74.599 337.051 74.1344 336.016 74.5779L323.346 80.1742C322.332 80.6176 321.149 80.153 320.685 79.1394L315.088 66.4685C314.645 65.4548 313.462 64.9902 312.427 65.4337L299.757 71.03C298.743 71.4735 298.278 72.6561 298.722 73.6909L305.121 88.2202L312.343 104.587L318.742 119.116C319.185 120.13 320.368 120.594 321.403 120.151L334.074 114.554C335.087 114.111 335.552 112.907 335.108 111.894L329.512 99.2227C329.09 98.2091 329.533 97.0053 330.568 96.5618Z" stroke="white" stroke-opacity="0.5" stroke-width="0.5" stroke-miterlimit="10"/>
<path d="M331.032 146.948L336.629 159.619C337.072 160.632 338.276 161.097 339.29 160.653L351.982 155.057C352.995 154.614 353.46 153.431 353.016 152.396L347.42 139.725C346.977 138.712 347.441 137.529 348.455 137.065L361.126 131.468C362.139 131.025 362.604 129.842 362.161 128.807L356.564 116.136C356.121 115.123 354.938 114.658 353.903 115.102L339.374 121.5L323.008 128.723L308.478 135.122C307.465 135.565 307 136.769 307.443 137.783L313.04 150.453C313.483 151.467 314.666 151.932 315.701 151.488L328.372 145.892C329.406 145.47 330.589 145.934 331.032 146.948Z" stroke="white" stroke-opacity="0.5" stroke-width="0.5" stroke-miterlimit="10"/>
<path d="M280.646 147.413L267.975 153.01C266.962 153.453 266.497 154.636 266.941 155.67L272.537 168.362C272.98 169.376 274.163 169.841 275.198 169.397L287.869 163.801C288.882 163.357 290.065 163.822 290.529 164.836L296.126 177.507C296.569 178.52 297.752 178.985 298.787 178.541L311.458 172.945C312.471 172.502 312.936 171.319 312.492 170.284L306.094 155.755L298.871 139.388L292.472 124.859C292.029 123.845 290.846 123.381 289.811 123.824L277.141 129.421C276.127 129.864 275.662 131.068 276.106 132.082L281.702 144.752C282.124 145.787 281.66 146.97 280.646 147.413Z" stroke="white" stroke-opacity="0.5" stroke-width="0.5" stroke-miterlimit="10"/>
<path d="M382.943 51.7253L377.346 39.0544C376.903 38.0408 375.72 37.5762 374.685 38.0196L361.993 43.616C360.98 44.0594 360.515 45.2421 360.959 46.2768L366.555 58.9477C366.998 59.9614 366.534 61.144 365.52 61.6086L352.849 67.2049C351.836 67.6484 351.371 68.831 351.815 69.8658L357.411 82.5367C357.854 83.5503 359.037 84.0149 360.051 83.5715L374.58 77.1727L390.946 69.9503L405.476 63.5515C406.489 63.108 406.954 61.9043 406.511 60.8906L400.914 48.2197C400.471 47.206 399.267 46.7414 398.253 47.1849L385.582 52.7812C384.569 53.2036 383.386 52.739 382.943 51.7253Z" stroke="white" stroke-opacity="0.5" stroke-width="0.5" stroke-miterlimit="10"/>
<path d="M-27.1108 427.397L-21.5144 440.068C-21.0709 441.082 -19.8672 441.547 -18.8536 441.103L-6.18268 435.507C-5.16901 435.063 -4.70437 433.881 -5.14785 432.867L-10.7442 420.196C-11.1877 419.182 -10.723 418 -9.70938 417.535L2.98258 411.939C3.99625 411.495 4.46089 410.313 4.01741 409.278L-1.57895 396.607C-2.02243 395.593 -3.20504 395.129 -4.21871 395.572L-18.7479 401.971L-35.1145 409.194L-49.6438 415.592C-50.6574 416.036 -51.1221 417.218 -50.6786 418.253L-45.0822 430.924C-44.6388 431.938 -43.4351 432.402 -42.4214 431.959L-29.7294 426.363C-28.758 425.94 -27.5754 426.384 -27.1108 427.397Z" stroke="white" stroke-opacity="0.5" stroke-width="0.5" stroke-miterlimit="10"/>
<path d="M24.7982 332.176L19.2019 319.506C18.7584 318.492 17.5547 318.027 16.541 318.471L3.87012 324.067C2.85645 324.511 2.39188 325.693 2.83536 326.728L8.43165 339.399C8.87513 340.413 8.41049 341.595 7.39682 342.06L-5.29514 347.656C-6.30881 348.1 -6.77345 349.282 -6.32997 350.317L-0.733613 362.988C-0.290133 364.002 0.892439 364.466 1.92723 364.023L16.4565 357.624L32.8231 350.401L47.3523 344.003C48.366 343.559 48.8306 342.355 48.3871 341.342L42.7908 328.671C42.3473 327.657 41.1436 327.193 40.1299 327.636L27.438 333.232C26.4243 333.655 25.2417 333.19 24.7982 332.176Z" stroke="white" stroke-opacity="0.5" stroke-width="0.5" stroke-miterlimit="10"/>
<path d="M75.1653 331.71L87.8362 326.114C88.8498 325.67 89.3144 324.467 88.8709 323.453L83.2746 310.782C82.8312 309.769 81.6485 309.304 80.6137 309.747L67.9428 315.344C66.9292 315.787 65.7465 315.323 65.2819 314.309L59.6857 301.617C59.2422 300.603 58.0595 300.139 57.0247 300.582L44.3328 306.178C43.3191 306.622 42.8545 307.805 43.298 308.839L49.6968 323.369L56.9192 339.735L63.318 354.264C63.7615 355.278 64.9441 355.743 65.9789 355.299L78.6498 349.703C79.6634 349.259 80.128 348.077 79.6845 347.042L74.0882 334.35C73.687 333.336 74.1516 332.154 75.1653 331.71Z" stroke="white" stroke-opacity="0.5" stroke-width="0.5" stroke-miterlimit="10"/>
<path d="M75.6519 382.098L81.2482 394.769C81.6917 395.782 82.8743 396.247 83.9091 395.804L96.58 390.207C97.5937 389.764 98.0583 388.581 97.6148 387.546L92.0185 374.875C91.575 373.862 92.0396 372.679 93.0533 372.215L105.745 366.618C106.759 366.175 107.224 364.992 106.78 363.957L101.184 351.265C100.74 350.252 99.5577 349.787 98.544 350.231L84.0147 356.629L67.6481 363.852L53.1189 370.251C52.1053 370.694 51.6406 371.877 52.0841 372.911L57.6804 385.582C58.1239 386.596 59.3276 387.061 60.3413 386.617L73.0122 381.021C74.0047 380.62 75.1873 381.063 75.6519 382.098Z" stroke="white" stroke-opacity="0.5" stroke-width="0.5" stroke-miterlimit="10"/>
<path d="M25.2644 382.564L12.5935 388.16C11.5799 388.603 11.1152 389.807 11.5587 390.821L17.1551 403.492C17.5985 404.505 18.7811 404.97 19.8159 404.527L32.4868 398.93C33.5004 398.487 34.6831 398.951 35.1477 399.965L40.744 412.657C41.1875 413.671 42.3701 414.135 43.4049 413.692L56.0758 408.095C57.0894 407.652 57.554 406.469 57.1105 405.435L50.7117 390.905L43.4894 374.539L37.0906 360.01C36.6471 358.996 35.4645 358.531 34.4297 358.975L21.7377 364.571C20.724 365.014 20.2594 366.197 20.7029 367.232L26.2992 379.924C26.7427 380.916 26.2781 382.12 25.2644 382.564Z" stroke="white" stroke-opacity="0.5" stroke-width="0.5" stroke-miterlimit="10"/>
<path d="M124.666 288.145L119.07 275.474C118.627 274.461 117.423 273.996 116.409 274.44L103.738 280.036C102.725 280.479 102.26 281.662 102.703 282.697L108.3 295.368C108.743 296.381 108.279 297.564 107.265 298.029L94.573 303.625C93.5593 304.068 93.0947 305.272 93.5382 306.286L99.1345 318.957C99.578 319.97 100.761 320.435 101.795 319.991L116.325 313.593L132.691 306.37L147.221 299.971C148.234 299.528 148.699 298.324 148.255 297.311L142.659 284.64C142.216 283.626 141.012 283.161 139.998 283.605L127.306 289.201C126.292 289.623 125.11 289.159 124.666 288.145Z" stroke="white" stroke-opacity="0.5" stroke-width="0.5" stroke-miterlimit="10"/>
<path d="M175.032 287.659L187.703 282.063C188.716 281.62 189.181 280.437 188.737 279.402L183.141 266.731C182.698 265.718 181.515 265.253 180.48 265.697L167.809 271.293C166.796 271.736 165.613 271.272 165.149 270.258L159.552 257.566C159.109 256.552 157.926 256.088 156.891 256.531L144.22 262.128C143.207 262.571 142.742 263.754 143.186 264.789L149.584 279.318L156.807 295.684L163.206 310.214C163.649 311.227 164.832 311.692 165.867 311.248L178.537 305.652C179.551 305.209 180.016 304.026 179.572 302.991L173.976 290.299C173.554 289.307 174.018 288.124 175.032 287.659Z" stroke="white" stroke-opacity="0.5" stroke-width="0.5" stroke-miterlimit="10"/>
<path d="M175.518 338.045L181.114 350.716C181.558 351.73 182.741 352.195 183.775 351.751L196.467 346.155C197.481 345.711 197.946 344.529 197.502 343.494L191.906 330.823C191.462 329.809 191.927 328.627 192.941 328.162L205.611 322.566C206.625 322.122 207.09 320.94 206.646 319.905L201.05 307.234C200.606 306.22 199.424 305.756 198.41 306.199L183.881 312.598L167.514 319.821L152.985 326.219C151.971 326.663 151.507 327.845 151.95 328.88L157.547 341.551C157.99 342.565 159.194 343.029 160.208 342.586L172.878 336.99C173.871 336.567 175.075 337.032 175.518 338.045Z" stroke="white" stroke-opacity="0.5" stroke-width="0.5" stroke-miterlimit="10"/>
<path d="M125.132 338.511L112.461 344.107C111.447 344.551 110.982 345.754 111.426 346.768L117.022 359.439C117.466 360.453 118.648 360.917 119.683 360.474L132.354 354.877C133.368 354.434 134.55 354.899 135.015 355.912L140.611 368.604C141.055 369.618 142.237 370.083 143.272 369.639L155.943 364.043C156.957 363.599 157.421 362.417 156.978 361.382L150.579 346.853L143.357 330.486L136.958 315.957C136.514 314.943 135.332 314.479 134.297 314.922L121.605 320.518C120.591 320.962 120.127 322.144 120.57 323.179L126.166 335.871C126.61 336.885 126.145 338.067 125.132 338.511Z" stroke="white" stroke-opacity="0.5" stroke-width="0.5" stroke-miterlimit="10"/>
<path d="M227.426 242.825L221.83 230.154C221.387 229.14 220.183 228.676 219.169 229.119L206.498 234.716C205.485 235.159 205.02 236.342 205.464 237.376L211.06 250.047C211.503 251.061 211.039 252.244 210.025 252.708L197.354 258.305C196.341 258.748 195.876 259.931 196.319 260.965L201.916 273.636C202.359 274.65 203.542 275.115 204.577 274.671L219.106 268.272L235.472 261.05L250.002 254.651C251.015 254.208 251.48 253.025 251.037 251.99L245.44 239.319C244.997 238.306 243.814 237.841 242.779 238.285L230.108 243.881C229.053 244.303 227.87 243.839 227.426 242.825Z" stroke="white" stroke-opacity="0.5" stroke-width="0.5" stroke-miterlimit="10"/>
<path d="M277.793 242.337L290.463 236.741C291.477 236.297 291.942 235.115 291.498 234.08L285.902 221.409C285.458 220.395 284.276 219.931 283.241 220.374L270.57 225.971C269.556 226.414 268.374 225.95 267.909 224.936L262.313 212.244C261.869 211.23 260.687 210.766 259.652 211.209L246.981 216.805C245.968 217.249 245.503 218.432 245.946 219.466L252.345 233.996L259.568 250.362L265.966 264.891C266.41 265.905 267.592 266.37 268.627 265.926L281.298 260.33C282.312 259.886 282.776 258.704 282.333 257.669L276.737 244.977C276.335 243.984 276.779 242.802 277.793 242.337Z" stroke="white" stroke-opacity="0.5" stroke-width="0.5" stroke-miterlimit="10"/>
<path d="M278.278 292.725L283.874 305.396C284.318 306.409 285.521 306.874 286.535 306.43L299.227 300.834C300.241 300.391 300.705 299.208 300.262 298.173L294.666 285.502C294.222 284.489 294.687 283.306 295.7 282.842L308.371 277.245C309.385 276.802 309.85 275.619 309.406 274.584L303.81 261.892C303.366 260.879 302.184 260.414 301.17 260.858L286.641 267.256L270.274 274.479L255.745 280.878C254.731 281.321 254.267 282.504 254.71 283.538L260.306 296.209C260.75 297.223 261.954 297.688 262.967 297.244L275.638 291.648C276.631 291.247 277.834 291.711 278.278 292.725Z" stroke="white" stroke-opacity="0.5" stroke-width="0.5" stroke-miterlimit="10"/>
<path d="M227.891 293.191L215.22 298.787C214.207 299.23 213.742 300.434 214.186 301.448L219.782 314.119C220.225 315.132 221.408 315.597 222.443 315.154L235.114 309.557C236.127 309.114 237.31 309.578 237.775 310.592L243.371 323.284C243.814 324.298 244.997 324.762 246.032 324.319L258.703 318.722C259.716 318.279 260.181 317.096 259.737 316.062L253.339 301.532L246.116 285.166L239.717 270.636C239.274 269.623 238.091 269.158 237.057 269.602L224.386 275.198C223.372 275.641 222.907 276.824 223.351 277.859L228.947 290.551C229.37 291.565 228.905 292.747 227.891 293.191Z" stroke="white" stroke-opacity="0.5" stroke-width="0.5" stroke-miterlimit="10"/>
<path d="M327.294 198.772L321.698 186.101C321.254 185.088 320.051 184.623 319.037 185.067L306.345 190.663C305.331 191.106 304.867 192.31 305.31 193.324L310.907 205.995C311.35 207.008 310.885 208.191 309.872 208.655L297.201 214.252C296.187 214.695 295.723 215.899 296.166 216.913L301.762 229.584C302.206 230.597 303.389 231.062 304.423 230.618L318.953 224.22L335.319 216.997L349.848 210.598C350.862 210.155 351.327 208.972 350.883 207.937L345.287 195.267C344.843 194.253 343.661 193.788 342.626 194.232L329.955 199.828C328.92 200.25 327.738 199.786 327.294 198.772Z" stroke="white" stroke-opacity="0.5" stroke-width="0.5" stroke-miterlimit="10"/>
<path d="M377.682 198.308L390.353 192.712C391.367 192.268 391.831 191.086 391.388 190.051L385.792 177.38C385.348 176.366 384.165 175.902 383.131 176.345L370.46 181.941C369.446 182.385 368.264 181.92 367.799 180.907L362.203 168.215C361.759 167.201 360.576 166.736 359.542 167.18L346.871 172.776C345.857 173.22 345.393 174.402 345.836 175.437L352.235 189.966L359.457 206.333L365.856 220.862C366.3 221.876 367.482 222.34 368.517 221.897L381.188 216.301C382.201 215.857 382.666 214.674 382.223 213.64L376.626 200.948C376.204 199.934 376.647 198.751 377.682 198.308Z" stroke="white" stroke-opacity="0.5" stroke-width="0.5" stroke-miterlimit="10"/>
<path d="M378.147 248.672L383.743 261.343C384.187 262.357 385.391 262.822 386.404 262.378L399.096 256.782C400.11 256.338 400.574 255.156 400.131 254.121L394.535 241.45C394.091 240.436 394.556 239.254 395.57 238.789L408.24 233.193C409.254 232.749 409.719 231.567 409.275 230.532L403.679 217.861C403.235 216.847 402.053 216.383 401.039 216.826L386.51 223.225L370.143 230.447L355.614 236.846C354.6 237.29 354.136 238.472 354.579 239.507L360.176 252.178C360.619 253.192 361.823 253.656 362.836 253.213L375.507 247.617C376.521 247.215 377.704 247.659 378.147 248.672Z" stroke="white" stroke-opacity="0.5" stroke-width="0.5" stroke-miterlimit="10"/>
<path d="M327.758 249.159L315.087 254.756C314.073 255.199 313.608 256.403 314.052 257.417L319.648 270.087C320.092 271.101 321.274 271.566 322.309 271.122L334.98 265.526C335.994 265.082 337.176 265.547 337.641 266.561L343.237 279.253C343.681 280.266 344.863 280.731 345.898 280.288L358.569 274.691C359.583 274.248 360.047 273.065 359.604 272.03L353.205 257.501L345.982 241.134L339.584 226.605C339.14 225.592 337.958 225.127 336.923 225.57L324.252 231.167C323.238 231.61 322.774 232.793 323.217 233.828L328.813 246.52C329.236 247.512 328.771 248.716 327.758 249.159Z" stroke="white" stroke-opacity="0.5" stroke-width="0.5" stroke-miterlimit="10"/>
<path d="M17.7242 479.79L30.395 474.194C31.4087 473.751 31.8733 472.547 31.4298 471.533L25.8335 458.862C25.39 457.849 24.2074 457.384 23.1726 457.827L10.5017 463.424C9.48807 463.867 8.3055 463.403 7.8409 462.389L2.2446 449.697C1.80112 448.683 0.618487 448.219 -0.416302 448.662L-13.0872 454.259C-14.1009 454.702 -14.5654 455.885 -14.122 456.919L-7.72316 471.449L-0.500792 487.815L5.898 502.344C6.34148 503.358 7.52412 503.823 8.55891 503.379L21.2298 497.783C22.2435 497.34 22.708 496.157 22.2646 495.122L16.6683 482.43C16.2459 481.416 16.7105 480.234 17.7242 479.79Z" stroke="white" stroke-opacity="0.5" stroke-width="0.5" stroke-miterlimit="10"/>
<path d="M18.2086 530.18L23.8049 542.851C24.2484 543.864 25.4521 544.329 26.4657 543.886L39.1577 538.289C40.1714 537.846 40.636 536.663 40.1925 535.628L34.5962 522.957C34.1527 521.944 34.6174 520.761 35.631 520.297L48.3019 514.7C49.3156 514.257 49.7802 513.074 49.3367 512.039L43.7404 499.347C43.2969 498.334 42.1143 497.869 41.1006 498.313L26.5714 504.711L10.2048 511.934L-4.32449 518.333C-5.33816 518.776 -5.80274 519.959 -5.35926 520.993L0.237037 533.664C0.680517 534.678 1.88427 535.143 2.89794 534.699L15.5688 529.103C16.5614 528.702 17.744 529.145 18.2086 530.18Z" stroke="white" stroke-opacity="0.5" stroke-width="0.5" stroke-miterlimit="10"/>
<path d="M-32.178 530.644L-44.8489 536.24C-45.8626 536.684 -46.3272 537.887 -45.8837 538.901L-40.2874 551.572C-39.8439 552.586 -38.6613 553.05 -37.6265 552.607L-24.9556 547.01C-23.9419 546.567 -22.7593 547.031 -22.2948 548.045L-16.6984 560.737C-16.2549 561.751 -15.0723 562.215 -14.0376 561.772L-1.36667 556.176C-0.353004 555.732 0.111638 554.549 -0.331842 553.515L-6.73063 538.985L-13.9531 522.619L-20.3519 508.09C-20.7953 507.076 -21.978 506.611 -23.0128 507.055L-35.6836 512.651C-36.6973 513.095 -37.1619 514.277 -36.7184 515.312L-31.1221 528.004C-30.6998 529.018 -31.1644 530.2 -32.178 530.644Z" stroke="white" stroke-opacity="0.5" stroke-width="0.5" stroke-miterlimit="10"/>
<path d="M70.1165 434.934L64.5202 422.263C64.0767 421.25 62.873 420.785 61.8593 421.229L49.1673 426.825C48.1536 427.268 47.689 428.451 48.1325 429.486L53.7288 442.157C54.1723 443.17 53.7077 444.353 52.694 444.818L40.0232 450.414C39.0095 450.857 38.5449 452.04 38.9884 453.075L44.5847 465.746C45.0282 466.759 46.2108 467.224 47.2245 466.78L61.7537 460.382L78.1203 453.159L92.6496 446.76C93.6633 446.317 94.1278 445.134 93.6844 444.1L88.0881 431.429C87.6446 430.415 86.4408 429.95 85.4272 430.394L72.7563 435.99C71.7426 436.413 70.56 435.969 70.1165 434.934Z" stroke="white" stroke-opacity="0.5" stroke-width="0.5" stroke-miterlimit="10"/>
<path d="M120.486 434.47L133.157 428.874C134.17 428.43 134.635 427.227 134.192 426.213L128.595 413.542C128.152 412.528 126.969 412.064 125.934 412.507L113.264 418.103C112.25 418.547 111.067 418.082 110.603 417.069L105.006 404.377C104.563 403.363 103.38 402.898 102.345 403.342L89.6746 408.938C88.6609 409.382 88.1963 410.564 88.6398 411.599L95.0385 426.128L102.261 442.495L108.66 457.024C109.103 458.038 110.286 458.503 111.321 458.059L123.992 452.463C125.005 452.019 125.47 450.837 125.026 449.802L119.43 437.11C119.008 436.096 119.472 434.914 120.486 434.47Z" stroke="white" stroke-opacity="0.5" stroke-width="0.5" stroke-miterlimit="10"/>
<path d="M120.969 484.856L126.566 497.527C127.009 498.541 128.213 499.005 129.226 498.562L141.918 492.965C142.932 492.522 143.397 491.339 142.953 490.305L137.357 477.634C136.913 476.62 137.378 475.437 138.392 474.973L151.063 469.376C152.076 468.933 152.541 467.729 152.097 466.716L146.501 454.045C146.058 453.031 144.875 452.566 143.861 453.01L129.332 459.409L112.966 466.631L98.4363 473.03C97.4226 473.473 96.958 474.677 97.4015 475.691L102.998 488.362C103.441 489.375 104.624 489.84 105.659 489.396L118.33 483.8C119.322 483.378 120.505 483.842 120.969 484.856Z" stroke="white" stroke-opacity="0.5" stroke-width="0.5" stroke-miterlimit="10"/>
<path d="M70.5808 485.325L57.9099 490.922C56.8962 491.365 56.4316 492.548 56.8751 493.583L62.4714 506.253C62.9149 507.267 64.0975 507.732 65.1323 507.288L77.8032 501.692C78.8169 501.248 79.9994 501.713 80.464 502.727L86.0603 515.419C86.5038 516.432 87.6865 516.897 88.7212 516.454L101.392 510.857C102.406 510.414 102.87 509.231 102.427 508.196L96.0281 493.667L88.8057 477.3L82.4069 462.771C81.9635 461.758 80.7808 461.293 79.746 461.736L67.0752 467.333C66.0615 467.776 65.5969 468.959 66.0404 469.994L71.6367 482.665C72.059 483.699 71.5944 484.882 70.5808 485.325Z" stroke="white" stroke-opacity="0.5" stroke-width="0.5" stroke-miterlimit="10"/>
<path d="M169.986 390.905L164.389 378.234C163.946 377.22 162.742 376.756 161.729 377.199L149.036 382.796C148.023 383.239 147.558 384.422 148.002 385.457L153.598 398.127C154.041 399.141 153.577 400.324 152.563 400.788L139.892 406.385C138.879 406.828 138.414 408.011 138.858 409.045L144.454 421.737C144.897 422.751 146.08 423.216 147.094 422.772L161.623 416.373L177.989 409.151L192.519 402.752C193.532 402.309 193.997 401.126 193.554 400.091L187.957 387.421C187.514 386.407 186.31 385.942 185.296 386.386L172.625 391.982C171.612 392.383 170.429 391.919 169.986 390.905Z" stroke="white" stroke-opacity="0.5" stroke-width="0.5" stroke-miterlimit="10"/>
<path d="M220.353 390.417L233.024 384.821C234.038 384.378 234.502 383.174 234.059 382.16L228.462 369.489C228.019 368.476 226.836 368.011 225.802 368.454L213.131 374.051C212.117 374.494 210.934 374.03 210.47 373.016L204.874 360.324C204.43 359.31 203.247 358.846 202.213 359.289L189.542 364.886C188.528 365.329 188.063 366.512 188.507 367.546L194.906 382.076L202.128 398.442L208.527 412.971C208.97 413.985 210.153 414.45 211.188 414.006L223.859 408.41C224.872 407.966 225.337 406.784 224.894 405.749L219.297 393.057C218.875 392.065 219.339 390.882 220.353 390.417Z" stroke="white" stroke-opacity="0.5" stroke-width="0.5" stroke-miterlimit="10"/>
<path d="M220.838 440.809L226.434 453.48C226.878 454.494 228.082 454.958 229.095 454.515L241.787 448.919C242.801 448.475 243.266 447.292 242.822 446.258L237.226 433.587C236.782 432.573 237.247 431.39 238.261 430.926L250.931 425.33C251.945 424.886 252.41 423.682 251.966 422.669L246.37 409.998C245.926 408.984 244.744 408.52 243.709 408.963L229.18 415.362L212.813 422.584L198.284 428.983C197.27 429.426 196.806 430.63 197.249 431.644L202.845 444.315C203.289 445.328 204.472 445.793 205.506 445.35L218.177 439.753C219.191 439.331 220.395 439.795 220.838 440.809Z" stroke="white" stroke-opacity="0.5" stroke-width="0.5" stroke-miterlimit="10"/>
<path d="M170.45 441.294L157.779 446.89C156.765 447.334 156.301 448.538 156.744 449.551L162.341 462.222C162.784 463.236 163.967 463.701 165.001 463.257L177.672 457.661C178.686 457.217 179.869 457.682 180.333 458.696L185.93 471.388C186.373 472.401 187.556 472.866 188.59 472.422L201.261 466.826C202.275 466.383 202.74 465.2 202.296 464.165L195.897 449.636L188.675 433.269L182.276 418.74C181.833 417.726 180.65 417.262 179.615 417.705L166.944 423.301C165.931 423.745 165.466 424.928 165.91 425.962L171.506 438.654C171.928 439.647 171.464 440.83 170.45 441.294Z" stroke="white" stroke-opacity="0.5" stroke-width="0.5" stroke-miterlimit="10"/>
<path d="M272.746 345.587L267.15 332.916C266.707 331.902 265.524 331.437 264.489 331.881L251.797 337.477C250.784 337.921 250.319 339.103 250.762 340.117L256.359 352.788C256.802 353.802 256.338 354.984 255.324 355.449L242.653 361.045C241.639 361.489 241.175 362.671 241.618 363.706L247.215 376.377C247.658 377.391 248.841 377.855 249.854 377.412L264.384 371.013L280.75 363.79L295.279 357.392C296.293 356.948 296.758 355.766 296.314 354.731L290.718 342.06C290.274 341.046 289.071 340.582 288.057 341.025L275.386 346.621C274.373 347.065 273.19 346.6 272.746 345.587Z" stroke="white" stroke-opacity="0.5" stroke-width="0.5" stroke-miterlimit="10"/>
<path d="M323.113 345.097L335.784 339.501C336.797 339.057 337.262 337.853 336.819 336.84L331.222 324.169C330.779 323.155 329.596 322.691 328.561 323.134L315.89 328.73C314.877 329.174 313.694 328.709 313.23 327.696L307.633 315.004C307.19 313.99 306.007 313.525 304.972 313.969L292.301 319.565C291.288 320.009 290.823 321.191 291.267 322.226L297.666 336.755L304.888 353.122L311.287 367.651C311.73 368.665 312.913 369.129 313.948 368.686L326.64 363.09C327.653 362.646 328.118 361.464 327.674 360.429L322.078 347.737C321.656 346.744 322.099 345.562 323.113 345.097Z" stroke="white" stroke-opacity="0.5" stroke-width="0.5" stroke-miterlimit="10"/>
<path d="M323.6 395.489L329.196 408.16C329.64 409.173 330.843 409.638 331.857 409.195L344.528 403.598C345.542 403.155 346.006 401.972 345.563 400.937L339.966 388.266C339.523 387.253 339.987 386.07 341.001 385.606L353.693 380.009C354.707 379.566 355.171 378.362 354.728 377.348L349.132 364.677C348.688 363.664 347.506 363.199 346.471 363.643L331.941 370.042L315.575 377.264L301.046 383.663C300.032 384.106 299.567 385.31 300.011 386.324L305.607 398.994C306.051 400.008 307.233 400.473 308.268 400.029L320.939 394.433C321.953 394.011 323.156 394.475 323.6 395.489Z" stroke="white" stroke-opacity="0.5" stroke-width="0.5" stroke-miterlimit="10"/>
<path d="M273.214 395.974L260.543 401.571C259.529 402.014 259.064 403.197 259.508 404.231L265.104 416.923C265.548 417.937 266.73 418.402 267.765 417.958L280.436 412.362C281.45 411.918 282.632 412.383 283.097 413.397L288.693 426.089C289.137 427.102 290.319 427.567 291.354 427.123L304.025 421.527C305.039 421.084 305.503 419.901 305.06 418.866L298.661 404.337L291.439 387.97L285.04 373.441C284.596 372.427 283.414 371.963 282.379 372.406L269.708 378.003C268.694 378.446 268.23 379.629 268.673 380.664L274.27 393.334C274.692 394.327 274.227 395.51 273.214 395.974Z" stroke="white" stroke-opacity="0.5" stroke-width="0.5" stroke-miterlimit="10"/>
<path d="M372.613 301.532L367.016 288.861C366.573 287.847 365.39 287.383 364.355 287.826L351.663 293.423C350.65 293.866 350.185 295.049 350.629 296.083L356.225 308.754C356.668 309.768 356.204 310.951 355.19 311.415L342.519 317.012C341.506 317.455 341.041 318.638 341.484 319.672L347.081 332.343C347.524 333.357 348.707 333.822 349.721 333.378L364.25 326.979L380.616 319.757L395.146 313.358C396.159 312.915 396.624 311.732 396.18 310.697L390.584 298.026C390.141 297.013 388.937 296.548 387.923 296.992L375.252 302.588C374.239 303.01 373.056 302.546 372.613 301.532Z" stroke="white" stroke-opacity="0.5" stroke-width="0.5" stroke-miterlimit="10"/>
<path d="M373.079 351.923L360.408 357.519C359.394 357.963 358.93 359.145 359.373 360.18L364.969 372.851C365.413 373.865 366.596 374.329 367.63 373.886L380.301 368.29C381.315 367.846 382.498 368.311 382.962 369.324L388.558 382.016C389.002 383.03 390.184 383.495 391.219 383.051L403.89 377.455C404.904 377.011 405.368 375.829 404.925 374.794L398.526 360.265L391.304 343.898L384.905 329.369C384.462 328.355 383.279 327.891 382.244 328.334L369.573 333.93C368.56 334.374 368.095 335.556 368.538 336.591L374.135 349.262C374.557 350.297 374.092 351.48 373.079 351.923Z" stroke="white" stroke-opacity="0.5" stroke-width="0.5" stroke-miterlimit="10"/>
<path d="M12.678 583.038L7.08174 570.367C6.63826 569.353 5.45569 568.889 4.4209 569.332L-8.27112 574.928C-9.28479 575.372 -9.74937 576.555 -9.30589 577.568L-3.7096 590.239C-3.26612 591.253 -3.73076 592.435 -4.74443 592.9L-17.4153 598.496C-18.429 598.94 -18.8936 600.122 -18.4501 601.157L-12.8538 613.828C-12.4103 614.842 -11.2277 615.306 -10.214 614.863L4.31527 608.464L20.6818 601.242L35.2111 594.843C36.2248 594.399 36.6894 593.217 36.2459 592.182L30.6496 579.511C30.2061 578.497 29.0023 578.033 27.9887 578.476L15.3178 584.073C14.3041 584.516 13.1215 584.052 12.678 583.038Z" stroke="white" stroke-opacity="0.5" stroke-width="0.5" stroke-miterlimit="10"/>
<path d="M63.0445 582.55L75.7154 576.954C76.729 576.51 77.1937 575.307 76.7502 574.293L71.1538 561.622C70.7104 560.608 69.5278 560.144 68.493 560.587L55.8221 566.184C54.8084 566.627 53.6258 566.162 53.1612 565.149L47.5649 552.457C47.1214 551.443 45.9388 550.979 44.904 551.422L32.2331 557.018C31.2195 557.462 30.7549 558.644 31.1984 559.679L37.5972 574.208L44.8195 590.575L51.2183 605.104C51.6618 606.118 52.8444 606.583 53.8792 606.139L66.5712 600.543C67.5849 600.099 68.0495 598.917 67.606 597.882L62.0097 585.19C61.5662 584.197 62.0308 582.994 63.0445 582.55Z" stroke="white" stroke-opacity="0.5" stroke-width="0.5" stroke-miterlimit="10"/>
<path d="M63.5295 632.94L69.1258 645.611C69.5693 646.625 70.773 647.089 71.7867 646.646L84.4576 641.049C85.4713 640.606 85.9358 639.423 85.4924 638.388L79.8961 625.718C79.4526 624.704 79.8961 623.521 80.9308 623.057L93.6229 617.46C94.6365 617.017 95.1011 615.813 94.6576 614.8L89.0613 602.129C88.6179 601.115 87.4352 600.65 86.4004 601.094L71.8711 607.493L55.5046 614.715L40.9754 621.114C39.9617 621.557 39.4971 622.761 39.9405 623.775L45.5369 636.446C45.9804 637.459 47.1841 637.924 48.1977 637.48L60.8898 631.884C61.8823 631.462 63.0649 631.926 63.5295 632.94Z" stroke="white" stroke-opacity="0.5" stroke-width="0.5" stroke-miterlimit="10"/>
<path d="M115.435 537.717L109.839 525.047C109.395 524.033 108.212 523.568 107.178 524.012L94.5068 529.608C93.4931 530.052 93.0285 531.234 93.472 532.269L99.0683 544.94C99.5118 545.954 99.0472 547.136 98.0335 547.601L85.3415 553.197C84.3279 553.641 83.8633 554.844 84.3068 555.858L89.9031 568.529C90.3465 569.543 91.5291 570.007 92.5428 569.564L107.072 563.165L123.439 555.942L137.968 549.544C138.982 549.1 139.446 547.896 139.003 546.883L133.406 534.212C132.963 533.198 131.759 532.734 130.746 533.177L118.054 538.773C117.061 539.196 115.878 538.731 115.435 537.717Z" stroke="white" stroke-opacity="0.5" stroke-width="0.5" stroke-miterlimit="10"/>
<path d="M165.804 537.234L178.475 531.637C179.489 531.194 179.953 530.011 179.51 528.977L173.914 516.284C173.47 515.271 172.288 514.806 171.253 515.25L158.582 520.846C157.568 521.289 156.386 520.825 155.921 519.811L150.325 507.14C149.881 506.127 148.699 505.662 147.664 506.106L134.993 511.702C133.979 512.145 133.515 513.328 133.958 514.363L140.357 528.892L147.579 545.259L153.978 559.788C154.422 560.802 155.604 561.266 156.639 560.823L169.31 555.226C170.324 554.783 170.788 553.579 170.345 552.565L164.748 539.895C164.326 538.881 164.791 537.677 165.804 537.234Z" stroke="white" stroke-opacity="0.5" stroke-width="0.5" stroke-miterlimit="10"/>
<path d="M166.288 587.62L171.885 600.291C172.328 601.304 173.532 601.769 174.546 601.325L187.216 595.729C188.23 595.286 188.695 594.103 188.251 593.068L182.655 580.397C182.211 579.384 182.676 578.201 183.69 577.736L196.382 572.14C197.395 571.697 197.86 570.493 197.416 569.479L191.82 556.808C191.377 555.795 190.194 555.33 189.159 555.774L174.63 562.172L158.263 569.395L143.734 575.794C142.72 576.237 142.256 577.441 142.699 578.454L148.296 591.125C148.739 592.139 149.943 592.604 150.957 592.16L163.649 586.564C164.641 586.141 165.824 586.606 166.288 587.62Z" stroke="white" stroke-opacity="0.5" stroke-width="0.5" stroke-miterlimit="10"/>
<path d="M115.902 588.081L103.231 593.678C102.218 594.121 101.753 595.304 102.196 596.338L107.793 609.03C108.236 610.044 109.419 610.509 110.454 610.065L123.124 604.469C124.138 604.025 125.321 604.49 125.785 605.504L131.382 618.175C131.825 619.188 133.008 619.653 134.043 619.209L146.735 613.613C147.748 613.17 148.213 611.987 147.769 610.952L141.371 596.423L134.148 580.056L127.749 565.527C127.306 564.513 126.123 564.049 125.088 564.492L112.418 570.089C111.404 570.532 110.939 571.715 111.383 572.75L116.979 585.42C117.38 586.455 116.916 587.638 115.902 588.081Z" stroke="white" stroke-opacity="0.5" stroke-width="0.5" stroke-miterlimit="10"/>
<path d="M215.304 493.667L209.708 480.996C209.264 479.982 208.06 479.518 207.047 479.961L194.376 485.557C193.362 486.001 192.898 487.183 193.341 488.197L198.937 500.868C199.381 501.882 198.916 503.064 197.903 503.529L185.211 509.125C184.197 509.569 183.732 510.751 184.176 511.786L189.772 524.457C190.216 525.471 191.398 525.935 192.412 525.492L206.941 519.093L223.308 511.871L237.837 505.472C238.851 505.028 239.315 503.846 238.872 502.811L233.276 490.14C232.832 489.126 231.628 488.662 230.615 489.105L217.923 494.701C216.93 495.145 215.747 494.68 215.304 493.667Z" stroke="white" stroke-opacity="0.5" stroke-width="0.5" stroke-miterlimit="10"/>
<path d="M265.67 493.2L278.341 487.604C279.355 487.161 279.819 485.957 279.376 484.943L273.779 472.272C273.336 471.259 272.153 470.794 271.119 471.238L258.448 476.834C257.434 477.277 256.251 476.813 255.787 475.799L250.19 463.107C249.747 462.093 248.564 461.629 247.53 462.072L234.838 467.669C233.824 468.112 233.359 469.295 233.803 470.33L240.202 484.859L247.424 501.225L253.823 515.755C254.266 516.768 255.449 517.233 256.484 516.789L269.155 511.193C270.168 510.75 270.633 509.567 270.189 508.532L264.593 495.84C264.192 494.827 264.656 493.644 265.67 493.2Z" stroke="white" stroke-opacity="0.5" stroke-width="0.5" stroke-miterlimit="10"/>
<path d="M266.158 543.569L271.754 556.24C272.198 557.253 273.401 557.718 274.415 557.275L287.086 551.678C288.099 551.235 288.564 550.052 288.121 549.017L282.524 536.347C282.081 535.333 282.545 534.15 283.559 533.686L296.251 528.089C297.265 527.646 297.729 526.442 297.286 525.428L291.69 512.758C291.246 511.744 290.064 511.279 289.05 511.723L274.521 518.122L258.154 525.344L243.625 531.743C242.611 532.186 242.146 533.39 242.59 534.404L248.186 547.075C248.63 548.088 249.833 548.553 250.847 548.109L263.539 542.513C264.511 542.091 265.693 542.555 266.158 543.569Z" stroke="white" stroke-opacity="0.5" stroke-width="0.5" stroke-miterlimit="10"/>
<path d="M215.768 544.054L203.097 549.651C202.084 550.094 201.619 551.277 202.063 552.311L207.659 565.003C208.102 566.017 209.285 566.482 210.32 566.038L222.991 560.442C224.004 559.998 225.187 560.463 225.652 561.477L231.248 574.169C231.691 575.182 232.874 575.647 233.909 575.203L246.601 569.607C247.614 569.164 248.079 567.981 247.636 566.946L241.237 552.417L234.014 536.051L227.616 521.521C227.172 520.508 225.989 520.043 224.955 520.486L212.284 526.083C211.27 526.526 210.805 527.709 211.249 528.744L216.845 541.414C217.247 542.407 216.782 543.59 215.768 544.054Z" stroke="white" stroke-opacity="0.5" stroke-width="0.5" stroke-miterlimit="10"/>
<path d="M318.067 448.346L312.47 435.676C312.027 434.662 310.823 434.197 309.81 434.641L297.139 440.237C296.125 440.681 295.66 441.863 296.104 442.898L301.7 455.569C302.144 456.582 301.679 457.765 300.665 458.23L287.973 463.826C286.96 464.269 286.495 465.473 286.939 466.487L292.535 479.158C292.978 480.171 294.161 480.636 295.196 480.193L309.725 473.794L326.092 466.571L340.621 460.173C341.635 459.729 342.099 458.525 341.656 457.512L336.059 444.841C335.616 443.827 334.412 443.363 333.398 443.806L320.706 449.402C319.693 449.825 318.51 449.36 318.067 448.346Z" stroke="white" stroke-opacity="0.5" stroke-width="0.5" stroke-miterlimit="10"/>
<path d="M368.431 447.882L381.102 442.286C382.115 441.842 382.58 440.66 382.137 439.625L376.54 426.933C376.097 425.919 374.914 425.455 373.879 425.898L361.208 431.494C360.195 431.938 359.012 431.473 358.548 430.46L352.951 417.789C352.508 416.775 351.325 416.311 350.29 416.754L337.598 422.35C336.585 422.794 336.12 423.976 336.564 425.011L342.962 439.54L350.185 455.907L356.584 470.436C357.027 471.45 358.21 471.915 359.244 471.471L371.915 465.875C372.929 465.431 373.394 464.228 372.95 463.214L367.354 450.543C366.974 449.508 367.417 448.326 368.431 447.882Z" stroke="white" stroke-opacity="0.5" stroke-width="0.5" stroke-miterlimit="10"/>
<path d="M368.92 498.249L374.516 510.92C374.959 511.933 376.142 512.398 377.177 511.954L389.848 506.358C390.861 505.915 391.326 504.732 390.882 503.697L385.286 491.026C384.843 490.013 385.307 488.83 386.321 488.365L399.013 482.769C400.027 482.326 400.491 481.122 400.048 480.108L394.451 467.437C394.008 466.424 392.825 465.959 391.812 466.402L377.282 472.801L360.916 480.024L346.387 486.422C345.373 486.866 344.908 488.07 345.352 489.083L350.948 501.754C351.392 502.768 352.595 503.233 353.609 502.789L366.28 497.193C367.293 496.77 368.476 497.235 368.92 498.249Z" stroke="white" stroke-opacity="0.5" stroke-width="0.5" stroke-miterlimit="10"/>
<path d="M318.533 498.736L305.862 504.332C304.848 504.775 304.384 505.958 304.827 506.993L310.424 519.685C310.867 520.698 312.05 521.163 313.084 520.72L325.755 515.123C326.769 514.68 327.952 515.144 328.416 516.158L334.012 528.829C334.456 529.843 335.639 530.307 336.673 529.864L349.344 524.267C350.358 523.824 350.823 522.641 350.379 521.606L343.98 507.077L336.758 490.711L330.359 476.181C329.916 475.168 328.733 474.703 327.698 475.147L315.006 480.743C313.992 481.186 313.528 482.39 313.971 483.404L319.568 496.075C320.011 497.088 319.547 498.271 318.533 498.736Z" stroke="white" stroke-opacity="0.5" stroke-width="0.5" stroke-miterlimit="10"/>
<path d="M260.623 596.428L255.027 583.758C254.584 582.744 253.38 582.279 252.366 582.723L239.674 588.319C238.661 588.763 238.196 589.945 238.639 590.98L244.236 603.651C244.679 604.664 244.215 605.847 243.201 606.312L230.53 611.908C229.516 612.351 229.052 613.555 229.495 614.569L235.092 627.24C235.535 628.253 236.718 628.718 237.752 628.275L252.282 621.876L268.648 614.653L283.178 608.255C284.191 607.811 284.656 606.607 284.212 605.594L278.616 592.923C278.173 591.909 276.99 591.445 275.955 591.888L263.284 597.484C262.249 597.907 261.067 597.442 260.623 596.428Z" stroke="white" stroke-opacity="0.5" stroke-width="0.5" stroke-miterlimit="10"/>
<path d="M310.992 595.962L323.663 590.366C324.676 589.922 325.141 588.74 324.697 587.705L319.101 575.013C318.658 573.999 317.475 573.535 316.44 573.978L303.769 579.575C302.756 580.018 301.573 579.553 301.108 578.54L295.512 565.869C295.069 564.855 293.886 564.391 292.851 564.834L280.18 570.43C279.167 570.874 278.702 572.056 279.146 573.091L285.544 587.621L292.767 603.987L299.166 618.516C299.609 619.53 300.792 619.995 301.826 619.551L314.497 613.955C315.511 613.511 315.976 612.329 315.532 611.294L309.936 598.623C309.513 597.588 309.978 596.406 310.992 595.962Z" stroke="white" stroke-opacity="0.5" stroke-width="0.5" stroke-miterlimit="10"/>
<path d="M363.386 551.108L357.79 538.437C357.346 537.424 356.143 536.959 355.129 537.402L342.437 542.999C341.423 543.442 340.959 544.625 341.402 545.66L346.998 558.331C347.442 559.344 346.977 560.527 345.964 560.991L333.293 566.588C332.279 567.031 331.814 568.235 332.258 569.249L337.854 581.92C338.298 582.933 339.48 583.398 340.494 582.954L355.023 576.555L371.39 569.333L385.919 562.934C386.933 562.491 387.397 561.287 386.954 560.273L381.358 547.603C380.914 546.589 379.71 546.124 378.697 546.568L366.026 552.164C365.012 552.586 363.83 552.122 363.386 551.108Z" stroke="white" stroke-opacity="0.5" stroke-width="0.5" stroke-miterlimit="10"/>
<path d="M363.848 601.495L351.177 607.092C350.164 607.535 349.699 608.739 350.143 609.752L355.739 622.423C356.182 623.437 357.365 623.902 358.4 623.458L371.071 617.862C372.084 617.418 373.267 617.883 373.732 618.897L379.328 631.589C379.771 632.602 380.954 633.067 381.989 632.623L394.66 627.027C395.673 626.584 396.138 625.401 395.695 624.366L389.296 609.837L382.073 593.47L375.675 578.941C375.231 577.927 374.048 577.463 373.014 577.906L360.343 583.503C359.329 583.946 358.864 585.129 359.308 586.164L364.904 598.856C365.327 599.848 364.862 601.052 363.848 601.495Z" stroke="white" stroke-opacity="0.5" stroke-width="0.5" stroke-miterlimit="10"/>
</g>
<defs>
<clipPath id="clip0_1771:10445">
<rect width="360" height="640" fill="white"/>
</clipPath>
</defs>
</svg>
